<svg xmlns="http://www.w3.org/2000/svg" xmlns:xlink="http://www.w3.org/1999/xlink" viewBox="0 0 380 100"><defs><style>.cls-1,.cls-10,.cls-11,.cls-12,.cls-13,.cls-14,.cls-15,.cls-18,.cls-21,.cls-26,.cls-28,.cls-29,.cls-31,.cls-8,.cls-9{fill:none;}.cls-17,.cls-2{fill:#f96673;}.cls-16,.cls-20,.cls-27,.cls-3{fill:#fff;}.cls-4{fill:#bb4d56;}.cls-20,.cls-5{opacity:0.2;}.cls-6{fill:url(#New_Pattern_2);}.cls-7{fill:#2b393f;}.cls-10,.cls-11,.cls-12,.cls-13,.cls-14,.cls-15,.cls-17,.cls-18,.cls-8,.cls-9{stroke:#2b393f;}.cls-10,.cls-11,.cls-12,.cls-13,.cls-14,.cls-15,.cls-17,.cls-18,.cls-21,.cls-26,.cls-27,.cls-28,.cls-29,.cls-31,.cls-8,.cls-9{stroke-miterlimit:10;}.cls-8{stroke-width:0.66px;}.cls-9{stroke-width:0.3px;}.cls-10{stroke-width:0.6px;}.cls-11{stroke-width:0.66px;}.cls-12{stroke-width:1.32px;}.cls-13{stroke-width:0.76px;}.cls-14{stroke-width:1.53px;}.cls-15{stroke-width:0.61px;}.cls-16{opacity:0.4;}.cls-17{stroke-width:0.81px;}.cls-18{stroke-width:0.57px;}.cls-19{fill:#feb21e;}.cls-21,.cls-26,.cls-27,.cls-28,.cls-29,.cls-31{stroke:#333;}.cls-21{stroke-width:2.43px;}.cls-22{fill:#48a69c;}.cls-23{fill:#41958c;}.cls-24{fill:#333;}.cls-25{fill:url(#New_Pattern_2-3);}.cls-26{stroke-width:1.24px;}.cls-27{stroke-width:1.02px;}.cls-28{stroke-width:1.14px;}.cls-29{stroke-linecap:round;stroke-width:0.65px;stroke-dasharray:0 1.4;}.cls-30{fill:url(#New_Pattern_2-5);}.cls-31{stroke-width:3.2px;}</style><pattern id="New_Pattern_2" data-name="New Pattern 2" width="145.86" height="150" patternTransform="translate(673.61 9.17) scale(0.24 0.1)" patternUnits="userSpaceOnUse" viewBox="0 0 145.87 150"><rect class="cls-1" width="145.86" height="150"/><polygon class="cls-2" points="145.87 150 131.29 150 148.77 120 163.36 120 145.87 150"/><polygon class="cls-2" points="116.7 150 102.11 150 119.6 120 134.19 120 116.7 150"/><polygon class="cls-3" points="131.29 150 116.7 150 134.19 120 148.77 120 131.29 150"/><polygon class="cls-2" points="87.53 150 72.94 150 90.43 120 105.01 120 87.53 150"/><polygon class="cls-3" points="102.11 150 87.53 150 105.01 120 119.6 120 102.11 150"/><polygon class="cls-2" points="58.35 150 43.77 150 61.26 120 75.84 120 58.35 150"/><polygon class="cls-3" points="72.94 150 58.35 150 75.84 120 90.43 120 72.94 150"/><polygon class="cls-2" points="29.18 150 14.6 150 32.08 120 46.67 120 29.18 150"/><polygon class="cls-3" points="43.77 150 29.18 150 46.67 120 61.26 120 43.77 150"/><polygon class="cls-2" points="0.01 150 -14.58 150 2.91 120 17.5 120 0.01 150"/><polygon class="cls-3" points="14.6 150 0.01 150 17.5 120 32.08 120 14.6 150"/><polygon class="cls-3" points="-14.58 150 -29.16 150 -11.68 120 2.91 120 -14.58 150"/><polygon class="cls-2" points="134.2 120 119.62 120 137.1 90 151.69 90 134.2 120"/><polygon class="cls-3" points="148.79 120 134.2 120 151.69 90 166.28 90 148.79 120"/><polygon class="cls-2" points="105.03 120 90.44 120 107.93 90 122.52 90 105.03 120"/><polygon class="cls-3" points="119.62 120 105.03 120 122.52 90 137.1 90 119.62 120"/><polygon class="cls-2" points="75.86 120 61.27 120 78.76 90 93.34 90 75.86 120"/><polygon class="cls-3" points="90.44 120 75.86 120 93.34 90 107.93 90 90.44 120"/><polygon class="cls-2" points="46.69 120 32.1 120 49.59 90 64.17 90 46.69 120"/><polygon class="cls-3" points="61.27 120 46.69 120 64.17 90 78.76 90 61.27 120"/><polygon class="cls-2" points="17.51 120 2.93 120 20.41 90 35 90 17.51 120"/><polygon class="cls-3" points="32.1 120 17.51 120 35 90 49.59 90 32.1 120"/><polygon class="cls-2" points="-11.66 120 -26.25 120 -8.76 90 5.83 90 -11.66 120"/><polygon class="cls-3" points="2.93 120 -11.66 120 5.83 90 20.41 90 2.93 120"/><polygon class="cls-2" points="151.71 90 137.12 90 154.61 60 169.19 60 151.71 90"/><polygon class="cls-2" points="122.53 90 107.95 90 125.44 60 140.02 60 122.53 90"/><polygon class="cls-3" points="137.12 90 122.53 90 140.02 60 154.61 60 137.12 90"/><polygon class="cls-2" points="93.36 90 78.78 90 96.26 60 110.85 60 93.36 90"/><polygon class="cls-3" points="107.95 90 93.36 90 110.85 60 125.44 60 107.95 90"/><polygon class="cls-2" points="64.19 90 49.6 90 67.09 60 81.68 60 64.19 90"/><polygon class="cls-3" points="78.78 90 64.19 90 81.68 60 96.26 60 78.78 90"/><polygon class="cls-2" points="35.02 90 20.43 90 37.92 60 52.5 60 35.02 90"/><polygon class="cls-3" points="49.6 90 35.02 90 52.5 60 67.09 60 49.6 90"/><polygon class="cls-2" points="5.84 90 -8.74 90 8.74 60 23.33 60 5.84 90"/><polygon class="cls-3" points="20.43 90 5.84 90 23.33 60 37.92 60 20.43 90"/><polygon class="cls-3" points="-8.74 90 -23.33 90 -5.84 60 8.74 60 -8.74 90"/><polygon class="cls-2" points="140.04 60 125.45 60 142.94 30 157.53 30 140.04 60"/><polygon class="cls-3" points="154.63 60 140.04 60 157.53 30 172.11 30 154.63 60"/><polygon class="cls-2" points="110.87 60 96.28 60 113.77 30 128.35 30 110.87 60"/><polygon class="cls-3" points="125.45 60 110.87 60 128.35 30 142.94 30 125.45 60"/><polygon class="cls-2" points="81.69 60 67.11 60 84.59 30 99.18 30 81.69 60"/><polygon class="cls-3" points="96.28 60 81.69 60 99.18 30 113.77 30 96.28 60"/><polygon class="cls-2" points="52.52 60 37.93 60 55.42 30 70.01 30 52.52 60"/><polygon class="cls-3" points="67.11 60 52.52 60 70.01 30 84.59 30 67.11 60"/><polygon class="cls-2" points="23.35 60 8.76 60 26.25 30 40.83 30 23.35 60"/><polygon class="cls-3" points="37.93 60 23.35 60 40.83 30 55.42 30 37.93 60"/><polygon class="cls-2" points="-5.83 60 -20.41 60 -2.93 30 11.66 30 -5.83 60"/><polygon class="cls-3" points="8.76 60 -5.83 60 11.66 30 26.25 30 8.76 60"/><polygon class="cls-2" points="157.54 30 142.96 30 160.44 0 175.03 0 157.54 30"/><polygon class="cls-2" points="128.37 30 113.78 30 131.27 0 145.86 0 128.37 30"/><polygon class="cls-3" points="142.96 30 128.37 30 145.86 0 160.44 0 142.96 30"/><polygon class="cls-2" points="99.2 30 84.61 30 102.1 0 116.68 0 99.2 30"/><polygon class="cls-3" points="113.78 30 99.2 30 116.68 0 131.27 0 113.78 30"/><polygon class="cls-2" points="70.02 30 55.44 30 72.92 0 87.51 0 70.02 30"/><polygon class="cls-3" points="84.61 30 70.02 30 87.51 0 102.1 0 84.61 30"/><polygon class="cls-2" points="40.85 30 26.26 30 43.75 0 58.34 0 40.85 30"/><polygon class="cls-3" points="55.44 30 40.85 30 58.34 0 72.92 0 55.44 30"/><polygon class="cls-2" points="11.68 30 -2.91 30 14.58 0 29.16 0 11.68 30"/><polygon class="cls-3" points="26.26 30 11.68 30 29.16 0 43.75 0 26.26 30"/><polygon class="cls-3" points="-2.91 30 -17.5 30 -0.01 0 14.58 0 -2.91 30"/></pattern><pattern id="New_Pattern_2-3" data-name="New Pattern 2" width="145.86" height="150" patternTransform="translate(453.16 49.49) scale(0.16)" patternUnits="userSpaceOnUse" viewBox="0 0 145.87 150"><rect class="cls-1" width="145.86" height="150"/><polygon class="cls-2" points="145.87 150 131.29 150 148.77 120 163.36 120 145.87 150"/><polygon class="cls-2" points="116.7 150 102.11 150 119.6 120 134.19 120 116.7 150"/><polygon class="cls-3" points="131.29 150 116.7 150 134.19 120 148.77 120 131.29 150"/><polygon class="cls-2" points="87.53 150 72.94 150 90.43 120 105.01 120 87.53 150"/><polygon class="cls-3" points="102.11 150 87.53 150 105.01 120 119.6 120 102.11 150"/><polygon class="cls-2" points="58.35 150 43.77 150 61.26 120 75.84 120 58.35 150"/><polygon class="cls-3" points="72.94 150 58.35 150 75.84 120 90.43 120 72.94 150"/><polygon class="cls-2" points="29.18 150 14.6 150 32.08 120 46.67 120 29.18 150"/><polygon class="cls-3" points="43.77 150 29.18 150 46.67 120 61.26 120 43.77 150"/><polygon class="cls-2" points="0.01 150 -14.58 150 2.91 120 17.5 120 0.01 150"/><polygon class="cls-3" points="14.6 150 0.01 150 17.5 120 32.08 120 14.6 150"/><polygon class="cls-3" points="-14.58 150 -29.16 150 -11.68 120 2.91 120 -14.58 150"/><polygon class="cls-2" points="134.2 120 119.62 120 137.1 90 151.69 90 134.2 120"/><polygon class="cls-3" points="148.79 120 134.2 120 151.69 90 166.28 90 148.79 120"/><polygon class="cls-2" points="105.03 120 90.44 120 107.93 90 122.52 90 105.03 120"/><polygon class="cls-3" points="119.62 120 105.03 120 122.52 90 137.1 90 119.62 120"/><polygon class="cls-2" points="75.86 120 61.27 120 78.76 90 93.34 90 75.86 120"/><polygon class="cls-3" points="90.44 120 75.86 120 93.34 90 107.93 90 90.44 120"/><polygon class="cls-2" points="46.69 120 32.1 120 49.59 90 64.17 90 46.69 120"/><polygon class="cls-3" points="61.27 120 46.69 120 64.17 90 78.76 90 61.27 120"/><polygon class="cls-2" points="17.51 120 2.93 120 20.41 90 35 90 17.51 120"/><polygon class="cls-3" points="32.1 120 17.51 120 35 90 49.59 90 32.1 120"/><polygon class="cls-2" points="-11.66 120 -26.25 120 -8.76 90 5.83 90 -11.66 120"/><polygon class="cls-3" points="2.93 120 -11.66 120 5.83 90 20.41 90 2.93 120"/><polygon class="cls-2" points="151.71 90 137.12 90 154.61 60 169.19 60 151.71 90"/><polygon class="cls-2" points="122.53 90 107.95 90 125.44 60 140.02 60 122.53 90"/><polygon class="cls-3" points="137.12 90 122.53 90 140.02 60 154.61 60 137.12 90"/><polygon class="cls-2" points="93.36 90 78.78 90 96.26 60 110.85 60 93.36 90"/><polygon class="cls-3" points="107.95 90 93.36 90 110.85 60 125.44 60 107.95 90"/><polygon class="cls-2" points="64.19 90 49.6 90 67.09 60 81.68 60 64.19 90"/><polygon class="cls-3" points="78.78 90 64.19 90 81.68 60 96.26 60 78.78 90"/><polygon class="cls-2" points="35.02 90 20.43 90 37.92 60 52.5 60 35.02 90"/><polygon class="cls-3" points="49.6 90 35.02 90 52.5 60 67.09 60 49.6 90"/><polygon class="cls-2" points="5.84 90 -8.74 90 8.74 60 23.33 60 5.84 90"/><polygon class="cls-3" points="20.43 90 5.84 90 23.33 60 37.92 60 20.43 90"/><polygon class="cls-3" points="-8.74 90 -23.33 90 -5.84 60 8.74 60 -8.74 90"/><polygon class="cls-2" points="140.04 60 125.45 60 142.94 30 157.53 30 140.04 60"/><polygon class="cls-3" points="154.63 60 140.04 60 157.53 30 172.11 30 154.63 60"/><polygon class="cls-2" points="110.87 60 96.28 60 113.77 30 128.35 30 110.87 60"/><polygon class="cls-3" points="125.45 60 110.87 60 128.35 30 142.94 30 125.45 60"/><polygon class="cls-2" points="81.69 60 67.11 60 84.59 30 99.18 30 81.69 60"/><polygon class="cls-3" points="96.28 60 81.69 60 99.18 30 113.77 30 96.28 60"/><polygon class="cls-2" points="52.52 60 37.93 60 55.42 30 70.01 30 52.52 60"/><polygon class="cls-3" points="67.11 60 52.52 60 70.01 30 84.59 30 67.11 60"/><polygon class="cls-2" points="23.35 60 8.76 60 26.25 30 40.83 30 23.35 60"/><polygon class="cls-3" points="37.93 60 23.35 60 40.83 30 55.42 30 37.93 60"/><polygon class="cls-2" points="-5.83 60 -20.41 60 -2.93 30 11.66 30 -5.83 60"/><polygon class="cls-3" points="8.76 60 -5.83 60 11.66 30 26.25 30 8.76 60"/><polygon class="cls-2" points="157.54 30 142.96 30 160.44 0 175.03 0 157.54 30"/><polygon class="cls-2" points="128.37 30 113.78 30 131.27 0 145.86 0 128.37 30"/><polygon class="cls-3" points="142.96 30 128.37 30 145.86 0 160.44 0 142.96 30"/><polygon class="cls-2" points="99.2 30 84.61 30 102.1 0 116.68 0 99.2 30"/><polygon class="cls-3" points="113.78 30 99.2 30 116.68 0 131.27 0 113.78 30"/><polygon class="cls-2" points="70.02 30 55.44 30 72.92 0 87.51 0 70.02 30"/><polygon class="cls-3" points="84.61 30 70.02 30 87.51 0 102.1 0 84.61 30"/><polygon class="cls-2" points="40.85 30 26.26 30 43.75 0 58.34 0 40.85 30"/><polygon class="cls-3" points="55.44 30 40.85 30 58.34 0 72.92 0 55.44 30"/><polygon class="cls-2" points="11.68 30 -2.91 30 14.58 0 29.16 0 11.68 30"/><polygon class="cls-3" points="26.26 30 11.68 30 29.16 0 43.75 0 26.26 30"/><polygon class="cls-3" points="-2.91 30 -17.5 30 -0.01 0 14.58 0 -2.91 30"/></pattern><pattern id="New_Pattern_2-5" data-name="New Pattern 2" width="145.86" height="150" patternTransform="translate(554.89 1.95) scale(0.16)" patternUnits="userSpaceOnUse" viewBox="0 0 145.87 150"><rect class="cls-1" width="145.86" height="150"/><polygon class="cls-2" points="145.87 150 131.29 150 148.77 120 163.36 120 145.87 150"/><polygon class="cls-2" points="116.7 150 102.11 150 119.6 120 134.19 120 116.7 150"/><polygon class="cls-3" points="131.29 150 116.7 150 134.19 120 148.77 120 131.29 150"/><polygon class="cls-2" points="87.53 150 72.94 150 90.43 120 105.01 120 87.53 150"/><polygon class="cls-3" points="102.11 150 87.53 150 105.01 120 119.6 120 102.11 150"/><polygon class="cls-2" points="58.35 150 43.77 150 61.26 120 75.84 120 58.35 150"/><polygon class="cls-3" points="72.94 150 58.35 150 75.84 120 90.43 120 72.94 150"/><polygon class="cls-2" points="29.18 150 14.6 150 32.08 120 46.67 120 29.18 150"/><polygon class="cls-3" points="43.77 150 29.18 150 46.67 120 61.26 120 43.77 150"/><polygon class="cls-2" points="0.01 150 -14.58 150 2.91 120 17.5 120 0.01 150"/><polygon class="cls-3" points="14.6 150 0.01 150 17.5 120 32.08 120 14.6 150"/><polygon class="cls-3" points="-14.58 150 -29.16 150 -11.68 120 2.91 120 -14.58 150"/><polygon class="cls-2" points="134.2 120 119.62 120 137.1 90 151.69 90 134.2 120"/><polygon class="cls-3" points="148.79 120 134.2 120 151.69 90 166.28 90 148.79 120"/><polygon class="cls-2" points="105.03 120 90.44 120 107.93 90 122.52 90 105.03 120"/><polygon class="cls-3" points="119.62 120 105.03 120 122.52 90 137.1 90 119.62 120"/><polygon class="cls-2" points="75.86 120 61.27 120 78.76 90 93.34 90 75.86 120"/><polygon class="cls-3" points="90.44 120 75.86 120 93.34 90 107.93 90 90.44 120"/><polygon class="cls-2" points="46.69 120 32.1 120 49.59 90 64.17 90 46.69 120"/><polygon class="cls-3" points="61.27 120 46.69 120 64.17 90 78.76 90 61.27 120"/><polygon class="cls-2" points="17.51 120 2.93 120 20.41 90 35 90 17.51 120"/><polygon class="cls-3" points="32.1 120 17.51 120 35 90 49.59 90 32.1 120"/><polygon class="cls-2" points="-11.66 120 -26.25 120 -8.76 90 5.83 90 -11.66 120"/><polygon class="cls-3" points="2.93 120 -11.66 120 5.83 90 20.41 90 2.93 120"/><polygon class="cls-2" points="151.71 90 137.12 90 154.61 60 169.19 60 151.71 90"/><polygon class="cls-2" points="122.53 90 107.95 90 125.44 60 140.02 60 122.53 90"/><polygon class="cls-3" points="137.12 90 122.53 90 140.02 60 154.61 60 137.12 90"/><polygon class="cls-2" points="93.36 90 78.78 90 96.26 60 110.85 60 93.36 90"/><polygon class="cls-3" points="107.95 90 93.36 90 110.85 60 125.44 60 107.95 90"/><polygon class="cls-2" points="64.19 90 49.6 90 67.09 60 81.68 60 64.19 90"/><polygon class="cls-3" points="78.78 90 64.19 90 81.68 60 96.26 60 78.78 90"/><polygon class="cls-2" points="35.02 90 20.43 90 37.92 60 52.5 60 35.02 90"/><polygon class="cls-3" points="49.6 90 35.02 90 52.5 60 67.09 60 49.6 90"/><polygon class="cls-2" points="5.84 90 -8.74 90 8.74 60 23.33 60 5.84 90"/><polygon class="cls-3" points="20.43 90 5.84 90 23.33 60 37.92 60 20.43 90"/><polygon class="cls-3" points="-8.74 90 -23.33 90 -5.84 60 8.74 60 -8.74 90"/><polygon class="cls-2" points="140.04 60 125.45 60 142.94 30 157.53 30 140.04 60"/><polygon class="cls-3" points="154.63 60 140.04 60 157.53 30 172.11 30 154.63 60"/><polygon class="cls-2" points="110.87 60 96.28 60 113.77 30 128.35 30 110.87 60"/><polygon class="cls-3" points="125.45 60 110.87 60 128.35 30 142.94 30 125.45 60"/><polygon class="cls-2" points="81.69 60 67.11 60 84.59 30 99.18 30 81.69 60"/><polygon class="cls-3" points="96.28 60 81.69 60 99.18 30 113.77 30 96.28 60"/><polygon class="cls-2" points="52.52 60 37.93 60 55.42 30 70.01 30 52.52 60"/><polygon class="cls-3" points="67.11 60 52.52 60 70.01 30 84.59 30 67.11 60"/><polygon class="cls-2" points="23.35 60 8.76 60 26.25 30 40.83 30 23.35 60"/><polygon class="cls-3" points="37.93 60 23.35 60 40.83 30 55.42 30 37.93 60"/><polygon class="cls-2" points="-5.83 60 -20.41 60 -2.93 30 11.66 30 -5.83 60"/><polygon class="cls-3" points="8.76 60 -5.83 60 11.66 30 26.25 30 8.76 60"/><polygon class="cls-2" points="157.54 30 142.96 30 160.44 0 175.03 0 157.54 30"/><polygon class="cls-2" points="128.37 30 113.78 30 131.27 0 145.86 0 128.37 30"/><polygon class="cls-3" points="142.96 30 128.37 30 145.86 0 160.44 0 142.96 30"/><polygon class="cls-2" points="99.2 30 84.61 30 102.1 0 116.68 0 99.2 30"/><polygon class="cls-3" points="113.78 30 99.2 30 116.68 0 131.27 0 113.78 30"/><polygon class="cls-2" points="70.02 30 55.44 30 72.92 0 87.51 0 70.02 30"/><polygon class="cls-3" points="84.61 30 70.02 30 87.51 0 102.1 0 84.61 30"/><polygon class="cls-2" points="40.85 30 26.26 30 43.75 0 58.34 0 40.85 30"/><polygon class="cls-3" points="55.44 30 40.85 30 58.34 0 72.92 0 55.44 30"/><polygon class="cls-2" points="11.68 30 -2.91 30 14.58 0 29.16 0 11.68 30"/><polygon class="cls-3" points="26.26 30 11.68 30 29.16 0 43.75 0 26.26 30"/><polygon class="cls-3" points="-2.91 30 -17.5 30 -0.01 0 14.58 0 -2.91 30"/></pattern></defs><title>header-work</title><g id="desk"><path class="cls-2" d="M148.22,69.1V99.67h81.15V69.1Zm0,4.66h81.15V54.25H148.22Z"/><rect class="cls-4" x="154.38" y="81.99" width="12.11" height="12.11"/><rect class="cls-4" x="172.62" y="81.99" width="12.11" height="12.11"/><rect class="cls-4" x="208.88" y="81.99" width="12.11" height="12.11"/><polygon class="cls-5" points="155.7 83.32 166.48 83.32 166.48 81.99 154.38 81.99 154.38 94.09 155.7 94.09 155.7 83.32"/><polygon class="cls-5" points="173.94 83.32 184.72 83.32 184.72 81.99 172.62 81.99 172.62 94.09 173.94 94.09 173.94 83.32"/><polygon class="cls-5" points="210.2 83.32 220.98 83.32 220.98 81.99 208.88 81.99 208.88 94.09 210.2 94.09 210.2 83.32"/><rect class="cls-4" x="190.36" y="78.85" width="12.11" height="20.82"/><polygon class="cls-5" points="191.68 80.18 202.46 80.18 202.46 78.85 190.35 78.85 190.35 99.67 191.68 99.67 191.68 80.18"/><rect class="cls-6" x="145.48" y="48.3" width="86.64" height="12.58"/><polygon class="cls-5" points="145.48 48.3 145.48 53.27 221.97 53.27 221.97 60.89 232.12 60.89 232.12 48.3 145.48 48.3"/><rect class="cls-5" x="148.22" y="61.48" width="81.15" height="9.11"/><rect class="cls-7" x="141.85" y="67.1" width="93.89" height="1.37"/><rect class="cls-7" x="141.85" y="60.46" width="93.89" height="1.37"/><rect class="cls-7" x="141.85" y="98.63" width="93.89" height="1.37"/><rect class="cls-5" x="154.97" y="71.39" width="4.93" height="1.59"/><rect class="cls-5" x="149.65" y="71.39" width="4.93" height="1.59"/><rect class="cls-5" x="157.44" y="73.34" width="4.93" height="1.59"/><polygon class="cls-8" points="173.84 61.46 173.84 67.5 188.87 61.48 188.87 67.5 173.84 61.46"/><polygon class="cls-8" points="158.82 61.46 158.82 67.5 173.84 61.48 173.84 67.5 158.82 61.46"/><polygon class="cls-8" points="143.8 61.46 143.8 67.5 158.82 61.48 158.82 67.5 143.8 61.46"/><polygon class="cls-8" points="218.96 61.46 218.96 67.5 233.99 61.48 233.99 67.5 218.96 61.46"/><polygon class="cls-8" points="203.94 61.46 203.94 67.5 218.96 61.48 218.96 67.5 203.94 61.46"/><polygon class="cls-8" points="188.92 61.46 188.92 67.5 203.94 61.48 203.94 67.5 188.92 61.46"/><rect class="cls-5" x="225.03" y="70.59" width="4.61" height="28.04"/><polygon class="cls-9" points="144.8 81.39 148.09 81.39 144.81 77.01 148.09 77.01 144.8 81.39"/><polygon class="cls-9" points="144.8 77.01 148.09 77.01 144.81 72.64 148.09 72.64 144.8 77.01"/><polygon class="cls-9" points="144.8 72.64 148.09 72.64 144.81 68.26 148.09 68.26 144.8 72.64"/><polygon class="cls-9" points="144.8 85.77 148.09 85.77 144.81 81.39 148.09 81.39 144.8 85.77"/><polygon class="cls-9" points="144.74 90.14 148.03 90.14 144.75 85.77 148.03 85.77 144.74 90.14"/><polygon class="cls-9" points="144.74 94.52 148.03 94.52 144.75 90.14 148.03 90.14 144.74 94.52"/><polygon class="cls-9" points="144.74 98.9 148.03 98.9 144.75 94.52 148.03 94.52 144.74 98.9"/><polyline class="cls-10" points="144.68 99.02 144.68 67.96 148.22 67.99 148.22 99.05"/><polygon class="cls-9" points="229.51 81.39 232.79 81.39 229.51 77.01 232.79 77.01 229.51 81.39"/><polygon class="cls-9" points="229.51 77.01 232.79 77.01 229.51 72.64 232.79 72.64 229.51 77.01"/><polygon class="cls-9" points="229.51 72.64 232.79 72.64 229.51 68.26 232.79 68.26 229.51 72.64"/><polygon class="cls-9" points="229.51 85.77 232.79 85.77 229.51 81.39 232.79 81.39 229.51 85.77"/><polygon class="cls-9" points="229.44 90.14 232.73 90.14 229.45 85.77 232.73 85.77 229.44 90.14"/><polygon class="cls-9" points="229.44 94.52 232.73 94.52 229.45 90.14 232.73 90.14 229.44 94.52"/><polygon class="cls-9" points="229.44 98.9 232.73 98.9 229.45 94.52 232.73 94.52 229.44 98.9"/><polyline class="cls-10" points="229.38 99.02 229.38 67.96 232.92 67.99 232.92 99.05"/><polygon class="cls-11" points="91.89 32.12 99.14 32.12 91.91 22.47 99.14 22.47 91.89 32.12"/><polygon class="cls-11" points="91.89 22.47 99.14 22.47 91.91 12.82 99.14 12.82 91.89 22.47"/><polygon class="cls-11" points="91.89 12.82 99.14 12.82 91.91 3.16 99.14 3.16 91.89 12.82"/><polygon class="cls-11" points="91.89 41.78 99.14 41.78 91.91 32.12 99.14 32.12 91.89 41.78"/><polygon class="cls-11" points="91.75 51.43 99 51.43 91.77 41.78 99 41.78 91.75 51.43"/><polygon class="cls-11" points="91.75 61.08 99 61.08 91.77 51.43 99 51.43 91.75 61.08"/><polygon class="cls-11" points="91.75 70.74 99 70.74 91.77 61.08 99 61.08 91.75 70.74"/><polygon class="cls-11" points="91.89 80.39 99.14 80.39 91.91 70.74 99.14 70.74 91.89 80.39"/><polygon class="cls-11" points="91.89 90.05 99.14 90.05 91.91 80.39 99.14 80.39 91.89 90.05"/><polygon class="cls-11" points="91.89 99.7 99.14 99.7 91.91 90.05 99.14 90.05 91.89 99.7"/><polyline class="cls-12" points="91.61 99.93 91.61 2.5 99.43 2.57 99.43 100"/><polygon class="cls-13" points="149.22 15.74 149.22 21.78 165.52 15.76 165.52 21.78 149.22 15.74"/><polygon class="cls-13" points="132.92 15.74 132.92 21.78 149.22 15.76 149.22 21.78 132.92 15.74"/><polygon class="cls-13" points="116.62 15.62 116.62 21.66 132.92 15.64 132.92 21.66 116.62 15.62"/><polygon class="cls-13" points="61.41 15.74 61.41 21.78 77.71 15.76 77.71 21.78 61.41 15.74"/><polyline class="cls-14" points="99.91 22.02 116.62 15.5 166.16 15.5 179.51 22.02 61.19 22.02 61.19 15.74 77.71 15.74 91.61 22.02"/><line class="cls-15" x1="128.3" y1="29.56" x2="128.3" y2="24.29"/><line class="cls-15" x1="131.33" y1="29.56" x2="131.33" y2="24.29"/><rect class="cls-7" x="126.08" y="23.36" width="7.46" height="1.86"/><path class="cls-7" d="M127.54,28.45h4.55a0,0,0,0,1,0,0v0a1.86,1.86,0,0,1-1.86,1.86h-.83a1.86,1.86,0,0,1-1.86-1.86v0a0,0,0,0,1,0,0Z"/><polygon class="cls-7" points="109.72 36.14 103.06 36.14 103.06 23.18 113.54 23.18 113.54 29.66 109.72 36.14"/><polygon class="cls-16" points="109.55 35.34 108.28 35.34 108.28 25.51 112.89 25.51 112.89 29.66 109.55 35.34"/><path class="cls-17" d="M129.81,44a3.73,3.73,0,0,1-3.73-3.73V34.56h7.46v5.72A3.73,3.73,0,0,1,129.81,44Z"/><polyline class="cls-15" points="126.08 34.56 129.81 31.75 129.81 29.77"/><line class="cls-15" x1="133.54" y1="34.56" x2="129.81" y2="31.75"/><rect class="cls-7" x="60.78" y="24.11" width="16.93" height="6.44"/><polyline class="cls-18" points="61.19 15.74 91.61 2.5 99.43 2.57 157.37 15.62"/><circle class="cls-2" cx="93.63" cy="87.58" r="4.86"/><path class="cls-5" d="M93.63,82.72a4.83,4.83,0,0,0-3.87,1.95,4.84,4.84,0,0,1,6.78,6.78,4.84,4.84,0,0,0-2.91-8.73Z"/><circle class="cls-2" cx="115.26" cy="87" r="6.8"/><path class="cls-5" d="M115.26,80.21a6.79,6.79,0,0,0-5.67,3A6.79,6.79,0,0,1,119,92.67a6.8,6.8,0,0,0-3.75-12.47Z"/><circle class="cls-2" cx="104" cy="86.25" r="7.55"/><path class="cls-5" d="M104,78.7a7.53,7.53,0,0,0-5.8,2.71A7.55,7.55,0,0,1,108.84,92,7.55,7.55,0,0,0,104,78.7Z"/><polygon class="cls-19" points="119.99 100 91.06 100 85.28 87.66 125.77 87.66 119.99 100"/><polygon class="cls-5" points="119.07 98.16 91.06 100 119.99 100 125.77 87.65 86.7 90.66 87.32 92.02 122.49 92.8 119.07 98.16"/><rect class="cls-19" x="85.28" y="87.65" width="40.5" height="3.52"/><polygon class="cls-20" points="85.28 87.65 85.28 88.57 123.7 89.06 124.86 91.18 125.77 91.18 125.77 87.65 85.28 87.65"/><line class="cls-21" x1="361.58" y1="78.51" x2="361.58" y2="100"/><circle class="cls-22" cx="356.32" cy="71.36" r="5.05"/><circle class="cls-23" cx="361.58" cy="67.49" r="5.05"/><circle class="cls-22" cx="364.73" cy="72.2" r="5.05"/><circle class="cls-22" cx="364.73" cy="77.67" r="5.05"/><circle class="cls-23" cx="357.14" cy="78.09" r="5.05"/><circle class="cls-23" cx="361.58" cy="81.91" r="5.05"/><path class="cls-24" d="M5,89.13H5a.38.38,0,0,1,.38.38V100a0,0,0,0,1,0,0H4.63a0,0,0,0,1,0,0V89.51A.38.38,0,0,1,5,89.13Z"/><path class="cls-24" d="M20.74,89.13h0a.38.38,0,0,1,.38.38V100a0,0,0,0,1,0,0h-.75a0,0,0,0,1,0,0V89.51A.38.38,0,0,1,20.74,89.13Z"/><rect class="cls-25" x="2.23" y="90.35" width="21.53" height="4.75"/><rect class="cls-24" x="4.82" y="97.59" width="15.92" height="0.41"/><path class="cls-24" d="M55.62,82.51H74.55a0,0,0,0,1,0,0v6.12a2.25,2.25,0,0,1-2.25,2.25H57.87a2.25,2.25,0,0,1-2.25-2.25V82.51A0,0,0,0,1,55.62,82.51Z"/><polygon class="cls-26" points="57.26 82.59 57.26 98.3 72.91 82.62 72.91 98.3 57.26 82.59"/><path class="cls-27" d="M61.09,87.74h8a0,0,0,0,1,0,0v3a1.6,1.6,0,0,1-1.6,1.6H62.69a1.6,1.6,0,0,1-1.6-1.6v-3A0,0,0,0,1,61.09,87.74Z"/><path class="cls-3" d="M56.13,53.17H74a1.39,1.39,0,0,1,1.39,1.39V79.22A10.34,10.34,0,0,1,65.09,89.56h0A10.34,10.34,0,0,1,54.74,79.22V54.56a1.39,1.39,0,0,1,1.39-1.39Z"/><path class="cls-20" d="M74,53.17H56.13a1.39,1.39,0,0,0-1.39,1.39v.29H72.36a1.39,1.39,0,0,1,1.39,1.39V80.9a10.29,10.29,0,0,1-2.24,6.42,10.32,10.32,0,0,0,3.92-8.1V54.56A1.39,1.39,0,0,0,74,53.17Z"/><path class="cls-24" d="M65.09,90A10.77,10.77,0,0,1,54.32,79.22V54.56a1.81,1.81,0,0,1,1.81-1.81H74a1.81,1.81,0,0,1,1.81,1.81V79.22A10.77,10.77,0,0,1,65.09,90Zm-9-36.39a1,1,0,0,0-1,1V79.22a9.92,9.92,0,1,0,19.84,0V54.56a1,1,0,0,0-1-1Z"/><rect class="cls-24" x="54.74" y="73.19" width="20.68" height="4.03"/><rect class="cls-24" x="54.92" y="62.55" width="20.68" height="4.03"/><rect class="cls-24" x="51.23" y="97.63" width="27.72" height="2.37"/><polygon class="cls-19" points="312.29 80.64 312.29 81.84 311.15 82.66 311.48 83.5 313.78 84.29 313.11 86.52 310.33 88.7 303.94 88.7 307.56 77.84 312.29 80.64"/><polygon class="cls-5" points="310.83 83.5 310.49 82.66 311.64 81.84 311.64 80.64 307.54 78.22 307.56 77.84 312.29 80.64 312.29 81.84 311.15 82.66 311.48 83.5 313.78 84.29 313.11 86.52 312.45 86.52 313.13 84.29 310.83 83.5"/><polygon points="331.17 94.92 319.31 94.92 318.66 95.9 304.29 95.9 303.99 95.08 281.11 95.08 281.11 88.18 326.44 88.18 331.17 94.92"/><rect class="cls-24" x="306.09" y="91.5" width="9.63" height="5.42" transform="translate(621.81 188.43) rotate(-180)"/><rect class="cls-20" x="313.36" y="91.5" width="0.56" height="5.42" transform="translate(627.28 188.43) rotate(-180)"/><rect class="cls-20" x="307.89" y="91.5" width="0.56" height="5.42" transform="translate(616.34 188.43) rotate(-180)"/><rect class="cls-19" x="316.25" y="92.04" width="1.88" height="3.64" transform="translate(634.37 187.71) rotate(-180)"/><polygon class="cls-20" points="316.42 95.13 317.46 94.37 317.9 92.27 316.42 92.27 316.42 95.13"/><path class="cls-19" d="M328.76,95.51h3.82a.77.77,0,0,0,.74-.8V91H327.2v.4Z"/><rect class="cls-19" x="319.31" y="78.31" width="4.37" height="10.56" transform="translate(642.99 167.17) rotate(-180)"/><polygon class="cls-5" points="322.28 86.29 323.31 78.31 323.68 78.31 323.68 88.86 319.31 88.86 319.31 88.21 322.28 86.29"/><path class="cls-19" d="M319.31,77.84h12.35l-.74-1.42a.91.91,0,0,0-.83-.54H319.31Z"/><path class="cls-20" d="M330.09,75.88a.9.9,0,0,1,.78.45.9.9,0,0,0-.46-.13H319.64v1.63h-.33v-2Z"/><path class="cls-19" d="M331.28,78.31l1.47,6.24v5.92h-5.51a5.64,5.64,0,0,0-3.08-1.59V78.31Z"/><path class="cls-5" d="M332.65,84.14l.1.41v5.92h-5.51a5.64,5.64,0,0,0-3.08-1.59l2.29-3.14Z"/><rect class="cls-20" x="324.63" y="78.63" width="4.12" height="5.01" transform="translate(653.38 162.27) rotate(-180)"/><polygon class="cls-20" points="332.12 83.64 329.2 83.64 329.2 78.63 330.94 78.63 332.12 83.64"/><rect x="316.81" y="75.88" width="1.79" height="7.59" transform="translate(635.41 159.36) rotate(-180)"/><polygon class="cls-24" points="318.6 75.88 318.6 76.21 317.14 76.21 317.14 83.47 316.81 83.47 316.81 75.88 318.6 75.88"/><rect x="316.48" y="83.28" width="2.45" height="6.48" transform="translate(635.41 173.04) rotate(-180)"/><polygon class="cls-24" points="318.93 83.28 318.93 83.78 316.97 83.78 316.97 89.76 316.48 89.76 316.48 83.28 318.93 83.28"/><polygon points="317.06 75.91 318.35 75.91 317.86 73.71 317.06 73.71 317.06 75.91"/><rect x="273.93" y="86.25" width="8.23" height="3.4" transform="translate(556.08 175.9) rotate(-180)"/><circle class="cls-24" cx="316.26" cy="88.7" r="1.44"/><polygon class="cls-5" points="308.76 89.33 308.76 79.64 309.58 80.29 309.58 89.65 303.82 89.65 304.08 89.33 308.76 89.33"/><polygon class="cls-24" points="271.76 70.31 278.62 70.31 280.62 71.35 278.99 76.82 271.76 70.31"/><polygon class="cls-19" points="308.03 76.29 300.7 72.09 296.94 71.03 279.68 71.03 276.82 79.92 291.96 89.31 295.72 90.14 304.05 90.14 306.86 86.21 308.19 81.3 308.03 76.29"/><polygon class="cls-24" points="272.08 90.58 276.29 90.58 277.11 81.84 271.26 81.84 272.08 90.58"/><circle class="cls-19" cx="311.48" cy="78.01" r="3.29"/><polygon class="cls-19" points="290.1 90.14 277.64 79.92 274.7 79.27 274.21 80.29 282.16 90.14 290.1 90.14"/><polygon class="cls-5" points="282.42 88.37 289.04 89.33 290.1 90.14 282.16 90.14 274.21 80.29 274.34 80.03 282.42 88.37"/><path class="cls-5" d="M308.19,78a3.29,3.29,0,1,0,3.29-3.29A3.29,3.29,0,0,0,308.19,78Zm.57,0a2.72,2.72,0,1,1,2.72,2.72A2.72,2.72,0,0,1,308.76,78Z"/><polygon class="cls-5" points="291.31 87.68 295.07 88.51 303.39 88.51 306.21 84.58 307.54 79.67 307.42 75.94 308.03 76.29 308.19 81.3 306.86 86.21 304.05 90.14 295.72 90.14 291.96 89.31 276.82 79.92 277.15 78.9 291.31 87.68"/><rect class="cls-20" x="294.53" y="71.19" width="3.84" height="18.89" transform="translate(559.36 239.6) rotate(-164.06)"/><rect x="309.27" y="86.05" width="4.81" height="4.09" transform="translate(623.35 176.19) rotate(-180)"/><rect x="309.27" y="84.71" width="2.4" height="1.34" transform="translate(620.94 170.75) rotate(-180)"/><circle class="cls-24" cx="298.9" cy="95.9" r="4.08"/><path class="cls-28" d="M304.55,95.9a5.65,5.65,0,0,0-11.3,0"/><circle class="cls-3" cx="298.9" cy="95.9" r="2.5"/><circle class="cls-29" cx="298.9" cy="95.9" r="1.56"/><circle class="cls-24" cx="298.9" cy="95.9" r="0.95"/><circle class="cls-24" cx="287.6" cy="95.9" r="4.08"/><path class="cls-28" d="M293.25,95.9a5.65,5.65,0,0,0-11.3,0"/><circle class="cls-3" cx="287.6" cy="95.9" r="2.5"/><circle class="cls-29" cx="287.6" cy="95.9" r="1.56"/><circle class="cls-24" cx="287.6" cy="95.9" r="0.95"/><circle class="cls-24" cx="323.23" cy="95.92" r="4.08"/><path class="cls-28" d="M328.88,95.92a5.65,5.65,0,0,0-9.18-4.42"/><circle class="cls-3" cx="323.23" cy="95.92" r="2.5"/><circle class="cls-29" cx="323.23" cy="95.92" r="1.56"/><circle class="cls-24" cx="323.23" cy="95.92" r="0.95"/><path class="cls-24" d="M245.41,89.13h0a.38.38,0,0,1,.38.38V100a0,0,0,0,1,0,0H245a0,0,0,0,1,0,0V89.51A.38.38,0,0,1,245.41,89.13Z"/><path class="cls-24" d="M261.15,89.13h0a.38.38,0,0,1,.38.38V100a0,0,0,0,1,0,0h-.75a0,0,0,0,1,0,0V89.51A.38.38,0,0,1,261.15,89.13Z"/><rect class="cls-30" x="242.63" y="90.35" width="21.53" height="4.75"/><rect class="cls-24" x="245.23" y="97.59" width="15.92" height="0.41"/><line class="cls-31" x1="31.03" y1="84.27" x2="31.03" y2="100"/><circle class="cls-22" cx="26.19" cy="76.1" r="5.1"/><circle class="cls-23" cx="32.9" cy="73.13" r="5.1"/><circle class="cls-22" cx="35.16" cy="77.9" r="5.1"/><circle class="cls-22" cx="34.22" cy="83.42" r="5.1"/><circle class="cls-23" cx="28.27" cy="83.85" r="5.1"/></g></svg>