<svg xmlns="http://www.w3.org/2000/svg" viewBox="0 0 380 90"><defs><style>.cls-1{fill:#333;}.cls-2{fill:#48a69c;}.cls-3{fill:#41958c;}.cls-4{fill:#fff;}.cls-5{opacity:0.2;}.cls-6{fill:#f96673;}.cls-7{opacity:0.1;}.cls-8{opacity:0.4;}</style></defs><title>header-contact</title><g id="desk"><rect class="cls-1" x="344.18" y="67.32" width="3.96" height="22.68"/><circle class="cls-2" cx="338.5" cy="56.9" r="7.35"/><circle class="cls-3" cx="341.32" cy="64.26" r="7.35"/><circle class="cls-2" cx="350.76" cy="58.13" r="7.35"/><circle class="cls-2" cx="350.76" cy="66.1" r="7.35"/><circle class="cls-3" cx="343.4" cy="47.88" r="7.35"/><rect class="cls-1" x="201.07" y="65.66" width="3.88" height="24.34"/><circle class="cls-2" cx="195.52" cy="53.02" r="7.89"/><circle class="cls-3" cx="205.91" cy="48.42" r="7.89"/><circle class="cls-2" cx="209.41" cy="55.79" r="7.89"/><circle class="cls-2" cx="207.95" cy="64.34" r="7.89"/><circle class="cls-3" cx="198.74" cy="65" r="7.89"/><rect class="cls-1" x="229.24" y="71.81" width="3.19" height="18.19"/><circle class="cls-2" cx="224.69" cy="63.45" r="5.9"/><circle class="cls-3" cx="226.94" cy="70.17" r="5.9"/><circle class="cls-2" cx="235.15" cy="68.39" r="5.9"/><circle class="cls-3" cx="229.71" cy="56.87" r="5.9"/><circle class="cls-2" cx="234.09" cy="61.17" r="5.9"/><rect class="cls-1" x="105.81" y="64.69" width="4.79" height="25.31"/><circle class="cls-2" cx="99.65" cy="53.06" r="8.21"/><circle class="cls-3" cx="105.12" cy="45.54" r="8.21"/><circle class="cls-2" cx="113.33" cy="54.43" r="8.21"/><circle class="cls-3" cx="113.33" cy="63.32" r="8.21"/><circle class="cls-2" cx="102.39" cy="64.69" r="8.21"/><polygon class="cls-4" points="149.22 89.22 150.82 89.22 150.82 79.78 148.41 79.78 149.22 89.22"/><polygon class="cls-5" points="149.22 89.22 150.82 89.22 150.82 79.78 148.41 79.78 149.22 89.22"/><rect class="cls-4" x="131.1" y="71.1" width="21.28" height="11.59" rx="5.79" ry="5.79"/><path class="cls-1" d="M135.65,77.48A4.07,4.07,0,0,0,139,71.1H136.9a5.79,5.79,0,0,0-5.2,3.25A4.07,4.07,0,0,0,135.65,77.48Z"/><path class="cls-5" d="M146.59,71.1H136.9a5.78,5.78,0,0,0-4.48,2.12,5.77,5.77,0,0,1,3.67-1.32h9.69a5.79,5.79,0,0,1,4.48,9.47,5.79,5.79,0,0,0-3.67-10.27Z"/><path class="cls-6" d="M141.74,82.69a2.95,2.95,0,1,0,5.89,0s0-.06,0-.1a5.81,5.81,0,0,1-1,.1Z"/><g class="cls-7"><path d="M143.72,82.65a2,2,0,1,0,3.91,0s0,0,0-.06a3.85,3.85,0,0,1-.69.06Z"/></g><path class="cls-1" d="M129.2,71.54a4.63,4.63,0,0,1-4.51-3.61,4.64,4.64,0,1,0,9,0A4.63,4.63,0,0,1,129.2,71.54Z"/><rect class="cls-4" x="125.55" y="70.52" width="7.29" height="12.7" rx="3.65" ry="3.65"/><path class="cls-5" d="M129.2,70.52a3.64,3.64,0,0,0-3.37,2.25,3.63,3.63,0,0,1,6.54,2.2v5.41a3.63,3.63,0,0,1-.28,1.39,3.61,3.61,0,0,0,.75-2.2V74.17A3.65,3.65,0,0,0,129.2,70.52Z"/><ellipse class="cls-4" cx="124.47" cy="71.99" rx="2.17" ry="1.23"/><ellipse class="cls-5" cx="124.72" cy="71.99" rx="1.45" ry="0.68"/><ellipse class="cls-4" cx="133.92" cy="71.99" rx="2.17" ry="1.23"/><ellipse class="cls-5" cx="133.68" cy="71.99" rx="1.45" ry="0.68"/><ellipse class="cls-1" cx="128.13" cy="75.78" rx="0.74" ry="0.92"/><ellipse class="cls-1" cx="130.27" cy="75.75" rx="0.74" ry="0.92"/><rect class="cls-6" x="125.1" y="79.23" width="8.19" height="4.6" rx="2.3" ry="2.3"/><path class="cls-7" d="M131,79.23H127.4a2.29,2.29,0,0,0-2,1.23,2.28,2.28,0,0,1,1.52-.59h3.59a2.3,2.3,0,0,1,2.3,2.3h0a2.27,2.27,0,0,1-.27,1.07,2.29,2.29,0,0,0-1.52-4Z"/><g class="cls-8"><ellipse class="cls-4" cx="127.42" cy="81.73" rx="0.66" ry="0.61"/><ellipse class="cls-4" cx="130.58" cy="81.73" rx="0.66" ry="0.61"/></g><polygon class="cls-4" points="146.58 90 148.19 90 149.35 80.94 146.58 79.92 146.58 90"/><polygon class="cls-4" points="134.44 90 136.04 90 136.04 81.96 133.83 81.12 134.44 90"/><rect class="cls-4" x="137.12" y="82.69" width="1.61" height="6.53"/><polygon class="cls-5" points="137.12 84.4 138.73 86.01 138.73 82.69 137.12 82.69 137.12 84.4"/><path class="cls-1" d="M142.4,71.1h3.82a0,0,0,0,1,0,0v3.54a1.51,1.51,0,0,1-1.51,1.51h-.8a1.51,1.51,0,0,1-1.51-1.51V71.1a0,0,0,0,1,0,0Z"/><path class="cls-1" d="M152.38,76.89a5.77,5.77,0,0,0-.48-2.31,3.94,3.94,0,0,0-1.11-.18,4,4,0,0,0-1.58,7.65A5.79,5.79,0,0,0,152.38,76.89Z"/><path class="cls-1" d="M136.84,80.55a1.9,1.9,0,0,0-.79,3.62V82.62a5.81,5.81,0,0,0,.85.07h1.82a1.84,1.84,0,0,0-1.87-2.14Z"/><polygon class="cls-4" points="59.89 89.33 58.5 89.33 58.5 81.18 60.58 81.18 59.89 89.33"/><polygon class="cls-5" points="60.09 87.02 58.5 86.22 58.5 81.18 60.58 81.18 60.09 87.02"/><polygon class="cls-4" points="72.64 90 71.26 90 71.26 83.07 73.16 82.33 72.64 90"/><rect class="cls-4" x="57.16" y="73.69" width="18.36" height="10" rx="5" ry="5" transform="translate(132.68 157.38) rotate(-180)"/><path class="cls-5" d="M70.52,73.69H62.16a5,5,0,0,0-2.81.86H68a5,5,0,0,1,2.81,9.14,5,5,0,0,0-.26-10Z"/><path class="cls-1" d="M71.6,79.19a3.51,3.51,0,0,1-2.9-5.5h1.82A5,5,0,0,1,75,76.49,3.51,3.51,0,0,1,71.6,79.19Z"/><path class="cls-6" d="M66.34,83.69a2.54,2.54,0,1,1-5.09,0s0-.06,0-.08a5,5,0,0,0,.89.08Z"/><rect class="cls-4" x="73.83" y="76.02" width="6.29" height="10.96" rx="3.15" ry="3.15"/><g class="cls-5"><path d="M77,76A3.14,3.14,0,0,0,74.08,78a3.14,3.14,0,0,1,5.64,1.9v4.67a3.13,3.13,0,0,1-.24,1.2,3.12,3.12,0,0,0,.65-1.9V79.16A3.15,3.15,0,0,0,77,76Z"/></g><ellipse class="cls-4" cx="72.9" cy="77.29" rx="1.87" ry="1.06"/><ellipse class="cls-5" cx="73.11" cy="77.29" rx="1.25" ry="0.59"/><ellipse class="cls-4" cx="81.06" cy="77.29" rx="1.87" ry="1.06"/><ellipse class="cls-5" cx="80.84" cy="77.29" rx="1.25" ry="0.59"/><ellipse class="cls-1" cx="76.05" cy="80.56" rx="0.64" ry="0.79"/><ellipse class="cls-1" cx="77.9" cy="80.53" rx="0.64" ry="0.79"/><rect class="cls-6" x="73.44" y="83.54" width="7.07" height="3.97" rx="1.98" ry="1.98"/><path class="cls-7" d="M78.53,83.54h-3.1a2,2,0,0,0-1.75,1.06,2,2,0,0,1,1.31-.5h3.1a2,2,0,0,1,2,2h0a2,2,0,0,1-.24.92,2,2,0,0,0-1.31-3.46Z"/><g class="cls-8"><ellipse class="cls-4" cx="75.44" cy="85.69" rx="0.57" ry="0.53"/><ellipse class="cls-4" cx="78.17" cy="85.69" rx="0.57" ry="0.53"/></g><polygon class="cls-4" points="62.16 90 60.77 90 59.77 82.18 62.16 81.3 62.16 90"/><rect class="cls-4" x="68.94" y="83.69" width="1.39" height="5.64" transform="translate(139.27 173.02) rotate(-180)"/><polygon class="cls-5" points="70.33 86.2 68.94 85.52 68.94 83.69 70.33 83.69 70.33 86.2"/><path class="cls-1" d="M65,79.38h.83a1.23,1.23,0,0,1,1.23,1.23v3.12a0,0,0,0,1,0,0H63.8a0,0,0,0,1,0,0V80.61A1.23,1.23,0,0,1,65,79.38Z"/><path class="cls-1" d="M70.57,81.85A1.64,1.64,0,0,1,71.26,85V83.63a5,5,0,0,1-.74.06H69a1.58,1.58,0,0,1,1.62-1.84Z"/><path class="cls-1" d="M59.25,79.44a1.74,1.74,0,0,0-1.74-1.74l-.26,0a5,5,0,0,0-.09,1,5,5,0,0,0,.65,2.46A1.73,1.73,0,0,0,59.25,79.44Z"/><circle class="cls-1" cx="62.15" cy="75.44" r="1.18"/><rect class="cls-1" x="21.99" y="71.94" width="3.16" height="18.06"/><circle class="cls-2" cx="17.47" cy="63.64" r="5.86"/><circle class="cls-3" cx="23.57" cy="59.15" r="5.86"/><circle class="cls-2" cx="27.23" cy="64.61" r="5.86"/><circle class="cls-2" cx="27.23" cy="70.96" r="5.86"/><circle class="cls-3" cx="20.4" cy="71.45" r="5.86"/><rect class="cls-1" x="53.96" y="68.82" width="4.81" height="21.18"/><circle class="cls-2" cx="49.85" cy="57.82" r="6.87"/><circle class="cls-3" cx="53.79" cy="51.1" r="6.87"/><circle class="cls-2" cx="63.28" cy="57.97" r="6.87"/><circle class="cls-2" cx="60.03" cy="64.69" r="6.87"/><circle class="cls-3" cx="52.65" cy="68.24" r="6.87"/><rect class="cls-1" x="370.07" y="77.86" width="2.01" height="12.14"/><circle class="cls-2" cx="367.34" cy="71.55" r="3.94"/><circle class="cls-3" cx="374.01" cy="71.55" r="3.94"/><circle class="cls-2" cx="369.6" cy="66.93" r="3.94"/><circle class="cls-2" cx="373.54" cy="77.2" r="3.94"/><circle class="cls-3" cx="368.15" cy="75.49" r="3.94"/></g></svg>