<?xml version="1.0" encoding="utf-8"?>
<!-- Generator: Adobe Illustrator 21.1.0, SVG Export Plug-In . SVG Version: 6.00 Build 0)  -->
<svg version="1.1" id="Layer_1" xmlns="http://www.w3.org/2000/svg" xmlns:xlink="http://www.w3.org/1999/xlink" x="0px" y="0px"
	 viewBox="0 0 460 180" style="enable-background:new 0 0 460 180;" xml:space="preserve">
<style type="text/css">
	.st0{fill:#3C3C3B;}
	.st1{fill:#3FB4FF;}
</style>
<g>
	<g>
		<g>
			<path class="st0" d="M100.1,129c-1.8,0-3.2,0.7-4.2,2.2c-1,1.4-1.5,3.5-1.5,6.1c0,5.4,2.1,8.1,6.2,8.1c1.2,0,2.4-0.2,3.6-0.5
				c1.2-0.3,2.3-0.7,3.5-1.3v6.4c-2.3,1-5,1.5-7.9,1.5c-4.2,0-7.4-1.2-9.7-3.7c-2.2-2.5-3.4-6-3.4-10.6c0-2.9,0.6-5.4,1.6-7.6
				c1.1-2.2,2.6-3.9,4.7-5c2.1-1.2,4.5-1.8,7.2-1.8c3,0,5.9,0.6,8.6,2l-2.3,5.9c-1-0.5-2.1-0.9-3.1-1.2
				C102.4,129.2,101.3,129,100.1,129z"/>
			<path class="st0" d="M130.2,151.2l-1.4-5.3h-9l-1.4,5.3h-8.3l9.1-28.1h10.1l9.3,28.1H130.2z M127.3,139.7l-1.2-4.6
				c-0.3-1-0.6-2.3-1-4c-0.4-1.6-0.6-2.8-0.8-3.5c-0.1,0.6-0.3,1.8-0.6,3.2c-0.3,1.5-1.1,4.4-2.2,8.8L127.3,139.7L127.3,139.7z"/>
			<path class="st0" d="M149.1,140.9v10.2h-7.5v-28h9.2c7.6,0,11.4,2.7,11.4,8.2c0,3.3-1.6,5.8-4.7,7.5l8.2,12.2h-8.6l-5.9-10.2
				L149.1,140.9L149.1,140.9z M149.1,135.3h1.4c2.6,0,4-1.2,4-3.5c0-1.9-1.3-2.9-3.9-2.9h-1.5L149.1,135.3L149.1,135.3z"/>
			<path class="st0" d="M179.3,134.8h12.1v15c-3.3,1.1-6.9,1.7-10.8,1.7c-4.3,0-7.7-1.3-10-3.8s-3.5-6.1-3.5-10.7
				c0-4.5,1.3-8,3.8-10.6c2.6-2.5,6.2-3.8,10.8-3.8c1.8,0,3.4,0.2,5,0.5c1.6,0.3,3,0.7,4.1,1.3l-2.4,5.9c-2-1-4.2-1.5-6.6-1.5
				c-2.2,0-3.9,0.7-5.1,2.2c-1.2,1.4-1.8,3.5-1.8,6.2s0.6,4.6,1.6,6c1.1,1.4,2.6,2.1,4.7,2.1c1.1,0,2.2-0.1,3.1-0.3v-4.4h-5
				L179.3,134.8L179.3,134.8z"/>
			<path class="st0" d="M223.2,137.1c0,4.7-1.1,8.3-3.4,10.7c-2.3,2.5-5.7,3.7-10.2,3.7c-4.4,0-7.8-1.2-10.1-3.7
				c-2.3-2.5-3.5-6.1-3.5-10.7c0-4.6,1.2-8.2,3.5-10.6c2.3-2.5,5.7-3.7,10.2-3.7c4.5,0,7.8,1.2,10.2,3.7
				C222.1,128.9,223.2,132.4,223.2,137.1z M203.9,137.1c0,5.4,1.9,8.1,5.7,8.1c1.9,0,3.4-0.6,4.2-2c1-1.3,1.4-3.4,1.4-6.2
				s-0.5-4.9-1.4-6.2c-1-1.4-2.3-2-4.2-2C205.9,129,203.9,131.7,203.9,137.1z"/>
		</g>
		<g>
			<path class="st0" d="M266.1,151V133c0-2.2-0.5-3.8-1.4-5c-1-1.1-2.4-1.7-4.4-1.7c-2.6,0-4.6,0.7-5.8,2.2c-1.3,1.5-1.8,3.8-1.8,7
				V151h-4.2V133c0-2.2-0.5-3.8-1.4-5s-2.4-1.7-4.5-1.7c-2.6,0-4.6,0.8-5.8,2.4c-1.2,1.6-1.8,4.2-1.8,7.8V151h-4.2v-27.8h3.4
				l0.7,3.8h0.2c0.8-1.4,1.9-2.4,3.4-3.2c1.4-0.8,3-1.1,4.9-1.1c4.3,0,7.2,1.6,8.6,4.7h0.2c0.8-1.4,2-2.6,3.6-3.4
				c1.6-0.9,3.4-1.3,5.4-1.3c3.1,0,5.5,0.8,7,2.4c1.6,1.6,2.3,4.2,2.3,7.8V151L266.1,151L266.1,151z"/>
			<path class="st0" d="M290.8,151.5c-4.1,0-7.4-1.3-9.8-3.8c-2.4-2.5-3.6-6-3.6-10.4c0-4.5,1.1-8.1,3.3-10.7
				c2.2-2.6,5.2-3.9,8.9-3.9c3.5,0,6.2,1.1,8.2,3.4c2,2.3,3,5.3,3,9v2.6h-19.2c0.1,3.3,0.9,5.8,2.5,7.4c1.6,1.7,3.8,2.6,6.6,2.6
				c3,0,5.9-0.6,8.9-1.8v3.8c-1.5,0.6-2.9,1.1-4.2,1.4C294.2,151.4,292.6,151.5,290.8,151.5z M289.7,126.2c-2.2,0-4,0.7-5.4,2.2
				c-1.4,1.4-2.1,3.4-2.3,6.1h14.6c0-2.6-0.6-4.7-1.8-6.1C293.5,127,291.8,126.2,289.7,126.2z"/>
			<path class="st0" d="M327.1,147.3h-0.2c-1.9,2.8-4.9,4.2-8.7,4.2c-3.6,0-6.5-1.3-8.5-3.8c-2-2.5-3-6-3-10.6c0-4.6,1-8.2,3-10.7
				c2-2.6,4.9-3.8,8.5-3.8c3.8,0,6.6,1.4,8.6,4.1h0.3l-0.2-2l-0.1-1.9v-11.4h4.2v39.5h-3.4L327.1,147.3z M318.7,148
				c2.9,0,5-0.8,6.2-2.3c1.3-1.6,1.9-4.1,1.9-7.6v-0.9c0-3.9-0.6-6.7-2-8.4c-1.3-1.7-3.4-2.6-6.3-2.6c-2.5,0-4.4,1-5.7,2.9
				c-1.3,1.9-2,4.6-2,8.2s0.6,6.2,1.9,8.1C314.3,147.1,316.1,148,318.7,148z"/>
			<path class="st0" d="M339.6,115.7c0-1,0.2-1.7,0.7-2.1c0.5-0.5,1-0.6,1.8-0.6c0.6,0,1.3,0.2,1.8,0.7s0.7,1.1,0.7,2.1
				c0,1-0.2,1.7-0.7,2.1c-0.5,0.5-1,0.7-1.8,0.7c-0.7,0-1.3-0.2-1.8-0.7C339.9,117.4,339.6,116.6,339.6,115.7z M344.2,151H340v-27.8
				h4.2V151z"/>
			<path class="st0" d="M370.3,151l-0.8-3.9h-0.2c-1.4,1.8-2.8,3-4.2,3.5c-1.4,0.6-3.1,1-5.2,1c-2.7,0-4.9-0.7-6.5-2.2
				c-1.6-1.4-2.3-3.4-2.3-6.1c0-5.6,4.5-8.6,13.4-8.8l4.7-0.2v-1.8c0-2.2-0.5-3.8-1.4-4.8c-1-1-2.5-1.6-4.5-1.6
				c-2.3,0-5,0.7-7.8,2.2l-1.3-3.2c1.4-0.7,2.9-1.4,4.5-1.8s3.3-0.6,4.9-0.6c3.3,0,5.8,0.7,7.4,2.2c1.6,1.4,2.4,3.8,2.4,7.1v19
				L370.3,151L370.3,151z M360.7,148.1c2.6,0,4.7-0.7,6.2-2.2c1.5-1.4,2.2-3.4,2.2-6.1v-2.5l-4.2,0.2c-3.4,0.1-5.8,0.6-7.3,1.6
				c-1.5,1-2.2,2.3-2.2,4.3c0,1.5,0.5,2.7,1.4,3.4C357.8,147.7,359.1,148.1,360.7,148.1z"/>
		</g>
	</g>
	<g>
		<g>
			<g>
				<path class="st1" d="M214.4,39.1c0,5.8-4.7,10.6-10.6,10.6s-10.6-4.7-10.6-10.6s4.7-10.6,10.6-10.6
					C209.6,28.5,214.4,33.2,214.4,39.1z"/>
			</g>
			<g>
				<path class="st1" d="M239.8,39.1c0,5.8-4.7,10.6-10.6,10.6s-10.6-4.7-10.6-10.6s4.7-10.6,10.6-10.6
					C235,28.5,239.8,33.2,239.8,39.1z"/>
			</g>
			<g>
				<path class="st1" d="M265.2,39.1c0,5.8-4.7,10.6-10.6,10.6s-10.6-4.7-10.6-10.6s4.7-10.6,10.6-10.6
					C260.5,28.5,265.2,33.2,265.2,39.1z"/>
			</g>
		</g>
		<g>
			<g>
				<path class="st1" d="M214.4,64.5c0,5.8-4.7,10.6-10.6,10.6s-10.6-4.7-10.6-10.6s4.7-10.6,10.6-10.6
					C209.6,53.9,214.4,58.7,214.4,64.5z"/>
			</g>
			<g>
				<path class="st1" d="M239.8,64.5c0,5.8-4.7,10.6-10.6,10.6s-10.6-4.7-10.6-10.6s4.7-10.6,10.6-10.6
					C235,53.9,239.8,58.7,239.8,64.5z"/>
			</g>
			<g>
				<path class="st1" d="M265.2,64.5c0,5.8-4.7,10.6-10.6,10.6s-10.6-4.7-10.6-10.6s4.7-10.6,10.6-10.6
					C260.5,53.9,265.2,58.7,265.2,64.5z"/>
			</g>
		</g>
		<g>
			<g>
				<path class="st1" d="M214.4,89.9c0,5.8-4.7,10.6-10.6,10.6s-10.6-4.7-10.6-10.6s4.7-10.6,10.6-10.6
					C209.6,79.3,214.4,84,214.4,89.9z"/>
			</g>
			<g>
				<path class="st1" d="M239.8,89.9c0,5.8-4.7,10.6-10.6,10.6s-10.6-4.7-10.6-10.6s4.7-10.6,10.6-10.6
					C235,79.3,239.8,84,239.8,89.9z"/>
			</g>
			<g>
				<path class="st1" d="M265.2,89.9c0,5.8-4.7,10.6-10.6,10.6s-10.6-4.7-10.6-10.6s4.7-10.6,10.6-10.6
					C260.5,79.3,265.2,84,265.2,89.9z"/>
			</g>
		</g>
	</g>
</g>
</svg>
