<svg width="0" height="0" class="hidden">
  <symbol xmlns="http://www.w3.org/2000/svg" viewBox="0 0 64 64" id="arrow-right-1">
    <title>Arrow Right</title>
    <desc>A line styled icon from Orion Icon Library.</desc>
    <path data-name="layer2"
    fill="none" stroke="currentColor" stroke-miterlimit="10" stroke-width="2" d="M50 31.998H14"
    stroke-linejoin="round" stroke-linecap="round"></path>
    <path data-name="layer1" fill="none" stroke="currentColor" stroke-miterlimit="10"
    stroke-width="2" d="M36 18l14 14-14 14" stroke-linejoin="round" stroke-linecap="round"></path>
  </symbol>
  <symbol xmlns="http://www.w3.org/2000/svg" viewBox="0 0 64 64" id="heart-1">
    <title>Heart</title>
    <desc>A line styled icon from Orion Icon Library.</desc>
    <path data-name="layer1"
    d="M47 5c-6.5 0-12.9 4.2-15 10-2.1-5.8-8.5-10-15-10A15 15 0 0 0 2 20c0 13 11 26 30 39 19-13 30-26 30-39A15 15 0 0 0 47 5z"
    fill="none" stroke="currentColor" stroke-miterlimit="10" stroke-width="2" stroke-linejoin="round"
    stroke-linecap="round"></path>
  </symbol>
  <symbol xmlns="http://www.w3.org/2000/svg" viewBox="0 0 64 64" id="exit-1">
    <title>Exit</title>
    <desc>A solid styled icon from Orion Icon Library.</desc>
    <path data-name="layer1"
    fill="currentColor" d="M51 17.25L46.75 13 32 27.75 17.25 13 13 17.25 27.75 32 13 46.75 17.25 51 32 36.25 46.75 51 51 46.75 36.25 32 51 17.25z"></path>
  </symbol>
  <symbol viewBox="0 0 64 64" xmlns="http://www.w3.org/2000/svg" id="pin-1">
    <title>Pin</title>
    <desc>A line styled icon from Orion Icon Library.</desc>
    <path stroke-width="2"
    stroke-miterlimit="10" stroke="currentColor" fill="none" d="M32 2a20 20 0 0 0-20 20c0 18 20 39 20 39s20-21 20-39A20 20 0 0 0 32 2z"
    data-name="layer2" stroke-linejoin="round" stroke-linecap="round"></path>
    <circle stroke-width="2" stroke-miterlimit="10" stroke="currentColor"
    fill="none" r="8" cy="22" cx="32" data-name="layer1" stroke-linejoin="round"
    stroke-linecap="round"></circle>
  </symbol>
  <symbol xmlns="http://www.w3.org/2000/svg" viewBox="0 0 64 64" id="calls-1">
    <title>Calls</title>
    <desc>A line styled icon from Orion Icon Library.</desc>
    <path data-name="layer1"
    d="M58.9 47l-10.4-6.8a4.8 4.8 0 0 0-6.5 1.3c-2.4 2.9-5.3 7.7-16.2-3.2S19.6 24.4 22.5 22a4.8 4.8 0 0 0 1.3-6.5L17 5.1c-.9-1.3-2.1-3.4-4.9-3S2 6.6 2 15.6s7.1 20 16.8 29.7S39.5 62 48.4 62s13.2-8 13.5-10-1.7-4.1-3-5z"
    fill="none" stroke="currentColor" stroke-miterlimit="10" stroke-width="2" stroke-linejoin="round"
    stroke-linecap="round"></path>
  </symbol>
  <symbol xmlns="http://www.w3.org/2000/svg" viewBox="0 0 64 64" id="mail-1">
    <title>Mail</title>
    <desc>A line styled icon from Orion Icon Library.</desc>
    <path data-name="layer2"
    fill="none" stroke="currentColor" stroke-miterlimit="10" stroke-width="2" d="M2 12l30 29 30-29M42 31.6L62 52M2 52l20-20.4"
    stroke-linejoin="round" stroke-linecap="round"></path>
    <path data-name="layer1" fill="none" stroke="currentColor" stroke-miterlimit="10"
    stroke-width="2" d="M2 12h60v40H2z" stroke-linejoin="round" stroke-linecap="round"></path>
  </symbol>
  <symbol xmlns="http://www.w3.org/2000/svg" viewBox="0 0 64 64" id="email-box-1">
    <title>Email Box</title>
    <desc>A line styled icon from Orion Icon Library.</desc>
    <path data-name="layer2"
    fill="none" stroke="currentColor" stroke-miterlimit="10" stroke-width="2" d="M56 35h-6"
    stroke-linejoin="round" stroke-linecap="round"></path>
    <path data-name="layer1" fill="none" stroke="currentColor" stroke-miterlimit="10"
    stroke-width="2" d="M28 43v18" stroke-linejoin="round" stroke-linecap="round"></path>
    <path data-name="layer2" fill="none" stroke="currentColor" stroke-miterlimit="10"
    stroke-width="2" d="M20 21h8v10h-8zm8 0h8" stroke-linejoin="round" stroke-linecap="round"></path>
    <path data-name="layer1" d="M44 43V18a9 9 0 0 1 9-9 9 9 0 0 1 9 9v25z"
    fill="none" stroke="currentColor" stroke-miterlimit="10" stroke-width="2" stroke-linejoin="round"
    stroke-linecap="round"></path>
    <path data-name="layer1" d="M44 43H2V18a9 9 0 0 1 9-9h42" fill="none"
    stroke="currentColor" stroke-miterlimit="10" stroke-width="2" stroke-linejoin="round"
    stroke-linecap="round"></path>
  </symbol>
  <symbol xmlns="http://www.w3.org/2000/svg" viewBox="0 0 64 64" id="hot-air-balloon-1">
    <title>Hot Air Balloon</title>
    <desc>A line styled icon from Orion Icon Library.</desc>
    <path data-name="layer2"
    d="M34 49.9c2.5-2 11-9.4 15.4-18.2A20 20 0 1 0 12 21.9a19.8 19.8 0 0 0 2.6 9.8c4.4 8.9 13 16.2 15.4 18.2M32 2c-7.4 0-15.4 18.1-1.6 48M32 2c7.4 0 15.4 18.1 1.6 48"
    fill="none" stroke="currentColor" stroke-linecap="round" stroke-linejoin="round"
    stroke-width="2"></path>
    <path data-name="layer1" d="M26 50v8.8a3.2 3.2 0 0 0 3.2 3.2h5.6a3.2 3.2 0 0 0 3.2-3.2V50z"
    fill="none" stroke="currentColor" stroke-linecap="round" stroke-linejoin="round"
    stroke-width="2"></path>
  </symbol>
</svg>
