<svg xmlns="http://www.w3.org/2000/svg" viewBox="0 0 841.89 595.28"><defs><style>.cls-1{fill:#ee4794;}.cls-2,.cls-3{fill:#fff;}.cls-2{fill-rule:evenodd;}</style></defs><title>gundelistreetteam-logo-pink</title><g id="bg"><rect class="cls-1" width="841.89" height="595.28"/></g><g id="Layer_1" data-name="Layer 1"><path class="cls-2" d="M456.92,116.42a42.74,42.74,0,0,0-3,3.16q-10.58,13.92-21.09,27.89-4.11,5.47-8.12,11c-1.13,1.57-1.33,3,.82,4,4.87,2.18,9.76,4.35,14.61,6.58,2.31,1.06,4,.51,5.59-1.44,3.3-4,6.8-7.74,10.2-11.61q8.39-9.52,16.77-19.05c1.3-1.46,2.07-3.07.51-4.64C467.94,127.07,462.54,121.9,456.92,116.42Zm1.22,67.44c.92-.61,1.76-1.06,2.48-1.66,10-8.21,19.92-16.47,29.94-24.63,1.86-1.51,2-2.94.6-4.68-3.68-4.52-7.44-9-11-13.55-1.68-2.14-3-1.87-4.64,0Q461.76,154.6,448,169.82c-1.35,1.49-1.43,2.84,0,4.31,2.74,2.76,5.41,5.58,8.15,8.34A14,14,0,0,0,458.14,183.86ZM428,94a9.8,9.8,0,0,0-1.59-2.31q-6.86-5.64-13.84-11.11c-2.16-1.69-4-1.29-5.64,1-5.53,7.61-11.2,15.14-16.75,22.73-1.71,2.33-1.32,3.32,1.52,4.53,6,2.54,12,5,17.92,7.67,2.42,1.11,3.72.45,5-1.57,4-6.11,8-12.15,12-18.23A26.36,26.36,0,0,0,428,94Zm2.73,48.38c1.17-.46,1.85-.51,2.13-.87,6.54-8.44,13.08-16.89,19.48-25.44.55-.73.62-2.69.07-3.25q-8.08-8.18-16.51-16c-2.08-1.92-3.7-1.52-5.3.86-4.34,6.44-8.61,12.93-12.92,19.38-1.19,1.78-.88,3,1.1,3.92,3.35,1.54,6.63,3.22,10,4.78,2.19,1,3.22,2.48,2.89,5.06C431.15,134.47,431,138.14,430.69,142.42Zm-4.27,6.09c-.75-.38-1.53-1.13-2.22-1.05-2.49.28-4.95.85-7.42,1.3-5.58,1-11.07,3-16.89,1.22-.86-.26-2,.37-3,.59.77.81,1.4,2,2.34,2.38a110.1,110.1,0,0,0,11.51,4.11c2.86.8,5.66,4.19,8.8,1.28,2.31-2.15,4-4.93,6-7.48A10.52,10.52,0,0,0,426.43,148.52Z"/><path class="cls-2" d="M456.92,116.42c5.62,5.48,11,10.65,16.31,15.93,1.56,1.56.79,3.17-.51,4.64q-8.41,9.51-16.77,19.05c-3.41,3.86-6.91,7.65-10.2,11.61-1.62,1.95-3.28,2.5-5.59,1.44-4.85-2.23-9.73-4.4-14.61-6.58-2.15-1-2-2.45-.82-4q4-5.55,8.12-11,10.52-14,21.09-27.89A42.74,42.74,0,0,1,456.92,116.42Z"/><path class="cls-2" d="M458.14,183.86a14,14,0,0,1-2-1.39c-2.74-2.76-5.41-5.58-8.15-8.34-1.46-1.47-1.38-2.82,0-4.31q13.78-15.24,27.51-30.52c1.64-1.84,3-2.11,4.64,0,3.59,4.58,7.36,9,11,13.55,1.42,1.74,1.26,3.17-.6,4.68-10,8.16-20,16.43-29.94,24.63C459.91,182.79,459.06,183.25,458.14,183.86Z"/><path class="cls-2" d="M428,94a26.36,26.36,0,0,1-1.33,2.7c-4,6.08-8.07,12.12-12,18.23-1.31,2-2.61,2.68-5,1.57-5.9-2.71-11.94-5.12-17.92-7.67-2.84-1.21-3.22-2.2-1.52-4.53,5.56-7.6,11.22-15.12,16.75-22.73,1.66-2.28,3.48-2.68,5.64-1q7,5.47,13.84,11.11A9.8,9.8,0,0,1,428,94Z"/><path class="cls-2" d="M430.69,142.42c.32-4.28.45-7.95.91-11.57.33-2.58-.7-4-2.89-5.06-3.34-1.56-6.63-3.24-10-4.78-2-.92-2.29-2.15-1.1-3.92,4.31-6.46,8.59-12.94,12.92-19.38,1.6-2.38,3.22-2.78,5.3-.86q8.44,7.81,16.51,16c.55.56.48,2.52-.07,3.25-6.4,8.55-12.94,17-19.48,25.44C432.55,141.91,431.87,142,430.69,142.42Z"/><path class="cls-2" d="M426.43,148.52a10.52,10.52,0,0,1-.89,2.34c-1.93,2.55-3.66,5.33-6,7.48-3.13,2.91-5.94-.48-8.8-1.28A110.1,110.1,0,0,1,399.25,153c-.95-.38-1.57-1.57-2.34-2.38,1-.22,2.13-.85,3-.59,5.82,1.77,11.31-.19,16.89-1.22,2.47-.45,4.93-1,7.42-1.3C424.89,147.39,425.68,148.14,426.43,148.52Z"/><path class="cls-3" d="M142.83,309.23H127v-5.54a27.51,27.51,0,0,0-.45-6.56,2.37,2.37,0,0,0-4.15-.19q-.53,1.13-.53,5.8V332a17.45,17.45,0,0,0,.53,5.41,2.06,2.06,0,0,0,2.11,1.3,2.33,2.33,0,0,0,2.36-1.47,17.22,17.22,0,0,0,.62-5.73v-7.24h-3.2V315h18.59V347.8h-10l-1.47-4.37a11.09,11.09,0,0,1-4.09,4.24,11.52,11.52,0,0,1-5.83,1.41,15.16,15.16,0,0,1-7.49-1.94,14.34,14.34,0,0,1-5.3-4.81,15.21,15.21,0,0,1-2.26-6,72,72,0,0,1-.45-9.45V308.74q0-8.75.94-12.7t5.41-7.26q4.47-3.3,11.56-3.3a21.54,21.54,0,0,1,11.57,2.86,13.52,13.52,0,0,1,6,6.8q1.39,3.94,1.39,11.44Z"/><path class="cls-3" d="M183.4,297.77v50H167.9l.26-4.16a10.63,10.63,0,0,1-3.9,3.8,11,11,0,0,1-5.33,1.27,12,12,0,0,1-5.69-1.21,7.84,7.84,0,0,1-3.34-3.2,11.71,11.71,0,0,1-1.34-4.17q-.26-2.17-.26-8.61V297.77h15.23v34a35.54,35.54,0,0,0,.36,6.94c.24.73.89,1.09,1.94,1.09s1.8-.38,2-1.13a43.36,43.36,0,0,0,.32-7.28V297.77Z"/><path class="cls-3" d="M204.36,297.77l-.26,4.61a11.4,11.4,0,0,1,4.05-4.14,10.88,10.88,0,0,1,5.52-1.38,10.47,10.47,0,0,1,6.41,1.85,8.22,8.22,0,0,1,3.21,4.65,42.66,42.66,0,0,1,.72,9.37V347.8H208.77V313.15a32.15,32.15,0,0,0-.34-6.3q-.34-1.13-1.88-1.13a1.88,1.88,0,0,0-2,1.3,32.69,32.69,0,0,0-.42,7V347.8H188.86v-50Z"/><path class="cls-3" d="M263.89,286.76v61H248.65v-3.63a15.72,15.72,0,0,1-4.6,3.4A11.74,11.74,0,0,1,239,348.7a10.26,10.26,0,0,1-6.14-1.87,8.31,8.31,0,0,1-3.34-4.32,30.73,30.73,0,0,1-.73-8V311.11a31.51,31.51,0,0,1,.73-8.18,8.12,8.12,0,0,1,3.37-4.24,10.76,10.76,0,0,1,6.3-1.83,12.45,12.45,0,0,1,9.46,4.08V286.76Zm-15.23,23.6a9.53,9.53,0,0,0-.47-3.7,1.88,1.88,0,0,0-1.87-.94,1.91,1.91,0,0,0-1.83.85,9.45,9.45,0,0,0-.47,3.79v24.5a11.3,11.3,0,0,0,.45,4,1.73,1.73,0,0,0,1.73,1,1.94,1.94,0,0,0,2-1.08q.49-1.07.49-5.26Z"/><path class="cls-3" d="M303.85,323.67H284.13v10.82a12,12,0,0,0,.49,4.37,1.9,1.9,0,0,0,1.88,1,2.28,2.28,0,0,0,2.32-1.3,14.2,14.2,0,0,0,.58-5v-6.6h14.44v3.69a33.07,33.07,0,0,1-.58,7.13,14.49,14.49,0,0,1-2.73,5.31,13.3,13.3,0,0,1-5.45,4.24,21.1,21.1,0,0,1-8.27,1.41,24,24,0,0,1-8.52-1.4,13.63,13.63,0,0,1-5.75-3.82,13.86,13.86,0,0,1-2.85-5.35,34.6,34.6,0,0,1-.79-8.5V315q0-6.56,1.77-10.35a12.16,12.16,0,0,1,5.81-5.8,20.44,20.44,0,0,1,9.27-2,20.73,20.73,0,0,1,10.58,2.43,13.38,13.38,0,0,1,5.84,6.44q1.68,4,1.68,11.29Zm-15.27-8.14v-3.66a18.5,18.5,0,0,0-.41-5,1.64,1.64,0,0,0-1.7-1.13q-1.58,0-2,1a20,20,0,0,0-.38,5.18v3.66Z"/><path class="cls-3" d="M324.51,286.76v61H308.82v-61Z"/><path class="cls-3" d="M345.66,286.76v8H330v-8Zm0,11v50H330v-50Z"/><path class="cls-3" d="M398.81,305.23H384.07v-4.52q0-3.17-.57-4a2.08,2.08,0,0,0-1.89-.87,2.4,2.4,0,0,0-2.17,1.17,6.8,6.8,0,0,0-.73,3.55,10,10,0,0,0,.83,4.6q.79,1.55,4.49,3.73,10.6,6.29,13.35,10.32t2.75,13q0,6.52-1.53,9.61T392.7,347a23.33,23.33,0,0,1-10.18,2.09,22.73,22.73,0,0,1-10.88-2.41,11.82,11.82,0,0,1-5.9-6.14q-1.4-3.73-1.39-10.59v-4h14.74v7.43q0,3.43.62,4.41a2.4,2.4,0,0,0,2.21,1,2.58,2.58,0,0,0,2.35-1.25,7.08,7.08,0,0,0,.77-3.69q0-5.39-1.47-7a46.87,46.87,0,0,0-7.43-5.54,73,73,0,0,1-7.84-5.69,13.35,13.35,0,0,1-3.19-4.9,21.58,21.58,0,0,1-1.26-8q0-7,1.79-10.25a12.05,12.05,0,0,1,5.79-5.07,23,23,0,0,1,9.65-1.83,25.13,25.13,0,0,1,10.54,2q4.35,2,5.77,5t1.41,10.31Z"/><path class="cls-3" d="M420.71,291.1V299h4.11v7.92h-4.11v26.77q0,4.94.51,5.5t4.24.57v8.07h-6.15a44.14,44.14,0,0,1-7.43-.43,7.92,7.92,0,0,1-3.92-2,6.65,6.65,0,0,1-2.11-3.58,63.49,63.49,0,0,1-.41-9.48V306.89h-3.28V299h3.28V291.1Z"/><path class="cls-3" d="M443.41,297.77l-.6,6.58q3.32-7.07,9.61-7.48v17.6q-4.18,0-6.14,1.13a4.74,4.74,0,0,0-2.41,3.15,56.28,56.28,0,0,0-.45,9.29V347.8H428.18v-50Z"/><path class="cls-3" d="M490.31,323.67H470.59v10.82a12,12,0,0,0,.49,4.37,1.9,1.9,0,0,0,1.88,1,2.28,2.28,0,0,0,2.32-1.3,14.16,14.16,0,0,0,.58-5v-6.6h14.44v3.69a33.16,33.16,0,0,1-.58,7.13A14.51,14.51,0,0,1,487,343a13.33,13.33,0,0,1-5.45,4.24,21.09,21.09,0,0,1-8.27,1.41,24,24,0,0,1-8.52-1.4,13.65,13.65,0,0,1-5.75-3.82,13.86,13.86,0,0,1-2.84-5.35,34.59,34.59,0,0,1-.79-8.5V315q0-6.56,1.77-10.35a12.16,12.16,0,0,1,5.8-5.8,20.45,20.45,0,0,1,9.28-2,20.72,20.72,0,0,1,10.57,2.43,13.38,13.38,0,0,1,5.84,6.44q1.68,4,1.68,11.29ZM475,315.53v-3.66a18.43,18.43,0,0,0-.42-5,1.64,1.64,0,0,0-1.7-1.13q-1.59,0-2,1a20.11,20.11,0,0,0-.37,5.18v3.66Z"/><path class="cls-3" d="M529.78,323.67H510.06v10.82a12,12,0,0,0,.49,4.37,1.9,1.9,0,0,0,1.89,1,2.29,2.29,0,0,0,2.32-1.3,14.28,14.28,0,0,0,.58-5v-6.6h14.44v3.69a33.15,33.15,0,0,1-.58,7.13,14.52,14.52,0,0,1-2.73,5.31,13.3,13.3,0,0,1-5.45,4.24,21.1,21.1,0,0,1-8.27,1.41,24.06,24.06,0,0,1-8.52-1.4,13.62,13.62,0,0,1-5.75-3.82,13.86,13.86,0,0,1-2.85-5.35,34.66,34.66,0,0,1-.79-8.5V315q0-6.56,1.77-10.35a12.18,12.18,0,0,1,5.8-5.8,20.45,20.45,0,0,1,9.28-2,20.72,20.72,0,0,1,10.57,2.43,13.36,13.36,0,0,1,5.84,6.44q1.68,4,1.68,11.29Zm-15.27-8.14v-3.66a18.51,18.51,0,0,0-.42-5,1.64,1.64,0,0,0-1.7-1.13q-1.58,0-2,1a20,20,0,0,0-.38,5.18v3.66Z"/><path class="cls-3" d="M550.82,291.1V299h4.11v7.92h-4.11v26.77q0,4.94.51,5.5t4.24.57v8.07h-6.15a44.11,44.11,0,0,1-7.43-.43,7.91,7.91,0,0,1-3.92-2,6.66,6.66,0,0,1-2.11-3.58,63.38,63.38,0,0,1-.42-9.48V306.89h-3.28V299h3.28V291.1Z"/><path class="cls-3" d="M604.31,286.76V299h-9.42V347.8H579V299h-9.38V286.76Z"/><path class="cls-3" d="M638.73,323.67H619v10.82a12,12,0,0,0,.49,4.37,1.9,1.9,0,0,0,1.88,1,2.28,2.28,0,0,0,2.32-1.3,14.19,14.19,0,0,0,.58-5v-6.6h14.44v3.69a33.15,33.15,0,0,1-.58,7.13,14.54,14.54,0,0,1-2.73,5.31,13.32,13.32,0,0,1-5.45,4.24,21.09,21.09,0,0,1-8.27,1.41,24,24,0,0,1-8.52-1.4,13.66,13.66,0,0,1-5.75-3.82,13.89,13.89,0,0,1-2.84-5.35,34.64,34.64,0,0,1-.79-8.5V315q0-6.56,1.77-10.35a12.16,12.16,0,0,1,5.8-5.8,20.45,20.45,0,0,1,9.28-2,20.71,20.71,0,0,1,10.57,2.43,13.38,13.38,0,0,1,5.84,6.44q1.67,4,1.68,11.29Zm-15.27-8.14v-3.66a18.39,18.39,0,0,0-.41-5,1.64,1.64,0,0,0-1.7-1.13q-1.59,0-2,1a20.05,20.05,0,0,0-.38,5.18v3.66Z"/><path class="cls-3" d="M657.31,317.15H643v-3.35a23.69,23.69,0,0,1,1.34-9,12.42,12.42,0,0,1,5.37-5.56q4-2.41,10.48-2.41,7.73,0,11.65,2.73a10.65,10.65,0,0,1,4.71,6.71q.79,4,.79,16.38V347.8H662.56v-4.46a9.29,9.29,0,0,1-8.86,5.36,12.87,12.87,0,0,1-7.33-2.24q-3.34-2.24-3.34-9.82v-4.11q0-5.62,1.77-7.65t8.79-4.75q7.5-2.94,8-4a10.57,10.57,0,0,0,.53-4.15q0-3.92-.58-5.11a2,2,0,0,0-1.94-1.19q-1.55,0-1.92,1a20.15,20.15,0,0,0-.38,5.18Zm4.83,6.86q-3.65,2.68-4.24,4.49a18,18,0,0,0-.58,5.2,15.13,15.13,0,0,0,.51,5,2,2,0,0,0,2,1.13,1.87,1.87,0,0,0,1.87-.88,14.4,14.4,0,0,0,.43-4.66Z"/><path class="cls-3" d="M697.66,297.77l-.27,4.76a12.3,12.3,0,0,1,4.22-4.25,11,11,0,0,1,5.58-1.41q6.11,0,9.61,5.66a13.73,13.73,0,0,1,4.34-4.25,10.39,10.39,0,0,1,5.35-1.41,10.52,10.52,0,0,1,6.43,1.88,8.3,8.3,0,0,1,3.26,4.62,38.85,38.85,0,0,1,.72,8.88V347.8H722.12V315.19a40.9,40.9,0,0,0-.44-7.94,1.91,1.91,0,0,0-2-1.53,2,2,0,0,0-2.09,1.51q-.47,1.51-.47,8V347.8H702.33V316a57.9,57.9,0,0,0-.36-8.82,1.81,1.81,0,0,0-2-1.47,2.28,2.28,0,0,0-1.74.77,3,3,0,0,0-.79,1.89q-.08,1.11-.08,4.73V347.8H682.61v-50Z"/><path class="cls-2" d="M730.5,370h-618a7.38,7.38,0,0,0-7.5,7.43v.84a7.64,7.64,0,0,0,7.5,7.73h264c-3.27,20-6.54,41-9.8,61.47s-6.47,40.8-9.7,61.23c-.38,2.42-.74,4.83-1.11,7.26l.32.16,34.91-31c.32.27.5.39.65.55,7.61,8,15.23,16.4,22.81,24.46a46.63,46.63,0,0,1,5.92,6.88h.65c2.65-3,5.26-6.15,7.94-9,6.67-7.15,13.38-14.42,20.07-21.56a13.27,13.27,0,0,0,1-1.5c3.69,3.19,7,6,10.38,8.93q12.31,10.66,24.63,21.3c.44.38.81.82,1.22,1.24l.32-1.31a7,7,0,0,1-.37-1q-2.58-14.1-5.14-28.19c-3.2-17.63-6.38-35.2-9.57-52.83-2.84-15.7-5.69-31-8.54-47H730.5a7.64,7.64,0,0,0,7.5-7.73v-.84A7.38,7.38,0,0,0,730.5,370Z"/><path class="cls-2" d="M730.5,258H459.57c-.12-4-.32-4.94-.34-9.23,0-10.2,0-7,0-17.18a7,7,0,0,1,2.19-5.48,49.84,49.84,0,0,0,12-18.13c4.25-11,6-22.68,7.82-34.27.13-.78-.44-1.68-.78-2.81-1.13.74-1.86,1.18-2.55,1.69-5.82,4.23-11.65,8.43-17.41,12.74-2.11,1.58-3.8,1.52-5.56-.48-1.6-1.83-3.35-3.53-5.07-5.24-3.15-3.13-5.95-6.59-10.33-8.34-5.13-2-10-4.81-15.15-6.79a30.55,30.55,0,0,0-13.86-1.66c-4.28-.87-6.64-2.55-9.34-3.42-3.88-1.25-7.68-2.75-11.49-4.21-1.72-.66-3.37-1.48-5.05-2.23l.19-1.09a33.63,33.63,0,0,1,4.07-.9c5.4-.54,6.07-1.94,3.61-6.68-1.13-2.17-1.53-4.71-2.26-7.08l.9-.29c2.17,2.14,4.29,4.33,6.54,6.39,2.63,2.42,5.59,4.41,9.36,4,5.79-.63,11.55-1.58,17.34-2.27a3.77,3.77,0,0,0,3.68-3.46c.44-2.78.69-5.59,1.1-8.38s-.78-4.62-3.34-5.75c-13.07-5.77-26.14-11.52-39.15-17.4-2.76-1.25-4.51-.65-6.17,1.74-9.71,14-19.52,27.84-29.15,41.85a5.3,5.3,0,0,0-.41,4.46,66.4,66.4,0,0,0,5.27,8.71c11.78,17.38,23.65,34.71,35.36,52.13a8.15,8.15,0,0,1,1,5.06c-2.38,17.11-4.92,17-7.41,34H112.5a7.2,7.2,0,0,0-7.5,7.22v.85c0,4.19,3.31,7.94,7.5,7.94h618c4.19,0,7.5-3.75,7.5-7.94v-.85A7.2,7.2,0,0,0,730.5,258Z"/><path class="cls-2" d="M659.49,224.63c-1.59-1.68-2.94-3.18-4.36-4.6-2.15-2.15-4.31-4.29-6.53-6.36a4.66,4.66,0,0,1-.29-6.57,4.6,4.6,0,0,1,6.79.06c1.6,1.63,3.12,3.35,4.69,5q5.41,5.7,10.83,11.38a5.36,5.36,0,0,1,1.17,5.91c-.86,2-2.68,2.85-5,3.08-3.58.36-7.12,1-10.67,1.62-3.35.58-6.68,1.31-10,1.92a4.46,4.46,0,0,1-5.1-2.92,4.07,4.07,0,0,1,2.61-5.3,83.06,83.06,0,0,1,8.31-1.8C654.32,225.58,656.75,225.15,659.49,224.63Z"/><path class="cls-2" d="M658.59,185.49c-3.77,3.42-7.35,6.66-10.93,9.91a4.54,4.54,0,0,1-6.65-.13c-1.66-2-1.28-4.58.84-6.47q6.66-6,13.24-12c2.78-2.57,5.16-2.47,7.71.38q6.08,6.75,12.25,13.42a4.43,4.43,0,0,1,0,6.41,4.5,4.5,0,0,1-6.41-.39q-4.52-5-9-10C659.3,186.31,659,186,658.59,185.49Z"/><path class="cls-2" d="M643.88,211.94l6,6.33-6.3,6-21.43,20.23c-2.17,2.05-5,2.17-6.78.25s-1.42-4.61.72-6.62q13.57-12.76,27.12-25.54Z"/><path class="cls-2" d="M676.61,187.43a9.5,9.5,0,0,1,19-.06,9.5,9.5,0,1,1-19,.06Z"/><path class="cls-2" d="M674.67,199.82v7.63c1.33.07,2.72.18,4.12.22,3.26.1,6.52.13,9.77.27,2.86.12,4.75,2.06,4.59,4.61s-2.2,4.18-5.09,4.09q-9.08-.27-18.16-.46c-3.33-.07-4.89-2-5-5.34-.13-2.89,1-4.56,3.28-6S672.35,201.61,674.67,199.82Z"/></g></svg>