<svg id="Layer_8" data-name="Layer 8" xmlns="http://www.w3.org/2000/svg" viewBox="0 0 480 112"><defs><style>.cls-1{fill:#343434;}.cls-2{fill:#4ba629;}</style></defs><title>kingchiller-logo</title><path class="cls-1" d="M112.05,61.41h-.12V75.6H101.47V32h10.47V57.51h.12l6.86-12.22h10.48l-8.5,13.9,9.19,16.4H118.51Z"/><path class="cls-1" d="M150.56,51.46q0-1.68-.12-3.4t-.23-2.76H160q.12.93.17,2.36c0,1,.06,1.85.06,2.71h.11q.24-.58.76-1.57a7.57,7.57,0,0,1,1.51-1.92,8.75,8.75,0,0,1,2.53-1.6,9.43,9.43,0,0,1,3.75-.67,11,11,0,0,1,3.61.58,7.79,7.79,0,0,1,2.94,1.8,8.32,8.32,0,0,1,2,3.05,12.14,12.14,0,0,1,.7,4.33V75.6H167.67V57.39q0-4.3-2.85-4.3a3,3,0,0,0-1.69.46A3.74,3.74,0,0,0,162,54.83a6.72,6.72,0,0,0-.7,1.89A10.46,10.46,0,0,0,161,59V75.6H150.56Z"/><path class="cls-1" d="M185.06,78.17c.47.27,1,.57,1.63.9a14.87,14.87,0,0,0,2.09.9,19.84,19.84,0,0,0,2.56.7,15,15,0,0,0,3.08.29q4.6,0,6.43-2.39a10.76,10.76,0,0,0,1.83-6.69V69.61h-.12a8.94,8.94,0,0,1-3.17,4.48,8.29,8.29,0,0,1-4.92,1.51,10.82,10.82,0,0,1-5.27-1.19,9.55,9.55,0,0,1-3.55-3.35,15.57,15.57,0,0,1-2-5.12,31,31,0,0,1-.64-6.51,20.42,20.42,0,0,1,.75-5.59A15.43,15.43,0,0,1,186,49.1a11.21,11.21,0,0,1,3.55-3.29,9.29,9.29,0,0,1,4.77-1.22,9,9,0,0,1,3,.46,8.48,8.48,0,0,1,2.33,1.25,7.88,7.88,0,0,1,1.71,1.8,15.49,15.49,0,0,1,1.22,2.13h.12c0-.74,0-1.55.12-2.45s.17-1.72.29-2.5h9.84c-.08.89-.16,1.93-.23,3.11s-.12,2.51-.12,4V71.82a25.23,25.23,0,0,1-.9,7.1,13,13,0,0,1-2.88,5.23,12.34,12.34,0,0,1-5.12,3.26,22.88,22.88,0,0,1-7.56,1.11,26.92,26.92,0,0,1-3.46-.23q-1.78-.23-3.35-.52t-2.79-.64a11.53,11.53,0,0,1-1.8-.64Zm17-17.92a13.75,13.75,0,0,0-1-6,3.44,3.44,0,0,0-3.26-2.12,3,3,0,0,0-3.05,2.18,16.39,16.39,0,0,0-.79,5.5,32.3,32.3,0,0,0,.17,3.52,10.83,10.83,0,0,0,.61,2.73A4.17,4.17,0,0,0,196,67.87a3.17,3.17,0,0,0,2.07.64,3.41,3.41,0,0,0,2.09-.61,3.89,3.89,0,0,0,1.25-1.69,9.29,9.29,0,0,0,.58-2.59Q202.1,62.11,202.1,60.25Z"/><path class="cls-1" d="M240.32,53.67q-.82-.35-2.13-.81a8.94,8.94,0,0,0-3-.46,6.74,6.74,0,0,0-4.89,1.92q-2,1.92-2,6.17a15,15,0,0,0,.32,3.17,6.72,6.72,0,0,0,1.1,2.56,5.37,5.37,0,0,0,2.07,1.69,7.44,7.44,0,0,0,3.2.61,12.76,12.76,0,0,0,1.89-.15,12.89,12.89,0,0,0,1.75-.38q.79-.23,1.37-.46c.39-.16.66-.27.81-.35l.29,7.56a9.29,9.29,0,0,1-1.63.58,22.59,22.59,0,0,1-2.27.5c-.81.14-1.62.25-2.41.35a18,18,0,0,1-2.13.15,16.9,16.9,0,0,1-7-1.31A12.85,12.85,0,0,1,221,71.5a13.33,13.33,0,0,1-2.59-5.06,23,23,0,0,1,0-11.93A13.57,13.57,0,0,1,221,49.43a12.68,12.68,0,0,1,4.68-3.52,16.87,16.87,0,0,1,7-1.31,20,20,0,0,1,5.27.55q1.95.55,2.88.9Z"/><path class="cls-1" d="M245.32,32H255.8V45.41c0,.62,0,1.26-.06,1.92s-.1,1.26-.18,1.8h.18a8.52,8.52,0,0,1,8-4.54,11,11,0,0,1,3.61.58,7.8,7.8,0,0,1,2.94,1.8A8.31,8.31,0,0,1,272.2,50a12.14,12.14,0,0,1,.7,4.33V75.6H262.43V57.39q0-4.3-2.86-4.3a3,3,0,0,0-1.69.46,3.77,3.77,0,0,0-1.16,1.28,6.65,6.65,0,0,0-.7,1.89A10.48,10.48,0,0,0,255.8,59V75.6H245.32Z"/><path class="cls-1" d="M279.18,32h10.48V40.7H279.18Zm0,13.32h10.48V75.6H279.18Z"/><path class="cls-1" d="M296.4,32h10.47V75.6H296.4Z"/><path class="cls-1" d="M313.62,32h10.47V75.6H313.62Z"/><path class="cls-1" d="M339.39,63.33a7.38,7.38,0,0,0,.76,3.05,5.79,5.79,0,0,0,1.66,2,6.08,6.08,0,0,0,2.36,1,13,13,0,0,0,2.79.29,14.47,14.47,0,0,0,4.54-.79q2.38-.79,4.3-1.6l.23,7.27a33.91,33.91,0,0,1-4.62,1.16,35.61,35.61,0,0,1-6,.58,18.47,18.47,0,0,1-7.65-1.39,13,13,0,0,1-4.86-3.67,13.76,13.76,0,0,1-2.56-5.15,22.73,22.73,0,0,1-.76-5.79,19.51,19.51,0,0,1,.9-6,14.91,14.91,0,0,1,2.7-5,13.21,13.21,0,0,1,4.42-3.46,15.07,15.07,0,0,1,12.21,0,12.86,12.86,0,0,1,4.37,3.49,14.62,14.62,0,0,1,2.59,5,20.93,20.93,0,0,1,.84,5.93v3Zm8.72-5.47V57a8.61,8.61,0,0,0-.93-4.54A3.63,3.63,0,0,0,343.87,51a4,4,0,0,0-3.46,1.86,8.87,8.87,0,0,0-1.25,5Z"/><path class="cls-1" d="M362.71,54.08c0-2.17,0-4-.12-5.5s-.15-2.59-.23-3.29h9.83c.08.62.13,1.41.18,2.36s.06,1.85.06,2.71h.12c.23-.58.53-1.21.87-1.89a7.21,7.21,0,0,1,1.43-1.89,7,7,0,0,1,2.24-1.42,8.35,8.35,0,0,1,3.2-.55c.39,0,.7,0,.93,0a5.21,5.21,0,0,1,.81.15V53.9a8.78,8.78,0,0,0-1.28-.23,15.45,15.45,0,0,0-1.86-.12,5,5,0,0,0-4.13,2,7.79,7.79,0,0,0-1.57,5V75.6H362.71Z"/><rect class="cls-1" x="133.81" y="45.29" width="10.47" height="30.31"/><polygon class="cls-2" points="139.04 25.82 143.39 34.38 153.1 33.42 146.07 42.42 132.02 42.42 124.99 33.42 134.7 34.38 139.04 25.82"/></svg>