<svg xmlns="http://www.w3.org/2000/svg" viewBox="0 0 340 220"><defs><style>.cls-1{fill:#48a69c;}.cls-2{fill:#e6e6e6;}.cls-3{fill:#4d4d4d;}.cls-4{fill:#f96673;}.cls-5{fill:#ccc;}.cls-6{fill:#8f5fa3;}.cls-7{fill:#feb21e;}.cls-8{fill:#d2cbc3;}.cls-9{fill:#b3b3b3;}.cls-10,.cls-11,.cls-14,.cls-15,.cls-16,.cls-17,.cls-18,.cls-20{fill:none;stroke-miterlimit:10;}.cls-10,.cls-14{stroke:#ccc;}.cls-10,.cls-11{stroke-width:0.76px;}.cls-10{stroke-dasharray:1.52 1.52;}.cls-11,.cls-15{stroke:#e6e6e6;}.cls-11{stroke-dasharray:1.52;}.cls-12{fill:#2b393f;}.cls-13{fill:#fff;}.cls-14,.cls-15{stroke-width:1.1px;}.cls-14{stroke-dasharray:2.21 2.21;}.cls-15{stroke-dasharray:2.21;}.cls-16,.cls-17,.cls-18{stroke:#b3b3b3;stroke-width:1.01px;}.cls-17{stroke-dasharray:4.11 4.11;}.cls-18{stroke-dasharray:3.61 3.61;}.cls-19{fill:#333;}.cls-20{stroke:#8f5fa3;stroke-width:2.99px;}.cls-21,.cls-22{fill:#fcb70b;}.cls-22{opacity:0.1;}</style></defs><title>branding</title><g id="desk"><g id="pencil-green"><rect class="cls-1" x="62.29" y="142.01" width="5.78" height="36.61"/><polygon class="cls-2" points="65.18 136.23 62.32 142.01 68.1 142.01 65.18 136.23"/><path class="cls-3" d="M66.53,138.9l-1.35-2.67-1.31,2.66a4,4,0,0,0,2.66,0Z"/></g><g id="pencil-red"><rect class="cls-4" x="79.74" y="148.62" width="5.78" height="36.61" transform="translate(52.7 -16.91) rotate(17.09)"/><polygon class="cls-2" points="89.71 143.9 85.28 148.59 90.81 150.29 89.71 143.9"/><path class="cls-3" d="M90.22,146.85l-.51-2.95-2,2.16a4,4,0,0,0,2.54.79Z"/></g><g id="palette"><path class="cls-5" d="M273.44,141.22a24.51,24.51,0,1,0,0,49,4.09,4.09,0,0,0,3-6.83,4.07,4.07,0,0,1,3-6.78h4.82A13.62,13.62,0,0,0,297.94,163C297.94,151,287,141.22,273.44,141.22Zm-15,24.51a4.08,4.08,0,1,1,4.08-4.08A4.08,4.08,0,0,1,258.46,165.73Zm8.17-10.89a4.08,4.08,0,1,1,4.08-4.08A4.08,4.08,0,0,1,266.63,154.83Zm13.62,0a4.08,4.08,0,1,1,4.08-4.08A4.08,4.08,0,0,1,280.24,154.83Zm8.17,10.89a4.08,4.08,0,1,1,4.08-4.08A4.08,4.08,0,0,1,288.41,165.73Z"/><path class="cls-2" d="M272,140.48a24.51,24.51,0,0,0,0,49,4.09,4.09,0,0,0,3-6.83,4.07,4.07,0,0,1,3-6.78h4.82a13.62,13.62,0,0,0,13.62-13.62C296.46,150.22,285.49,140.48,272,140.48ZM257,165a4.08,4.08,0,1,1,4.08-4.08A4.08,4.08,0,0,1,257,165Zm8.17-10.89a4.08,4.08,0,1,1,4.08-4.08A4.08,4.08,0,0,1,265.14,154.09Zm13.62,0a4.08,4.08,0,1,1,4.08-4.08A4.08,4.08,0,0,1,278.76,154.09ZM286.93,165A4.08,4.08,0,1,1,291,160.9,4.08,4.08,0,0,1,286.93,165Z"/><circle class="cls-4" cx="286.93" cy="160.9" r="4.08"/><circle class="cls-1" cx="278.76" cy="150.01" r="4.08"/><circle class="cls-6" cx="265.14" cy="150.01" r="4.08"/><circle class="cls-7" cx="256.98" cy="160.9" r="4.08"/></g><g id="tablet"><rect class="cls-7" x="194.82" y="65.36" width="56.99" height="78.96" rx="8.01" ry="8.01" transform="translate(118.47 328.16) rotate(-90)"/><rect class="cls-2" x="197.57" y="74.63" width="46.69" height="60.42" transform="translate(116.07 325.75) rotate(-90)"/><circle class="cls-8" cx="256.61" cy="104.84" r="3.43"/><rect class="cls-9" x="225.13" y="119.88" width="20.23" height="4.82"/><rect class="cls-9" x="225.13" y="113.22" width="20.23" height="4.82"/><rect class="cls-9" x="225.13" y="106.48" width="20.23" height="4.82"/><rect class="cls-9" x="225.13" y="99.73" width="20.23" height="4.82"/><circle class="cls-9" cx="198.52" cy="89.19" r="3.04"/><path class="cls-9" d="M212.72,89.19c0,.55-.6,1-.86,1.4s-.32,1.18-.78,1.45-1.09,0-1.64,0-1.2.31-1.64,0-.51-1-.78-1.45-.86-.84-.86-1.4.6-1,.86-1.4.32-1.18.78-1.45,1.09,0,1.64,0,1.2-.31,1.64,0,.51,1,.78,1.45S212.72,88.64,212.72,89.19Z"/><path class="cls-9" d="M223.65,89.19c0,.33-.53.57-.62.87s.18.81,0,1.07-.75.15-1,.33-.32.76-.63.86-.69-.33-1-.33-.72.42-1,.33-.37-.67-.63-.86-.82-.08-1-.33.1-.76,0-1.07-.62-.54-.62-.86.53-.57.62-.87-.18-.81,0-1.07.75-.15,1-.33.32-.76.63-.86.69.33,1,.33.72-.42,1-.33.37.67.63.86.82.08,1,.33-.1.76,0,1.07S223.65,88.86,223.65,89.19Z"/><polygon class="cls-9" points="245.37 89.19 244.77 90.02 244.76 91.04 243.79 91.36 243.19 92.19 242.22 91.87 241.24 92.19 240.64 91.36 239.67 91.04 239.66 90.02 239.07 89.19 239.66 88.36 239.67 87.34 240.64 87.02 241.24 86.19 242.22 86.51 243.19 86.19 243.79 87.02 244.76 87.34 244.77 88.36 245.37 89.19"/><polygon class="cls-9" points="232.86 86.47 229.72 86.47 228.15 89.19 229.72 91.91 232.86 91.91 234.43 89.19 232.86 86.47"/><rect class="cls-5" x="194.45" y="99.2" width="25.07" height="11.4"/><line class="cls-10" x1="197.18" y1="115.56" x2="216.8" y2="115.56"/><polygon class="cls-5" points="197.74 117.45 194.46 115.56 197.74 113.67 197.74 117.45"/><polygon class="cls-5" points="216.25 117.45 219.53 115.56 216.25 113.67 216.25 117.45"/><circle class="cls-11" cx="207.08" cy="104.9" r="3.8"/></g><g id="cup"><rect class="cls-7" x="291.98" y="79.87" width="4.77" height="30.22" transform="translate(-13.45 64.62) rotate(-12.25)"/><polygon class="cls-2" points="290.15 75.55 288.86 80.72 293.52 79.7 290.15 75.55"/><path class="cls-3" d="M291.7,77.47l-1.56-1.92-.59,2.37a3.33,3.33,0,0,0,2.15-.46Z"/><rect class="cls-1" x="297.83" y="73.56" width="4.77" height="30.22"/><polygon class="cls-2" points="300.22 68.79 297.86 73.56 302.63 73.56 300.22 68.79"/><path class="cls-3" d="M301.33,71l-1.11-2.2L299.14,71a3.33,3.33,0,0,0,2.2,0Z"/><rect class="cls-4" x="304.99" y="77.54" width="4.77" height="30.22"/><polygon class="cls-2" points="307.38 72.77 305.02 77.54 309.79 77.54 307.38 72.77"/><path class="cls-3" d="M308.49,75l-1.11-2.2L306.29,75a3.33,3.33,0,0,0,2.2,0Z"/><rect class="cls-12" x="287.75" y="90.95" width="26.97" height="33.72"/><path class="cls-12" d="M319.35,117h-10.4V98.66h10.4a5,5,0,0,1,5,5v8.27A5,5,0,0,1,319.35,117Zm-6.54-3.85h5.44a2.27,2.27,0,0,0,2.27-2.27v-6.06a2.27,2.27,0,0,0-2.27-2.27H312.8Z"/><rect class="cls-13" x="301.71" y="109.31" width="5.31" height="5.31"/><polygon class="cls-13" points="298.56 114.62 300.63 114.62 300.63 104 298.56 106.16 298.56 114.62"/><polygon class="cls-13" points="298.56 100.77 298.56 105.08 300.63 102.92 300.63 100.77 298.56 100.77"/><path class="cls-13" d="M295.86,108.22l-1.61,1.1v5.3h1.08v-1.54a.53.53,0,0,1,.53-.53h0a.53.53,0,0,1,.53.53v1.54h1.08v-5.3Z"/></g><g id="notes"><rect class="cls-5" x="106.3" y="145.11" width="115.7" height="68.19"/><rect class="cls-2" x="105.48" y="143.94" width="113.84" height="68.19"/><rect class="cls-5" x="149.93" y="165.31" width="26.25" height="0.94"/><rect class="cls-5" x="149.93" y="167.19" width="26.25" height="0.94"/><rect class="cls-5" x="149.93" y="169.06" width="26.25" height="0.94"/><rect class="cls-5" x="149.93" y="170.94" width="13.12" height="0.94"/><rect class="cls-5" x="111.15" y="148.62" width="13.12" height="0.94"/><rect class="cls-5" x="110.45" y="153.45" width="30.93" height="14.06"/><line class="cls-14" x1="114.42" y1="172.44" x2="137.42" y2="172.44"/><polygon class="cls-5" points="115.22 175.2 110.45 172.44 115.22 169.69 115.22 175.2"/><polygon class="cls-5" points="136.62 175.2 141.39 172.44 136.62 169.69 136.62 175.2"/><circle class="cls-15" cx="134.36" cy="160.48" r="4.69"/><polyline class="cls-16" points="212.63 182.93 212.63 184.94 210.62 184.94"/><line class="cls-17" x1="206.51" y1="184.94" x2="151.07" y2="184.94"/><polyline class="cls-16" points="149.02 184.94 147.01 184.94 147.01 182.93"/><line class="cls-18" x1="147.01" y1="179.32" x2="147.01" y2="152.25"/><polyline class="cls-16" points="147.01 150.44 147.01 148.43 149.02 148.43"/><line class="cls-17" x1="153.13" y1="148.43" x2="208.56" y2="148.43"/><polyline class="cls-16" points="210.62 148.43 212.63 148.43 212.63 150.44"/><line class="cls-18" x1="212.63" y1="154.05" x2="212.63" y2="181.13"/><circle class="cls-5" cx="135.11" cy="201.46" r="6.54"/><path class="cls-5" d="M178.81,201.46c0,1.19-1.29,2-1.85,3s-.69,2.53-1.68,3.11-2.34-.1-3.53-.1-2.57.66-3.53.1-1.1-2.12-1.68-3.11-1.85-1.82-1.85-3,1.29-2,1.85-3,.69-2.53,1.68-3.11,2.34.1,3.53.1,2.57-.66,3.53-.1,1.1,2.12,1.68,3.11S178.81,200.27,178.81,201.46Z"/><path class="cls-1" d="M197.4,201.46c0,.71-1.13,1.22-1.34,1.86s.39,1.74,0,2.29-1.62.31-2.18.72-.69,1.64-1.35,1.85-1.48-.7-2.18-.7-1.55.91-2.18.7-.8-1.45-1.35-1.85-1.77-.16-2.18-.72.2-1.63,0-2.29-1.34-1.15-1.34-1.86,1.13-1.22,1.34-1.86-.39-1.74,0-2.29,1.62-.31,2.18-.72.69-1.64,1.35-1.85,1.48.7,2.18.7,1.55-.91,2.18-.7.8,1.45,1.35,1.85,1.77.16,2.18.72-.2,1.63,0,2.29S197.4,200.75,197.4,201.46Z"/><polygon class="cls-7" points="160.23 201.46 158.89 203.32 158.88 205.61 156.7 206.32 155.35 208.18 153.17 207.47 150.99 208.18 149.63 206.32 147.46 205.61 147.45 203.32 146.11 201.46 147.45 199.6 147.46 197.31 149.63 196.59 150.99 194.74 153.17 195.44 155.35 194.74 156.7 196.59 158.88 197.31 158.89 199.6 160.23 201.46"/><polygon class="cls-5" points="215.99 201.46 214.79 202.8 215.29 204.52 213.63 205.21 213.33 206.98 211.53 206.88 210.5 208.34 208.93 207.47 207.35 208.34 206.31 206.88 204.52 206.98 204.22 205.21 202.56 204.52 203.06 202.8 201.87 201.46 203.06 200.12 202.56 198.39 204.22 197.71 204.52 195.94 206.32 196.04 207.35 194.57 208.93 195.44 210.5 194.57 211.54 196.04 213.33 195.94 213.63 197.71 215.29 198.39 214.79 200.12 215.99 201.46"/><polygon class="cls-5" points="120.58 195.36 113.54 195.36 110.02 201.46 113.54 207.56 120.58 207.56 124.1 201.46 120.58 195.36"/><rect class="cls-19" x="103.02" y="146.39" width="4.91" height="1.64"/><rect class="cls-19" x="103.02" y="149.66" width="4.91" height="1.64"/><rect class="cls-19" x="103.02" y="152.93" width="4.91" height="1.64"/><rect class="cls-19" x="103.02" y="156.2" width="4.91" height="1.64"/><rect class="cls-19" x="103.02" y="159.47" width="4.91" height="1.64"/><rect class="cls-19" x="103.02" y="162.74" width="4.91" height="1.64"/><rect class="cls-19" x="103.02" y="166.01" width="4.91" height="1.64"/><rect class="cls-19" x="103.02" y="169.28" width="4.91" height="1.64"/><rect class="cls-19" x="103.02" y="172.56" width="4.91" height="1.64"/><rect class="cls-19" x="103.02" y="175.83" width="4.91" height="1.64"/><rect class="cls-19" x="103.02" y="179.1" width="4.91" height="1.64"/><rect class="cls-19" x="103.02" y="182.37" width="4.91" height="1.64"/><rect class="cls-19" x="103.02" y="185.64" width="4.91" height="1.64"/><rect class="cls-19" x="103.02" y="188.91" width="4.91" height="1.64"/><rect class="cls-19" x="103.02" y="192.18" width="4.91" height="1.64"/><rect class="cls-19" x="103.02" y="195.45" width="4.91" height="1.64"/><rect class="cls-19" x="103.02" y="198.72" width="4.91" height="1.64"/><rect class="cls-19" x="103.02" y="201.99" width="4.91" height="1.64"/><rect class="cls-19" x="103.02" y="205.26" width="4.91" height="1.64"/><rect class="cls-19" x="103.02" y="208.53" width="4.91" height="1.64"/></g><g id="magnifying-glass"><circle class="cls-20" cx="31.97" cy="174.68" r="14.21" transform="translate(-114.16 73.77) rotate(-45)"/><rect class="cls-6" x="45.9" y="180.39" width="5.98" height="22.43" transform="translate(-121.16 90.69) rotate(-45)"/></g><g id="ruler"><rect class="cls-4" x="211.81" y="190.95" width="37.72" height="6.66" transform="translate(424.95 -36.39) rotate(90)"/><rect class="cls-19" x="228.99" y="177.16" width="0.69" height="3.97" transform="translate(408.48 -50.18) rotate(90)"/><rect class="cls-19" x="228.1" y="179.81" width="0.69" height="2.21" transform="translate(409.36 -47.53) rotate(90)"/><rect class="cls-19" x="228.1" y="181.58" width="0.69" height="2.21" transform="translate(411.13 -45.76) rotate(90)"/><rect class="cls-19" x="228.1" y="183.34" width="0.69" height="2.21" transform="translate(412.9 -44) rotate(90)"/><rect class="cls-19" x="228.1" y="185.11" width="0.69" height="2.21" transform="translate(414.66 -42.23) rotate(90)"/><rect class="cls-19" x="228.99" y="185.99" width="0.69" height="3.97" transform="translate(417.31 -41.35) rotate(90)"/><rect class="cls-19" x="228.1" y="188.64" width="0.69" height="2.21" transform="translate(418.19 -38.7) rotate(90)"/><rect class="cls-19" x="228.1" y="190.41" width="0.69" height="2.21" transform="translate(419.96 -36.93) rotate(90)"/><rect class="cls-19" x="228.1" y="192.18" width="0.69" height="2.21" transform="translate(421.73 -35.17) rotate(90)"/><rect class="cls-19" x="228.1" y="193.94" width="0.69" height="2.21" transform="translate(423.49 -33.4) rotate(90)"/><rect class="cls-19" x="228.99" y="194.83" width="0.69" height="3.97" transform="translate(426.14 -32.52) rotate(90)"/><rect class="cls-19" x="228.1" y="197.48" width="0.69" height="2.21" transform="translate(427.03 -29.87) rotate(90)"/><rect class="cls-19" x="228.1" y="199.24" width="0.69" height="2.21" transform="translate(428.79 -28.1) rotate(90)"/><rect class="cls-19" x="228.1" y="201.01" width="0.69" height="2.21" transform="translate(430.56 -26.33) rotate(90)"/><rect class="cls-19" x="228.1" y="202.77" width="0.69" height="2.21" transform="translate(432.32 -24.57) rotate(90)"/><rect class="cls-19" x="228.99" y="203.66" width="0.69" height="3.97" transform="translate(434.97 -23.69) rotate(90)"/><circle class="cls-13" cx="230.67" cy="210.37" r="1.11"/></g><g id="brush"><path class="cls-3" d="M297.73,205.25c3.76-6.5,12.88-24.81,15.32-29.72a1.32,1.32,0,0,0-.4-1.78h0a1.32,1.32,0,0,0-1.71.62c-2.82,4.71-13.29,22.28-16.72,29-1.13,2.2-3.67,7.94-4.77,10.43a1.31,1.31,0,0,0,.43,1.71h0a1.31,1.31,0,0,0,1.67-.56C293,212.63,296.49,207.39,297.73,205.25Z"/><path class="cls-1" d="M316.81,175a4.27,4.27,0,1,1-7.5-4.09c1.13-2.07,4.9-1.54,7.43-4.7C318.82,167.35,317.94,172.94,316.81,175Z"/></g><g id="flowers"><path class="cls-1" d="M38.24,109.25H36.31c0-15.37,6.71-39.52,6.78-39.76l1.86.52C44.88,70.25,38.24,94.15,38.24,109.25Z"/><path class="cls-1" d="M33.43,105.51a67.34,67.34,0,0,0-18-37.95l1.32-1.41a69.36,69.36,0,0,1,18.6,39.12Z"/><polygon class="cls-21" points="44.98 124.67 27.64 124.67 24.75 92.88 47.87 92.88 44.98 124.67"/><path class="cls-21" d="M53.64,66a5.44,5.44,0,0,0-7.09-2.34A5.44,5.44,0,0,0,37,68.83a5.44,5.44,0,0,0,5.17,9.55,5.44,5.44,0,0,0,9.55-5.17A5.44,5.44,0,0,0,53.64,66Z"/><circle class="cls-6" cx="44.35" cy="71.02" r="4.51" transform="translate(-28.44 29.64) rotate(-28.39)"/><path class="cls-4" d="M26.68,66.78a5.59,5.59,0,0,0-5.26-5.58,5.59,5.59,0,0,0-11.15,0,5.59,5.59,0,0,0,0,11.15,5.59,5.59,0,0,0,11.15,0A5.59,5.59,0,0,0,26.68,66.78Z"/><circle class="cls-21" cx="15.84" cy="66.78" r="5.59"/></g><g id="lamp"><polygon class="cls-22" points="226.99 124.67 82.65 124.67 144 26.52 167.81 26.52 226.99 124.67"/><path class="cls-4" d="M62.95,56.1a4.09,4.09,0,0,1,2.17.62l2.26-1.49a1.43,1.43,0,0,1,1.22-.17L117,22.58a1.44,1.44,0,0,1,.61-1.51l1.94-1.27a3.8,3.8,0,0,1,3.78-4.18,3.78,3.78,0,0,1,2.77,1.21l4.82-1.21h3.16V13.09h11A12,12,0,0,1,156.24,5.5h0a12,12,0,0,1,12,12v7h-24v-1.9H136v3.16h35.42V27H134.74V22.58h-.63v-.95l-7.49-.29a3.78,3.78,0,0,1-4.93,1.48l-2,1.33a1.44,1.44,0,0,1-1.53,0L70,57.05a1.44,1.44,0,0,1-.64,1.27L67,59.87c0,.11,0,.22,0,.34s0,.09,0,.14l2.42,2.24a1.43,1.43,0,0,1,.4.67l47.2,34.16a1.44,1.44,0,0,1,1.75.16l1.06,1a3.79,3.79,0,0,1,5.84,4.18l1.61,1.61a3.79,3.79,0,0,1,6.14,3v3.16s2.59,1.18,3.16,5.69c3,.54,10.12,2.71,12,4.61v3.71H110.07v-3.88s7.59-3.8,13.28-3.8a10.15,10.15,0,0,1,2.62-8.68l-2.37-3a3.79,3.79,0,0,1-5.27-3l-2-1.88a1.43,1.43,0,0,1-.44-.88h0L69.13,65.09l-.13.14a1.44,1.44,0,0,1-2,.08l-1.77-1.65a4.11,4.11,0,1,1-2.24-7.55Z"/></g></g></svg>