<svg xmlns="http://www.w3.org/2000/svg" viewBox="0 0 104.99 37.44"><defs><style>.cls-1{fill:#2b393f;}.cls-2{fill:#feb21e;}.cls-3{fill:#48a69c;}.cls-4{fill:#8f5fa3;}.cls-5{fill:#f96673;}.cls-6{fill:none;stroke:#2b393f;stroke-linecap:round;stroke-miterlimit:10;stroke-width:0.61px;}.cls-7,.cls-8{fill:#fff;}.cls-8{opacity:0.2;}</style></defs><title>header-agency-ship</title><g id="desk"><rect class="cls-1" x="83.08" y="3.87" width="4.36" height="2.95"/><rect class="cls-1" x="76.53" y="0.4" width="0.58" height="6.65"/><rect class="cls-1" x="74.29" y="3.87" width="0.9" height="3.32"/><polygon class="cls-1" points="86.1 2.93 84.41 1.71 84.41 4.65 86.1 4.65 86.1 2.93"/><polygon class="cls-1" points="65.35 6.82 92.29 6.82 92.64 18.93 65.35 18.93 65.35 6.82"/><rect class="cls-2" x="65.35" y="6.65" width="26.94" height="0.79" transform="translate(157.64 14.08) rotate(-180)"/><rect class="cls-3" x="46.77" y="12.93" width="12.71" height="4.57" transform="translate(106.24 30.42) rotate(-180)"/><rect class="cls-4" x="33.24" y="12.93" width="12.71" height="4.57" transform="translate(79.19 30.42) rotate(-180)"/><rect class="cls-5" x="6.19" y="12.93" width="12.71" height="4.57" transform="translate(25.09 30.42) rotate(-180)"/><rect class="cls-2" x="19.72" y="12.93" width="12.71" height="4.57" transform="translate(52.14 30.42) rotate(-180)"/><line class="cls-6" x1="96.61" y1="18.61" x2="98.43" y2="10.02"/><path class="cls-5" d="M103.42,16c-1.75-.41-3.5.37-5.26-.71.36-1.66.72-3.38,1.08-5.13,1.75.53,3.5-.16,5.26,1C104.13,12.64,103.77,14.27,103.42,16Z"/><path class="cls-7" d="M99.59,13.64l.24-1.21c1.07.16,2.15,0,3.22.18l-.24,1.18C101.74,13.66,100.67,13.84,99.59,13.64Z"/><path class="cls-7" d="M101.07,11.44c.39,0,.79,0,1.18,0q-.33,1.64-.66,3.33c-.39,0-.79,0-1.18,0Z"/><rect class="cls-2" x="46.77" y="7.69" width="12.71" height="4.57" transform="translate(106.24 19.95) rotate(-180)"/><rect class="cls-5" x="33.24" y="7.69" width="12.71" height="4.57" transform="translate(79.19 19.95) rotate(-180)"/><rect class="cls-2" x="19.72" y="7.69" width="12.71" height="4.57" transform="translate(52.14 19.95) rotate(-180)"/><rect class="cls-2" x="0.49" y="18.28" width="100.35" height="1.44" transform="translate(101.34 37.99) rotate(-180)"/><path class="cls-1" d="M84.88,34C77.61,34,77.61,37,70.34,37S63.06,34,55.79,34,48.52,37,41.24,37,34,34,26.69,34a16.21,16.21,0,0,0-7.29,1.54,7,7,0,0,1-7.61-1.44L.49,19.72H100L94.77,31.54A5.07,5.07,0,0,1,89,34.4,17.62,17.62,0,0,0,84.88,34Z"/><path class="cls-7" d="M13.94,29.38a2.91,2.91,0,0,0,4.83,0l.69.21L19,27.76,17.66,29l.64.19a2.44,2.44,0,0,1-1.62.94V26.26h.57v-.47h-.57V25.2a.88.88,0,1,0-.63,0v.59h-.57v.47H16v3.91a2.45,2.45,0,0,1-1.62-.94l.64-.19-1.38-1.28-.43,1.83Zm2.83-5a.41.41,0,1,1-.41-.41A.41.41,0,0,1,16.77,24.37Z"/><circle class="cls-8" cx="32.13" cy="24.97" r="1.78"/><circle class="cls-8" cx="38.79" cy="24.97" r="1.78"/><circle class="cls-8" cx="45.45" cy="24.97" r="1.78"/><circle class="cls-8" cx="85.84" cy="13.51" r="1.25"/><circle class="cls-8" cx="80.12" cy="13.5" r="1.25"/><path class="cls-8" d="M70.38,11.14h4.09a0,0,0,0,1,0,0v5.09a2,2,0,0,1-2,2h0a2,2,0,0,1-2-2V11.14a0,0,0,0,1,0,0Z" transform="translate(144.85 29.42) rotate(-180)"/></g></svg>
