<svg xmlns="http://www.w3.org/2000/svg" viewBox="0 0 100 75"><defs><style>.cls-1{fill:#e6e6e6;}.cls-2{fill:#b3b3b3;}.cls-3{fill:#f96673;}.cls-4{fill:#fa7480;}.cls-5{fill:#ccc;}.cls-6{fill:#2b393f;}</style></defs><title>homer</title><g id="Layer_1" data-name="Layer 1"><rect class="cls-1" x="9.33" y="40.27" width="30.58" height="16.8" transform="translate(-0.93 96.85) rotate(-125.22)"/><polygon class="cls-2" points="26.58 66 24.57 48.97 8.95 41.02 26.58 66"/><path class="cls-3" d="M23,46.43c.23-.16.61,0,.86-.08s.49-.42.76-.42.49.35.74.44.64-.06.86.11.18.57.34.79.55.34.63.59-.18.58-.19.84.25.59.16.85-.48.35-.65.57-.14.62-.37.78-.61,0-.86.08-.49.42-.76.42-.49-.35-.74-.44-.64.06-.86-.11-.18-.57-.34-.79-.55-.34-.63-.59.18-.58.19-.84-.25-.59-.16-.85.48-.35.65-.57S22.82,46.59,23,46.43Z"/><path class="cls-4" d="M23.33,46.83c.19-.13.5,0,.71-.07s.4-.35.62-.34.4.29.61.36.52,0,.7.09.15.46.28.65.46.28.52.48-.15.47-.15.69.21.49.14.7-.4.29-.53.47-.11.51-.3.64-.5,0-.71.07-.4.35-.62.34-.4-.29-.61-.36-.52,0-.7-.09-.15-.46-.28-.65-.46-.28-.52-.48.15-.47.15-.69-.21-.49-.14-.7.4-.29.53-.47S23.14,47,23.33,46.83Z"/><rect class="cls-5" x="17.24" y="39.45" width="8.89" height="0.42" transform="translate(1.78 80.25) rotate(-125.22)"/><rect class="cls-5" x="17.93" y="38.97" width="8.89" height="0.42" transform="translate(3.27 80.05) rotate(-125.22)"/><rect class="cls-5" x="18.61" y="38.48" width="8.89" height="0.42" transform="translate(4.75 79.84) rotate(-125.22)"/><rect class="cls-5" x="22.81" y="39.81" width="4.44" height="0.42" transform="translate(6.77 83.55) rotate(-125.22)"/><path class="cls-6" d="M74.86,64.47a36.48,36.48,0,0,0-9.66.4c-2.09.41-4.1,1.2-6.19,1.62-4.46.9-9,1.33-13.25-.69a24.13,24.13,0,0,1-4-2.65c-2.75-2.05-3.62-5.27-4.86-8.22-1.15-2.71-2.06-5.52-3.12-8.27a11.59,11.59,0,0,0-1.1-2.26c-1.58.23-2.43,1.07-4.41.51.94-.83,2.26-2.26,3.4-2.55.51-1.28.41-2.94,1.14-4.06a4.51,4.51,0,0,1,7.63.35c.92,1.63,1.69,3.35,2.51,5a3,3,0,0,0,2.93,1.93,3.55,3.55,0,0,0,3-2.32,37.06,37.06,0,0,0,2.28-8.69,85.32,85.32,0,0,0,.69-9.23,28.6,28.6,0,0,1,.91-5.18,5.58,5.58,0,0,1,3.36-3.71C62.55,14.53,70.7,6.38,72.06,5c2.12.68,2.72,4.07,1.91,4.91.77,1.2,2.17,4.6.1,6.77.68,1.85,2.06,4.62-.65,7.33,1.36,1.36.11,6.45-2.33,9.14.75.7,1,3.53-1.73,6.86l.89-.26a9.49,9.49,0,0,1-1.85,6c.89,0-.81,5-3.89,6.64,2.52,2.85,5.67,5.27,9.7,5.18,2.27-.05,4.52-.85,6.8-1.25,2.47-.43,7.25-1.84,10.06-.93-2.53,3.05-7.38,2.74-8.74,2.91a12.69,12.69,0,0,0,4,.14,5.55,5.55,0,0,1-3.68,3.11,33.69,33.69,0,0,1-4.37.83,22.33,22.33,0,0,0,4.09-.26C80.32,64.72,76.47,64.58,74.86,64.47Z"/></g></svg>