<svg xmlns="http://www.w3.org/2000/svg" viewBox="0 0 211.7 109.18"><defs><style>.cls-1{fill:#fff;}</style></defs><title>talk-to-us</title><g id="Layer_2" data-name="Layer 2"><g id="Layer_1-2" data-name="Layer 1"><path class="cls-1" d="M24.2,76q-4.47-4.23-8.9-8.45c2.65-2.82,4-4.2,6.76-6.89a5.17,5.17,0,0,0,1.05-2.18A1.88,1.88,0,0,0,22.78,57a1.61,1.61,0,0,0-1.36-.53,4.64,4.64,0,0,0-2.17.67l-1.6,1.56c-.75.74-1.83,1.82-3.22,3.26s-3.19,3.32-5.34,5.66S4.3,72.85,1.26,76.48A4.59,4.59,0,0,0,0,79,2.09,2.09,0,0,0,.55,80.7a1.71,1.71,0,0,0,1.59.38,4.9,4.9,0,0,0,2.25-1.29c2.53-3,3.82-4.53,6.46-7.45L29.26,88.9a2.51,2.51,0,0,0,2,.43,3.19,3.19,0,0,0,1.69-1,3.46,3.46,0,0,0,.89-1.85,2.32,2.32,0,0,0-.75-2.06C30.28,81.64,27.18,78.83,24.2,76Z"/><path class="cls-1" d="M57.58,61.3c0-.1-.11-.19-.4-.28l-1.1-.31.05,0a13.33,13.33,0,0,1-1.58-.53,4.77,4.77,0,0,1-1.26-.71,38,38,0,0,1-2.67-2.71c-.86-.95-1.66-1.9-2.4-2.84l-.54-.69q-.28-.36-.69-.93c-.27-.37-.62-.83-1-1.37l-1.6-2a3.22,3.22,0,0,0-2.93-.06,14.4,14.4,0,0,0-3,1.95,16.12,16.12,0,0,0-1.54,1.46,19,19,0,0,0-1.38,1.64c-.42.57-.77,1.09-1.06,1.57a10.42,10.42,0,0,0-.63,1.17,22.65,22.65,0,0,0-1.27,4.45,18.25,18.25,0,0,0-.27,4.4,13.31,13.31,0,0,0,.91,4.09A11.06,11.06,0,0,0,35.45,73a9,9,0,0,0,3.47,2.23,8.56,8.56,0,0,0,4.57.22,10.1,10.1,0,0,0,3-1.17A17.06,17.06,0,0,0,49,72.48a20.65,20.65,0,0,0,2.77-2.88,12.15,12.15,0,0,0,1.9-3.87,6.38,6.38,0,0,0,1.1.2c.41,0,.82.08,1.23.1a4,4,0,0,0,1.78-.92,3.09,3.09,0,0,0,.9-1.34,2.16,2.16,0,0,0,0-1.4A2,2,0,0,0,57.58,61.3Zm-9.71,5.88a8.43,8.43,0,0,1-1.48,1.69A6.44,6.44,0,0,1,44.51,70a5,5,0,0,1-2.06.32,3.47,3.47,0,0,1-2-.76,6.7,6.7,0,0,1-1.92-2.25,10.34,10.34,0,0,1-1-6.34,9.45,9.45,0,0,1,1.14-3.31c.16-.27.43-.74.84-1.39a9.6,9.6,0,0,1,1.36-1.75c.44.52.88,1.08,1.3,1.66s.93,1.21,1.5,1.89c.81,1,1.66,1.93,2.54,2.86a19.56,19.56,0,0,0,2.85,2.49A34.65,34.65,0,0,1,47.87,67.18Z"/><path class="cls-1" d="M66.71,54.22l-.32.06a1.1,1.1,0,0,1-.35,0c-6.2-9-9.3-13.44-15.51-22.39a3.14,3.14,0,0,0-1.9-.46,3.81,3.81,0,0,0-1.89.74,3.55,3.55,0,0,0-1.29,1.58,2.75,2.75,0,0,0,0,2L62,58.47a4.38,4.38,0,0,0,.81.62,2.29,2.29,0,0,0,1,.21L66.72,59a3.56,3.56,0,0,0,1.56-.62,3.08,3.08,0,0,0,.92-1,2.6,2.6,0,0,0,.3-1.2A2,2,0,0,0,69.15,55,2.6,2.6,0,0,0,66.71,54.22Z"/><path class="cls-1" d="M94.62,39a3.78,3.78,0,0,0-1.7-1.33c-5.69-1.85-8.61-2.68-14.57-4.15A42.66,42.66,0,0,0,80.53,29c.63-1.54,1.26-3.27,1.93-5.19a2.84,2.84,0,0,0,0-2,1.78,1.78,0,0,0-1.41-1,3.47,3.47,0,0,0-2.16.42,4.87,4.87,0,0,0-1.07.78,4.67,4.67,0,0,0-.91,1.21c-.45,1.22-.84,2.33-1.18,3.34s-.66,2-1,2.83-.7,1.72-1.08,2.52a23.78,23.78,0,0,1-1.35,2.42L65,22.05a2.71,2.71,0,0,0-1.87-.65,4,4,0,0,0-2,.61,3.6,3.6,0,0,0-1.39,1.49,2.79,2.79,0,0,0-.14,2L75,50a2.36,2.36,0,0,0,1.77.89,3.32,3.32,0,0,0,1.85-.47,3,3,0,0,0,1.29-1.5,2.33,2.33,0,0,0-.21-2c-1.89-3.2-2.84-4.8-4.74-8a1.66,1.66,0,0,1,.25-.29,1.36,1.36,0,0,0,.19-.27q2.72.55,5,1.15c1.52.39,3.09.83,4.69,1.32,2.28.63,3.4,1,5.63,1.65a3.5,3.5,0,0,0,1.38.1,3.77,3.77,0,0,0,1.19-.38,2.7,2.7,0,0,0,1.38-1.41A2,2,0,0,0,94.62,39Z"/><path class="cls-1" d="M102.29,16.93a4.94,4.94,0,0,0,2.47,0c1.17-.4,1.76-.6,2.94-1,1,3,1.46,4.48,2.44,7.47.42,1.3.86,2.61,1.31,3.92s.82,2.71,1.27,3.83a2.36,2.36,0,0,0,1.5,1.35,3.2,3.2,0,0,0,1.89,0,3.48,3.48,0,0,0,1.63-1.15,2.13,2.13,0,0,0,.33-2.08c-.3-1-.61-2-.93-3.05s-.64-2-.94-3l-2.7-9.06c2-.61,3-.9,5.07-1.45,1.73-.9,2.47-1.87,2.19-2.93a1.8,1.8,0,0,0-1-1.12,4.29,4.29,0,0,0-2.22-.37c-2.15.59-3.22.9-5.35,1.53-.92-3.07-1.37-4.61-2.29-7.68A2.48,2.48,0,0,0,108.29,1a4.12,4.12,0,0,0-2,.11,3.81,3.81,0,0,0-1.75,1.12,2.74,2.74,0,0,0-.65,1.92l2.43,7.47c-1.1.36-1.65.54-2.75.92a3.83,3.83,0,0,0-2.19,1.51,2.06,2.06,0,0,0-.28,1.74A1.81,1.81,0,0,0,102.29,16.93Z"/><path class="cls-1" d="M145.92,9.13a9.9,9.9,0,0,0-2.62-3.07,10.17,10.17,0,0,0-3.81-1.84,10.93,10.93,0,0,0-4.81,0,13.2,13.2,0,0,0-5.36,2.33,14.45,14.45,0,0,0-3.82,4.07,14.28,14.28,0,0,0-1.94,5,11.65,11.65,0,0,0,.17,5.13,10,10,0,0,0,1.63,3.37,11.19,11.19,0,0,0,2.81,2.68,10.85,10.85,0,0,0,3.72,1.57,10.18,10.18,0,0,0,4.36,0,12.73,12.73,0,0,0,4-1.6,13.79,13.79,0,0,0,3.28-2.76,15.62,15.62,0,0,0,2.38-3.65,15,15,0,0,0,1.3-4.2c0-.53.07-1,.08-1.55a11.65,11.65,0,0,0-.12-1.61A11.26,11.26,0,0,0,145.92,9.13Zm-4.59,7.5a10.77,10.77,0,0,1-1,3.06,9.4,9.4,0,0,1-1.9,2.62,5.64,5.64,0,0,1-2.88,1.5,4.54,4.54,0,0,1-3-.24,5,5,0,0,1-2-1.75,7.35,7.35,0,0,1-1.07-2.53,9.11,9.11,0,0,1-.25-2.64,10.67,10.67,0,0,1,.46-2.35,9.13,9.13,0,0,1,1.19-2.43,9.36,9.36,0,0,1,1.93-2,6,6,0,0,1,2.62-1.18,4,4,0,0,1,2.17.13,5.06,5.06,0,0,1,1.81,1.11,6,6,0,0,1,1.29,1.79,8.28,8.28,0,0,1,.68,2.15A8.36,8.36,0,0,1,141.33,16.63Z"/><path class="cls-1" d="M184.79,17a14.12,14.12,0,0,1-.55-2.38,19.59,19.59,0,0,1-.21-2.71c0-.95,0-1.88.07-2.8,0-.69.1-1.35.18-2s.18-1.26.3-1.84a17.92,17.92,0,0,0,.33-2.45A2.07,2.07,0,0,0,184.1,1a3.65,3.65,0,0,0-2-.72,2.78,2.78,0,0,0-2.22.7,4.85,4.85,0,0,0-1.15,2,11.6,11.6,0,0,0-.47,2.78q-.08,1.54-.12,3a33.75,33.75,0,0,0,.2,5.05,28.06,28.06,0,0,1-3,2.57,5.3,5.3,0,0,1-3.25,1.11,4.06,4.06,0,0,1-3.42-1.74,7.52,7.52,0,0,1-1.33-4.51c0-.85,0-1.66,0-2.41s0-1.53.06-2.32,0-1.5,0-2.26a17.53,17.53,0,0,0,0-2.31A2.24,2.24,0,0,0,166.11.45,3.78,3.78,0,0,0,164.23,0a3.71,3.71,0,0,0-2,.58,2.56,2.56,0,0,0-1.1,1.68c0,.48,0,1,0,1.55s0,1.11,0,1.69,0,1.39,0,2.11.06,1.46.09,2.21c.05,1.16.14,2.27.29,3.33a11.19,11.19,0,0,0,.74,2.9,8.68,8.68,0,0,0,1.59,2.36,11,11,0,0,0,2.35,1.92,12.24,12.24,0,0,0,2.87,1.3,10.79,10.79,0,0,0,3.12.48,10.49,10.49,0,0,0,4-.8,17,17,0,0,0,3.54-1.94,8.08,8.08,0,0,0,1.51,2.12,3.39,3.39,0,0,0,2.25,1A3.2,3.2,0,0,0,185.5,22a1.8,1.8,0,0,0,.9-1.46,2.58,2.58,0,0,0-.65-1.74A5.72,5.72,0,0,1,184.79,17Z"/><path class="cls-1" d="M199.53,5.58a4.21,4.21,0,0,1,2.32-.4,10.21,10.21,0,0,1,2.67.57,12.66,12.66,0,0,1,2,.9,4.83,4.83,0,0,0,1.74.69,3.57,3.57,0,0,0,1.57,0,3.2,3.2,0,0,0,1.21-.6,1.64,1.64,0,0,0,.6-1,1.77,1.77,0,0,0-.26-1.14,4.52,4.52,0,0,0-1.17-1.29A18.57,18.57,0,0,0,205.2,1a15.72,15.72,0,0,0-5.69-.6,7.87,7.87,0,0,0-2.66.65,8.58,8.58,0,0,0-2.23,1.42,7.65,7.65,0,0,0-1.57,1.94,5.42,5.42,0,0,0-.72,2.15,4.42,4.42,0,0,0,.23,1.7,6,6,0,0,0,.89,1.76,9,9,0,0,0,1.41,1.52,10.13,10.13,0,0,0,1.57,1.07,13.39,13.39,0,0,0,1.71.8l1.78.66a12,12,0,0,0,1.16.41,11.72,11.72,0,0,1,1.3.49,5,5,0,0,1,1.25.8,4.67,4.67,0,0,1,1,1.3,2,2,0,0,1,.24,1.28,2.39,2.39,0,0,1-.52,1.17,3.14,3.14,0,0,1-1.16.84,4.49,4.49,0,0,1-1.67.36A5.66,5.66,0,0,1,198,19.58a12,12,0,0,1-2.72-2.75,4.68,4.68,0,0,0-2.16-.9,2.85,2.85,0,0,0-2.48.77,2.07,2.07,0,0,0-.19,2.48h.06a13.37,13.37,0,0,0,4.66,4,17.92,17.92,0,0,0,6.2,2.09,7.93,7.93,0,0,0,3-.17,9.86,9.86,0,0,0,2.87-1.2,9,9,0,0,0,2.26-2,5.63,5.63,0,0,0,1.2-2.53,6.38,6.38,0,0,0-.11-3A6,6,0,0,0,209.15,14a10.34,10.34,0,0,0-2.54-1.9,27.32,27.32,0,0,0-3.38-1.57L201.84,10a12.84,12.84,0,0,1-1.34-.62,5.4,5.4,0,0,1-1.11-.79,2.73,2.73,0,0,1-.8-1A1.9,1.9,0,0,1,199.53,5.58Z"/><path class="cls-1" d="M126.47,74a3.12,3.12,0,0,0,.32,4.39l10.13,8.79c-11,1.89-19.59,2-25.25-1.87-5.31-3.63-8.63-11-10.76-23.78a3.12,3.12,0,1,0-6.15,1c2.43,14.63,6.56,23.23,13.38,27.91,4.42,3,9.81,4.22,16.17,4.22a78.53,78.53,0,0,0,12.12-1.1l-8.08,10.56a3.12,3.12,0,0,0,.59,4.37,3.05,3.05,0,0,0,1.89.65,3.13,3.13,0,0,0,2.48-1.23l14.78-19.33L130.87,73.7A3.11,3.11,0,0,0,126.47,74Z"/></g></g></svg>