<svg xmlns="http://www.w3.org/2000/svg" viewBox="0 0 186 40.69">
  <defs>
    <style>
      .cls-1 {
        fill: #2b393f;
      }
      .cls-2 {
        fill: #f96673;
      }
      .cls-3 {
        fill: #fff;
      }
      .cls-4 {
        fill: none;
        stroke: #2b393f;
        stroke-linecap: round;
        stroke-miterlimit: 10;
      }
    </style>
  </defs>
  <title>zeppelin</title>
  <g id="desk">
    <g id="zeppelin"><path class="cls-1" d="M104.71,10.41s0-5.59-1.26-9.19c2.21-2.35,9-1.62,11.54,5A37.73,37.73,0,0,0,104.71,10.41Z"/><path class="cls-1" d="M104.71,25.73s.54,6.67,0,10.13c3.6,1.23,9.59-1.08,10.63-5.57A33.87,33.87,0,0,1,104.71,25.73Z"/><path class="cls-1" d="M161.14,40.69H144.63a5.18,5.18,0,0,1,0-5.59,90.19,90.19,0,0,0,21.24-.36C167.26,38.53,161.14,40.69,161.14,40.69Z"/><path class="cls-1" d="M147.62,26.28c17.87-.38,31.82-3.79,38.3-9.25-1.29-11.76-20.08-15.43-43-14.19-21.6,1.17-40.23,7.32-42.77,14C106.92,22.79,126.39,26.74,147.62,26.28Z"/><path class="cls-1" d="M147.64,27.36q-1.51,0-3,0c-17.45,0-37-3.12-44.73-9.39,0,.11,0,.23,0,.34,0,6.85,19.29,13.52,43.08,15.5s43.07-2,43.08-15.5C179.06,23.67,165.18,27,147.64,27.36Z"/></g>
    <g id="flag">
      <g id="flag-2" data-name="flag"><rect class="cls-2" y="9.69" width="80.64" height="18.38"/><path class="cls-3" d="M19.31,22.69l.83-2.08h3.2l.78,2.08h1.23l-3-7.61H21.2l-3.1,7.61Zm2.46-6.19,1.11,2.91H20.62Z"/><path class="cls-3" d="M48.87,22.69l.83-2.08h3.17l.78,2.08h1.22l-3-7.61H50.74l-3.07,7.61Zm2.44-6.19,1.1,2.91H50.16Z"/><polygon class="cls-3" points="27.25 22.69 27.25 17.02 31.16 22.69 32.29 22.69 32.29 15.07 31.13 15.07 31.13 20.7 27.25 15.07 26.08 15.07 26.08 22.69 27.25 22.69"/><polygon class="cls-3" points="56.73 22.69 56.73 17.02 60.59 22.69 61.7 22.69 61.7 15.07 60.55 15.07 60.55 20.7 56.73 15.07 55.58 15.07 55.58 22.69 56.73 22.69"/><polygon class="cls-3" points="34.97 16.16 34.97 22.69 36.12 22.69 36.12 16.16 37.99 16.16 37.99 15.07 33.2 15.07 33.2 16.16 34.97 16.16"/><polygon class="cls-3" points="42.57 22.69 42.57 19.13 45.95 19.13 45.95 22.69 47.1 22.69 47.1 15.07 45.95 15.07 45.95 18.05 42.57 18.05 42.57 15.07 41.43 15.07 41.43 22.69 42.57 22.69"/><path
        class="cls-3"
        d="M67.32,16.18l-.94.56a1.62,1.62,0,0,0-.5-.6,1.18,1.18,0,0,0-.64-.16,1.19,1.19,0,0,0-.8.27.85.85,0,0,0-.32.68q0,.56.84.91l.77.31a3.28,3.28,0,0,1,1.37.93,2.09,2.09,0,0,1,.43,1.34,2.35,2.35,0,0,1-.71,1.76,2.43,2.43,0,0,1-1.77.7,2.37,2.37,0,0,1-1.66-.59,2.73,2.73,0,0,1-.8-1.67l1.18-.26a2,2,0,0,0,.28.94,1.33,1.33,0,0,0,2,.13,1.26,1.26,0,0,0,.36-.92,1.3,1.3,0,0,0-.06-.41,1,1,0,0,0-.19-.34,1.56,1.56,0,0,0-.34-.29,3.3,3.3,0,0,0-.5-.26l-.74-.31a2.14,2.14,0,0,1-1.58-2,1.86,1.86,0,0,1,.66-1.45,2.4,2.4,0,0,1,1.65-.59A2.31,2.31,0,0,1,67.32,16.18Z"/><polygon class="cls-3" points="39.07 22.69 40.2 22.69 40.2 16.98 39.07 17.97 39.07 22.69"/><polygon class="cls-3" points="39.07 15.07 39.07 17.13 40.2 16.14 40.2 15.07 39.07 15.07"/><path
        class="cls-3"
        d="M17.85,16.18l-.94.56a1.62,1.62,0,0,0-.5-.6,1.18,1.18,0,0,0-.64-.16,1.19,1.19,0,0,0-.8.27.85.85,0,0,0-.32.68q0,.56.84.91l.77.31a3.28,3.28,0,0,1,1.37.93,2.09,2.09,0,0,1,.43,1.34,2.35,2.35,0,0,1-.71,1.76,2.43,2.43,0,0,1-1.77.7,2.37,2.37,0,0,1-1.66-.59,2.73,2.73,0,0,1-.8-1.67l1.18-.26a2,2,0,0,0,.28.94,1.33,1.33,0,0,0,2,.13,1.26,1.26,0,0,0,.36-.92,1.3,1.3,0,0,0-.06-.41,1,1,0,0,0-.19-.34,1.56,1.56,0,0,0-.34-.29,3.3,3.3,0,0,0-.5-.26L15,18.88a2.14,2.14,0,0,1-1.58-2,1.86,1.86,0,0,1,.66-1.45,2.4,2.4,0,0,1,1.65-.59A2.31,2.31,0,0,1,17.85,16.18Z"/></g><circle class="cls-3" cx="78" cy="11.69" r="1"/><circle class="cls-3" cx="78" cy="24.69" r="1"/><path class="cls-4" d="M78,11.69s17.5-.5,22,7c-9.5.5-22,6-22,6"/></g>
  </g>
</svg>
