<svg xmlns="http://www.w3.org/2000/svg" viewBox="0 0 600 200"><defs><style>.cls-1{opacity:0.12;}.cls-2{opacity:0.2;}.cls-3{fill:#333;}.cls-4{fill:#fff;}.cls-5{fill:#f2f2f2;}.cls-6{fill:#cc5a63;}</style></defs><title>branding-bg</title><g id="Layer_1" data-name="Layer 1"><rect class="cls-1" y="119" width="600" height="81"/><g id="window"><g class="cls-2"><rect class="cls-3" x="155" y="28.5" width="52" height="3.33"/><rect class="cls-3" x="155" y="21.83" width="52" height="3.33"/><rect class="cls-3" x="155" y="35.17" width="52" height="3.33"/><rect class="cls-3" x="155" y="48.5" width="52" height="63"/><rect class="cls-3" x="155" y="41.83" width="52" height="3.33"/><rect class="cls-3" x="155" y="15.5" width="52" height="3"/><rect class="cls-3" x="213" y="28.5" width="52" height="3.33"/><rect class="cls-3" x="213" y="21.83" width="52" height="3.33"/><rect class="cls-3" x="213" y="35.17" width="52" height="3.33"/><rect class="cls-3" x="213" y="48.5" width="52" height="63"/><rect class="cls-3" x="213" y="41.83" width="52" height="3.33"/><rect class="cls-3" x="213" y="15.5" width="52" height="3"/></g><g class="cls-2"><path class="cls-4" d="M183.23,31.83h12.5a15.31,15.31,0,0,0-12.5,0Z"/><path class="cls-4" d="M175.94,38.5h19a15.43,15.43,0,0,1,6.83-2,15.68,15.68,0,0,0-1.2-1.37H178.42A15.54,15.54,0,0,0,175.94,38.5Z"/><path class="cls-4" d="M189.5,61.5c.25,0,.49,0,.74,0a15.32,15.32,0,0,1-2.83-13H174.22A15.49,15.49,0,0,0,189.5,61.5Z"/><path class="cls-4" d="M174,45.17H188.6a15.46,15.46,0,0,1,2.23-3.33H174.58A15.45,15.45,0,0,0,174,45.17Z"/></g></g><g id="watch"><g id="watchface"><circle class="cls-4" cx="395.09" cy="67.41" r="16.59"/><path class="cls-5" d="M395.09,84.74a17.33,17.33,0,1,1,17.33-17.33A17.35,17.35,0,0,1,395.09,84.74Zm0-33.19a15.85,15.85,0,1,0,15.85,15.85A15.87,15.87,0,0,0,395.09,51.55Z"/><rect class="cls-3" x="387.65" y="53.75" width="1.22" height="3.65" transform="translate(24.23 201.57) rotate(-30)"/><rect class="cls-3" x="401.32" y="77.42" width="1.22" height="3.65" transform="translate(14.23 211.58) rotate(-30)"/><rect class="cls-3" x="382.65" y="58.75" width="1.22" height="3.65" transform="translate(139.17 362.19) rotate(-60)"/><rect class="cls-3" x="406.32" y="72.42" width="1.22" height="3.65" transform="matrix(0.5, -0.87, 0.87, 0.5, 139.17, 389.53)"/><rect class="cls-3" x="408.16" y="65.58" width="1.22" height="3.65" transform="translate(476.17 -341.36) rotate(90)"/><rect class="cls-3" x="380.82" y="65.58" width="1.22" height="3.65" transform="translate(448.83 -314.02) rotate(90)"/><rect class="cls-3" x="406.32" y="58.75" width="1.22" height="3.65" transform="translate(255.92 -322.13) rotate(60)"/><rect class="cls-3" x="382.65" y="72.42" width="1.22" height="3.65" transform="translate(255.92 -294.79) rotate(60)"/><rect class="cls-3" x="401.32" y="53.75" width="1.22" height="3.65" transform="translate(81.63 -193.52) rotate(30)"/><rect class="cls-3" x="387.65" y="77.42" width="1.22" height="3.65" transform="translate(91.64 -183.51) rotate(30)"/><rect class="cls-3" x="394.49" y="51.91" width="1.22" height="3.65"/><rect class="cls-3" x="394.49" y="79.25" width="1.22" height="3.65"/><rect class="cls-3" x="393.27" y="51.99" width="0.61" height="1.82" transform="translate(-3.37 41.43) rotate(-6)"/><rect class="cls-3" x="396.31" y="81" width="0.61" height="1.82" transform="translate(-6.39 41.91) rotate(-6)"/><rect class="cls-3" x="391.76" y="52.23" width="0.61" height="1.82" transform="translate(-2.48 82.68) rotate(-12)"/><rect class="cls-3" x="397.82" y="80.76" width="0.61" height="1.82" transform="translate(-8.28 84.56) rotate(-12)"/><rect class="cls-3" x="390.28" y="52.63" width="0.61" height="1.82" transform="translate(2.57 123.32) rotate(-18)"/><rect class="cls-3" x="399.3" y="80.36" width="0.61" height="1.82" transform="translate(-5.56 127.46) rotate(-18)"/><rect class="cls-3" x="388.86" y="53.17" width="0.61" height="1.82" transform="translate(11.65 162.96) rotate(-24)"/><rect class="cls-3" x="400.72" y="79.82" width="0.61" height="1.82" transform="translate(1.84 170.09) rotate(-24)"/><rect class="cls-3" x="386.22" y="54.7" width="0.61" height="1.82" transform="translate(41.13 237.81) rotate(-36)"/><rect class="cls-3" x="403.36" y="78.29" width="0.61" height="1.82" transform="translate(30.54 252.39) rotate(-36)"/><rect class="cls-3" x="385.03" y="55.66" width="0.61" height="1.82" transform="translate(61.12 272.37) rotate(-42)"/><rect class="cls-3" x="404.55" y="77.33" width="0.61" height="1.82" transform="translate(51.63 290.99) rotate(-42)"/><rect class="cls-3" x="383.95" y="56.74" width="0.61" height="1.82" transform="translate(84.3 304.63) rotate(-48)"/><rect class="cls-3" x="405.63" y="76.25" width="0.61" height="1.82" transform="translate(76.97 327.2) rotate(-48)"/><rect class="cls-3" x="382.99" y="57.92" width="0.61" height="1.82" transform="translate(110.4 334.35) rotate(-54)"/><rect class="cls-3" x="406.59" y="75.07" width="0.61" height="1.82" transform="translate(106.26 360.5) rotate(-54)"/><rect class="cls-3" x="381.47" y="60.56" width="0.61" height="1.82" transform="translate(170.33 385.24) rotate(-66)"/><rect class="cls-3" x="408.11" y="72.43" width="0.61" height="1.82" transform="translate(175.3 416.61) rotate(-66)"/><rect class="cls-3" x="380.92" y="61.99" width="0.61" height="1.82" transform="translate(203.6 406.03) rotate(-72)"/><rect class="cls-3" x="408.66" y="71" width="0.61" height="1.82" transform="translate(214.19 438.64) rotate(-72)"/><rect class="cls-3" x="380.53" y="63.46" width="0.61" height="1.82" transform="translate(238.68 423.5) rotate(-78)"/><rect class="cls-3" x="409.05" y="69.53" width="0.61" height="1.82" transform="translate(255.35 456.2) rotate(-78)"/><rect class="cls-3" x="380.29" y="64.97" width="0.61" height="1.82" transform="translate(275.29 437.5) rotate(-84)"/><rect class="cls-3" x="409.29" y="68.02" width="0.61" height="1.82" transform="translate(298.23 469.08) rotate(-84)"/><rect class="cls-3" x="380.29" y="68.02" width="0.61" height="1.82" transform="translate(351.82 454.64) rotate(-96)"/><rect class="cls-3" x="409.29" y="64.97" width="0.61" height="1.82" transform="translate(386.89 480.12) rotate(-96)"/><rect class="cls-3" x="380.53" y="69.53" width="0.61" height="1.82" transform="translate(391.11 457.59) rotate(-102)"/><rect class="cls-3" x="409.05" y="63.46" width="0.61" height="1.82" transform="translate(431.5 478.17) rotate(-102)"/><rect class="cls-3" x="380.92" y="71" width="0.61" height="1.82" transform="translate(430.64 456.7) rotate(-108)"/><rect class="cls-3" x="408.66" y="61.99" width="0.61" height="1.82" transform="translate(475.52 471.28) rotate(-108)"/><rect class="cls-3" x="381.47" y="72.43" width="0.61" height="1.82" transform="translate(470.06 451.93) rotate(-114)"/><rect class="cls-3" x="408.11" y="60.56" width="0.61" height="1.82" transform="translate(518.37 459.58) rotate(-114)"/><rect class="cls-3" x="382.99" y="75.07" width="0.61" height="1.82" transform="matrix(-0.59, -0.81, 0.81, -0.59, 547.13, 430.73)"/><rect class="cls-3" x="406.59" y="57.92" width="0.61" height="1.82" transform="translate(598.46 422.6) rotate(-126)"/><rect class="cls-3" x="383.95" y="76.25" width="0.61" height="1.82" transform="translate(584.03 414.35) rotate(-132)"/><rect class="cls-3" x="405.63" y="56.74" width="0.61" height="1.82" transform="translate(634.71 397.89) rotate(-132)"/><rect class="cls-3" x="385.03" y="77.33" width="0.61" height="1.82" transform="translate(619.34 394.23) rotate(-138)"/><rect class="cls-3" x="404.55" y="55.66" width="0.61" height="1.82" transform="translate(667.86 369.51) rotate(-138)"/><rect class="cls-3" x="386.22" y="78.29" width="0.61" height="1.82" transform="matrix(-0.81, -0.59, 0.59, -0.81, 652.67, 370.47)"/><rect class="cls-3" x="403.36" y="54.7" width="0.61" height="1.82" transform="matrix(-0.81, -0.59, 0.59, -0.81, 697.55, 337.87)"/><rect class="cls-3" x="388.86" y="79.82" width="0.61" height="1.82" transform="translate(711.85 312.76) rotate(-156)"/><rect class="cls-3" x="400.72" y="53.17" width="0.61" height="1.82" transform="translate(745.38 266.61) rotate(-156)"/><rect class="cls-3" x="390.28" y="80.36" width="0.61" height="1.82" transform="translate(736.94 279.27) rotate(-162)"/><rect class="cls-3" x="399.3" y="52.63" width="0.61" height="1.82" transform="translate(763.1 227.94) rotate(-162)"/><rect class="cls-3" x="391.76" y="80.76" width="0.61" height="1.82" transform="translate(758.58 243.07) rotate(-168)"/><rect class="cls-3" x="397.82" y="52.23" width="0.61" height="1.82" transform="translate(776.5 187.9) rotate(-168)"/><rect class="cls-3" x="393.27" y="81" width="0.61" height="1.82" transform="translate(776.42 204.51) rotate(-174)"/><rect class="cls-3" x="396.31" y="51.99" width="0.61" height="1.82" transform="translate(785.53 146.98) rotate(-174)"/></g><g id="minutes"><rect class="cls-3" x="399.76" y="56.47" width="1.22" height="18.45" transform="translate(339.13 -335.38) rotate(72)"/></g><g id="hours"><rect class="cls-3" x="393.19" y="59.91" width="1.22" height="13.32" transform="translate(662.86 -228.58) rotate(122.76)"/></g><path id="seconds" class="cls-6" d="M397.83,66.84l-.19-.58-11.71,3.8a1.19,1.19,0,0,0-1-.53,1.22,1.22,0,1,0,1.22,1.22,1.11,1.11,0,0,0,0-.12Z"/></g></g></svg>