<svg xmlns="http://www.w3.org/2000/svg" viewBox="0 0 340 298"><defs><style>.cls-1{fill:#48a69c;}.cls-2{fill:#e6e6e6;}.cls-3{fill:#4d4d4d;}.cls-4{fill:#f96673;}.cls-5{fill:#ccc;}.cls-6{fill:#8f5fa3;}.cls-7{fill:#feb21e;}.cls-8{fill:#d2cbc3;}.cls-9{fill:#b3b3b3;}.cls-10,.cls-11,.cls-14,.cls-15,.cls-16,.cls-17,.cls-18,.cls-20{fill:none;stroke-miterlimit:10;}.cls-10,.cls-14{stroke:#ccc;}.cls-10,.cls-11{stroke-width:0.76px;}.cls-10{stroke-dasharray:1.52 1.52;}.cls-11,.cls-15{stroke:#e6e6e6;}.cls-11{stroke-dasharray:1.52;}.cls-12{fill:#2b393f;}.cls-13{fill:#fff;}.cls-14,.cls-15{stroke-width:1.1px;}.cls-14{stroke-dasharray:2.21 2.21;}.cls-15{stroke-dasharray:2.21;}.cls-16,.cls-17,.cls-18{stroke:#b3b3b3;stroke-width:1.01px;}.cls-17{stroke-dasharray:3.86 3.86;}.cls-18{stroke-dasharray:4.33 4.33;}.cls-19{fill:#333;}.cls-20{stroke:#8f5fa3;stroke-width:2.99px;}.cls-21,.cls-22{fill:#fcb70b;}.cls-22{opacity:0.1;}</style></defs><title>branding</title><g id="desk"><g id="pencil-green"><rect class="cls-1" x="62.29" y="186.51" width="5.78" height="36.61"/><polygon class="cls-2" points="65.18 180.73 62.32 186.51 68.1 186.51 65.18 180.73"/><path class="cls-3" d="M66.53,183.4l-1.35-2.67-1.31,2.66a4,4,0,0,0,2.66,0Z"/></g><g id="pencil-red"><rect class="cls-4" x="79.74" y="193.12" width="5.78" height="36.61" transform="translate(65.78 -14.95) rotate(17.09)"/><polygon class="cls-2" points="89.71 188.4 85.28 193.09 90.81 194.79 89.71 188.4"/><path class="cls-3" d="M90.22,191.35l-.51-2.95-2,2.16a4,4,0,0,0,2.54.79Z"/></g><g id="palette"><path class="cls-5" d="M290.16,183.94a31.79,31.79,0,0,0,0,63.58,5.3,5.3,0,0,0,3.92-8.87,5.28,5.28,0,0,1,4-8.8h6.25A17.67,17.67,0,0,0,322,212.2C322,196.59,307.72,183.94,290.16,183.94Zm-19.43,31.79a5.3,5.3,0,1,1,5.3-5.3A5.29,5.29,0,0,1,270.74,215.73Zm10.6-14.13a5.3,5.3,0,1,1,5.3-5.3A5.29,5.29,0,0,1,281.33,201.6Zm17.66,0a5.3,5.3,0,1,1,5.3-5.3A5.29,5.29,0,0,1,299,201.6Zm10.6,14.13a5.3,5.3,0,1,1,5.3-5.3A5.29,5.29,0,0,1,309.59,215.73Z"/><path class="cls-2" d="M288.24,183a31.79,31.79,0,1,0,0,63.58,5.3,5.3,0,0,0,3.92-8.87,5.28,5.28,0,0,1,4-8.8h6.25A17.67,17.67,0,0,0,320,211.24C320,195.62,305.79,183,288.24,183Zm-19.43,31.79a5.3,5.3,0,1,1,5.3-5.3A5.29,5.29,0,0,1,268.81,214.77Zm10.6-14.13a5.3,5.3,0,1,1,5.3-5.3A5.29,5.29,0,0,1,279.41,200.64Zm17.66,0a5.3,5.3,0,1,1,5.3-5.3A5.29,5.29,0,0,1,297.07,200.64Zm10.6,14.13a5.3,5.3,0,1,1,5.3-5.3A5.29,5.29,0,0,1,307.67,214.77Z"/><circle class="cls-4" cx="307.67" cy="209.47" r="5.3"/><circle class="cls-1" cx="297.07" cy="195.34" r="5.3"/><circle class="cls-6" cx="279.41" cy="195.34" r="5.3"/><circle class="cls-7" cx="268.81" cy="209.47" r="5.3"/></g><g id="tablet"><rect class="cls-7" x="194.82" y="109.86" width="56.99" height="78.96" rx="8.01" ry="8.01" transform="translate(73.97 372.66) rotate(-90)"/><rect class="cls-2" x="197.57" y="119.13" width="46.69" height="60.42" transform="translate(71.57 370.25) rotate(-90)"/><circle class="cls-8" cx="256.61" cy="149.34" r="3.43"/><rect class="cls-9" x="225.13" y="164.38" width="20.23" height="4.82"/><rect class="cls-9" x="225.13" y="157.72" width="20.23" height="4.82"/><rect class="cls-9" x="225.13" y="150.98" width="20.23" height="4.82"/><rect class="cls-9" x="225.13" y="144.23" width="20.23" height="4.82"/><circle class="cls-9" cx="198.52" cy="133.69" r="3.04"/><path class="cls-9" d="M212.72,133.69c0,.55-.6,1-.86,1.4s-.32,1.18-.78,1.45-1.09,0-1.64,0-1.2.31-1.64,0-.51-1-.78-1.45-.86-.84-.86-1.4.6-1,.86-1.4.32-1.18.78-1.45,1.09,0,1.64,0,1.2-.31,1.64,0,.51,1,.78,1.45S212.72,133.14,212.72,133.69Z"/><path class="cls-9" d="M223.65,133.69c0,.33-.53.57-.62.87s.18.81,0,1.07-.75.15-1,.33-.32.76-.63.86-.69-.33-1-.33-.72.42-1,.33-.37-.67-.63-.86-.82-.08-1-.33.1-.76,0-1.07-.62-.54-.62-.86.53-.57.62-.87-.18-.81,0-1.07.75-.15,1-.33.32-.76.63-.86.69.33,1,.33.72-.42,1-.33.37.67.63.86.82.08,1,.33-.1.76,0,1.07S223.65,133.36,223.65,133.69Z"/><polygon class="cls-9" points="245.37 133.69 244.77 134.52 244.76 135.54 243.79 135.86 243.19 136.69 242.22 136.37 241.24 136.69 240.64 135.86 239.67 135.54 239.66 134.52 239.07 133.69 239.66 132.86 239.67 131.84 240.64 131.52 241.24 130.69 242.22 131.01 243.19 130.69 243.79 131.52 244.76 131.84 244.77 132.86 245.37 133.69"/><polygon class="cls-9" points="232.86 130.97 229.72 130.97 228.15 133.69 229.72 136.41 232.86 136.41 234.43 133.69 232.86 130.97"/><rect class="cls-5" x="194.45" y="143.7" width="25.07" height="11.4"/><line class="cls-10" x1="197.18" y1="160.06" x2="216.8" y2="160.06"/><polygon class="cls-5" points="197.74 161.96 194.46 160.06 197.74 158.17 197.74 161.96"/><polygon class="cls-5" points="216.25 161.96 219.53 160.06 216.25 158.17 216.25 161.96"/><circle class="cls-11" cx="207.08" cy="149.4" r="3.8"/></g><g id="cup"><rect class="cls-7" x="291.98" y="124.37" width="4.77" height="30.22" transform="translate(-22.89 65.63) rotate(-12.25)"/><polygon class="cls-2" points="290.15 120.05 288.86 125.22 293.52 124.2 290.15 120.05"/><path class="cls-3" d="M291.7,122l-1.56-1.92-.59,2.37a3.33,3.33,0,0,0,2.15-.46Z"/><rect class="cls-1" x="297.83" y="118.06" width="4.77" height="30.22"/><polygon class="cls-2" points="300.22 113.29 297.86 118.06 302.63 118.06 300.22 113.29"/><path class="cls-3" d="M301.33,115.49l-1.11-2.2-1.08,2.19a3.33,3.33,0,0,0,2.2,0Z"/><rect class="cls-4" x="304.99" y="122.04" width="4.77" height="30.22"/><polygon class="cls-2" points="307.38 117.27 305.02 122.04 309.79 122.04 307.38 117.27"/><path class="cls-3" d="M308.49,119.47l-1.11-2.2-1.08,2.19a3.33,3.33,0,0,0,2.2,0Z"/><rect class="cls-12" x="287.75" y="135.45" width="26.97" height="33.72"/><path class="cls-12" d="M319.35,161.46h-10.4v-18.3h10.4a5,5,0,0,1,5,5v8.27A5,5,0,0,1,319.35,161.46Zm-6.54-3.85h5.44a2.27,2.27,0,0,0,2.27-2.27v-6.06a2.27,2.27,0,0,0-2.27-2.27H312.8Z"/><rect class="cls-13" x="301.71" y="153.81" width="5.31" height="5.31"/><polygon class="cls-13" points="298.56 159.12 300.63 159.12 300.63 148.5 298.56 150.66 298.56 159.12"/><polygon class="cls-13" points="298.56 145.27 298.56 149.58 300.63 147.42 300.63 145.27 298.56 145.27"/><path class="cls-13" d="M295.86,152.72l-1.61,1.1v5.3h1.08v-1.54a.53.53,0,0,1,.53-.53h0a.53.53,0,0,1,.53.53v1.54h1.08v-5.3Z"/></g><g id="notes"><rect class="cls-5" x="106.88" y="189.82" width="136.32" height="80.34"/><rect class="cls-2" x="105.92" y="188.44" width="134.12" height="80.34"/><rect class="cls-5" x="158.29" y="213.62" width="30.92" height="1.1"/><rect class="cls-5" x="158.29" y="215.83" width="30.92" height="1.1"/><rect class="cls-5" x="158.29" y="218.04" width="30.92" height="1.1"/><rect class="cls-5" x="158.29" y="220.25" width="15.46" height="1.1"/><rect class="cls-5" x="112.6" y="193.96" width="15.46" height="1.1"/><rect class="cls-5" x="111.78" y="199.64" width="36.44" height="16.57"/><line class="cls-14" x1="115.74" y1="222.02" x2="144.26" y2="222.02"/><polygon class="cls-5" points="116.55 224.78 111.78 222.02 116.55 219.27 116.55 224.78"/><polygon class="cls-5" points="143.45 224.78 148.22 222.02 143.45 219.27 143.45 224.78"/><circle class="cls-15" cx="139.94" cy="207.92" r="5.52"/><polyline class="cls-16" points="232.15 234.74 232.15 236.75 230.14 236.75"/><line class="cls-17" x1="226.29" y1="236.75" x2="158.79" y2="236.75"/><polyline class="cls-16" points="156.86 236.75 154.85 236.75 154.85 234.74"/><line class="cls-18" x1="154.85" y1="230.41" x2="154.85" y2="197.91"/><polyline class="cls-16" points="154.85 195.75 154.85 193.73 156.86 193.73"/><line class="cls-17" x1="160.72" y1="193.73" x2="228.22" y2="193.73"/><polyline class="cls-16" points="230.14 193.73 232.15 193.73 232.15 195.75"/><line class="cls-18" x1="232.15" y1="200.08" x2="232.15" y2="232.57"/><circle class="cls-5" cx="140.82" cy="256.21" r="7.7"/><path class="cls-5" d="M192.32,256.21c0,1.4-1.52,2.41-2.18,3.54s-.81,3-2,3.66-2.76-.12-4.16-.12-3,.77-4.16.12-1.3-2.49-2-3.66-2.18-2.14-2.18-3.54,1.52-2.41,2.18-3.54.81-3,2-3.66,2.76.12,4.16.12,3-.77,4.16-.12,1.3,2.49,2,3.66S192.32,254.8,192.32,256.21Z"/><path class="cls-1" d="M214.22,256.21c0,.83-1.33,1.44-1.58,2.19s.46,2.05,0,2.7-1.91.37-2.56.84-.82,1.93-1.59,2.18-1.74-.83-2.57-.83-1.82,1.07-2.57.83-.95-1.71-1.59-2.18-2.09-.19-2.56-.84.24-1.92,0-2.7-1.58-1.36-1.58-2.19,1.33-1.44,1.58-2.19-.46-2.05,0-2.7,1.91-.37,2.56-.84.82-1.93,1.59-2.18,1.74.83,2.57.83,1.82-1.07,2.57-.83.95,1.71,1.59,2.18,2.09.19,2.56.84-.24,1.92,0,2.7S214.22,255.38,214.22,256.21Z"/><polygon class="cls-7" points="170.42 256.21 168.84 258.4 168.83 261.1 166.27 261.94 164.67 264.12 162.1 263.29 159.53 264.12 157.94 261.94 155.37 261.1 155.36 258.4 153.78 256.21 155.36 254.02 155.37 251.32 157.94 250.47 159.53 248.29 162.1 249.12 164.67 248.29 166.27 250.47 168.83 251.32 168.84 254.02 170.42 256.21"/><polygon class="cls-5" points="236.11 256.21 234.7 257.79 235.29 259.82 233.33 260.63 232.98 262.71 230.87 262.59 229.65 264.32 227.79 263.29 225.94 264.32 224.72 262.59 222.61 262.71 222.25 260.63 220.3 259.82 220.88 257.79 219.48 256.21 220.88 254.63 220.3 252.6 222.25 251.79 222.61 249.7 224.72 249.82 225.94 248.1 227.79 249.12 229.65 248.1 230.87 249.82 232.98 249.71 233.34 251.79 235.29 252.6 234.7 254.63 236.11 256.21"/><polygon class="cls-5" points="123.71 249.02 115.41 249.02 111.26 256.21 115.41 263.39 123.71 263.39 127.86 256.21 123.71 249.02"/><rect class="cls-19" x="103.02" y="191.33" width="5.78" height="1.93"/><rect class="cls-19" x="103.02" y="195.18" width="5.78" height="1.93"/><rect class="cls-19" x="103.02" y="199.03" width="5.78" height="1.93"/><rect class="cls-19" x="103.02" y="202.89" width="5.78" height="1.93"/><rect class="cls-19" x="103.02" y="206.74" width="5.78" height="1.93"/><rect class="cls-19" x="103.02" y="210.59" width="5.78" height="1.93"/><rect class="cls-19" x="103.02" y="214.45" width="5.78" height="1.93"/><rect class="cls-19" x="103.02" y="218.3" width="5.78" height="1.93"/><rect class="cls-19" x="103.02" y="222.15" width="5.78" height="1.93"/><rect class="cls-19" x="103.02" y="226.01" width="5.78" height="1.93"/><rect class="cls-19" x="103.02" y="229.86" width="5.78" height="1.93"/><rect class="cls-19" x="103.02" y="233.72" width="5.78" height="1.93"/><rect class="cls-19" x="103.02" y="237.57" width="5.78" height="1.93"/><rect class="cls-19" x="103.02" y="241.42" width="5.78" height="1.93"/><rect class="cls-19" x="103.02" y="245.28" width="5.78" height="1.93"/><rect class="cls-19" x="103.02" y="249.13" width="5.78" height="1.93"/><rect class="cls-19" x="103.02" y="252.98" width="5.78" height="1.93"/><rect class="cls-19" x="103.02" y="256.84" width="5.78" height="1.93"/><rect class="cls-19" x="103.02" y="260.69" width="5.78" height="1.93"/><rect class="cls-19" x="103.02" y="264.54" width="5.78" height="1.93"/></g><g id="magnifying-glass"><circle class="cls-20" cx="31.97" cy="219.18" r="14.21" transform="translate(-145.62 86.81) rotate(-45)"/><rect class="cls-6" x="45.9" y="224.89" width="5.98" height="22.43" transform="translate(-152.63 103.72) rotate(-45)"/></g><g id="ruler"><rect class="cls-4" x="166.37" y="276.1" width="65.51" height="11.56" transform="translate(398.25 563.77) rotate(180)"/><rect class="cls-19" x="224.8" y="276.1" width="1.2" height="6.9" transform="translate(450.79 559.11) rotate(180)"/><rect class="cls-19" x="221.73" y="276.1" width="1.2" height="3.83" transform="translate(444.65 556.04) rotate(180)"/><rect class="cls-19" x="218.66" y="276.1" width="1.2" height="3.83" transform="translate(438.52 556.04) rotate(180)"/><rect class="cls-19" x="215.59" y="276.1" width="1.2" height="3.83" transform="translate(432.38 556.04) rotate(180)"/><rect class="cls-19" x="212.53" y="276.1" width="1.2" height="3.83" transform="translate(426.25 556.04) rotate(180)"/><rect class="cls-19" x="209.46" y="276.1" width="1.2" height="6.9" transform="translate(420.11 559.11) rotate(180)"/><rect class="cls-19" x="206.39" y="276.1" width="1.2" height="3.83" transform="translate(413.98 556.04) rotate(180)"/><rect class="cls-19" x="203.32" y="276.1" width="1.2" height="3.83" transform="translate(407.85 556.04) rotate(180)"/><rect class="cls-19" x="200.26" y="276.1" width="1.2" height="3.83" transform="translate(401.71 556.04) rotate(180)"/><rect class="cls-19" x="197.19" y="276.1" width="1.2" height="3.83" transform="translate(395.58 556.04) rotate(180)"/><rect class="cls-19" x="194.12" y="276.1" width="1.2" height="6.9" transform="translate(389.44 559.11) rotate(180)"/><rect class="cls-19" x="191.06" y="276.1" width="1.2" height="3.83" transform="translate(383.31 556.04) rotate(180)"/><rect class="cls-19" x="187.99" y="276.1" width="1.2" height="3.83" transform="translate(377.17 556.04) rotate(180)"/><rect class="cls-19" x="184.92" y="276.1" width="1.2" height="3.83" transform="translate(371.04 556.04) rotate(180)"/><rect class="cls-19" x="181.85" y="276.1" width="1.2" height="3.83" transform="translate(364.9 556.04) rotate(180)"/><rect class="cls-19" x="178.79" y="276.1" width="1.2" height="6.9" transform="translate(358.77 559.11) rotate(180)"/><circle class="cls-13" cx="171.18" cy="281.88" r="1.93"/></g><g id="brush"><path class="cls-3" d="M308.7,274.79c4.87-8.43,16.71-32.18,19.88-38.56a1.71,1.71,0,0,0-.52-2.31l0,0a1.71,1.71,0,0,0-2.22.81c-3.65,6.11-17.24,28.91-21.69,37.56-1.47,2.85-4.76,10.29-6.18,13.53a1.7,1.7,0,0,0,.56,2.22h0a1.7,1.7,0,0,0,2.17-.72C302.61,284.36,307.1,277.56,308.7,274.79Z"/><path class="cls-1" d="M333.46,235.56a5.54,5.54,0,0,1-9.72-5.31c1.47-2.69,6.35-2,9.64-6.1C336.06,225.62,334.93,232.87,333.46,235.56Z"/></g><g id="flowers"><path class="cls-1" d="M38.24,153.75H36.31c0-15.37,6.71-39.52,6.78-39.76l1.86.52C44.88,114.75,38.24,138.65,38.24,153.75Z"/><path class="cls-1" d="M33.43,150a67.34,67.34,0,0,0-18-37.95l1.32-1.41a69.36,69.36,0,0,1,18.6,39.12Z"/><polygon class="cls-21" points="44.98 169.17 27.64 169.17 24.75 137.38 47.87 137.38 44.98 169.17"/><path class="cls-21" d="M53.64,110.51a5.44,5.44,0,0,0-7.09-2.34A5.44,5.44,0,0,0,37,113.33a5.44,5.44,0,0,0,5.17,9.55,5.44,5.44,0,0,0,9.55-5.17A5.44,5.44,0,0,0,53.64,110.51Z"/><circle class="cls-6" cx="44.35" cy="115.52" r="4.51" transform="translate(-49.6 34.99) rotate(-28.39)"/><path class="cls-4" d="M26.68,111.28a5.59,5.59,0,0,0-5.26-5.58,5.59,5.59,0,0,0-11.15,0,5.59,5.59,0,0,0,0,11.15,5.59,5.59,0,0,0,11.15,0A5.59,5.59,0,0,0,26.68,111.28Z"/><circle class="cls-21" cx="15.84" cy="111.28" r="5.59"/></g><g id="lamp"><polygon class="cls-22" points="259.82 169.17 78.72 169.17 155.68 46.02 185.56 46.02 259.82 169.17"/><path class="cls-4" d="M54,83.14a5.13,5.13,0,0,1,2.72.78l2.84-1.87a1.8,1.8,0,0,1,1.52-.21l60.76-40.77a1.81,1.81,0,0,1,.77-1.89l2.43-1.6a4.76,4.76,0,0,1,4.74-5.24,4.74,4.74,0,0,1,3.47,1.51l6-1.51h4V29.18H157a15.07,15.07,0,0,1,14-9.52h0a15.08,15.08,0,0,1,15.08,15.08v8.73H156V41.08H145.65v4h44.44v1.59h-46V41.08h-.79V39.89l-9.39-.36a4.74,4.74,0,0,1-6.18,1.86l-2.54,1.67a1.8,1.8,0,0,1-1.92,0L62.9,84.33a1.8,1.8,0,0,1-.81,1.59l-3,2c0,.14,0,.28,0,.43s0,.12,0,.18l3,2.82a1.79,1.79,0,0,1,.5.84L121.9,135a1.81,1.81,0,0,1,2.19.2l1.33,1.23a4.76,4.76,0,0,1,7.33,5.25l2,2a4.76,4.76,0,0,1,7.71,3.74v4s3.25,1.48,4,7.14c3.81.68,12.7,3.4,15.08,5.78V169H113.11v-4.87s9.52-4.76,16.67-4.76a12.74,12.74,0,0,1,3.28-10.89l-3-3.79a4.75,4.75,0,0,1-6.61-3.72l-2.54-2.35a1.79,1.79,0,0,1-.56-1.1h0L61.75,94.41l-.16.18a1.81,1.81,0,0,1-2.56.1l-2.22-2.06A5.16,5.16,0,1,1,54,83.14Z"/></g></g></svg>