<svg xmlns="http://www.w3.org/2000/svg" viewBox="0 0 600 200"><defs><style>.cls-1{opacity:0.12;}.cls-2{opacity:0.2;}.cls-3{fill:#333;}.cls-4,.cls-5{fill:#fff;}.cls-5{stroke:#f2f2f2;stroke-miterlimit:10;stroke-width:1.48px;}.cls-6{fill:#cc5a63;}</style></defs><title>branding-bg</title><g id="Layer_1" data-name="Layer 1"><rect class="cls-1" y="119" width="600" height="81"/><g id="window"><g class="cls-2"><rect class="cls-3" x="155" y="28.5" width="52" height="3.33"/><rect class="cls-3" x="155" y="21.83" width="52" height="3.33"/><rect class="cls-3" x="155" y="35.17" width="52" height="3.33"/><rect class="cls-3" x="155" y="48.5" width="52" height="63"/><rect class="cls-3" x="155" y="41.83" width="52" height="3.33"/><rect class="cls-3" x="155" y="15.5" width="52" height="3"/><rect class="cls-3" x="213" y="28.5" width="52" height="3.33"/><rect class="cls-3" x="213" y="21.83" width="52" height="3.33"/><rect class="cls-3" x="213" y="35.17" width="52" height="3.33"/><rect class="cls-3" x="213" y="48.5" width="52" height="63"/><rect class="cls-3" x="213" y="41.83" width="52" height="3.33"/><rect class="cls-3" x="213" y="15.5" width="52" height="3"/></g><g class="cls-2"><path class="cls-4" d="M183.23,31.83h12.5a15.31,15.31,0,0,0-12.5,0Z"/><path class="cls-4" d="M175.94,38.5h19a15.43,15.43,0,0,1,6.83-2,15.68,15.68,0,0,0-1.2-1.37H178.42A15.54,15.54,0,0,0,175.94,38.5Z"/><path class="cls-4" d="M189.5,61.5c.25,0,.49,0,.74,0a15.32,15.32,0,0,1-2.83-13H174.22A15.49,15.49,0,0,0,189.5,61.5Z"/><path class="cls-4" d="M174,45.17H188.6a15.46,15.46,0,0,1,2.23-3.33H174.58A15.45,15.45,0,0,0,174,45.17Z"/></g></g><g id="watch"><circle class="cls-5" cx="395.09" cy="67.41" r="25.91"/><rect class="cls-3" x="383.47" y="46.08" width="1.9" height="5.69" transform="translate(27.04 198.77) rotate(-30)"/><rect class="cls-3" x="404.82" y="83.04" width="1.9" height="5.69" transform="translate(11.42 214.39) rotate(-30)"/><rect class="cls-3" x="375.66" y="53.89" width="1.9" height="5.69" transform="translate(139.17 354.52) rotate(-60)"/><rect class="cls-3" x="412.63" y="75.23" width="1.9" height="5.69" transform="translate(139.17 397.21) rotate(-60)"/><rect class="cls-3" x="415.49" y="64.56" width="1.9" height="5.69" transform="translate(483.84 -349.03) rotate(90)"/><rect class="cls-3" x="372.8" y="64.56" width="1.9" height="5.69" transform="translate(441.16 -306.35) rotate(90)"/><rect class="cls-3" x="412.63" y="53.89" width="1.9" height="5.69" transform="translate(255.92 -329.8) rotate(60)"/><rect class="cls-3" x="375.66" y="75.23" width="1.9" height="5.69" transform="translate(255.92 -287.12) rotate(60)"/><rect class="cls-3" x="404.82" y="46.08" width="1.9" height="5.69" transform="translate(78.82 -196.33) rotate(30)"/><rect class="cls-3" x="383.47" y="83.04" width="1.9" height="5.69" transform="translate(94.45 -180.7) rotate(30)"/><rect class="cls-3" x="394.15" y="43.22" width="1.9" height="5.69"/><rect class="cls-3" x="394.15" y="85.9" width="1.9" height="5.69"/><rect class="cls-3" x="392.24" y="43.34" width="0.95" height="2.85" transform="translate(-2.53 41.3) rotate(-6)"/><rect class="cls-3" x="397" y="88.62" width="0.95" height="2.85" transform="translate(-7.23 42.04) rotate(-6)"/><rect class="cls-3" x="389.89" y="43.72" width="0.95" height="2.85" transform="translate(-0.85 82.15) rotate(-12)"/><rect class="cls-3" x="399.35" y="88.25" width="0.95" height="2.85" transform="translate(-9.91 85.09) rotate(-12)"/><rect class="cls-3" x="387.58" y="44.33" width="0.95" height="2.85" transform="translate(4.85 122.16) rotate(-18)"/><rect class="cls-3" x="401.65" y="87.63" width="0.95" height="2.85" transform="translate(-7.84 128.62) rotate(-18)"/><rect class="cls-3" x="385.36" y="45.19" width="0.95" height="2.85" transform="translate(14.4 160.96) rotate(-24)"/><rect class="cls-3" x="403.88" y="86.78" width="0.95" height="2.85" transform="matrix(0.91, -0.41, 0.41, 0.91, -0.92, 172.09)"/><rect class="cls-3" x="381.24" y="47.57" width="0.95" height="2.85" transform="translate(44.11 233.72) rotate(-36)"/><rect class="cls-3" x="408" y="84.4" width="0.95" height="2.85" transform="translate(27.57 256.49) rotate(-36)"/><rect class="cls-3" x="379.39" y="49.07" width="0.95" height="2.85" transform="translate(63.79 267.15) rotate(-42)"/><rect class="cls-3" x="409.85" y="82.9" width="0.95" height="2.85" transform="translate(48.97 296.22) rotate(-42)"/><rect class="cls-3" x="377.7" y="50.75" width="0.95" height="2.85" transform="translate(86.35 298.3) rotate(-48)"/><rect class="cls-3" x="411.54" y="81.22" width="0.95" height="2.85" transform="translate(74.91 333.53) rotate(-48)"/><rect class="cls-3" x="376.2" y="52.6" width="0.95" height="2.85" transform="translate(111.56 327.01) rotate(-54)"/><rect class="cls-3" x="413.04" y="79.36" width="0.95" height="2.85" transform="translate(105.1 367.84) rotate(-54)"/><rect class="cls-3" x="373.82" y="56.72" width="0.95" height="2.85" transform="translate(168.94 376.43) rotate(-66)"/><rect class="cls-3" x="415.42" y="75.24" width="0.95" height="2.85" transform="translate(176.7 425.42) rotate(-66)"/><rect class="cls-3" x="372.97" y="58.95" width="0.95" height="2.85" transform="translate(200.63 396.88) rotate(-72)"/><rect class="cls-3" x="416.27" y="73.02" width="0.95" height="2.85" transform="translate(217.17 447.78) rotate(-72)"/><rect class="cls-3" x="372.35" y="61.25" width="0.95" height="2.85" transform="translate(234.01 414.32) rotate(-78)"/><rect class="cls-3" x="416.89" y="70.72" width="0.95" height="2.85" transform="translate(260.02 465.38) rotate(-78)"/><rect class="cls-3" x="371.98" y="63.6" width="0.95" height="2.85" transform="translate(268.85 428.64) rotate(-84)"/><rect class="cls-3" x="417.26" y="68.36" width="0.95" height="2.85" transform="translate(304.66 477.94) rotate(-84)"/><rect class="cls-3" x="371.98" y="68.36" width="0.95" height="2.85" transform="translate(341.98 447.49) rotate(-96)"/><rect class="cls-3" x="417.26" y="63.6" width="0.95" height="2.85" transform="translate(396.73 487.27) rotate(-96)"/><rect class="cls-3" x="372.35" y="70.72" width="0.95" height="2.85" transform="translate(379.78 451.82) rotate(-102)"/><rect class="cls-3" x="416.89" y="61.25" width="0.95" height="2.85" transform="translate(442.83 483.94) rotate(-102)"/><rect class="cls-3" x="372.97" y="73.02" width="0.95" height="2.85" transform="translate(418.05 452.61) rotate(-108)"/><rect class="cls-3" x="416.27" y="58.95" width="0.95" height="2.85" transform="translate(488.11 475.37) rotate(-108)"/><rect class="cls-3" x="373.82" y="75.24" width="0.95" height="2.85" transform="matrix(-0.41, -0.91, 0.91, -0.41, 456.5, 449.79)"/><rect class="cls-3" x="415.42" y="56.72" width="0.95" height="2.85" transform="translate(531.93 461.73) rotate(-114)"/><rect class="cls-3" x="376.2" y="79.36" width="0.95" height="2.85" transform="translate(532.72 433.01) rotate(-126)"/><rect class="cls-3" x="413.04" y="52.6" width="0.95" height="2.85" transform="translate(612.86 420.32) rotate(-126)"/><rect class="cls-3" x="377.7" y="81.22" width="0.95" height="2.85" transform="translate(569.81 418.97) rotate(-132)"/><rect class="cls-3" x="411.54" y="50.75" width="0.95" height="2.85" transform="translate(648.93 393.27) rotate(-132)"/><rect class="cls-3" x="379.39" y="82.9" width="0.95" height="2.85" transform="translate(605.73 401.16) rotate(-138)"/><rect class="cls-3" x="409.85" y="49.07" width="0.95" height="2.85" transform="translate(681.47 362.57) rotate(-138)"/><rect class="cls-3" x="381.24" y="84.4" width="0.95" height="2.85" transform="translate(640.08 379.62) rotate(-144)"/><rect class="cls-3" x="408" y="47.57" width="0.95" height="2.85" transform="translate(710.14 328.72) rotate(-144)"/><rect class="cls-3" x="385.36" y="86.78" width="0.95" height="2.85" transform="translate(702.44 325.71) rotate(-156)"/><rect class="cls-3" x="403.88" y="45.19" width="0.95" height="2.85" transform="translate(754.79 253.66) rotate(-156)"/><rect class="cls-3" x="387.58" y="87.63" width="0.95" height="2.85" transform="translate(729.61 293.67) rotate(-162)"/><rect class="cls-3" x="401.65" y="44.33" width="0.95" height="2.85" transform="translate(770.44 213.54) rotate(-162)"/><rect class="cls-3" x="389.89" y="88.25" width="0.95" height="2.85" transform="translate(753.55 258.55) rotate(-168)"/><rect class="cls-3" x="399.35" y="43.72" width="0.95" height="2.85" transform="translate(781.53 172.42) rotate(-168)"/><rect class="cls-3" x="392.24" y="88.62" width="0.95" height="2.85" transform="translate(773.86 220.65) rotate(-174)"/><rect class="cls-3" x="397" y="43.34" width="0.95" height="2.85" transform="translate(788.09 130.84) rotate(-174)"/><rect class="cls-3" x="402.38" y="50.33" width="1.9" height="28.8" transform="translate(340.26 -338.86) rotate(72)"/><rect class="cls-3" x="392.12" y="55.71" width="1.9" height="20.8" transform="translate(661.35 -228.69) rotate(122.76)"/><rect class="cls-6" x="388.79" y="58.84" width="0.95" height="20.93" transform="translate(334.88 -322.32) rotate(72)"/><circle class="cls-6" cx="379.27" cy="72.62" r="1.9"/></g></g></svg>