<svg xmlns="http://www.w3.org/2000/svg" viewBox="0 0 600 200"><defs><style>.cls-1{opacity:0.12;}.cls-2{opacity:0.2;}.cls-3{fill:#333;}.cls-4{fill:#fff;}</style></defs><title>branding-bg</title><g id="Layer_1" data-name="Layer 1"><rect class="cls-1" y="119" width="600" height="81"/><g id="window"><g class="cls-2"><rect class="cls-3" x="155" y="28.5" width="52" height="3.33"/><rect class="cls-3" x="155" y="21.83" width="52" height="3.33"/><rect class="cls-3" x="155" y="35.17" width="52" height="3.33"/><rect class="cls-3" x="155" y="48.5" width="52" height="63"/><rect class="cls-3" x="155" y="41.83" width="52" height="3.33"/><rect class="cls-3" x="155" y="15.5" width="52" height="3"/><rect class="cls-3" x="213" y="28.5" width="52" height="3.33"/><rect class="cls-3" x="213" y="21.83" width="52" height="3.33"/><rect class="cls-3" x="213" y="35.17" width="52" height="3.33"/><rect class="cls-3" x="213" y="48.5" width="52" height="63"/><rect class="cls-3" x="213" y="41.83" width="52" height="3.33"/><rect class="cls-3" x="213" y="15.5" width="52" height="3"/></g><g class="cls-2"><path class="cls-4" d="M183.23,31.83h12.5a15.31,15.31,0,0,0-12.5,0Z"/><path class="cls-4" d="M175.94,38.5h19a15.43,15.43,0,0,1,6.83-2,15.68,15.68,0,0,0-1.2-1.37H178.42A15.54,15.54,0,0,0,175.94,38.5Z"/><path class="cls-4" d="M189.5,61.5c.25,0,.49,0,.74,0a15.32,15.32,0,0,1-2.83-13H174.22A15.49,15.49,0,0,0,189.5,61.5Z"/><path class="cls-4" d="M174,45.17H188.6a15.46,15.46,0,0,1,2.23-3.33H174.58A15.45,15.45,0,0,0,174,45.17Z"/></g></g></g></svg>