<svg xmlns="http://www.w3.org/2000/svg" viewBox="0 0 400 117">
  <defs>
    <style>
      .cls-1 {
        fill: #e6e6e6;
      }
    </style>
  </defs>
  <title>clouds</title>
  <g id="Layer_1" data-name="Layer 1"><path id="cloud-4" class="cls-1" d="M275,95.73a7.79,7.79,0,1,0-15.31-.15h-2.39a7.46,7.46,0,0,0,0,14.92h16.22A7.46,7.46,0,0,0,275,95.73Z"/><path id="cloud-3" class="cls-1" d="M132.46,14.41h-1.77a5.78,5.78,0,1,0-11.38.11,5.54,5.54,0,0,0,1.1,11h12a5.54,5.54,0,1,0,0-11.09Z"/><path id="cloud-2" class="cls-1" d="M39.53,74.48a8.41,8.41,0,0,0-14.32-7.42,12.63,12.63,0,1,0-6.58,23.4c.31,0,.6,0,.9,0a8.16,8.16,0,0,0,.85,0H37.93a8.07,8.07,0,0,0,1.6-16Z"/><path id="cloud-1" class="cls-1" d="M368.37,35.2a12.55,12.55,0,0,0-6.58,1.87,8.41,8.41,0,0,0-14.32,7.42,8.07,8.07,0,0,0,1.6,16h17.54a8.16,8.16,0,0,0,.85,0c.3,0,.6,0,.9,0a12.63,12.63,0,1,0,0-25.26Z"/></g>
</svg>
