<svg xmlns="http://www.w3.org/2000/svg" xmlns:xlink="http://www.w3.org/1999/xlink" viewBox="0 0 358 99"><defs><style>.cls-1,.cls-11{fill:none;}.cls-2{fill:#feb21e;}.cls-3,.cls-9{fill:#fff;}.cls-4{fill:#8f5fa3;}.cls-5{fill:#f96673;}.cls-6{fill:#333;}.cls-7{fill:#2b393f;}.cls-8,.cls-9{opacity:0.1;}.cls-10{fill:#1a1a1a;}.cls-11{stroke:#4d4d4d;stroke-linecap:round;stroke-miterlimit:10;stroke-width:1.56px;}.cls-12{fill:#666;}.cls-13{fill:url(#New_Pattern);}.cls-14{fill:url(#New_Pattern-3);}.cls-15{fill:url(#New_Pattern-5);}.cls-16{fill:#e6e6e6;}.cls-17{fill:#b3b3b3;}.cls-18{fill:#fa7480;}.cls-19{fill:#ccc;}</style><pattern id="New_Pattern" data-name="New Pattern" width="60" height="60" patternTransform="translate(792.56 -627.42) rotate(45) scale(0.95)" patternUnits="userSpaceOnUse" viewBox="0 0 60 60"><rect class="cls-1" width="60" height="60"/><rect class="cls-2" width="10" height="60"/><rect class="cls-3" x="10" width="10" height="60"/><rect class="cls-4" x="20" width="10" height="60"/><rect class="cls-3" x="30" width="10" height="60"/><rect class="cls-3" x="50" width="10" height="60"/><rect class="cls-5" x="40" width="10" height="60"/></pattern><pattern id="New_Pattern-3" data-name="New Pattern" width="60" height="60" patternTransform="matrix(0.48, 0.48, -0.48, 0.48, 756.93, -653.72)" patternUnits="userSpaceOnUse" viewBox="0 0 60 60"><rect class="cls-1" width="60" height="60"/><rect class="cls-2" width="10" height="60"/><rect class="cls-3" x="10" width="10" height="60"/><rect class="cls-4" x="20" width="10" height="60"/><rect class="cls-3" x="30" width="10" height="60"/><rect class="cls-3" x="50" width="10" height="60"/><rect class="cls-5" x="40" width="10" height="60"/></pattern><pattern id="New_Pattern-5" data-name="New Pattern" width="60" height="60" patternTransform="translate(627.71 -568.18) rotate(45) scale(0.34)" patternUnits="userSpaceOnUse" viewBox="0 0 60 60"><rect class="cls-1" width="60" height="60"/><rect class="cls-2" width="10" height="60"/><rect class="cls-3" x="10" width="10" height="60"/><rect class="cls-4" x="20" width="10" height="60"/><rect class="cls-3" x="30" width="10" height="60"/><rect class="cls-3" x="50" width="10" height="60"/><rect class="cls-5" x="40" width="10" height="60"/></pattern></defs><title>communications</title><g id="desk"><path class="cls-6" d="M32.68,36.75a2,2,0,0,0-2,2v7.47H29.28V34.71a2,2,0,0,0-4.07,0V46.25H23.85V33.36a2,2,0,1,0-4.07,0v12.9H18.42v-9.5a2,2,0,1,0-4.07,0V52.92s-5.8-3.33-5.85-3.34a1.66,1.66,0,0,0-.81-.22,1.61,1.61,0,0,0-1.07.39c-.05,0-1.76,1.7-1.76,1.7L15.5,62.29a5.4,5.4,0,0,0,2.91,1.52V99H31.95V63.19a5.44,5.44,0,0,0,2.77-4.72V38.79A2,2,0,0,0,32.68,36.75Z"/><path class="cls-6" d="M110.61,56.9a1.39,1.39,0,0,0-1.39,1.39v5.1h-.93V55.51a1.39,1.39,0,0,0-2.78,0V63.4h-.93V54.59a1.39,1.39,0,0,0-2.78,0V63.4h-.93V56.9a1.39,1.39,0,1,0-2.78,0v11s-4-2.27-4-2.28a1.13,1.13,0,0,0-.56-.15,1.1,1.1,0,0,0-.73.27s-1.21,1.16-1.21,1.16l7.28,7.4a3.69,3.69,0,0,0,2,1V99h9.24V74.95A3.7,3.7,0,0,0,112,71.74V58.3A1.39,1.39,0,0,0,110.61,56.9Z"/><path class="cls-6" d="M90.26,49.61s-1.76-1.71-1.81-1.74a1.65,1.65,0,0,0-1.1-.4,1.7,1.7,0,0,0-.84.22c-.06,0-6,3.43-6,3.43V34.52a2.09,2.09,0,1,0-4.18,0v9.75H74.93V31a2.09,2.09,0,0,0-4.18,0V44.27H69.36V32.43a2.09,2.09,0,1,0-4.18,0V44.27H63.79V36.61a2.09,2.09,0,0,0-4.18,0v20.2a5.58,5.58,0,0,0,2.84,4.85V99H76.34V62.29a5.56,5.56,0,0,0,3-1.57Z"/><path class="cls-6" d="M71.63,33s-1.71-1.67-1.76-1.7a1.61,1.61,0,0,0-1.07-.39,1.66,1.66,0,0,0-.81.22c-.05,0-5.85,3.34-5.85,3.34V18.29a2,2,0,1,0-4.07,0v9.5H56.7V14.9a2,2,0,1,0-4.07,0v12.9H51.27V16.25a2,2,0,0,0-4.07,0V27.79H45.84V20.33a2,2,0,1,0-4.07,0V40a5.44,5.44,0,0,0,2.77,4.72V99H58.07V45.35A5.41,5.41,0,0,0,61,43.83Z"/><path class="cls-6" d="M98.35,41.43a1.45,1.45,0,0,0-1.45,1.45v5.31h-1V40A1.45,1.45,0,1,0,93,40v8.21h-1V39a1.45,1.45,0,0,0-2.9,0v9.17h-1V41.43a1.45,1.45,0,0,0-2.9,0v11.5s-4.12-2.37-4.16-2.37a1.18,1.18,0,0,0-.58-.15,1.14,1.14,0,0,0-.76.28s-1.26,1.21-1.26,1.21l7.58,7.7a3.84,3.84,0,0,0,2.07,1.08V99h9.63V60.21a3.86,3.86,0,0,0,2-3.34v-14A1.45,1.45,0,0,0,98.35,41.43Z"/><path class="cls-7" d="M271.86,67.75c.83-5.56-13.79-9.22-15-11-6.55-9.49-25.39-16.79-35.21-9.58-13.54,9.94-14.4,31.79-1.91,48.8q1.17,1.6,2.44,3.06h52.59c2.21-4.75,1.3-9.38-.91-14.26-.41-.89-10.31,2.42-12.69-.86-.65-.9,11.45-4.35,10.87-5.35-1.77-3.07-2-1.25-4-3.46C264.95,71.66,271.51,70.05,271.86,67.75Z"/><polygon class="cls-7" points="352 50.56 345.72 53.95 311.81 11.66 316.48 6.27 352 50.56"/><polygon class="cls-3" points="316.98 58.01 301.61 38.84 313.39 13.64 344.14 51.98 316.98 58.01"/><path class="cls-3" d="M315.65,80.09,300.44,72a1.63,1.63,0,0,1-.25-2.72l6-4.85a1.63,1.63,0,0,1,1.79-.17l15.21,8.11a1.63,1.63,0,0,1,.25,2.72l-6,4.85A1.63,1.63,0,0,1,315.65,80.09Z"/><g class="cls-8"><polygon class="cls-7" points="309.32 48.46 316.98 58.01 344.14 51.98 328.79 32.84 309.32 48.46"/></g><rect class="cls-7" x="284.1" y="42.17" width="27.57" height="30.81" transform="translate(156.43 -210.83) rotate(51.27)"/><rect class="cls-9" x="295.34" y="47.56" width="13.74" height="30.81" transform="matrix(0.63, 0.78, -0.78, 0.63, 162.26, -212.18)"/><polygon class="cls-3" points="276.8 68.73 278.02 70.25 280.95 67.9 281.75 68.9 278.82 71.25 280.42 73.25 283.35 70.89 284.15 71.89 281.22 74.24 282.44 75.77 291.52 74.26 280.24 60.2 276.8 68.73"/><ellipse class="cls-7" cx="318.66" cy="77.3" rx="10.85" ry="9.86"/><polygon class="cls-7" points="313.73 99 301.89 99 313.73 79.27 325.56 79.27 313.73 99"/><circle class="cls-10" cx="213.88" cy="41.55" r="2.37"/><circle class="cls-10" cx="186.34" cy="41.55" r="2.37"/><path class="cls-11" d="M186.34,41.55c0-10,6.17-18,13.77-18s13.77,8.08,13.77,18"/><polygon class="cls-12" points="240 97.1 236.68 99 156.91 37.27 159.28 35.37 240 35.37 240 97.1"/><rect class="cls-13" x="156.91" y="37.27" width="80.72" height="61.73"/><circle class="cls-10" cx="211.04" cy="42.5" r="2.37"/><circle class="cls-10" cx="183.5" cy="42.5" r="2.37"/><path class="cls-11" d="M183.5,42.5c0-10,6.17-18,13.77-18S211,32.53,211,42.5"/><polygon class="cls-12" points="118 52.82 66.13 52.82 66.13 63.47 68.26 63.47 68.26 97.58 115.87 97.58 115.87 63.47 118 63.47 118 52.82"/><rect class="cls-14" x="66.13" y="62.05" width="47.61" height="36.95"/><rect class="cls-5" x="64" y="54.24" width="51.87" height="10.66"/><polygon class="cls-12" points="57.89 76 32.06 76 32.06 81.31 33.12 81.31 33.12 98.29 56.83 98.29 56.83 81.31 57.89 81.31 57.89 76"/><rect class="cls-15" x="32.06" y="80.6" width="23.71" height="18.4"/><rect class="cls-5" x="31" y="76.71" width="25.83" height="5.31"/><rect class="cls-16" x="128.17" y="70.53" width="51.83" height="28.47"/><polygon class="cls-17" points="128.17 70.53 153.72 84.4 180 70.53 128.17 70.53"/><path class="cls-5" d="M158.73,84.76c0,.47-.59.85-.73,1.27s.11,1.09-.16,1.46-1,.33-1.34.6-.54.94-1,1.09-1-.3-1.44-.3-1,.44-1.44.3-.62-.82-1-1.09-1.07-.23-1.34-.6,0-1-.16-1.46-.73-.8-.73-1.27.59-.85.73-1.27-.11-1.09.16-1.46,1-.33,1.34-.6.54-.94,1-1.09,1,.3,1.44.3,1-.44,1.44-.3.62.82,1,1.09,1.07.23,1.34.6,0,1,.16,1.46S158.73,84.29,158.73,84.76Z"/><path class="cls-18" d="M157.9,84.76c0,.39-.48.7-.6,1s.09.89-.13,1.2-.79.27-1.1.49-.45.77-.81.89-.79-.25-1.18-.25-.83.36-1.18.25-.51-.67-.81-.89-.88-.19-1.1-.49,0-.83-.13-1.2-.6-.66-.6-1,.48-.7.6-1-.09-.89.13-1.2.79-.27,1.1-.49.45-.77.81-.89.79.25,1.18.25.83-.36,1.18-.25.51.67.81.89.88.19,1.1.49,0,.83.13,1.2S157.9,84.38,157.9,84.76Z"/><rect class="cls-19" x="161.89" y="89.13" width="15.06" height="0.71"/><rect class="cls-19" x="161.89" y="90.56" width="15.06" height="0.71"/><rect class="cls-19" x="161.89" y="91.99" width="15.06" height="0.71"/><rect class="cls-19" x="161.89" y="93.42" width="7.53" height="0.71"/></g></svg>