<svg xmlns="http://www.w3.org/2000/svg" xmlns:xlink="http://www.w3.org/1999/xlink" viewBox="0 0 360 109"><defs><style>.cls-1,.cls-11{fill:none;}.cls-2{fill:#feb21e;}.cls-3,.cls-9{fill:#fff;}.cls-4{fill:#8f5fa3;}.cls-5{fill:#f96673;}.cls-6{fill:#333;}.cls-7{fill:#2b393f;}.cls-8,.cls-9{opacity:0.1;}.cls-10{fill:#1a1a1a;}.cls-11{stroke:#4d4d4d;stroke-linecap:round;stroke-miterlimit:10;stroke-width:1.56px;}.cls-12{fill:#666;}.cls-13{fill:url(#New_Pattern);}.cls-14{fill:url(#New_Pattern-3);}.cls-15{fill:url(#New_Pattern-5);}.cls-16{fill:#e6e6e6;}.cls-17{fill:#b3b3b3;}.cls-18{fill:#fa7480;}.cls-19{fill:#ccc;}</style><pattern id="New_Pattern" data-name="New Pattern" width="60" height="60" patternTransform="matrix(0.67, 0.67, -0.67, 0.67, 358.02, -128.39)" patternUnits="userSpaceOnUse" viewBox="0 0 60 60"><rect class="cls-1" width="60" height="60"/><rect class="cls-2" width="10" height="60"/><rect class="cls-3" x="10" width="10" height="60"/><rect class="cls-4" x="20" width="10" height="60"/><rect class="cls-3" x="30" width="10" height="60"/><rect class="cls-3" x="50" width="10" height="60"/><rect class="cls-5" x="40" width="10" height="60"/></pattern><pattern id="New_Pattern-3" data-name="New Pattern" width="60" height="60" patternTransform="matrix(0.48, 0.48, -0.48, 0.48, 292.69, -150.45)" patternUnits="userSpaceOnUse" viewBox="0 0 60 60"><rect class="cls-1" width="60" height="60"/><rect class="cls-2" width="10" height="60"/><rect class="cls-3" x="10" width="10" height="60"/><rect class="cls-4" x="20" width="10" height="60"/><rect class="cls-3" x="30" width="10" height="60"/><rect class="cls-3" x="50" width="10" height="60"/><rect class="cls-5" x="40" width="10" height="60"/></pattern><pattern id="New_Pattern-5" data-name="New Pattern" width="60" height="60" patternTransform="translate(248.33 -66.05) rotate(45) scale(0.34)" patternUnits="userSpaceOnUse" viewBox="0 0 60 60"><rect class="cls-1" width="60" height="60"/><rect class="cls-2" width="10" height="60"/><rect class="cls-3" x="10" width="10" height="60"/><rect class="cls-4" x="20" width="10" height="60"/><rect class="cls-3" x="30" width="10" height="60"/><rect class="cls-3" x="50" width="10" height="60"/><rect class="cls-5" x="40" width="10" height="60"/></pattern></defs><title>advertising</title><g id="desk"><path class="cls-6" d="M31.68,46.75a2,2,0,0,0-2,2v7.47H28.28V44.71a2,2,0,0,0-4.07,0V56.25H22.85V43.36a2,2,0,1,0-4.07,0v12.9H17.42v-9.5a2,2,0,1,0-4.07,0V62.92s-5.8-3.33-5.85-3.34a1.66,1.66,0,0,0-.81-.22,1.61,1.61,0,0,0-1.07.39c-.05,0-1.76,1.7-1.76,1.7L14.5,72.29a5.4,5.4,0,0,0,2.91,1.52V109H30.95V73.19a5.44,5.44,0,0,0,2.77-4.72V48.79A2,2,0,0,0,31.68,46.75Z"/><path class="cls-6" d="M109.61,66.9a1.39,1.39,0,0,0-1.39,1.39v5.1h-.93V65.51a1.39,1.39,0,0,0-2.78,0V73.4h-.93V64.59a1.39,1.39,0,0,0-2.78,0V73.4h-.93V66.9a1.39,1.39,0,1,0-2.78,0v11s-4-2.27-4-2.28a1.13,1.13,0,0,0-.56-.15,1.1,1.1,0,0,0-.73.27s-1.21,1.16-1.21,1.16l7.28,7.4a3.69,3.69,0,0,0,2,1V109h9.24V84.95A3.7,3.7,0,0,0,111,81.74V68.3A1.39,1.39,0,0,0,109.61,66.9Z"/><path class="cls-6" d="M89.26,59.61s-1.76-1.71-1.81-1.74a1.65,1.65,0,0,0-1.1-.4,1.7,1.7,0,0,0-.84.22c-.06,0-6,3.43-6,3.43V44.52a2.09,2.09,0,1,0-4.18,0v9.75H73.93V41a2.09,2.09,0,0,0-4.18,0V54.27H68.36V42.43a2.09,2.09,0,1,0-4.18,0V54.27H62.79V46.61a2.09,2.09,0,0,0-4.18,0v20.2a5.58,5.58,0,0,0,2.84,4.85V109H75.34V72.29a5.56,5.56,0,0,0,3-1.57Z"/><path class="cls-6" d="M70.63,43s-1.71-1.67-1.76-1.7a1.61,1.61,0,0,0-1.07-.39,1.66,1.66,0,0,0-.81.22c-.05,0-5.85,3.34-5.85,3.34V28.29a2,2,0,1,0-4.07,0v9.5H55.7V24.9a2,2,0,1,0-4.07,0v12.9H50.27V26.25a2,2,0,0,0-4.07,0V37.79H44.84V30.33a2,2,0,1,0-4.07,0V50a5.44,5.44,0,0,0,2.77,4.72V109H57.07V55.35A5.41,5.41,0,0,0,60,53.83Z"/><path class="cls-6" d="M97.35,51.43a1.45,1.45,0,0,0-1.45,1.45v5.31h-1V50A1.45,1.45,0,1,0,92,50v8.21h-1V49a1.45,1.45,0,0,0-2.9,0v9.17h-1V51.43a1.45,1.45,0,0,0-2.9,0v11.5s-4.12-2.37-4.16-2.37a1.18,1.18,0,0,0-.58-.15,1.14,1.14,0,0,0-.76.28s-1.26,1.21-1.26,1.21l7.58,7.7a3.84,3.84,0,0,0,2.07,1.08V109h9.63V70.21a3.86,3.86,0,0,0,2-3.34v-14A1.45,1.45,0,0,0,97.35,51.43Z"/><path class="cls-7" d="M270.86,77.75c-12.49-17-36.71-30.55-50.25-20.61s-14.4,31.79-1.91,48.8q1.17,1.6,2.44,3.06h52.59c2.21-4.75,1.3-9.38-.91-14.26-.41-.89-6.5,2.69-7,1.78s4.57-6.45,4-7.46c-1.77-3.07-2.19,0-4-3.46C264.76,83.57,272.28,79.69,270.86,77.75Z"/><polygon class="cls-7" points="351 60.56 344.72 63.95 310.81 21.66 315.48 16.27 351 60.56"/><polygon class="cls-3" points="315.98 68.01 300.61 48.84 312.39 23.64 343.14 61.98 315.98 68.01"/><path class="cls-3" d="M314.65,90.09,299.44,82a1.63,1.63,0,0,1-.25-2.72l6-4.85a1.63,1.63,0,0,1,1.79-.17l15.21,8.11a1.63,1.63,0,0,1,.25,2.72l-6,4.85A1.63,1.63,0,0,1,314.65,90.09Z"/><g class="cls-8"><polygon class="cls-7" points="308.32 58.46 315.98 68.01 343.14 61.98 327.79 42.84 308.32 58.46"/></g><rect class="cls-7" x="283.1" y="52.17" width="27.57" height="30.81" transform="translate(163.86 -206.31) rotate(51.27)"/><rect class="cls-9" x="294.34" y="57.56" width="13.74" height="30.81" transform="translate(169.69 -207.66) rotate(51.27)"/><polygon class="cls-3" points="275.8 78.73 277.02 80.25 279.95 77.9 280.75 78.9 277.82 81.25 279.42 83.25 282.35 80.89 283.15 81.89 280.22 84.24 281.44 85.77 290.52 84.26 279.24 70.19 275.8 78.73"/><ellipse class="cls-7" cx="317.66" cy="87.3" rx="10.85" ry="9.86"/><polygon class="cls-7" points="312.73 109 300.89 109 312.73 89.27 324.56 89.27 312.73 109"/><circle class="cls-10" cx="212.88" cy="51.55" r="2.37"/><circle class="cls-10" cx="185.34" cy="51.55" r="2.37"/><path class="cls-11" d="M185.34,51.55c0-10,6.17-18,13.77-18s13.77,8.08,13.77,18"/><polygon class="cls-12" points="239 107.1 235.68 109 155.91 47.27 158.28 45.37 239 45.37 239 107.1"/><rect class="cls-13" x="155.91" y="47.27" width="80.72" height="61.73"/><circle class="cls-10" cx="210.04" cy="52.5" r="2.37"/><circle class="cls-10" cx="182.5" cy="52.5" r="2.37"/><path class="cls-11" d="M182.5,52.5c0-10,6.17-18,13.77-18S210,42.53,210,52.5"/><polygon class="cls-12" points="117 62.82 65.13 62.82 65.13 73.47 67.26 73.47 67.26 107.58 114.87 107.58 114.87 73.47 117 73.47 117 62.82"/><rect class="cls-14" x="65.13" y="72.05" width="47.61" height="36.95"/><rect class="cls-5" x="63" y="64.24" width="51.87" height="10.66"/><polygon class="cls-12" points="56.89 86 31.06 86 31.06 91.31 32.12 91.31 32.12 108.29 55.83 108.29 55.83 91.31 56.89 91.31 56.89 86"/><rect class="cls-15" x="31.06" y="90.6" width="23.71" height="18.4"/><rect class="cls-5" x="30" y="86.71" width="25.83" height="5.31"/><rect class="cls-16" x="127.17" y="80.53" width="51.83" height="28.47"/><polygon class="cls-17" points="127.17 80.53 152.72 94.4 179 80.53 127.17 80.53"/><path class="cls-5" d="M157.73,94.76c0,.47-.59.85-.73,1.27s.11,1.09-.16,1.46-1,.33-1.34.6-.54.94-1,1.09-1-.3-1.44-.3-1,.44-1.44.3-.62-.82-1-1.09-1.07-.23-1.34-.6,0-1-.16-1.46-.73-.8-.73-1.27.59-.85.73-1.27-.11-1.09.16-1.46,1-.33,1.34-.6.54-.94,1-1.09,1,.3,1.44.3,1-.44,1.44-.3.62.82,1,1.09,1.07.23,1.34.6,0,1,.16,1.46S157.73,94.29,157.73,94.76Z"/><path class="cls-18" d="M156.9,94.76c0,.39-.48.7-.6,1s.09.89-.13,1.2-.79.27-1.1.49-.45.77-.81.89-.79-.25-1.18-.25-.83.36-1.18.25-.51-.67-.81-.89-.88-.19-1.1-.49,0-.83-.13-1.2-.6-.66-.6-1,.48-.7.6-1-.09-.89.13-1.2.79-.27,1.1-.49.45-.77.81-.89.79.25,1.18.25.83-.36,1.18-.25.51.67.81.89.88.19,1.1.49,0,.83.13,1.2S156.9,94.38,156.9,94.76Z"/><rect class="cls-19" x="160.89" y="99.13" width="15.06" height="0.71"/><rect class="cls-19" x="160.89" y="100.56" width="15.06" height="0.71"/><rect class="cls-19" x="160.89" y="101.99" width="15.06" height="0.71"/><rect class="cls-19" x="160.89" y="103.42" width="7.53" height="0.71"/></g></svg>