<svg xmlns="http://www.w3.org/2000/svg" viewBox="0 0 600 200"><defs><style>.cls-1{opacity:0.12;}</style></defs><title>contact-bg</title><g id="desk"><path class="cls-1" d="M589,152h-9.5L568,137.26h-6L551.42,65a5.33,5.33,0,1,0-2.74,0L538.1,137.26h-4.89L521,144.5l-35.5,10.75-35-22.2-45,9.18L346,140l-62,13-13.24,4.88V142a7.21,7.21,0,0,0,9-10.36,7.21,7.21,0,0,0-3.14-12.69,7.21,7.21,0,0,0-14.41.31s0,.08,0,.12a7.2,7.2,0,0,0-5.48,10.87,5.75,5.75,0,0,0-6.52,1.36,7.21,7.21,0,0,0-4.91-6.23,7.21,7.21,0,1,0-14-2.61,7.2,7.2,0,0,0-2.7,12.37,7.21,7.21,0,1,0,9.91,10.44v15.09l-16-5.41L181,147.63l-29.5,7.62-26.41-3.55v-9a6.72,6.72,0,0,0,8.81-8.89,6.71,6.71,0,0,0-1.2-10.19,6.72,6.72,0,0,0-13-3A6.73,6.73,0,0,0,114.51,133,6.72,6.72,0,0,0,122,143.43v7.85L112.48,150l-18-12.74L74,134.9,67.64,91.65a8.88,8.88,0,1,0-3.5,0l-6.07,41.42L53,132.49,49.76,141l-19.44,3.54v-7.87a4,4,0,0,0,1.39.27A4.71,4.71,0,0,0,36.16,132a5.25,5.25,0,0,0-.9-2.95A5,5,0,0,0,38,124.51a4.71,4.71,0,0,0-4.45-4.94,4.06,4.06,0,0,0-1.69.37,4.49,4.49,0,0,0-4.17-3.25,4.71,4.71,0,0,0-4.45,4.94c0,.17,0,.32,0,.49a5.08,5.08,0,0,0-2,4.13,5.2,5.2,0,0,0,1.21,3.36,5.36,5.36,0,0,0-.38,2,4.71,4.71,0,0,0,4.45,4.94,4.06,4.06,0,0,0,1.76-.4v8.79l-.49.09L0,162.5V200H600V161.89ZM72.12,132.81l-5.72-5.72,4.25-4.25Zm-2.41-10.47-4,4-4-4Zm-8.05-1,4-4,4,4Zm8.66-.84-3.91-3.91,2.91-2.91Zm-1.42-9.69-2.3-2.3,1.71-1.71Zm-.31,1.13H63.16l2.71-2.71Zm-10.93-29A8.24,8.24,0,1,1,67.55,91l-.33-2.24a6,6,0,1,0-2.66,0L64.23,91A8.25,8.25,0,0,1,57.66,82.95Zm8.24-4.13a4.13,4.13,0,0,0-1.06,8.13l-.21,1.41a5.55,5.55,0,1,1,2.53,0L67,86.94a4.13,4.13,0,0,0-1.06-8.13ZM66,91.18h-.26l.13-.89Zm-.35.64h.45l2,13.69-2.25,2.25-2.22-2.22Zm-2.2,15,1.68,1.68-2.25,2.25Zm5.11,6.14-2.9,2.9-2.9-2.9ZM62.41,114,65,116.57,61.54,120Zm-1.35,9.18L65,127.09l-5.23,5.23Zm4.61,4.61,6.09,6.09H65.36l-5.18-.59Zm188,24.65a5.77,5.77,0,0,0,7.56-7.62,5.79,5.79,0,0,0,.56-.69l.41,0a7.19,7.19,0,0,0,5.24-2.27v17.2l-13.77,5.07Zm-11.79-5.82a7.16,7.16,0,0,0,1.6.47c0,.17,0,.35,0,.53a5.76,5.76,0,0,0,7.56,5.48v11.73l-9.13-3.08Zm316.21-22.49-7.37-7.37,5.49-5.49ZM555,110.67l-5.19,5.19-5.19-5.19Zm-10.38-1.32,5.19-5.19,5.19,5.19Zm11.16-1.09-5-5,3.75-3.75Zm-1.83-12.49-3-3,2.21-2.21Zm-.4,1.46h-7l3.5-3.5Zm-3.47-27.89L552.93,89l-2.9,2.9L547.17,89Zm-3.12,21.3,2.16,2.16-2.91,2.91Zm6.59,7.91-3.74,3.74L546,98.55Zm-8,1.39,3.28,3.28-4.41,4.41Zm-1.73,11.84,5,5-6.74,6.74Zm6,6,7.86,7.86H541.93Zm-8.17,9.18h16.87L560,137.26H540.1Z"/></g></svg>