<svg xmlns="http://www.w3.org/2000/svg" viewBox="0 0 340 90"><defs><style>.cls-1{fill:#e6e6e6;}.cls-2{fill:#b3b3b3;}.cls-3{fill:#f96673;}.cls-4{fill:#fa7480;}.cls-5{fill:#ccc;}</style></defs><title>contact</title><g id="Layer_1" data-name="Layer 1"><rect class="cls-1" x="217.17" y="30.5" width="71" height="39" transform="translate(287 305.27) rotate(-108.85)"/><polygon class="cls-2" points="245.68 89.9 252.35 50.63 222.74 22.71 245.68 89.9"/><path class="cls-3" d="M250.61,44c.61-.21,1.36.39,2,.38s1.36-.62,2-.44.86,1.1,1.37,1.47,1.46.29,1.84.8,0,1.38.25,2,1,1.11,1,1.73-.79,1.16-1,1.76.17,1.48-.19,2-1.31.47-1.82.85-.72,1.3-1.33,1.5-1.36-.39-2-.38-1.36.62-2,.44-.86-1.1-1.37-1.47-1.46-.29-1.84-.8,0-1.38-.25-2-1-1.11-1-1.73.79-1.16,1-1.76-.17-1.48.19-2,1.31-.47,1.82-.85S250,44.19,250.61,44Z"/><path class="cls-4" d="M251,45.06c.5-.17,1.12.32,1.62.31s1.12-.51,1.61-.36.7.91,1.13,1.2,1.2.24,1.51.65,0,1.13.2,1.64.83.92.84,1.42-.65,1-.8,1.44.14,1.22-.16,1.64-1.07.39-1.49.7-.59,1.06-1.09,1.24-1.12-.32-1.62-.31-1.12.51-1.61.36-.7-.91-1.13-1.2-1.2-.24-1.51-.65,0-1.13-.2-1.64-.83-.92-.84-1.42.65-1,.8-1.44-.14-1.22.16-1.64,1.07-.39,1.49-.7S250.48,45.23,251,45.06Z"/><rect class="cls-5" x="241.68" y="27.53" width="20.63" height="0.98" transform="translate(306.92 275.56) rotate(-108.85)"/><rect class="cls-5" x="243.54" y="26.9" width="20.63" height="0.98" transform="translate(309.96 276.47) rotate(-108.85)"/><rect class="cls-5" x="245.39" y="26.27" width="20.63" height="0.98" transform="translate(313.01 277.39) rotate(-108.85)"/><rect class="cls-5" x="254.06" y="30.52" width="10.32" height="0.98" transform="translate(313.65 286.34) rotate(-108.85)"/><rect class="cls-1" x="242.17" y="25.5" width="71" height="39" transform="translate(232.67 322.67) rotate(-90)"/><polygon class="cls-2" points="258.17 80.5 277.17 45.5 258.17 9.5 258.17 80.5"/><path class="cls-3" d="M277.67,38.64c.65,0,1.16.8,1.74,1s1.49-.15,2,.22.45,1.32.82,1.83,1.29.74,1.49,1.35-.41,1.32-.41,2,.6,1.38.41,2-1.12.85-1.49,1.35-.32,1.46-.82,1.83-1.39,0-2,.22-1.1,1-1.74,1-1.16-.8-1.74-1-1.49.15-2-.22-.45-1.32-.82-1.83-1.29-.74-1.49-1.35.41-1.32.41-2-.6-1.38-.41-2,1.12-.85,1.49-1.35.32-1.46.82-1.83,1.39,0,2-.22S277,38.64,277.67,38.64Z"/><path class="cls-4" d="M277.67,39.78c.53,0,1,.66,1.43.82s1.23-.12,1.64.18.37,1.09.68,1.5,1.06.61,1.22,1.11-.34,1.08-.34,1.61.49,1.14.34,1.61-.92.69-1.22,1.11-.26,1.2-.68,1.5-1.14,0-1.64.18-.9.82-1.43.82-1-.66-1.43-.82-1.23.12-1.64-.18-.37-1.09-.68-1.5-1.06-.61-1.22-1.11S273,45.53,273,45s-.49-1.14-.34-1.61.92-.69,1.22-1.11.26-1.2.68-1.5,1.14,0,1.64-.18S277.14,39.78,277.67,39.78Z"/><rect class="cls-5" x="273.82" y="23.49" width="20.63" height="0.98" transform="translate(260.16 308.12) rotate(-90)"/><rect class="cls-5" x="275.78" y="23.49" width="20.63" height="0.98" transform="translate(262.11 310.08) rotate(-90)"/><rect class="cls-5" x="277.74" y="23.49" width="20.63" height="0.98" transform="translate(264.07 312.04) rotate(-90)"/><rect class="cls-5" x="284.85" y="28.65" width="10.32" height="0.98" transform="translate(260.87 319.15) rotate(-90)"/></g></svg>