<svg xmlns="http://www.w3.org/2000/svg" viewBox="0 0 200 130"><defs><style>.cls-1{fill:#48a69c;}.cls-2,.cls-3{fill:#d2cbc3;}.cls-2{opacity:0.9;}.cls-4{opacity:0.2;}.cls-5{fill:#feb21e;}.cls-6{fill:#2b393f;}.cls-7{fill:#5da693;}.cls-8{fill:#cfccc6;}</style></defs><title>devices</title><g id="Layer_1" data-name="Layer 1"><path class="cls-1" d="M157.74,4.87H36.07a6.92,6.92,0,0,0-6.92,6.92V90.31a6.92,6.92,0,0,0,6.92,6.92H80.39v17.53H70.28v4.72h53.26v-4.72H113.42V97.23h44.32a6.92,6.92,0,0,0,6.92-6.92V11.79A6.92,6.92,0,0,0,157.74,4.87Z"/><rect class="cls-2" x="33.2" y="14.31" width="127.42" height="65.4"/><circle class="cls-3" cx="96.91" cy="88.13" r="3.71"/><rect class="cls-4" x="80.39" y="97.23" width="33.03" height="6.74"/><rect class="cls-5" x="139.04" y="49.37" width="55.96" height="77.53" rx="8.01" ry="8.01"/><rect class="cls-3" x="144.1" y="56.11" width="45.84" height="59.33"/><circle class="cls-3" cx="167.02" cy="120.83" r="3.37"/><rect class="cls-6" x="21.74" y="68.24" width="41.8" height="57.91" rx="8.01" ry="8.01"/><rect class="cls-3" x="25.51" y="73.28" width="34.24" height="44.32"/><circle class="cls-3" cx="42.64" cy="121.63" r="2.52"/><rect class="cls-7" x="8" y="79.7" width="26.97" height="47.87" rx="4.66" ry="4.66"/><rect class="cls-8" x="10.36" y="85.77" width="22.25" height="35.06"/><rect class="cls-8" x="17.44" y="82.4" width="8.09" height="1.35"/><circle class="cls-8" cx="21.48" cy="124.2" r="2.02"/></g></svg>