<svg xmlns="http://www.w3.org/2000/svg" xmlns:xlink="http://www.w3.org/1999/xlink" viewBox="0 0 380 90"><defs><style>.cls-1,.cls-15,.cls-24,.cls-25,.cls-26,.cls-27,.cls-28{fill:none;}.cls-2{fill:#feb21e;}.cls-3,.cls-7{fill:#fff;}.cls-4{fill:#8f5fa3;}.cls-5{fill:#f96673;}.cls-6{fill:#333;}.cls-7{opacity:0.56;}.cls-8{fill:#2b393f;}.cls-9{fill:url(#New_Pattern);}.cls-10,.cls-18{fill:#e6e6e6;}.cls-11{fill:#4d4d4d;}.cls-12{fill:#48a69c;}.cls-13{fill:#fcb70b;}.cls-14{fill:#1a1a1a;}.cls-15{stroke:#2b393f;stroke-linecap:round;stroke-width:1.56px;}.cls-15,.cls-24,.cls-25,.cls-26,.cls-27,.cls-28{stroke-miterlimit:10;}.cls-16{fill:url(#New_Pattern-3);}.cls-17{fill:url(#New_Pattern-5);}.cls-18{opacity:0.9;}.cls-19{fill:#d2cbc3;}.cls-20{opacity:0.2;}.cls-21{fill:#ccc;}.cls-22{fill:#12c645;}.cls-23{fill:#f44545;}.cls-24,.cls-25,.cls-26,.cls-27,.cls-28{stroke:#666;}.cls-24,.cls-25{stroke-width:0.75px;}.cls-25{stroke-dasharray:1.54 1.54;}.cls-27{stroke-dasharray:2.01 2.01;}.cls-28{stroke-dasharray:1.86 1.86;}.cls-29{fill:#b3b3b3;}</style><pattern id="New_Pattern" data-name="New Pattern" width="60" height="60" patternTransform="matrix(-0.13, 0.13, 0.13, 0.13, -175.29, 58.87)" patternUnits="userSpaceOnUse" viewBox="0 0 60 60"><rect class="cls-1" width="60" height="60"/><rect class="cls-2" width="10" height="60"/><rect class="cls-3" x="10" width="10" height="60"/><rect class="cls-4" x="20" width="10" height="60"/><rect class="cls-3" x="30" width="10" height="60"/><rect class="cls-3" x="50" width="10" height="60"/><rect class="cls-5" x="40" width="10" height="60"/></pattern><pattern id="New_Pattern-3" data-name="New Pattern" width="60" height="60" patternTransform="translate(-74.61 -174.11) rotate(45) scale(0.69)" patternUnits="userSpaceOnUse" viewBox="0 0 60 60"><rect class="cls-1" width="60" height="60"/><rect class="cls-2" width="10" height="60"/><rect class="cls-3" x="10" width="10" height="60"/><rect class="cls-4" x="20" width="10" height="60"/><rect class="cls-3" x="30" width="10" height="60"/><rect class="cls-3" x="50" width="10" height="60"/><rect class="cls-5" x="40" width="10" height="60"/></pattern><pattern id="New_Pattern-5" data-name="New Pattern" width="60" height="60" patternTransform="matrix(0.36, 0.36, -0.36, 0.36, -217.8, -129.82)" patternUnits="userSpaceOnUse" viewBox="0 0 60 60"><rect class="cls-1" width="60" height="60"/><rect class="cls-2" width="10" height="60"/><rect class="cls-3" x="10" width="10" height="60"/><rect class="cls-4" x="20" width="10" height="60"/><rect class="cls-3" x="30" width="10" height="60"/><rect class="cls-3" x="50" width="10" height="60"/><rect class="cls-5" x="40" width="10" height="60"/></pattern></defs><title>header-services</title><g id="desk"><path class="cls-6" d="M87.91,42.15V40.51H53.17v1.64h13.6v7.54h.33V84.85c-7.76.41-13.6,2.2-13.6,4.33a1.4,1.4,0,0,0,.3.82H87.28a1.4,1.4,0,0,0,.3-.82c0-2.14-5.84-3.92-13.6-4.33V49.69h.33V46.41h1.25v8.87a1,1,0,1,0,.33,0V45.59h-.16V45.1H74.3V42.15Z"/><path class="cls-7" d="M70.54,12a19.34,19.34,0,0,0-17,28.51h34A19.34,19.34,0,0,0,70.54,12Z"/><path class="cls-8" d="M322.42,46.49l6.07-3.92V30.83h-.16a.45.45,0,0,1-.45-.45v-.93a.45.45,0,0,1,.45-.45h6.42a.45.45,0,0,1,.45.45v.93a.45.45,0,0,1-.45.45h-.16V42.56l6.07,3.92a2.75,2.75,0,0,1,1.25,2.31V90H321.17V48.79A2.75,2.75,0,0,1,322.42,46.49Z"/><polygon class="cls-9" points="323 71.52 340.08 71.52 340.08 58.46 323 58.46 323 71.52"/><path class="cls-8" d="M349.12,68.47V61.28h15.74v7.19a7.87,7.87,0,0,1-7.19,7.84v10.3h3.65a2.05,2.05,0,0,1,2.05,2.05H350.61a2.05,2.05,0,0,1,2.05-2.05h3.65V76.31A7.87,7.87,0,0,1,349.12,68.47Z"/><g id="cup"><rect class="cls-2" x="253.27" y="65.95" width="2.56" height="16.22" transform="translate(-9.92 55.69) rotate(-12.25)"/><polygon class="cls-10" points="252.28 63.63 251.59 66.4 254.09 65.86 252.28 63.63"/><path class="cls-11" d="M253.12,64.66l-.84-1L252,64.91a1.79,1.79,0,0,0,1.15-.25Z"/><rect class="cls-12" x="256.41" y="62.56" width="2.56" height="16.22"/><polygon class="cls-10" points="257.69 60 256.43 62.56 258.99 62.56 257.69 60"/><path class="cls-11" d="M258.29,61.18l-.6-1.18-.58,1.18a1.79,1.79,0,0,0,1.18,0Z"/><rect class="cls-4" x="260.25" y="64.7" width="2.56" height="16.22"/><polygon class="cls-10" points="261.54 62.13 260.27 64.7 262.83 64.7 261.54 62.13"/><path class="cls-11" d="M262.13,63.32l-.6-1.18L261,63.31a1.79,1.79,0,0,0,1.18,0Z"/><rect class="cls-8" x="251" y="71.9" width="14.48" height="18.1"/><path class="cls-8" d="M268,85.86h-5.58V76H268a2.69,2.69,0,0,1,2.69,2.69v4.44A2.69,2.69,0,0,1,268,85.86Zm-3.51-2.07h2.92a1.22,1.22,0,0,0,1.22-1.22V79.32a1.22,1.22,0,0,0-1.22-1.22h-2.92Z"/><rect class="cls-3" x="258.49" y="81.76" width="2.85" height="2.85"/><polygon class="cls-3" points="256.8 84.61 257.91 84.61 257.91 78.9 256.8 80.06 256.8 84.61"/><polygon class="cls-3" points="256.8 77.17 256.8 79.48 257.91 78.33 257.91 77.17 256.8 77.17"/><path class="cls-3" d="M255.35,81.17l-.86.59v2.85h.58v-.83a.29.29,0,0,1,.29-.29h0a.29.29,0,0,1,.29.29v.83h.58V81.76Z"/></g><path id="bird" class="cls-8" d="M31,82.79a48,48,0,0,1-5.16-4.95A50.74,50.74,0,0,1,21,71.5,18.56,18.56,0,0,1,20,69.56c-.7-1.55-1.32-3.43-1.83-4.95-.75-2.26-1.49-2.68-2.8-2.68s-1.61.85-2.37.85a5,5,0,0,0-2.69.75c.32.43,2.26.75,3.23,1,1.08,1.94-.24,4.25-.54,5.59a12.35,12.35,0,0,0,.32,7.74c1.26,2.95,5.2,4.55,6.58,4.92l-2.81,6,.32.22,3-6.15.31.05-3,6.74L18,90l3.27-7a90.91,90.91,0,0,1,9.64,1.91c2.69,1,6.56,4.19,7,3.87S33.35,84.68,31,82.79Z"/><g id="flowers"><path class="cls-12" d="M289.08,75.77l-1.73-.19c1.49-13.77,9.85-34.76,9.93-35l1.61.65C298.82,41.47,290.55,62.24,289.08,75.77Z"/><path class="cls-12" d="M286.66,72.74a60.7,60.7,0,0,0-16.23-34.2l1.19-1.27a62.51,62.51,0,0,1,16.77,35.26Z"/><polygon class="cls-13" points="297.08 90 281.45 90 278.84 61.35 299.68 61.35 297.08 90"/><path class="cls-13" d="M310.41,38.24A4.91,4.91,0,0,0,304,36.13a4.9,4.9,0,0,0-8.61,4.66,4.9,4.9,0,0,0,4.66,8.61,4.9,4.9,0,0,0,8.61-4.66A4.91,4.91,0,0,0,310.41,38.24Z"/><circle class="cls-4" cx="302.04" cy="42.76" r="4.06" transform="translate(16 148.78) rotate(-28.39)"/><path class="cls-5" d="M280.58,37.83a5,5,0,0,0-4.74-5,5,5,0,0,0-10.05,0,5,5,0,0,0,0,10.05,5,5,0,0,0,10.05,0A5,5,0,0,0,280.58,37.83Z"/><circle class="cls-13" cx="270.81" cy="37.83" r="5.04"/></g><circle class="cls-14" cx="136.93" cy="49.04" r="1.73"/><circle class="cls-14" cx="116.81" cy="49.04" r="1.73"/><path class="cls-15" d="M116.81,49c0-7.28,4.5-13.18,10.06-13.18s10.06,5.9,10.06,13.18"/><polygon class="cls-8" points="156 89.61 153.57 91 95.31 45.92 97.05 44.53 156 44.53 156 89.61"/><rect class="cls-16" x="95.31" y="45.92" width="58.95" height="45.08"/><circle class="cls-14" cx="134.85" cy="49.73" r="1.73"/><circle class="cls-14" cx="114.73" cy="49.73" r="1.73"/><path class="cls-15" d="M114.73,49.73c0-7.28,4.5-13.18,10.06-13.18s10.06,5.9,10.06,13.18"/><polygon class="cls-8" points="118.98 56.3 80.19 56.3 80.19 64.28 81.78 64.28 81.78 89.78 117.39 89.78 117.39 64.28 118.98 64.28 118.98 56.3"/><rect class="cls-17" x="80.19" y="63.21" width="35.6" height="27.63"/><rect class="cls-5" x="78.59" y="57.37" width="38.79" height="7.97"/><g id="desktop"><path class="cls-8" d="M239,9H153a4.89,4.89,0,0,0-4.89,4.89V69.37A4.89,4.89,0,0,0,153,74.27h31.34V86.66h-7.15V90h37.66V86.66h-7.15V74.27H239a4.89,4.89,0,0,0,4.89-4.89V13.85A4.89,4.89,0,0,0,239,9Z"/><rect class="cls-18" x="150.95" y="15.63" width="90.1" height="46.24"/><circle class="cls-19" cx="196" cy="67.83" r="2.62"/><rect class="cls-20" x="184.32" y="74.27" width="23.36" height="4.77"/><rect class="cls-21" x="153.2" y="17.46" width="85.62" height="42.14"/><circle class="cls-22" cx="159.18" cy="22.77" r="1.97"/><circle class="cls-2" cx="164.24" cy="22.77" r="1.97"/><circle class="cls-23" cx="169.29" cy="22.77" r="1.97"/><rect class="cls-10" x="175.94" y="27.5" width="39.46" height="18.73"/><rect class="cls-10" x="192.66" y="47.56" width="22.74" height="3.34"/><rect class="cls-21" x="161.23" y="27.5" width="13.38" height="7.36"/><rect class="cls-10" x="192.66" y="52.24" width="22.74" height="3.34"/><polygon class="cls-14" points="180.67 43.08 182.82 48.55 186.14 45.23 180.67 43.08"/><rect class="cls-14" x="185.08" y="46.15" width="0.67" height="3.34" transform="translate(20.49 145.12) rotate(-45)"/><polyline class="cls-24" points="233.8 54.51 233.8 55.25 233.05 55.25"/><line class="cls-25" x1="231.51" y1="55.25" x2="219.94" y2="55.25"/><polyline class="cls-24" points="219.16 55.25 218.41 55.25 218.41 54.51"/><line class="cls-25" x1="218.42" y1="52.96" x2="218.42" y2="41.39"/><polyline class="cls-24" points="218.41 40.62 218.41 39.87 219.16 39.87"/><line class="cls-25" x1="220.71" y1="39.87" x2="232.28" y2="39.87"/><polyline class="cls-24" points="233.05 39.87 233.8 39.87 233.8 40.62"/><line class="cls-25" x1="233.8" y1="42.16" x2="233.8" y2="53.73"/><rect class="cls-10" x="162.23" y="36.53" width="12.04" height="18.73"/><polyline class="cls-26" points="174.27 54.25 174.27 55.25 173.27 55.25"/><line class="cls-27" x1="171.26" y1="55.25" x2="164.23" y2="55.25"/><polyline class="cls-26" points="163.23 55.25 162.23 55.25 162.23 54.25"/><line class="cls-28" x1="162.23" y1="52.39" x2="162.23" y2="38.45"/><polyline class="cls-26" points="162.23 37.52 162.23 36.52 163.23 36.52"/><line class="cls-27" x1="165.24" y1="36.53" x2="172.27" y2="36.53"/><polyline class="cls-26" points="173.27 36.52 174.27 36.52 174.27 37.52"/><line class="cls-28" x1="174.27" y1="39.38" x2="174.27" y2="53.32"/><rect class="cls-10" x="157.21" y="27.5" width="3.34" height="28.09"/><circle class="cls-29" cx="209.72" cy="33.18" r="3.68"/><rect class="cls-21" x="177.95" y="30.17" width="15.38" height="2.56"/><rect class="cls-21" x="177.95" y="33.52" width="9.36" height="1.34"/><rect class="cls-21" x="177.95" y="35.52" width="9.36" height="1.34"/><path class="cls-10" d="M226.1,20.84a6.69,6.69,0,1,0,6.7,6.69A6.69,6.69,0,0,0,226.1,20.84Zm4.64,4h-2a10.47,10.47,0,0,0-.92-2.38A5.37,5.37,0,0,1,230.74,24.82Zm-4.63-2.65a9.42,9.42,0,0,1,1.28,2.65h-2.56A9.42,9.42,0,0,1,226.11,22.17Zm-5.18,6.66a5.23,5.23,0,0,1,0-2.68h2.26a9.6,9.6,0,0,0,0,2.68Zm.55,1.34h2a10.47,10.47,0,0,0,.92,2.38A5.34,5.34,0,0,1,221.48,30.17Zm2-5.35h-2a5.34,5.34,0,0,1,2.9-2.38A10.47,10.47,0,0,0,223.45,24.82Zm2.66,8a9.42,9.42,0,0,1-1.28-2.65h2.56A9.42,9.42,0,0,1,226.11,32.82Zm1.57-4h-3.13a8.41,8.41,0,0,1,0-2.68h3.13a8.41,8.41,0,0,1,0,2.68Zm.17,3.72a10.47,10.47,0,0,0,.92-2.38h2A5.37,5.37,0,0,1,227.84,32.55ZM229,28.83a9.6,9.6,0,0,0,0-2.68h2.26a5.23,5.23,0,0,1,0,2.68Z"/></g></g></svg>