<svg xmlns="http://www.w3.org/2000/svg" viewBox="0 0 380 90"><defs><style>.cls-1,.cls-12,.cls-16,.cls-17,.cls-18,.cls-4{fill:none;}.cls-1,.cls-12,.cls-4{stroke:#333;}.cls-1,.cls-12,.cls-16,.cls-17,.cls-18,.cls-24,.cls-4,.cls-5{stroke-miterlimit:10;}.cls-1{stroke-width:2px;}.cls-2{fill:#48a69c;}.cls-3{fill:#41958c;}.cls-18,.cls-4,.cls-5{stroke-width:0.67px;}.cls-5,.cls-9{fill:#8f5fa3;}.cls-5{stroke:#fff;}.cls-6{font-size:3.8px;font-family:Helvetica-Bold, Helvetica;font-weight:700;}.cls-14,.cls-15,.cls-24,.cls-6{fill:#fff;}.cls-7{letter-spacing:-0.11em;}.cls-8{fill:#feb21e;}.cls-10{fill:#f96673;}.cls-11{fill:#2b393f;}.cls-12{stroke-width:1.33px;}.cls-13{fill:#333;}.cls-14,.cls-22{opacity:0.1;}.cls-15{opacity:0.3;}.cls-16,.cls-17,.cls-18,.cls-24{stroke:#2b393f;}.cls-16{stroke-width:0.58px;}.cls-17{stroke-width:0.56px;}.cls-19{fill:#4d4d4d;}.cls-20{opacity:0.08;}.cls-21{opacity:0.2;}.cls-23{fill:#e65e6a;}.cls-24{stroke-width:0.17px;}.cls-25{fill:#cc5a63;}</style></defs><title>header-about</title><g id="desk"><line class="cls-1" x1="332.49" y1="77.05" x2="332.49" y2="90"/><circle class="cls-2" cx="328.12" cy="71.11" r="4.2"/><circle class="cls-3" cx="330.92" cy="67.26" r="4.2"/><circle class="cls-2" cx="335.12" cy="71.81" r="4.2"/><circle class="cls-3" cx="335.12" cy="76.35" r="4.2"/><circle class="cls-2" cx="329.52" cy="77.05" r="4.2"/><path class="cls-2" d="M367.45,87.22l-.36,0a3.49,3.49,0,0,1-.78-.09s0,.06,0,.09A3.48,3.48,0,0,1,364.94,90h3.31a3.42,3.42,0,0,1-.81-2.78Z"/><path class="cls-3" d="M363,87.61a3.47,3.47,0,0,1,.93-2.36,3.47,3.47,0,0,1-.34-1.41A3.49,3.49,0,0,0,360.69,90H364A3.48,3.48,0,0,1,363,87.61Z"/><path class="cls-3" d="M366.31,87.23s0-.06,0-.09a3.49,3.49,0,0,1-2.36-1.9A3.48,3.48,0,0,0,364,90h1A3.48,3.48,0,0,0,366.31,87.23Z"/><path class="cls-2" d="M366.51,84.11a3.47,3.47,0,0,1,2.27.84,3.48,3.48,0,0,1,.79-.46,3.46,3.46,0,0,1,.22-3,3.49,3.49,0,0,0-6.19,2.21s0,.06,0,.09a3.47,3.47,0,0,1,1.36.65A3.47,3.47,0,0,1,366.51,84.11Z"/><path class="cls-2" d="M366.31,87.14a3.49,3.49,0,0,0,.78.09l.36,0A3.48,3.48,0,0,1,368.78,85a3.47,3.47,0,0,0-3.82-.47A3.48,3.48,0,0,1,366.31,87.14Z"/><path class="cls-2" d="M365,84.48a3.47,3.47,0,0,0-1.36-.65,3.47,3.47,0,0,0,.34,1.41A3.5,3.5,0,0,1,365,84.48Z"/><path class="cls-2" d="M366.31,87.14A3.48,3.48,0,0,0,365,84.48a3.5,3.5,0,0,0-1,.76A3.49,3.49,0,0,0,366.31,87.14Z"/><path class="cls-3" d="M370.54,84.25l.36,0a3.48,3.48,0,0,0,3.49.18,3.47,3.47,0,0,1,1.57.38,3.49,3.49,0,0,0-6.17-3.26,3.43,3.43,0,0,1,.75,2.72Z"/><path class="cls-3" d="M369.57,84.5a3.47,3.47,0,0,1,1-.25,3.43,3.43,0,0,0-.75-2.72,3.46,3.46,0,0,0-.22,3Z"/><path class="cls-2" d="M374.16,86.48a3.47,3.47,0,0,1-.62,3.52h3.64A3.48,3.48,0,0,0,376,84.79,3.5,3.5,0,0,1,374.16,86.48Z"/><path class="cls-2" d="M372.8,84.8a3.5,3.5,0,0,1,1.35,1.68,3.5,3.5,0,0,0,1.8-1.69,3.47,3.47,0,0,0-3.16,0Z"/><path class="cls-2" d="M371.26,86.37a3.51,3.51,0,0,1-1.13-.91,3.5,3.5,0,0,1-.47.64A3.47,3.47,0,0,1,369,90h2.55a3.47,3.47,0,0,1-.34-3.63Z"/><path class="cls-2" d="M369.66,86.1a3.48,3.48,0,0,1-2.21,1.11,3.42,3.42,0,0,0,.81,2.78H369a3.47,3.47,0,0,0,.61-3.9Z"/><path class="cls-2" d="M369.66,86.1a3.5,3.5,0,0,0,.47-.64,3.49,3.49,0,0,1-.56-1,3.48,3.48,0,0,0-.79.46A3.5,3.5,0,0,1,369.66,86.1Z"/><path class="cls-2" d="M367.45,87.22a3.48,3.48,0,0,0,2.21-1.11,3.5,3.5,0,0,0-.88-1.15A3.48,3.48,0,0,0,367.45,87.22Z"/><path class="cls-2" d="M371.26,86.37a3.5,3.5,0,0,1,1.54-1.57,3.47,3.47,0,0,0-1.91-.57l-.36,0a3.46,3.46,0,0,1-.41,1.21A3.51,3.51,0,0,0,371.26,86.37Z"/><path class="cls-2" d="M370.54,84.25a3.47,3.47,0,0,0-1,.25,3.49,3.49,0,0,0,.56,1A3.46,3.46,0,0,0,370.54,84.25Z"/><path class="cls-2" d="M371.26,86.37A3.47,3.47,0,0,0,371.6,90h1.94a3.47,3.47,0,0,0,.62-3.52,3.47,3.47,0,0,1-2.9-.11Z"/><path class="cls-2" d="M371.26,86.37a3.47,3.47,0,0,0,2.9.11,1.46,1.46,0,1,0-2.9-.11Z"/><line class="cls-4" x1="336.76" y1="86.83" x2="336.76" y2="90"/><line class="cls-4" x1="356.01" y1="86.83" x2="356.01" y2="90"/><rect class="cls-5" x="328.82" y="80.13" width="35.13" height="6.71" rx="3.35" ry="3.35"/><text class="cls-6" transform="translate(335.1 84.71)">S<tspan class="cls-7" x="2.53" y="0">T</tspan><tspan x="4.43" y="0">. JOHANN</tspan></text><rect class="cls-8" x="4.72" y="86.19" width="10.59" height="3.81"/><rect class="cls-9" x="15.99" y="86.19" width="10.59" height="3.81"/><rect class="cls-8" x="4.72" y="81.86" width="10.59" height="3.81"/><rect class="cls-10" x="15.99" y="81.86" width="10.59" height="3.81"/><rect class="cls-8" x="27.26" y="86.19" width="10.59" height="3.81"/><rect class="cls-10" x="27.26" y="81.86" width="10.59" height="3.81"/><rect class="cls-8" x="4.72" y="77.52" width="10.59" height="3.81"/><rect class="cls-8" x="15.99" y="77.52" width="10.59" height="3.81"/><rect class="cls-8" x="4.72" y="73.19" width="10.59" height="3.81"/><rect class="cls-9" x="15.99" y="73.19" width="10.59" height="3.81"/><rect class="cls-10" x="15.99" y="68.85" width="10.59" height="3.81"/><rect class="cls-10" x="15.99" y="64.52" width="10.59" height="3.81"/><rect class="cls-11" x="10.56" y="83.97" width="2.99" height="6.03"/><rect class="cls-11" x="9.38" y="83.97" width="5.35" height="1.71" rx="0.85" ry="0.85"/><rect class="cls-11" x="17.9" y="83.97" width="2.99" height="6.03"/><rect class="cls-11" x="16.72" y="83.97" width="5.35" height="1.71" rx="0.85" ry="0.85"/><polygon class="cls-12" points="93.4 28.15 85.92 28.15 51.4 57.97 55.04 57.97 67.17 54.49 93.4 28.15"/><rect class="cls-13" x="33.17" y="57.97" width="28.77" height="3.59"/><polygon class="cls-14" points="33.17 57.97 33.17 58.64 61.28 58.64 61.28 60.9 61.95 61.56 61.95 57.97 33.17 57.97"/><rect class="cls-13" x="36.44" y="48.24" width="14.96" height="9.73"/><polygon class="cls-14" points="36.44 48.24 36.44 49.21 50.53 49.21 50.53 56.64 51.4 57.3 51.4 48.24 36.44 48.24"/><path class="cls-13" d="M51.4,38.5H50.24a3.2,3.2,0,0,0-2.94,1.93l-3.38,7.81H51.4Z"/><circle class="cls-15" cx="43.63" cy="53.1" r="1.77"/><rect class="cls-13" x="40.89" y="61.56" width="13.38" height="3.7"/><rect class="cls-14" x="40.89" y="61.56" width="13.38" height="3.7"/><path class="cls-13" d="M36.45,64.94H58.28a3.66,3.66,0,0,1,3.66,3.66v.67a0,0,0,0,1,0,0H32.79a0,0,0,0,1,0,0v-.67A3.66,3.66,0,0,1,36.45,64.94Z"/><path class="cls-14" d="M58.28,64.94H36.45a3.65,3.65,0,0,0-2.9,1.43,3.64,3.64,0,0,1,2.23-.76H57.62a3.66,3.66,0,0,1,3.66,3.66h.67v-.67A3.66,3.66,0,0,0,58.28,64.94Z"/><polyline class="cls-16" points="93.54 48.88 93.49 28.15 85.92 28.15 50.56 40.13"/><rect class="cls-10" x="86.62" y="53.13" width="13.77" height="4.95"/><rect class="cls-11" x="85.3" y="52.07" width="16.2" height="1.07"/><polyline class="cls-17" points="100.78 52.33 93.5 48.87 86.02 52.33"/><polygon class="cls-4" points="34.99 75.29 41.24 75.29 35 68.94 41.24 68.94 34.99 75.29"/><polygon class="cls-4" points="34.99 81.64 41.24 81.64 35 75.29 41.24 75.29 34.99 81.64"/><polygon class="cls-4" points="34.99 87.99 41.24 87.99 35 81.64 41.24 81.64 34.99 87.99"/><line class="cls-4" x1="34.54" y1="88.35" x2="34.54" y2="68.57"/><line class="cls-4" x1="41.69" y1="88.35" x2="41.69" y2="68.57"/><rect class="cls-13" x="32.86" y="87.22" width="10.5" height="2.78"/><polygon class="cls-4" points="53.58 75.29 59.82 75.29 53.59 68.94 59.82 68.94 53.58 75.29"/><polygon class="cls-4" points="53.58 81.64 59.82 81.64 53.59 75.29 59.82 75.29 53.58 81.64"/><polygon class="cls-4" points="53.58 87.99 59.82 87.99 53.59 81.64 59.82 81.64 53.58 87.99"/><line class="cls-4" x1="53.13" y1="88.35" x2="53.13" y2="68.57"/><line class="cls-4" x1="60.27" y1="88.35" x2="60.27" y2="68.57"/><rect class="cls-13" x="51.45" y="87.22" width="10.5" height="2.78"/><polyline class="cls-18" points="85.92 28.15 88.11 33.46 78.88 34.23 80.72 40.88 70.32 41.62 72.01 49.63 61.95 48.85 61.06 56.24"/><rect class="cls-11" x="75.97" y="83.97" width="2.99" height="6.03" transform="translate(154.92 173.97) rotate(-180)"/><rect class="cls-11" x="74.79" y="83.97" width="5.35" height="1.71" rx="0.85" ry="0.85" transform="translate(154.92 169.64) rotate(180)"/><rect class="cls-11" x="68.63" y="83.97" width="2.99" height="6.03" transform="translate(140.25 173.97) rotate(-180)"/><rect class="cls-11" x="67.45" y="83.97" width="5.35" height="1.71" rx="0.85" ry="0.85" transform="translate(140.25 169.64) rotate(180)"/><rect class="cls-13" x="197.22" y="83.02" width="17.27" height="1.4"/><rect class="cls-13" x="197.22" y="84.69" width="17.27" height="1.4"/><rect class="cls-13" x="197.22" y="86.65" width="17.27" height="0.56"/><rect class="cls-13" x="199.82" y="83.3" width="0.56" height="6.7"/><rect class="cls-13" x="211.33" y="83.3" width="0.56" height="6.7"/><rect class="cls-10" x="220.14" y="49.01" width="87.53" height="40.99"/><rect class="cls-19" x="215.27" y="44.33" width="98.57" height="4.5"/><rect class="cls-20" x="271.41" y="66.99" width="34.28" height="19.16"/><rect class="cls-13" x="271.98" y="63.31" width="33.14" height="1.56"/><polygon class="cls-19" points="306.58 66.98 270.53 66.98 271.99 63.98 305.12 63.98 306.58 66.98"/><rect class="cls-21" x="287.74" y="68.45" width="8.73" height="17.69"/><rect class="cls-21" x="288.55" y="70.1" width="7.92" height="16.04"/><rect class="cls-21" x="273.39" y="71.21" width="9.81" height="8.18"/><rect class="cls-22" x="300.9" y="83.86" width="4.22" height="1.69"/><rect class="cls-22" x="298.94" y="81.8" width="4.22" height="1.69"/><rect class="cls-22" x="303.16" y="75.53" width="2.11" height="1.69"/><rect class="cls-22" x="271.87" y="83.86" width="4.79" height="1.91"/><polygon class="cls-10" points="296.53 10.88 285.78 10.88 284.25 43.71 298.06 43.71 296.53 10.88"/><rect class="cls-13" x="285.22" y="10.2" width="11.87" height="1.83"/><rect class="cls-22" x="284.25" y="42.55" width="2.74" height="1.1"/><rect class="cls-22" x="285.62" y="41.25" width="2.74" height="1.1"/><rect class="cls-22" x="291.15" y="31.04" width="2.74" height="1.1"/><rect class="cls-22" x="285.93" y="12.97" width="2.74" height="1.1"/><rect class="cls-22" x="293.9" y="35.97" width="2.74" height="1.1"/><rect class="cls-22" x="292.53" y="29.69" width="2.74" height="1.1"/><rect class="cls-22" x="289.55" y="29.69" width="2.74" height="1.1"/><rect class="cls-22" x="287.55" y="14.34" width="2.74" height="1.1"/><g class="cls-22"><polygon class="cls-13" points="296.53 10.88 292.52 10.88 292.52 43.71 298.06 43.71 296.53 10.88"/></g><polygon class="cls-10" points="280.61 10.81 269.86 10.81 268.33 43.65 282.14 43.65 280.61 10.81"/><rect class="cls-13" x="269.3" y="10.13" width="11.87" height="1.83"/><rect class="cls-22" x="268.33" y="42.49" width="2.74" height="1.1"/><rect class="cls-22" x="269.7" y="41.18" width="2.74" height="1.1"/><rect class="cls-22" x="275.24" y="30.97" width="2.74" height="1.1"/><rect class="cls-22" x="270.01" y="12.91" width="2.74" height="1.1"/><rect class="cls-22" x="277.98" y="35.9" width="2.74" height="1.1"/><rect class="cls-22" x="276.61" y="29.62" width="2.74" height="1.1"/><rect class="cls-22" x="273.63" y="29.62" width="2.74" height="1.1"/><rect class="cls-22" x="271.64" y="14.28" width="2.74" height="1.1"/><g class="cls-22"><polygon class="cls-13" points="280.61 10.81 276.61 10.81 276.61 43.65 282.14 43.65 280.61 10.81"/></g><rect class="cls-23" x="217.71" y="48.19" width="94.31" height="1.29"/><rect class="cls-22" x="267.38" y="56.54" width="4.48" height="1.79"/><rect class="cls-22" x="269.62" y="54.3" width="4.48" height="1.79"/><rect class="cls-22" x="251.18" y="58.87" width="4.48" height="1.79"/><rect class="cls-22" x="301.54" y="50.73" width="4.48" height="1.79"/><rect class="cls-22" x="224.38" y="53.4" width="4.48" height="1.79"/><rect class="cls-22" x="221.95" y="51.16" width="4.48" height="1.79"/><rect class="cls-13" x="211.62" y="43.64" width="105.87" height="1.38"/><path class="cls-21" d="M231.19,61.7h0a5.47,5.47,0,0,1,5.47,5.47v19a0,0,0,0,1,0,0H225.72a0,0,0,0,1,0,0v-19A5.47,5.47,0,0,1,231.19,61.7Z"/><path class="cls-21" d="M231.54,63.29h0a5.11,5.11,0,0,1,5.11,5.11V86.14a0,0,0,0,1,0,0H226.43a0,0,0,0,1,0,0V68.4a5.11,5.11,0,0,1,5.11-5.11Z"/><path class="cls-21" d="M244.81,61.7h0a5.47,5.47,0,0,1,5.47,5.47v19a0,0,0,0,1,0,0H239.35a0,0,0,0,1,0,0v-19a5.47,5.47,0,0,1,5.47-5.47Z"/><path class="cls-21" d="M245.17,63.29h0a5.11,5.11,0,0,1,5.11,5.11V86.14a0,0,0,0,1,0,0H240.06a0,0,0,0,1,0,0V68.4a5.11,5.11,0,0,1,5.11-5.11Z"/><path class="cls-21" d="M258.44,61.7h0a5.47,5.47,0,0,1,5.47,5.47v19a0,0,0,0,1,0,0H253a0,0,0,0,1,0,0v-19A5.47,5.47,0,0,1,258.44,61.7Z"/><path class="cls-21" d="M258.8,63.29h0a5.11,5.11,0,0,1,5.11,5.11V86.14a0,0,0,0,1,0,0H253.69a0,0,0,0,1,0,0V68.4a5.11,5.11,0,0,1,5.11-5.11Z"/><rect class="cls-19" x="217.1" y="87.43" width="97.35" height="2.57"/><rect class="cls-23" x="218.31" y="86.14" width="94.31" height="1.29"/><rect class="cls-13" x="233.15" y="30.9" width="10.36" height="9.92"/><polygon class="cls-19" points="238.33 28.06 232.67 30.9 243.98 30.9 238.33 28.06"/><line class="cls-4" x1="233.78" y1="40.55" x2="242.87" y2="40.55"/><line class="cls-4" x1="233.51" y1="40.58" x2="236.76" y2="43.84"/><line class="cls-4" x1="233.48" y1="43.86" x2="236.79" y2="40.56"/><line class="cls-4" x1="236.7" y1="40.58" x2="239.95" y2="43.84"/><line class="cls-4" x1="236.67" y1="43.86" x2="239.98" y2="40.56"/><line class="cls-4" x1="239.89" y1="40.58" x2="243.14" y2="43.84"/><line class="cls-4" x1="239.86" y1="43.86" x2="243.17" y2="40.56"/><g id="watch"><line class="cls-18" x1="307.62" y1="62.55" x2="311.53" y2="62.55"/><circle class="cls-24" cx="314.84" cy="62.55" r="4.32"/><rect class="cls-13" x="312.9" y="58.99" width="0.32" height="0.95" transform="translate(12.21 164.5) rotate(-30)"/><rect class="cls-13" x="316.46" y="65.16" width="0.32" height="0.95" transform="translate(9.6 167.1) rotate(-30)"/><rect class="cls-13" x="311.6" y="60.29" width="0.32" height="0.95" transform="translate(103.25 300.37) rotate(-60)"/><rect class="cls-13" x="317.77" y="63.85" width="0.32" height="0.95" transform="translate(103.25 307.5) rotate(-60)"/><rect class="cls-13" x="318.24" y="62.07" width="0.32" height="0.95" transform="translate(380.95 -255.85) rotate(90)"/><rect class="cls-13" x="311.12" y="62.07" width="0.32" height="0.95" transform="translate(373.83 -248.73) rotate(90)"/><rect class="cls-13" x="317.77" y="60.29" width="0.32" height="0.95" transform="translate(211.59 -244.95) rotate(60)"/><rect class="cls-13" x="311.6" y="63.85" width="0.32" height="0.95" transform="translate(211.59 -237.83) rotate(60)"/><rect class="cls-13" x="316.46" y="58.99" width="0.32" height="0.95" transform="matrix(0.87, 0.5, -0.5, 0.87, 72.15, -150.34)"/><rect class="cls-13" x="312.9" y="65.16" width="0.32" height="0.95" transform="matrix(0.87, 0.5, -0.5, 0.87, 74.76, -147.74)"/><rect class="cls-13" x="314.68" y="58.51" width="0.32" height="0.95"/><rect class="cls-13" x="314.68" y="65.63" width="0.32" height="0.95"/><rect class="cls-13" x="314.37" y="58.53" width="0.16" height="0.47" transform="translate(-4.42 33.19) rotate(-6)"/><rect class="cls-13" x="315.16" y="66.09" width="0.16" height="0.47" transform="translate(-5.21 33.31) rotate(-6)"/><rect class="cls-13" x="313.97" y="58.6" width="0.16" height="0.47" transform="translate(-5.37 66.58) rotate(-12)"/><rect class="cls-13" x="315.55" y="66.03" width="0.16" height="0.47" transform="translate(-6.88 67.07) rotate(-12)"/><rect class="cls-13" x="313.59" y="58.7" width="0.16" height="0.47" transform="translate(-2.86 99.81) rotate(-18)"/><rect class="cls-13" x="315.94" y="65.92" width="0.16" height="0.47" transform="translate(-4.98 100.89) rotate(-18)"/><rect class="cls-13" x="313.22" y="58.84" width="0.16" height="0.47" transform="translate(3.06 132.54) rotate(-24)"/><rect class="cls-13" x="316.31" y="65.78" width="0.16" height="0.47" transform="translate(0.5 134.39) rotate(-24)"/><rect class="cls-13" x="312.53" y="59.24" width="0.16" height="0.47" transform="translate(24.74 195.11) rotate(-36)"/><rect class="cls-13" x="316.99" y="65.38" width="0.16" height="0.47" transform="translate(21.98 198.9) rotate(-36)"/><rect class="cls-13" x="312.22" y="59.49" width="0.16" height="0.47" transform="translate(40.25 224.31) rotate(-42)"/><rect class="cls-13" x="317.3" y="65.13" width="0.16" height="0.47" transform="translate(37.78 229.16) rotate(-42)"/><rect class="cls-13" x="311.94" y="59.77" width="0.16" height="0.47" transform="translate(58.64 251.73) rotate(-48)"/><rect class="cls-13" x="317.59" y="64.85" width="0.16" height="0.47" transform="translate(56.73 257.61) rotate(-48)"/><rect class="cls-13" x="311.69" y="60.08" width="0.16" height="0.47" transform="translate(79.72 277.09) rotate(-54)"/><rect class="cls-13" x="317.84" y="64.54" width="0.16" height="0.47" transform="matrix(0.59, -0.81, 0.81, 0.59, 78.64, 283.9)"/><rect class="cls-13" x="311.29" y="60.77" width="0.16" height="0.47" transform="translate(129 320.64) rotate(-66)"/><rect class="cls-13" x="318.23" y="63.86" width="0.16" height="0.47" transform="translate(130.29 328.82) rotate(-66)"/><rect class="cls-13" x="311.15" y="61.14" width="0.16" height="0.47" transform="translate(156.68 338.4) rotate(-72)"/><rect class="cls-13" x="318.37" y="63.48" width="0.16" height="0.47" transform="translate(159.44 346.9) rotate(-72)"/><rect class="cls-13" x="311.05" y="61.52" width="0.16" height="0.47" transform="translate(186.03 353.25) rotate(-78)"/><rect class="cls-13" x="318.48" y="63.1" width="0.16" height="0.47" transform="matrix(0.21, -0.98, 0.98, 0.21, 190.37, 361.76)"/><rect class="cls-13" x="310.98" y="61.91" width="0.16" height="0.47" transform="translate(216.74 365.01) rotate(-84)"/><rect class="cls-13" x="318.54" y="62.71" width="0.16" height="0.47" transform="translate(222.71 373.24) rotate(-84)"/><rect class="cls-13" x="310.98" y="62.71" width="0.16" height="0.47" transform="translate(280.98 378.88) rotate(-96)"/><rect class="cls-13" x="318.54" y="61.91" width="0.16" height="0.47" transform="translate(290.11 385.52) rotate(-96)"/><rect class="cls-13" x="311.05" y="63.1" width="0.16" height="0.47" transform="translate(313.86 380.83) rotate(-102)"/><rect class="cls-13" x="318.48" y="61.52" width="0.16" height="0.47" transform="translate(324.38 386.19) rotate(-102)"/><rect class="cls-13" x="311.15" y="63.48" width="0.16" height="0.47" transform="translate(346.8 379.41) rotate(-108)"/><rect class="cls-13" x="318.37" y="61.14" width="0.16" height="0.47" transform="translate(358.49 383.21) rotate(-108)"/><rect class="cls-13" x="311.29" y="63.86" width="0.16" height="0.47" transform="translate(379.47 374.61) rotate(-114)"/><rect class="cls-13" x="318.23" y="60.77" width="0.16" height="0.47" transform="translate(392.05 376.61) rotate(-114)"/><rect class="cls-13" x="311.69" y="64.54" width="0.16" height="0.47" transform="translate(442.61 355.08) rotate(-126)"/><rect class="cls-13" x="317.84" y="60.08" width="0.16" height="0.47" transform="translate(455.98 352.97) rotate(-126)"/><rect class="cls-13" x="311.94" y="64.85" width="0.16" height="0.47" transform="translate(472.43 340.52) rotate(-132)"/><rect class="cls-13" x="317.59" y="59.77" width="0.16" height="0.47" transform="translate(485.63 336.23) rotate(-132)"/><rect class="cls-13" x="312.22" y="65.13" width="0.16" height="0.47" transform="matrix(-0.74, -0.67, 0.67, -0.74, 500.64, 322.92)"/><rect class="cls-13" x="317.3" y="59.49" width="0.16" height="0.47" transform="translate(513.28 316.48) rotate(-138)"/><rect class="cls-13" x="312.53" y="65.38" width="0.16" height="0.47" transform="translate(526.94 302.46) rotate(-144)"/><rect class="cls-13" x="316.99" y="59.24" width="0.16" height="0.47" transform="translate(538.63 293.96) rotate(-144)"/><rect class="cls-13" x="313.22" y="65.78" width="0.16" height="0.47" transform="translate(572.65 253.76) rotate(-156)"/><rect class="cls-13" x="316.31" y="58.84" width="0.16" height="0.47" transform="translate(581.39 241.73) rotate(-156)"/><rect class="cls-13" x="313.59" y="65.92" width="0.16" height="0.47" transform="translate(591.54 226.01) rotate(-162)"/><rect class="cls-13" x="315.94" y="58.7" width="0.16" height="0.47" transform="translate(598.35 212.64) rotate(-162)"/><rect class="cls-13" x="313.97" y="66.03" width="0.16" height="0.47" transform="translate(607.46 196.37) rotate(-168)"/><rect class="cls-13" x="315.55" y="58.6" width="0.16" height="0.47" transform="matrix(-0.98, -0.21, 0.21, -0.98, 612.13, 182)"/><rect class="cls-13" x="314.37" y="66.09" width="0.16" height="0.47" transform="translate(620.23 165.16) rotate(-174)"/><rect class="cls-13" x="315.16" y="58.53" width="0.16" height="0.47" transform="translate(622.61 150.17) rotate(-174)"/><rect class="cls-13" x="316.06" y="59.7" width="0.32" height="4.81" transform="translate(277.56 -257.83) rotate(72)"/><rect class="cls-13" x="314.35" y="60.6" width="0.32" height="3.47" transform="translate(537.1 -168.43) rotate(122.76)"/><rect class="cls-25" x="313.79" y="61.12" width="0.16" height="3.49" transform="translate(276.66 -255.07) rotate(72)"/><circle class="cls-25" cx="312.2" cy="63.42" r="0.32"/></g></g></svg>