<svg xmlns="http://www.w3.org/2000/svg" xmlns:xlink="http://www.w3.org/1999/xlink" viewBox="0 0 380 90"><defs><style>.cls-1,.cls-20,.cls-22,.cls-25,.cls-27{fill:none;}.cls-2{fill:#feb21e;}.cls-26,.cls-3,.cls-8{fill:#fff;}.cls-4{fill:#8f5fa3;}.cls-21,.cls-5{fill:#f96673;}.cls-6{opacity:0.15;}.cls-14,.cls-7{fill:#333;}.cls-8{opacity:0.2;}.cls-9{fill:#1a1a1a;}.cls-10{fill:#2b393f;}.cls-11{clip-path:url(#clip-path);}.cls-12{clip-path:url(#clip-path-2);}.cls-13{fill:url(#New_Pattern);}.cls-14{opacity:0.3;}.cls-15{fill:#4d4d4d;}.cls-16{fill:#e6a11b;}.cls-17{fill:#e6e6e6;}.cls-18{fill:#e65e6a;}.cls-19{fill:#825694;}.cls-20,.cls-21,.cls-22,.cls-25,.cls-27{stroke:#333;}.cls-20,.cls-21,.cls-22,.cls-25,.cls-26,.cls-27{stroke-miterlimit:10;}.cls-22{stroke-width:5px;}.cls-23{fill:#48a69c;}.cls-24{fill:#41958c;}.cls-25{stroke-width:7px;}.cls-26{stroke:#8f5fa3;}.cls-27{stroke-width:0.5px;}</style><clipPath id="clip-path"><rect class="cls-1" x="178.9" y="79.33" width="7.53" height="5.76"/></clipPath><clipPath id="clip-path-2"><rect class="cls-1" x="176.97" y="81.54" width="4.55" height="3.53"/></clipPath><pattern id="New_Pattern" data-name="New Pattern" width="60" height="60" patternTransform="translate(99.17 89.33) rotate(45) scale(0.1)" patternUnits="userSpaceOnUse" viewBox="0 0 60 60"><rect class="cls-1" width="60" height="60"/><rect class="cls-2" width="10" height="60"/><rect class="cls-3" x="10" width="10" height="60"/><rect class="cls-4" x="20" width="10" height="60"/><rect class="cls-3" x="30" width="10" height="60"/><rect class="cls-3" x="50" width="10" height="60"/><rect class="cls-5" x="40" width="10" height="60"/></pattern></defs><title>header-store</title><g id="desk"><rect class="cls-2" x="81.22" y="73.74" width="27.83" height="6.73"/><polygon class="cls-6" points="81.22 73.74 81.22 75.03 106.91 75.03 109.05 80.47 109.05 73.74 81.22 73.74"/><circle class="cls-7" cx="93.54" cy="85.75" r="4.25"/><circle class="cls-3" cx="93.54" cy="85.75" r="2.33"/><circle class="cls-7" cx="92.93" cy="84.95" r="0.5" transform="translate(-31.93 68.72) rotate(-35.02)"/><circle class="cls-7" cx="94.6" cy="85.72" r="0.5" transform="translate(-32.07 69.81) rotate(-35.02)"/><circle class="cls-7" cx="93.09" cy="86.78" r="0.5" transform="translate(-32.94 69.14) rotate(-35.02)"/><circle class="cls-7" cx="63.46" cy="85.75" r="4.25"/><circle class="cls-3" cx="63.46" cy="85.75" r="2.33"/><circle class="cls-7" cx="62.86" cy="84.95" r="0.5" transform="translate(-37.37 51.46) rotate(-35.02)"/><circle class="cls-7" cx="64.52" cy="85.72" r="0.5" transform="translate(-37.51 52.55) rotate(-35.02)"/><circle class="cls-7" cx="63.02" cy="86.78" r="0.5" transform="translate(-38.39 51.88) rotate(-35.02)"/><polygon class="cls-2" points="64.55 77.95 59 80.54 58.78 82.46 65.95 82.46 64.55 77.95"/><path class="cls-2" d="M71.2,59.53l-7.69,13.1,3.7,11.75H80.37V59.32ZM65.8,70.19,71,61.76H72.6L69,70.19Zm13.09,0H70.61L74,61.76h4.93Z"/><path class="cls-2" d="M86.41,54.22h17.46a5.18,5.18,0,0,1,5.18,5.18V72.77a0,0,0,0,1,0,0H81.22a0,0,0,0,1,0,0V59.4A5.18,5.18,0,0,1,86.41,54.22Z"/><path class="cls-6" d="M105.34,54.22H84.93a3.71,3.71,0,0,0-3.71,3.71v2.64a3.71,3.71,0,0,1,3.71-3.71h20.41a3.71,3.71,0,0,1,3.71,3.71V57.93A3.71,3.71,0,0,0,105.34,54.22Z"/><polygon class="cls-8" points="65.81 70.19 70.98 61.76 72.6 61.76 68.98 70.19 65.81 70.19"/><polygon class="cls-8" points="78.89 70.19 70.61 70.19 73.96 61.76 78.89 61.76 78.89 70.19"/><polygon class="cls-2" points="109.05 83.42 108.37 82.7 108.13 80.8 109.05 80.8 109.05 83.42"/><g class="cls-6"><polygon points="65.95 82.46 65.95 82.46 64.55 77.95 59 80.54 58.89 81.51 64.02 79.65 65.95 82.46"/></g><polygon class="cls-2" points="96.73 80.1 90.35 80.1 88.22 83.94 98.85 83.94 96.73 80.1"/><polygon class="cls-6" points="96.01 81.08 98.85 83.94 96.73 80.1 90.35 80.1 88.22 83.94 90.35 81.08 96.01 81.08"/><polygon class="cls-6" points="70.61 60.54 79.53 60.42 80.37 84.38 80.37 59.32 71.2 59.53 70.61 60.54"/><ellipse class="cls-7" cx="65.48" cy="65.98" rx="0.73" ry="1.48"/><polygon class="cls-7" points="66.88 70.78 65.46 67.17 65.64 67.21 67.18 70.78 66.88 70.78"/><rect class="cls-5" x="138.84" y="28.46" width="104.48" height="61.54"/><circle class="cls-9" cx="184.21" cy="79.73" r="0.22"/><circle class="cls-9" cx="181.64" cy="79.73" r="0.22"/><path class="cls-10" d="M184.21,79.85a.12.12,0,0,1-.12-.12c0-.86-.52-1.56-1.16-1.56s-1.16.7-1.16,1.56a.12.12,0,0,1-.24,0,1.45,1.45,0,1,1,2.81,0A.12.12,0,0,1,184.21,79.85Z"/><polygon class="cls-10" points="186.65 84.91 186.34 85.09 178.9 79.33 179.12 79.16 186.65 79.16 186.65 84.91"/><g class="cls-11"><rect class="cls-1" x="183.89" y="81.5" width="5.31" height="5.31" transform="translate(-4.87 156.55) rotate(-45)"/><rect class="cls-2" x="182.32" y="82.14" width="5.31" height="0.89" transform="translate(-4.22 154.99) rotate(-45)"/><rect class="cls-3" x="182.95" y="82.77" width="5.31" height="0.89" transform="translate(-4.48 155.61) rotate(-45)"/><rect class="cls-4" x="183.57" y="83.4" width="5.31" height="0.89" transform="translate(-4.74 156.24) rotate(-45)"/><rect class="cls-3" x="184.2" y="84.02" width="5.31" height="0.89" transform="translate(-5 156.87) rotate(-45)"/><rect class="cls-3" x="185.45" y="85.27" width="5.31" height="0.89" transform="translate(-5.52 158.12) rotate(-45)"/><rect class="cls-5" x="184.83" y="84.65" width="5.31" height="0.89" transform="translate(-5.26 157.49) rotate(-45)"/><rect class="cls-1" x="180.13" y="85.25" width="5.31" height="5.31" transform="translate(-8.62 155) rotate(-45)"/><rect class="cls-2" x="178.56" y="85.9" width="5.31" height="0.89" transform="translate(-7.98 153.43) rotate(-45)"/><rect class="cls-3" x="179.19" y="86.53" width="5.31" height="0.89" transform="translate(-8.24 154.06) rotate(-45)"/><rect class="cls-4" x="179.82" y="87.15" width="5.31" height="0.89" transform="translate(-8.49 154.68) rotate(-45)"/><rect class="cls-3" x="180.44" y="87.78" width="5.31" height="0.89" transform="translate(-8.75 155.31) rotate(-45)"/><rect class="cls-3" x="181.69" y="89.03" width="5.31" height="0.89" transform="translate(-9.27 156.56) rotate(-45)"/><rect class="cls-5" x="181.07" y="88.41" width="5.31" height="0.89" transform="translate(-9.01 155.94) rotate(-45)"/><rect class="cls-1" x="183.89" y="73.98" width="5.31" height="5.31" transform="translate(0.45 154.35) rotate(-45)"/><rect class="cls-2" x="182.32" y="74.63" width="5.31" height="0.89" transform="translate(1.09 152.79) rotate(-45)"/><rect class="cls-3" x="182.95" y="75.26" width="5.31" height="0.89" transform="translate(0.83 153.41) rotate(-45)"/><rect class="cls-4" x="183.57" y="75.88" width="5.31" height="0.89" transform="translate(0.58 154.04) rotate(-45)"/><rect class="cls-3" x="184.2" y="76.51" width="5.31" height="0.89" transform="translate(0.32 154.67) rotate(-45)"/><rect class="cls-3" x="185.45" y="77.76" width="5.31" height="0.89" transform="translate(-0.2 155.92) rotate(-45)"/><rect class="cls-5" x="184.83" y="77.13" width="5.31" height="0.89" transform="translate(0.06 155.29) rotate(-45)"/><rect class="cls-1" x="180.13" y="77.74" width="5.31" height="5.31" transform="translate(-3.31 152.8) rotate(-45)"/><rect class="cls-2" x="178.56" y="78.39" width="5.31" height="0.89" transform="translate(-2.66 151.23) rotate(-45)"/><rect class="cls-3" x="179.19" y="79.01" width="5.31" height="0.89" transform="translate(-2.92 151.86) rotate(-45)"/><rect class="cls-4" x="179.82" y="79.64" width="5.31" height="0.89" transform="translate(-3.18 152.48) rotate(-45)"/><rect class="cls-3" x="180.44" y="80.27" width="5.31" height="0.89" transform="translate(-3.44 153.11) rotate(-45)"/><rect class="cls-3" x="181.69" y="81.52" width="5.31" height="0.89" transform="translate(-3.96 154.36) rotate(-45)"/><rect class="cls-5" x="181.07" y="80.89" width="5.31" height="0.89" transform="translate(-3.7 153.74) rotate(-45)"/><rect class="cls-1" x="176.37" y="81.5" width="5.31" height="5.31" transform="translate(-7.07 151.24) rotate(-45)"/><rect class="cls-2" x="174.81" y="82.14" width="5.31" height="0.89" transform="translate(-6.42 149.67) rotate(-45)"/><rect class="cls-3" x="175.43" y="82.77" width="5.31" height="0.89" transform="translate(-6.68 150.3) rotate(-45)"/><rect class="cls-4" x="176.06" y="83.4" width="5.31" height="0.89" transform="translate(-6.94 150.93) rotate(-45)"/><rect class="cls-3" x="176.68" y="84.02" width="5.31" height="0.89" transform="translate(-7.2 151.55) rotate(-45)"/><rect class="cls-3" x="177.94" y="85.27" width="5.31" height="0.89" transform="translate(-7.72 152.81) rotate(-45)"/><rect class="cls-5" x="177.31" y="84.65" width="5.31" height="0.89" transform="translate(-7.46 152.18) rotate(-45)"/><rect class="cls-1" x="176.37" y="73.98" width="5.31" height="5.31" transform="translate(-1.75 149.04) rotate(-45)"/><rect class="cls-2" x="174.81" y="74.63" width="5.31" height="0.89" transform="translate(-1.11 147.47) rotate(-45)"/><rect class="cls-3" x="175.43" y="75.26" width="5.31" height="0.89" transform="translate(-1.37 148.1) rotate(-45)"/><rect class="cls-4" x="176.06" y="75.88" width="5.31" height="0.89" transform="translate(-1.63 148.73) rotate(-45)"/><rect class="cls-3" x="176.68" y="76.51" width="5.31" height="0.89" transform="translate(-1.88 149.35) rotate(-45)"/><rect class="cls-3" x="177.94" y="77.76" width="5.31" height="0.89" transform="translate(-2.4 150.6) rotate(-45)"/><rect class="cls-5" x="177.31" y="77.13" width="5.31" height="0.89" transform="translate(-2.14 149.98) rotate(-45)"/><rect class="cls-1" x="172.61" y="77.74" width="5.31" height="5.31" transform="translate(-5.51 147.48) rotate(-45)"/><rect class="cls-2" x="171.05" y="78.39" width="5.31" height="0.89" transform="translate(-4.86 145.92) rotate(-45)"/><rect class="cls-3" x="171.68" y="79.01" width="5.31" height="0.89" transform="translate(-5.12 146.54) rotate(-45)"/><rect class="cls-4" x="172.3" y="79.64" width="5.31" height="0.89" transform="translate(-5.38 147.17) rotate(-45)"/><rect class="cls-3" x="172.93" y="80.27" width="5.31" height="0.89" transform="translate(-5.64 147.8) rotate(-45)"/><rect class="cls-3" x="174.18" y="81.52" width="5.31" height="0.89" transform="translate(-6.16 149.05) rotate(-45)"/><rect class="cls-5" x="173.55" y="80.89" width="5.31" height="0.89" transform="translate(-5.9 148.42) rotate(-45)"/></g><circle class="cls-9" cx="183.94" cy="79.82" r="0.22"/><circle class="cls-9" cx="181.38" cy="79.82" r="0.22"/><path class="cls-10" d="M183.94,79.94a.12.12,0,0,1-.12-.12c0-.86-.52-1.56-1.16-1.56s-1.16.7-1.16,1.56a.12.12,0,1,1-.24,0,1.45,1.45,0,1,1,2.81,0A.12.12,0,0,1,183.94,79.94Z"/><polygon class="cls-10" points="181.92 80.66 176.97 80.66 176.97 81.68 177.17 81.68 177.17 84.93 181.72 84.93 181.72 81.68 181.92 81.68 181.92 80.66"/><g class="cls-12"><rect class="cls-1" x="180.23" y="84.08" width="3.87" height="3.87" transform="translate(-7.47 154) rotate(-45)"/><rect class="cls-2" x="179.09" y="84.56" width="3.87" height="0.64" transform="translate(-7 152.86) rotate(-45)"/><rect class="cls-3" x="179.55" y="85.01" width="3.87" height="0.64" transform="translate(-7.19 153.32) rotate(-45)"/><rect class="cls-4" x="180" y="85.47" width="3.87" height="0.64" transform="translate(-7.37 153.77) rotate(-45)"/><rect class="cls-3" x="180.46" y="85.92" width="3.87" height="0.64" transform="translate(-7.56 154.23) rotate(-45)"/><rect class="cls-3" x="181.37" y="86.83" width="3.87" height="0.64" transform="translate(-7.94 155.14) rotate(-45)"/><rect class="cls-5" x="180.91" y="86.38" width="3.87" height="0.64" transform="translate(-7.75 154.69) rotate(-45)"/><rect class="cls-1" x="180.23" y="78.62" width="3.87" height="3.87" transform="translate(-3.6 152.4) rotate(-45)"/><rect class="cls-2" x="179.09" y="79.09" width="3.87" height="0.64" transform="translate(-3.13 151.26) rotate(-45)"/><rect class="cls-3" x="179.55" y="79.54" width="3.87" height="0.64" transform="translate(-3.32 151.72) rotate(-45)"/><rect class="cls-4" x="180" y="80" width="3.87" height="0.64" transform="translate(-3.51 152.17) rotate(-45)"/><rect class="cls-3" x="180.46" y="80.45" width="3.87" height="0.64" transform="translate(-3.7 152.63) rotate(-45)"/><rect class="cls-3" x="181.37" y="81.37" width="3.87" height="0.64" transform="translate(-4.07 153.54) rotate(-45)"/><rect class="cls-5" x="180.91" y="80.91" width="3.87" height="0.64" transform="translate(-3.89 153.08) rotate(-45)"/><rect class="cls-1" x="177.5" y="81.35" width="3.87" height="3.87" transform="translate(-6.34 151.27) rotate(-45)"/><rect class="cls-2" x="176.36" y="81.82" width="3.87" height="0.64" transform="translate(-5.86 150.13) rotate(-45)"/><rect class="cls-3" x="176.81" y="82.28" width="3.87" height="0.64" transform="translate(-6.05 150.59) rotate(-45)"/><rect class="cls-4" x="177.27" y="82.73" width="3.87" height="0.64" transform="translate(-6.24 151.04) rotate(-45)"/><rect class="cls-3" x="177.72" y="83.19" width="3.87" height="0.64" transform="translate(-6.43 151.5) rotate(-45)"/><rect class="cls-3" x="178.64" y="84.1" width="3.87" height="0.64" transform="translate(-6.81 152.41) rotate(-45)"/><rect class="cls-5" x="178.18" y="83.64" width="3.87" height="0.64" transform="translate(-6.62 151.95) rotate(-45)"/><rect class="cls-1" x="174.76" y="84.08" width="3.87" height="3.87" transform="translate(-9.07 150.14) rotate(-45)"/><rect class="cls-2" x="173.62" y="84.56" width="3.87" height="0.64" transform="translate(-8.6 149) rotate(-45)"/><rect class="cls-3" x="174.08" y="85.01" width="3.87" height="0.64" transform="translate(-8.79 149.45) rotate(-45)"/><rect class="cls-4" x="174.53" y="85.47" width="3.87" height="0.64" transform="translate(-8.98 149.91) rotate(-45)"/><rect class="cls-3" x="174.99" y="85.92" width="3.87" height="0.64" transform="translate(-9.16 150.36) rotate(-45)"/><rect class="cls-3" x="175.9" y="86.83" width="3.87" height="0.64" transform="translate(-9.54 151.28) rotate(-45)"/><rect class="cls-5" x="175.45" y="86.38" width="3.87" height="0.64" transform="translate(-9.35 150.82) rotate(-45)"/><rect class="cls-1" x="174.76" y="78.62" width="3.87" height="3.87" transform="translate(-5.2 148.54) rotate(-45)"/><rect class="cls-2" x="173.62" y="79.09" width="3.87" height="0.64" transform="translate(-4.73 147.4) rotate(-45)"/><rect class="cls-3" x="174.08" y="79.54" width="3.87" height="0.64" transform="translate(-4.92 147.85) rotate(-45)"/><rect class="cls-4" x="174.53" y="80" width="3.87" height="0.64" transform="translate(-5.11 148.31) rotate(-45)"/><rect class="cls-3" x="174.99" y="80.45" width="3.87" height="0.64" transform="translate(-5.3 148.76) rotate(-45)"/><rect class="cls-3" x="175.9" y="81.37" width="3.87" height="0.64" transform="translate(-5.68 149.67) rotate(-45)"/><rect class="cls-5" x="175.45" y="80.91" width="3.87" height="0.64" transform="translate(-5.49 149.22) rotate(-45)"/></g><rect class="cls-5" x="176.76" y="80.79" width="4.95" height="1.02"/><polygon class="cls-7" points="156.01 78.28 148.45 78.28 148.45 79.83 148.76 79.83 148.76 84.8 155.7 84.8 155.7 79.83 156.01 79.83 156.01 78.28"/><rect class="cls-13" x="148.45" y="79.62" width="6.94" height="5.39"/><rect class="cls-5" x="148.14" y="78.48" width="7.56" height="1.55"/><rect class="cls-14" x="146.89" y="61.38" width="42.94" height="27.19"/><rect class="cls-14" x="208.25" y="57.8" width="14.31" height="27.19"/><rect class="cls-15" x="133.11" y="24.88" width="115.92" height="5.01"/><rect class="cls-7" x="128.82" y="24.11" width="124.51" height="1.54"/><polygon class="cls-2" points="145.88 45.69 139.85 45.69 145.1 34.9 150.51 34.9 145.88 45.69"/><polygon class="cls-3" points="151.9 45.69 145.88 45.69 150.51 34.9 155.92 34.9 151.9 45.69"/><polygon class="cls-3" points="139.85 45.69 133.83 45.69 139.69 34.9 145.1 34.9 139.85 45.69"/><polygon class="cls-3" points="163.96 45.69 157.93 45.69 161.33 34.9 166.74 34.9 163.96 45.69"/><polygon class="cls-5" points="169.98 45.69 163.96 45.69 166.74 34.9 172.14 34.9 169.98 45.69"/><polygon class="cls-4" points="157.93 45.69 151.9 45.69 155.92 34.9 161.33 34.9 157.93 45.69"/><polygon class="cls-2" points="182.03 45.69 176.01 45.69 177.55 34.9 182.96 34.9 182.03 45.69"/><polygon class="cls-3" points="188.06 45.69 182.03 45.69 182.96 34.9 188.37 34.9 188.06 45.69"/><polygon class="cls-3" points="176.01 45.69 169.98 45.69 172.14 34.9 177.55 34.9 176.01 45.69"/><polygon class="cls-3" points="200.11 45.69 194.09 45.69 193.78 34.9 199.19 34.9 200.11 45.69"/><polygon class="cls-5" points="206.14 45.69 200.11 45.69 199.19 34.9 204.59 34.9 206.14 45.69"/><polygon class="cls-4" points="194.09 45.69 188.06 45.69 188.37 34.9 193.78 34.9 194.09 45.69"/><polygon class="cls-2" points="218.19 45.69 212.16 45.69 210 34.9 215.41 34.9 218.19 45.69"/><polygon class="cls-3" points="224.22 45.69 218.19 45.69 215.41 34.9 220.82 34.9 224.22 45.69"/><polygon class="cls-3" points="212.16 45.69 206.14 45.69 204.59 34.9 210 34.9 212.16 45.69"/><polygon class="cls-3" points="236.27 45.69 230.24 45.69 226.23 34.9 231.64 34.9 236.27 45.69"/><polygon class="cls-5" points="242.29 45.69 236.27 45.69 231.64 34.9 237.04 34.9 242.29 45.69"/><polygon class="cls-4" points="230.24 45.69 224.22 45.69 220.82 34.9 226.23 34.9 230.24 45.69"/><polygon class="cls-3" points="248.32 45.69 242.29 45.69 237.04 34.9 242.45 34.9 248.32 45.69"/><path class="cls-16" d="M139.85,45.69h6a0,0,0,0,1,0,0v3a3,3,0,0,1-3,3h0a3,3,0,0,1-3-3v-3A0,0,0,0,1,139.85,45.69Z"/><path class="cls-17" d="M145.88,45.69h6a0,0,0,0,1,0,0v3a3,3,0,0,1-3,3h0a3,3,0,0,1-3-3v-3A0,0,0,0,1,145.88,45.69Z"/><path class="cls-17" d="M133.83,45.69h6a0,0,0,0,1,0,0v3a3,3,0,0,1-3,3h0a3,3,0,0,1-3-3v-3A0,0,0,0,1,133.83,45.69Z"/><path class="cls-17" d="M157.93,45.69h6a0,0,0,0,1,0,0v3a3,3,0,0,1-3,3h0a3,3,0,0,1-3-3v-3A0,0,0,0,1,157.93,45.69Z"/><path class="cls-18" d="M164,45.69h6a0,0,0,0,1,0,0v3a3,3,0,0,1-3,3h0a3,3,0,0,1-3-3v-3A0,0,0,0,1,164,45.69Z"/><path class="cls-19" d="M151.9,45.69h6a0,0,0,0,1,0,0v3a3,3,0,0,1-3,3h0a3,3,0,0,1-3-3v-3A0,0,0,0,1,151.9,45.69Z"/><path class="cls-16" d="M176,45.69h6a0,0,0,0,1,0,0v3a3,3,0,0,1-3,3h0a3,3,0,0,1-3-3v-3A0,0,0,0,1,176,45.69Z"/><path class="cls-17" d="M182,45.69h6a0,0,0,0,1,0,0v3a3,3,0,0,1-3,3h0a3,3,0,0,1-3-3v-3a0,0,0,0,1,0,0Z"/><path class="cls-17" d="M170,45.69h6a0,0,0,0,1,0,0v3a3,3,0,0,1-3,3h0a3,3,0,0,1-3-3v-3A0,0,0,0,1,170,45.69Z"/><path class="cls-17" d="M194.09,45.69h6a0,0,0,0,1,0,0v3a3,3,0,0,1-3,3h0a3,3,0,0,1-3-3v-3A0,0,0,0,1,194.09,45.69Z"/><path class="cls-18" d="M200.11,45.69h6a0,0,0,0,1,0,0v3a3,3,0,0,1-3,3h0a3,3,0,0,1-3-3v-3A0,0,0,0,1,200.11,45.69Z"/><path class="cls-19" d="M188.06,45.69h6a0,0,0,0,1,0,0v3a3,3,0,0,1-3,3h0a3,3,0,0,1-3-3v-3A0,0,0,0,1,188.06,45.69Z"/><path class="cls-16" d="M212.16,45.69h6a0,0,0,0,1,0,0v3a3,3,0,0,1-3,3h0a3,3,0,0,1-3-3v-3A0,0,0,0,1,212.16,45.69Z"/><path class="cls-17" d="M218.19,45.69h6a0,0,0,0,1,0,0v3a3,3,0,0,1-3,3h0a3,3,0,0,1-3-3v-3a0,0,0,0,1,0,0Z"/><path class="cls-17" d="M206.14,45.69h6a0,0,0,0,1,0,0v3a3,3,0,0,1-3,3h0a3,3,0,0,1-3-3v-3A0,0,0,0,1,206.14,45.69Z"/><path class="cls-17" d="M230.24,45.69h6a0,0,0,0,1,0,0v3a3,3,0,0,1-3,3h0a3,3,0,0,1-3-3v-3A0,0,0,0,1,230.24,45.69Z"/><path class="cls-18" d="M236.27,45.69h6a0,0,0,0,1,0,0v3a3,3,0,0,1-3,3h0a3,3,0,0,1-3-3v-3a0,0,0,0,1,0,0Z"/><path class="cls-19" d="M224.22,45.69h6a0,0,0,0,1,0,0v3a3,3,0,0,1-3,3h0a3,3,0,0,1-3-3v-3A0,0,0,0,1,224.22,45.69Z"/><path class="cls-17" d="M242.29,45.69h6a0,0,0,0,1,0,0v3a3,3,0,0,1-3,3h0a3,3,0,0,1-3-3v-3a0,0,0,0,1,0,0Z"/><rect class="cls-18" x="232.58" y="82.84" width="7.16" height="2.86"/><rect class="cls-18" x="229" y="79.98" width="7.16" height="2.86"/><rect class="cls-18" x="135.97" y="29.18" width="110.92" height="1.43"/><rect class="cls-18" x="138.84" y="34.54" width="104.48" height="0.72"/><rect class="cls-18" x="234.72" y="58.51" width="7.16" height="2.86"/><rect class="cls-18" x="196.08" y="56.37" width="7.16" height="2.86"/><rect class="cls-18" x="139.55" y="54.22" width="7.16" height="2.86"/><rect class="cls-18" x="199.66" y="53.51" width="7.16" height="2.86"/><line class="cls-20" x1="243.31" y1="58.74" x2="247.41" y2="58.74"/><circle class="cls-21" cx="252.95" cy="58.5" r="5.74"/><polygon class="cls-3" points="252.45 61.81 253.44 61.81 253.44 56.74 252.45 57.77 252.45 61.81"/><polygon class="cls-3" points="252.45 55.2 252.45 57.25 253.44 56.22 253.44 55.2 252.45 55.2"/><polygon class="cls-8" points="222.56 63.52 208.25 73.54 208.25 69.96 222.56 59.95 222.56 63.52"/><polygon class="cls-8" points="222.56 66.39 208.25 76.4 208.25 74.97 222.56 64.95 222.56 66.39"/><rect class="cls-20" x="208.25" y="57.8" width="14.31" height="27.55"/><rect class="cls-7" x="209.68" y="70.68" width="2.86" height="0.72"/><polygon class="cls-8" points="189.64 67.82 146.71 77.83 146.71 74.26 189.64 64.24 189.64 67.82"/><polygon class="cls-8" points="189.64 70.68 146.71 80.7 146.71 79.27 189.64 69.25 189.64 70.68"/><rect class="cls-20" x="146.89" y="61.38" width="42.94" height="23.97"/><path class="cls-16" d="M151.89,54.94h32.93a7,7,0,0,1,7,7v.9a0,0,0,0,1,0,0H144.92a0,0,0,0,1,0,0v-.9A7,7,0,0,1,151.89,54.94Z"/><path class="cls-2" d="M150.64,57.08h35.42a5.72,5.72,0,0,1,5.72,5.72v0a0,0,0,0,1,0,0H144.92a0,0,0,0,1,0,0v0A5.72,5.72,0,0,1,150.64,57.08Z"/><rect class="cls-15" x="135.26" y="87.14" width="114.49" height="2.86"/><rect class="cls-18" x="136.69" y="85.71" width="110.92" height="1.43"/><line class="cls-22" x1="360.86" y1="65.93" x2="360.86" y2="90"/><circle class="cls-23" cx="352.73" cy="54.87" r="7.81"/><circle class="cls-24" cx="360.86" cy="48.89" r="7.81"/><circle class="cls-23" cx="365.74" cy="56.17" r="7.81"/><circle class="cls-23" cx="365.74" cy="64.63" r="7.81"/><circle class="cls-24" cx="356.63" cy="65.28" r="7.81"/><line class="cls-22" x1="21.58" y1="66.07" x2="21.58" y2="90"/><circle class="cls-23" cx="14.21" cy="53.64" r="7.76"/><circle class="cls-24" cx="24.43" cy="49.11" r="7.76"/><circle class="cls-23" cx="27.87" cy="56.37" r="7.76"/><circle class="cls-23" cx="26.43" cy="64.77" r="7.76"/><circle class="cls-24" cx="17.38" cy="65.42" r="7.76"/><line class="cls-25" x1="315.94" y1="63.52" x2="315.94" y2="90"/><circle class="cls-23" cx="307" cy="51.36" r="8.59"/><circle class="cls-24" cx="312.72" cy="43.49" r="8.59"/><circle class="cls-23" cx="321.31" cy="52.79" r="8.59"/><circle class="cls-24" cx="321.31" cy="62.09" r="8.59"/><circle class="cls-23" cx="309.86" cy="63.52" r="8.59"/><rect class="cls-5" x="163.17" y="17.01" width="10.02" height="7.16"/><polygon class="cls-15" points="169.84 12 166.27 14.15 166.27 17.01 169.84 17.01 169.84 12"/><rect class="cls-7" x="162.69" y="16.29" width="10.73" height="1.43"/><rect class="cls-18" x="169.61" y="22.02" width="3.58" height="1.43"/><rect class="cls-18" x="163.17" y="19.87" width="3.58" height="1.43"/><rect class="cls-18" x="163.17" y="18.44" width="2.15" height="1.43"/><rect class="cls-7" x="268.18" y="79.44" width="26.12" height="2.11"/><rect class="cls-7" x="268.18" y="81.97" width="26.12" height="2.11"/><rect class="cls-7" x="268.18" y="84.93" width="26.12" height="0.84"/><rect class="cls-7" x="272.11" y="79.86" width="0.84" height="10.14"/><rect class="cls-7" x="289.52" y="79.86" width="0.84" height="10.14"/><rect class="cls-26" x="160.53" y="71.25" width="10.73" height="5.72" transform="translate(-11.1 33.06) rotate(-11.01)"/><path class="cls-4" d="M164.38,74.3a1,1,0,0,1,0,.45.67.67,0,0,1-.2.34.7.7,0,0,1-.35.17.72.72,0,0,1-.39,0,.68.68,0,0,1-.31-.24,1,1,0,0,1-.17-.41l0-.08a1,1,0,0,1,0-.45.67.67,0,0,1,.2-.34.75.75,0,0,1,.75-.15.68.68,0,0,1,.31.24,1,1,0,0,1,.17.42Zm-.37,0a.73.73,0,0,0-.17-.38.34.34,0,0,0-.54.1.72.72,0,0,0,0,.42l0,.08a.72.72,0,0,0,.17.38.32.32,0,0,0,.3.09.31.31,0,0,0,.24-.19.74.74,0,0,0,0-.42Z"/><path class="cls-4" d="M165,74.39l.12.59-.35.07-.33-1.68.66-.13a.77.77,0,0,1,.35,0,.52.52,0,0,1,.26.15.55.55,0,0,1,.13.28.49.49,0,0,1-.09.42.71.71,0,0,1-.44.23Zm-.05-.28.31-.06a.31.31,0,0,0,.2-.11.24.24,0,0,0,0-.2.29.29,0,0,0-.11-.18.28.28,0,0,0-.22,0l-.32.06Z"/><path class="cls-4" d="M167.18,73.83l-.67.13.09.45.78-.15.05.28-1.13.22L166,73.08l1.12-.22.05.28-.78.15.08.4.67-.13Z"/><path class="cls-4" d="M169,74.23l-.35.07-.89-1,.21,1.11-.35.07-.33-1.68.35-.07.89,1-.22-1.11.34-.07Z"/><polyline class="cls-27" points="170.68 70.32 166.39 67.46 159.94 72.47"/></g></svg>