<svg xmlns="http://www.w3.org/2000/svg" viewBox="0 0 39.76 34.43"><defs><style>.cls-1{fill:#2b393f;}</style></defs><title>header-terms-tumbleweed</title><g id="desk"><path class="cls-1" d="M38,17.92c-.07-.07-.26,0-.39,0a2.62,2.62,0,0,0,0,.44c.07.36.2.72.24,1.08s0,1,0,1.47a9.37,9.37,0,0,0,.19,1l.19,0V19.45c1,1.31,1,2.94.22,3.54-.31-.39-.64-.77-.92-1.18a1.53,1.53,0,0,1-.24-.68,9.51,9.51,0,0,0-.16-1.92,7.46,7.46,0,0,1,0-4.54,32.29,32.29,0,0,0,.95-7.47A1.51,1.51,0,0,0,38,6.74h-.16l-.55,1.18c-.92-.35-1.85-.68-2.77-1.05-.12,0-.21-.27-.25-.42a3,3,0,0,1,.22-2.14,2.23,2.23,0,0,0,.12-.55l-.16,0A1.67,1.67,0,0,0,33.8,5c0,.51,0,1,0,1.63l-4-3.4c.5,0,1.09,0,1.68,0a1,1,0,0,1,.91.6c.17.42.69.49,1.13.19a5,5,0,0,1-1.07-.63A1.89,1.89,0,0,0,31,2.9c-.44,0-.89-.07-1.33-.12.22,0,.11-.23.07-.37A2.28,2.28,0,0,0,27.93.72C27,.53,26.15.41,25.26.28A25.24,25.24,0,0,0,18.67.23a4.4,4.4,0,0,0-1.58.61c-.69.39-1.33.89-2,1.33a1,1,0,0,1-1.12,0C14.8.36,14.8.36,14.5,0c-.74.55-.42,1.46-.73,2.16-.59-.12-1.15-.25-1.72-.34a2,2,0,0,0-.53.05c.12.17.21.41.37.49.48.22,1,.37,1.5.55l-1,.65.08-.49L12.31,3a1.63,1.63,0,0,1-1.46,1c-.35,0-.69.1-1,.15-1.17.17-2.35.34-3.52.53a5.32,5.32,0,0,0-.84.28l-.12-1-.25,0c-.16.38-.31.76-.5,1.12a3.41,3.41,0,0,1-.49.74c-.43.48-.94.89-1.33,1.4a1.33,1.33,0,0,0-.2,1.61,4.83,4.83,0,0,0-1.3,3.45A5.84,5.84,0,0,0,1.9,16c-.66-.32-1.12-.81-1.9-.56.48.38.89.69,1.28,1a.73.73,0,0,1,.26.45,24.8,24.8,0,0,1,0,2.62A3.3,3.3,0,0,0,3,22.65l.12.1A8.17,8.17,0,0,1,6,26.55a2.6,2.6,0,0,0,.26.51c.52.76,1,1.54,1.61,2.25a1.45,1.45,0,0,1,.45,1.09,4.18,4.18,0,0,0,1.57,3.13,1.51,1.51,0,0,0,.71.32,21.88,21.88,0,0,0,6.45.55,4.44,4.44,0,0,0,.5-.13,5.52,5.52,0,0,1,1-.13c.45,0,.91.08,1.36.1q1.39.06,2.77.08a17.89,17.89,0,0,0,2.45,0,2.52,2.52,0,0,0,2-1.36,1.45,1.45,0,0,1,1.57-.85,6,6,0,0,0,3.5-.63,1.83,1.83,0,0,1,.34-.13c1.4-.46,1.71-.87,1.79-2.33a1.85,1.85,0,0,1,0-.42.54.54,0,0,1,.22-.3c.33-.18.69-.32,1.05-.49,0,.63-.54,1.13-.36,1.81.32-.35.73-.74.72-1.13a3.55,3.55,0,0,1,.59-2.1.58.58,0,0,0,.08-.19,1.55,1.55,0,0,1,.77-1.05,1.76,1.76,0,0,0,.67-.78,2.19,2.19,0,0,1,.82-1,1.26,1.26,0,0,0,.46-.83,7.68,7.68,0,0,0-.6-3.74A3.28,3.28,0,0,0,38,17.92Zm-1,2.85-.33.05-.37-2.43.21,0Zm-1.66.61-.61.84-.12-.05,1.23-2.79c.28.58.59,1.19.86,1.82a.51.51,0,0,1-.08.42c-.48.65-1,1.28-1.49,1.92L35,23.45l.55-2Zm-.54-3.75-.11-.05-.31-2.87.12,0c.26.75.57,1.48.76,2.24C35.34,17.1,35,17.38,34.83,17.63Zm.49.28-.39,1.65C34.64,18.54,34.68,18.32,35.32,17.9Zm-.12-6.68A2,2,0,0,1,35,9.36c.81,1.71,2,3.24,1.65,5.24a7.42,7.42,0,0,0-.26-.83C36,12.91,35.64,12,35.2,11.22Zm2-2.95V13L34.6,7.47Zm-1.76,4.4-.11.08c-.27-.43-.8-.66-1-1.16l.14-.12Zm-1-2.87L32.63,7.58C33.95,7.59,34.61,8.36,34.47,9.8ZM29.19,24.67a1.12,1.12,0,0,1-.83.07c-.12,0-.19-.41-.18-.63a9,9,0,0,1,.2-1.12c.09-.48.49-.52.84-.5a10.55,10.55,0,0,1,1.34.26A3.62,3.62,0,0,1,29.19,24.67Zm-.6,3.87.6-1.84C29.69,27.43,29.49,28.09,28.59,28.53ZM28,15.6h-.47V14.25l.17-.06a12.64,12.64,0,0,1,1.06,2.41,12.41,12.41,0,0,1,0,2.61h-.17l-1-3.47.36-.05ZM25.1,26.86l1.6-.58.11.13-.74,1.33Zm.81,3.78a5.36,5.36,0,0,1,.83,0l-1.3.66C25.41,30.9,25.47,30.64,25.91,30.63Zm-10-1.78c-.08-.13-.15-.27-.22-.4l.11-.08,1.8.6a1.43,1.43,0,0,1-.17.3c-.18.18-.49.52-.54.48-.28-.19-.87-.08-.79-.69C16.06,29,15.91,28.93,15.86,28.85ZM7.1,23.28,9,25.79a.26.26,0,0,1,0,.1C8,26.07,7.48,24.83,7.1,23.28Zm1.3,3.4-.12.15-1.1-.92.11-.13ZM6.15,14.26a2.61,2.61,0,0,1-1,2.14c-.74-1.89.29-3.34.9-4.95a2.26,2.26,0,0,1,.13,1.66A3.93,3.93,0,0,0,6.15,14.26ZM5,16.86c0,.27,0,.54,0,.81,0,.6.08,1.2.15,1.8a3.31,3.31,0,0,0,.19.59c-.9-.86-1.19-2.77-.54-3.23Zm.29.92c.95.66.49,1.63.75,2.4l-.2.13c-.12-.16-.32-.32-.34-.5C5.43,19.17,5.38,18.5,5.32,17.78Zm.92,3.76-.57-1.13C6.19,20.33,6.26,20.45,6.24,21.54ZM6,17.85l-.14,0-.7-1.25,1-.82.14,0ZM5.77,9.56,7.06,7.82l.09.08V9.1ZM29.19,4.32c-.08.2-.78-.37-.45.36a6,6,0,0,1,2.48,1.85A4,4,0,0,1,28.7,4.73c-.67-.5-1.32-1-2-1.48a14.17,14.17,0,0,0-1.52-.76,2.48,2.48,0,0,1,2.63.4L27,3.16l0,.21C27.93,3.3,28.85,3.24,29.19,4.32ZM32.36,11a9.38,9.38,0,0,1,1.1,3.46,2.13,2.13,0,0,1,0,.25l-.17,0a11.49,11.49,0,0,0-.45-2.22c-.28-.68-.81-1.26-1.16-2C31.91,10.7,32.26,10.81,32.36,11Zm0-2.74.16-.1.83,1.37-.16.09C32.51,9.43,32.53,8.79,32.33,8.29Zm-.18,9.09c.63.59.72.89.38,1.33C31.72,18.13,31.69,18,32.14,17.38Zm-.55-3.06.22-.06.36,1.31-.31.07Zm1-.49c.13.28.21.43.27.58.18.47.35.94.48,1.42C33,15.25,32.38,14.76,32.54,13.83ZM32.19,9l-.13,0-.27.64-.29.72h-.21a4.32,4.32,0,0,1-.22-1,4,4,0,0,0-.79-2.23l-.34-.55.1-.1c.21.13.5.22.61.41C31.1,7.64,32.34,7.82,32.19,9ZM30.8,16.84l-.15,0-.21-1.21C31,16,30.76,16.43,30.8,16.84Zm-.29-7.52L30.12,8l.22-.06.37,1.34Zm.38,11.83.14.06c-.18.42.08,1-.5,1.28l-.24-.14ZM28.35,7.64A2.33,2.33,0,0,1,29.95,10C29.12,9.41,28.91,8.48,28.35,7.64Zm.2,13.73c-.7-.82.17-1.28.35-1.94C29.43,20.58,29.38,20.84,28.55,21.37Zm.23-7.19-.52-1.11.15-.07C28.65,13.32,29.13,13.54,28.78,14.17Zm-2.23,8.26-1.17.15,1-1.3.26.69-.31.11ZM18.61,8.67H16.75C17.47,7.8,18.2,7.8,18.61,8.67ZM17.47,6.39c.23-.27.19-.84.72-.72.15,0,.22.39.36.67ZM18.76,17.1c.21-.28.35-.66.55-.69.41-.07,1,.54,1,1Zm1.52.7a1.11,1.11,0,0,1-1.27.68v-.9Zm-.41-2.23c-.19,0-.43,0-.55-.15a1.57,1.57,0,0,1-.26-.55l.19-.09.68.62Zm-1.39-2.26-.07-.8,1.11.85Zm-1,4.63v-.1l1-.18-.14.58Zm.65.59-.71.65v-.91ZM18,12l.12,1.49L17,12.75Zm-2.71-.32,2.05-1.39C16.69,11.63,16.44,11.8,15.27,11.69Zm2.16-2.27H18.7C18,10.09,17.73,10.09,17.43,9.41Zm-.26.63-1.52,1c.38-.48.82-.93.6-1.69h.19ZM15.1,6.11c.28-1,.31-1,1.51-.67C16.12,5.68,15.87,6.48,15.1,6.11Zm1.22,1.76c-.2.71-.76.7-1.23.85L15,8.54ZM16,12.17l.06.08-.44.63-.52-.28v-.14Zm-.2,2.74a4.58,4.58,0,0,1,1.09,2.41,1.1,1.1,0,0,1-1.18.05.34.34,0,0,1-.18-.27C15.58,16.4,15.68,15.7,15.78,14.91Zm1,3v1.4c-.76.41-.82.37-1.13-.85Zm-1.21,4.51.78,1.13-.17.12-.79-1.1ZM16.07,20l.83-.17-.38,1Zm.72-5.26.24.18c.93.76.94.76.71,1.87,0,.13-.25.23-.41.36ZM18.27,19l.14,0c-.07.26-.14.52-.21.78,0,.09-.08.21,0,.28a14,14,0,0,1,.65,1.33,3,3,0,0,1-1.51-1.76Zm.34,4a3.7,3.7,0,0,1,.87.39l-.71,1.11-1.1-1.39A3.69,3.69,0,0,1,18.61,23.08Zm1.11.9c.62.72.63.77.22,1.35l-.77-.48Zm.48-2.7-.18,0c-.18-.3-.36-.59-.53-.89s-.08-.43.24-.46l1.1-.08Zm-.42-1.79c.11-.33.2-.58.6-.51.22,0,.53-.05.44.41Zm-.72-7c-.21-.12-.42-.25-.62-.37v-.11c.71,0,1.42,0,2.12,0,.37,0,.62.57.56,1.21-.07,0-.14-.11-.17-.09C20.12,13.61,19.67,12.86,19.07,12.54Zm5.58,5.21a1.55,1.55,0,0,1-1.3,1.63Zm-.55-5.33c.9.26,1.05,1.16,1.52,1.79C24.81,13.89,24.63,13,24.11,12.42Zm-.95,7.43h1.21l.08.14L23.3,21l-.14-.09Zm-.33-3.79c1,.27.89.94.82,1.58a1.63,1.63,0,0,1-.26.51l-.22-.06A10.75,10.75,0,0,1,22.84,16.06Zm1-7.62-1.4-.28c.49,0,1-.27,1.45.07Zm-.93,5.65c.51.55.08.7-.19.86-.08,0-.24-.05-.37-.08Zm-.55,4.37c-.5-.06-.8-.25-.57-.91Zm-.41,2,.39.82-.8.19Zm.9,2.5,0,.11-1.52.66.15-.85Zm-.15,2.67.89.78a2.78,2.78,0,0,1-2.32-.64C21.8,25.27,22.19,25.25,22.68,25.67Zm0-.51c.61-.48.7-.46.91.18l.22.69ZM25.95,23A1.93,1.93,0,0,1,23.7,24.3,2,2,0,0,1,25.95,23Zm-.18-2.86-1,1.8C24.75,20.8,25.21,20,25.77,20.12Zm-.19-5.4c.61-.08.91.47.67,1.29ZM24.51,11c.84.11,1.19.72,1.56,1.45C25.05,12.36,25,11.47,24.51,11Zm0-3.56A5.63,5.63,0,0,0,22,6.49a1.66,1.66,0,0,1-1.3-.64c1.49-.59,3.78.4,4.71,1.74l-.06.15A4.33,4.33,0,0,1,24.53,7.4Zm-4.81,2.83.31.43L19,11,19,10.93Zm-.81-4.52,1.36.45C19.25,6.57,18.85,6.44,18.91,5.71ZM19.39,8l1.6.63C19.75,8.83,19.6,8.77,19.39,8Zm.89-2.54A1.11,1.11,0,0,1,22,5.54ZM21.51,5a2.62,2.62,0,0,1,3.43.82Zm-2.63-.86c.11-.12.19-.31.31-.34,1.48-.28,3-1.14,4.43,0ZM21,29.37h3.76l.08.18c-.6.48-1.2,1-1.82,1.45a.34.34,0,0,1-.32,0c-.59-.48-1.17-1-1.75-1.46Zm1.51-1.8,0-.19c.52-.1,1-.21,1.57-.29a.5.5,0,0,1,.37.13c.26.25.49.52.74.79l-.07.2Zm1.23-2.81c.48-.07.93-.27,1.41.06.12.09.39,0,.59-.06s.39-.09.58-.13l.1.2-1.78,1.5A2.1,2.1,0,0,1,23.71,24.76ZM25.37,8.11c.86-.18,1,.55,1.53,1C26,9.16,25.88,9.09,25.37,8.11Zm1.25-3.52c-.38-.42-.74-.88-1.17-1.4a7.87,7.87,0,0,1,3,1.76,9.32,9.32,0,0,1-1.25,0A1,1,0,0,1,26.62,4.59Zm3,13.71L30,19.78l-.24.05-.22-1.51ZM25.52,3.9,21.27,2.66h0c.91,0,1.82,0,2.73.07S25.11,3.5,25.52,3.9ZM18.21,2.71l0-.17a4.09,4.09,0,0,1,.9-.34c3.2-.39,4.08-.36,5.13.19C22.17,1.77,20.22,2.87,18.21,2.71Zm.55.56-.45,1.21H16.22A2.25,2.25,0,0,1,18.76,3.27Zm-2.55-.71,1.29-.2C17.11,3.07,16.65,2.7,16.21,2.56Zm.12.94c-.4.52-.68.9-1.37.9a12,12,0,0,0-2.26.43A8.42,8.42,0,0,1,16.32,3.51ZM15,5.11l-.37.83-1.42-.14,0-.2Zm-.18,7.77.54.32-.87,1.43-.11,0Zm.42,2c-.06.71.1,1.46-.48,2l-.51-.38Zm-3,8.24,1.52,1.23C12.81,24.44,12.66,23.61,12.28,23.08ZM14,28.36l-1.63-.75C13.65,27.39,13.74,27.43,14,28.36Zm-2.09-6.93.83-.22.63,1.41-.09.1Zm1.5-1.75c.62.31,1.47.09,1.54,1.13a8.23,8.23,0,0,1-1.2,0c-.13,0-.29-.26-.33-.43A3,3,0,0,1,13.38,19.68Zm.19,1.89.13-.1c.34.49,1,.71,1.1,1.41l-.19.11ZM14,21h1v.62Zm.72-3.14c0,.52.06,1,.1,1.56l-.1,0-.56-1.88C14.59,17.41,14.75,17.48,14.76,17.87Zm-.32,1.6c-.83,0-1-.19-.79-.86ZM13.82,16c-.88-.48-.82-.94.3-2.23Zm-1.14-1c-.59-.59-.3-1.18.82-2Zm.2,1.75c-.64,0-.81-.42-.46-.95Zm.06-4.65-.72-.32c.18-.37.35-.67.48-1,.2-.49.52-.72,1.05-.52C14.21,11.23,13.43,11.61,12.94,12.14ZM11.58,9.47l1.15-.38C12.47,9.61,12.18,9.79,11.58,9.47Zm.54,8,.9.5-.23.82L12,17.49Zm-.95,2.67c-.21-.38-.42-.76-.61-1.16a3.42,3.42,0,0,1-.16-.53c.67.57,1.29,1.07,1.88,1.62a3,3,0,0,1,.41.66C11.86,20.87,11.52,20.73,11.17,20.1Zm-.14-5c.22.58-.24.91-.46,1.3C10.51,15.89,10.37,15.35,11,15.11Zm-.6-2.57H10.3a2.27,2.27,0,0,1-.05-.65c0-.06.32-.07.59-.12Zm-.18,8.21.53,1-.56.4-.11-1.31Zm0,8.5A7.62,7.62,0,0,1,9,28.41c-.16-.16-.09-.56-.13-.93A1.91,1.91,0,0,1,10.24,29.25ZM9.19,24.42c.55.18,1.12.35,1,1.18Zm1-11.17c-.2.48-.29,1-.49,1.47a3.47,3.47,0,0,1-.58.72c-.91-1.46.14-2.24.86-3.16A.79.79,0,0,1,10.14,13.25Zm-.22,3.89-.19,0c-.06-.3-.53-.5-.1-1Zm-.63-4.76a2.26,2.26,0,0,1-.64.65l.14-1.46.88.12C9.55,11.92,9.44,12.16,9.29,12.38Zm-.61,5.1v1.87H8.62V17.49Zm-.6-8.69C8,8.87,7.94,9,8,9.07c.17.45-.19.32-.38.4-.22-1.24.25-1.9,1.54-2.21ZM7.89,19.5c-1.15-.42-1.14-2.37,0-4.15a1,1,0,0,1,0,1.33A5.07,5.07,0,0,0,7.89,19.5ZM8,13.84l.17-3.7h.21l-.17,3.7Zm-.14-4c-.06.51-.12,1-.16,1.46s-.07,1-.1,1.46C7.3,12.31,7.46,10.07,7.85,9.86Zm-.76,5.56.2-1.79A1.24,1.24,0,0,1,7.09,15.42Zm-.36,3.87c.61.16.69.7,1,1.24l-.75-.06c.74.06,1.08.57,1.44,1.13A17.89,17.89,0,0,0,9.56,23a5.64,5.64,0,0,1,.33.51C8.26,23.13,6.19,21.08,6.73,19.29ZM8.08,24,7,22.61C7.48,23,8.07,23.19,8.08,24Zm2.61,6.07c-1.2.18-2-.27-1.89-1.07Zm-.07-6.89L10.7,23l.67-.16-.71-.56.28-.27L12.19,24l-.08.12Zm2,3.28c-1.4,0-1.5-.1-1.56-1.25Zm1.26,3.14c-1.09.74-2,.45-2.5-.84Zm.93,1.18,0,.18c-.53-.07-1.12.25-1.66-.32Zm-.69-3.19c1.25.55,1.25.55,1,1.33C14.47,28.75,14.4,28.17,14.14,27.59Zm-.68-2.92c.87-.29,1.33.37,1.91.67,0,0,0,.09.06.14.14.72.19.74.72.41l3.09,1.91c-.16.39-.16.39-1.7,0l.23-.48-1.93-.61c-.11,0-.27,0-.35-.08C14.82,26,14.16,25.34,13.46,24.68Zm5.59,4.54a3.27,3.27,0,0,1,2.47,1.49c-.92.63-1.76.11-2.66-.06.22-.37.63-.66.31-1.06-.27.28-.48.64-.79.77s-.57-.14-.91-.24C18,29.08,18,29.19,19.05,29.22ZM21.8,30.9,22,31l.34.25c-1.17.87-2.78.75-4.47-.34C19.2,31,20.5,32.06,21.8,30.9Zm1.51,1H22.06C22.5,31.42,22.87,31.5,23.3,31.88Zm-.24-.63,2.21-1.82.13.11c-.47.62-.92,1.26-1.41,1.86C23.65,31.83,23.39,31.39,23.07,31.26Zm3.35-7-.05-.12.52-.74.14,0a2.34,2.34,0,0,1-.17.65C26.79,24.23,26.57,24.24,26.41,24.29Zm.6-2.75-.25-.81.68.12Zm-.14-1.21.19-1.13h.13l.33,1.19Zm-.45-10.2c1.06-.17,1.51.08,1.86,1.06A1.56,1.56,0,0,1,26.42,10.13Zm4.85,15.46.12.2L29.92,27l-.13-.57Zm-.32,1.1.1.1-1,1.46-.13-.09C29.92,27.44,30.47,27.09,30.95,26.69ZM32,25.76c.19,1.37-.28,2.06-1.49,2.31Zm0-3c-.52-.92.1-1.63.47-2.4,0-.09.17-.14.26-.2.05.1.15.19.15.29,0,.56.1,1.13-.43,1.57A2.57,2.57,0,0,0,32.06,22.79Zm.51,3.11.91.14L32.6,27l-.12-.06Zm1,.43c.53,1.11.14,1.86-1.08,2.19C32.3,27.5,33.22,27.06,33.63,26.34Zm-2-20.82c.69.48,1.4.92,2.08,1.4a1.59,1.59,0,0,1,.46.6c-.62-.25-1.19-.61-2-.11-.4-.58-.76-1.21-1.22-1.76s-1-1-1.47-1.48L29.63,4C30.31,4.53,31,5,31.66,5.52ZM28.39,1.46c.39.44.79.87,1.18,1.31-.23,0-.51.12-.66,0-.68-.48-1.32-1-2-1.55a.6.6,0,0,1-.1-.18C27.66.8,27.86.86,28.39,1.46Zm-1.66.38c-.56.06-1.2.17-1.84.19a6.7,6.7,0,0,1-1.29-.25C24.82,1.18,25.89.74,26.73,1.84Zm-9-.74a22.5,22.5,0,0,1,6.4-.6,2.52,2.52,0,0,1,.47.11c-.34.25-.62.49-.93.69a1.44,1.44,0,0,1-1.2.14,11.76,11.76,0,0,0-1.9-.29c-.33,0-.62.11-.53.62-.19-.13-.55.3-.52-.26-.23,0-.52,0-.69.08a6.18,6.18,0,0,1-2.57.61,2.34,2.34,0,0,1-.36,0A3.44,3.44,0,0,1,17.76,1.09Zm-2,2.18-3,1.12C13.68,3.7,14.45,2.7,15.77,3.27Zm-2.37-.36.49,0,0,.12L12.63,4l0,0Zm1,3.43c-.14.67-.59.87-1.87.85l.75-.34V6.7c-.2,0-.4,0-.6,0s-.4.07-.6.11A3,3,0,0,1,14.42,6.34Zm-.47,1,.12.16a2.51,2.51,0,0,1-.54.54c-.63.33-1.28.6-2,.92l-.15-1.1ZM11.77,17.75c.24.44.54.85.77,1.29a2.24,2.24,0,0,1,.13.6l-.13,0L11,17.4C11.47,17.29,11.54,17.33,11.77,17.75Zm-1.66-6.43c-.11-.8.38-1.39,1.05-1.33Zm.25-1.8c-.27.53-.5,1-.79,1.51-.05.09-.32.06-.48.05a.52.52,0,0,1,0-.3,6.14,6.14,0,0,1,1.65-2.39C11.29,9.34,11.28,9.35,10.36,9.52Zm-5.09-4c0-.1.2-.19.32-.22a21.6,21.6,0,0,1,5.46-.76c-.91.43-1.73.77-2.49,1.2A5.78,5.78,0,0,0,7.23,6.84,1.88,1.88,0,0,1,6,7.46c-.43.06-.85.16-1.35.26C4.87,7,5.06,6.25,5.28,5.54ZM5.59,8h.67A12.54,12.54,0,0,0,4.6,12c-.23,1-.51,2-.77,3a2.52,2.52,0,0,1-.14.31,10.12,10.12,0,0,1-.4-1.16,1.2,1.2,0,0,1,.06-.73c.31-.64.68-1.26,1-1.89a.87.87,0,0,0,.13-.44c-.68.36-1,1.06-1.38,1.63L3,12.71c.26-.86.51-1.73.78-2.59.12-.38.27-.76.4-1.13C4.51,8,4.52,8,5.59,8ZM3,18.74c.12.76,1.22,1,1,1.93A1.56,1.56,0,0,1,3,18.74Zm-.31-4,.77,1,.15-.07-.23.89C3.27,15.92,2.41,15.52,2.72,14.71ZM4.49,5.8c-.08.68-.14,1.27-.23,1.86,0,.09-.14.18-.23.23-.36.17-.72.32-1.13.5C3.18,7.39,3.33,6.36,4.49,5.8Zm-.3,2.44c-.31.68-.56,1.34-.89,2a5.67,5.67,0,0,0-.64,3.08,4.7,4.7,0,0,1-.28,1.23C.79,12.63,2.18,8.43,4.19,8.24ZM5.93,25.51a9.52,9.52,0,0,0-3.37-3.87,1.66,1.66,0,0,1-.63-1.43c0-1,0-2.06,0-3.1.68.26.87.6.69,1.25A2.09,2.09,0,0,0,3.85,21a1.43,1.43,0,0,1,.56.61c.45.89.86,1.79,1.27,2.7.15.35.25.72.37,1.08Zm.14-3.41.23-.21c.05.14.11.28.15.43l.83,2.9A5.81,5.81,0,0,1,6.07,22.1Zm2.17,7L7.09,27.4l.11-.1c.26.66,1.16.88,1.17,1.71ZM8.38,28l-.9-1.06.12-.1C7.87,27.17,8.54,27.15,8.38,28Zm.38,2.24c.85.11,1.7.16,2.51.33a4.83,4.83,0,0,1,1.17.66c-1,.47-2,.78-2.38,1.93C9.35,32.22,8.62,31.36,8.77,30.23Zm4.8,3.48a1.77,1.77,0,0,0-1.87-.07c-.23.14-.68-.06-1-.14-.05,0-.11-.29-.06-.38a4,4,0,0,1,2-1.6c.1,0,.26.05.38.11.49.23,1,.47,1.47.69s1.25.35,1.65,1c.16.26.57.37.94.59A4.48,4.48,0,0,1,13.57,33.71Zm2-2.14c.9-.09,1.45.6,2.18.68A3,3,0,0,1,15.52,31.58Zm.54-.8,2.75,1.15A4.26,4.26,0,0,1,16.06,30.78Zm2.69,2.89a2.48,2.48,0,0,1,2.78.22Zm7.38-.33a5,5,0,0,1-4.34-.14l4.57-.69.15.15C26.38,32.89,26.31,33.19,26.13,33.34Zm1.58-1.63L27.44,31c-.35.62-.35.62-1.53.52.79-.24,1.26-1.17,2.39-1Zm.51-3.17a.56.56,0,0,1-.38.27c-.67.11-1.34.18-2,.27l0-.12c.85-.72,1.7-1.45,2.57-2.15.1-.08.29,0,.51-.07C28.63,27.38,28.44,28,28.21,28.54Zm.4,1.69c-.15-.6-.12-.62.49-.59l.09.13Zm.65,1.12-.2-.19,1.22-1.63.69.27ZM32.4,31c-.45.13-.88.35-1.33.46a4.51,4.51,0,0,1-1.32.1c1.15-.86,1.88-2.23,3.5-2.64l-.89,1.2c.52.05.62,0,1.6-1.25C33.94,30.17,33.59,30.62,32.4,31Zm1.68-6c-.5-.63-.5-.66.16-1.22Zm.41-12.31A4.83,4.83,0,0,1,36,16.15l-.15.06-1.54-3.53ZM37.15,24,37,23.19l-.17,0-.54,1.73c.25.35.24.4-.51.92a7.2,7.2,0,0,0-.39-.84c-.06-.1-.25-.11-.38-.16a1,1,0,0,0,0,.37,5.31,5.31,0,0,0,.31.83A.72.72,0,0,1,35,27l-.69.49.42-3.63c1.72.28,2.1-.88,2.47-2.06C38.24,22.66,38.22,23.54,37.15,24Z"/><path class="cls-1" d="M37.45,14a2.93,2.93,0,0,0,0,.54A20.14,20.14,0,0,0,38,17a4.38,4.38,0,0,0,.82,1.36.75.75,0,0,0,1,.21,12.42,12.42,0,0,1-1.5-2.07A12.33,12.33,0,0,1,37.67,14Z"/></g></svg>