<svg xmlns="http://www.w3.org/2000/svg" xmlns:xlink="http://www.w3.org/1999/xlink" viewBox="0 0 380 100"><defs><style>.cls-1,.cls-12,.cls-17,.cls-18,.cls-19,.cls-20,.cls-22,.cls-24,.cls-28,.cls-4,.cls-5,.cls-6,.cls-7,.cls-8{fill:none;}.cls-11,.cls-2{fill:#f96673;}.cls-10,.cls-16,.cls-25,.cls-3{fill:#fff;}.cls-11,.cls-12,.cls-4,.cls-5,.cls-6,.cls-7,.cls-8{stroke:#2b393f;}.cls-11,.cls-12,.cls-17,.cls-18,.cls-19,.cls-20,.cls-22,.cls-24,.cls-25,.cls-28,.cls-4,.cls-5,.cls-6,.cls-7,.cls-8{stroke-miterlimit:10;}.cls-4{stroke-width:0.67px;}.cls-5{stroke-width:1.34px;}.cls-6{stroke-width:0.77px;}.cls-7{stroke-width:1.55px;}.cls-8{stroke-width:0.62px;}.cls-9{fill:#2b393f;}.cls-10{opacity:0.4;}.cls-11{stroke-width:0.82px;}.cls-12{stroke-width:0.58px;}.cls-13{fill:#feb21e;}.cls-14,.cls-16{opacity:0.2;}.cls-15{fill:#333;}.cls-17,.cls-18,.cls-19,.cls-20,.cls-22,.cls-24,.cls-25,.cls-28{stroke:#333;}.cls-17{stroke-width:1.17px;}.cls-18{stroke-linecap:round;stroke-width:0.67px;stroke-dasharray:0 1.43;}.cls-19{stroke-width:0.55px;}.cls-20{stroke-width:1.1px;}.cls-21{fill:#4d4d4d;}.cls-22{stroke-width:0.67px;}.cls-23{fill:url(#New_Pattern_2);}.cls-24{stroke-width:0.91px;}.cls-25{stroke-width:0.75px;}.cls-26{fill:#48a69c;}.cls-27{fill:url(#New_Pattern_2-3);}.cls-28{stroke-width:2.79px;}.cls-29{fill:#41958c;}</style><pattern id="New_Pattern_2" data-name="New Pattern 2" width="145.86" height="150" patternTransform="translate(91.7 82.39) scale(0.16)" patternUnits="userSpaceOnUse" viewBox="0 0 145.87 150"><rect class="cls-1" width="145.86" height="150"/><polygon class="cls-2" points="145.87 150 131.29 150 148.77 120 163.36 120 145.87 150"/><polygon class="cls-2" points="116.7 150 102.11 150 119.6 120 134.19 120 116.7 150"/><polygon class="cls-3" points="131.29 150 116.7 150 134.19 120 148.77 120 131.29 150"/><polygon class="cls-2" points="87.53 150 72.94 150 90.43 120 105.01 120 87.53 150"/><polygon class="cls-3" points="102.11 150 87.53 150 105.01 120 119.6 120 102.11 150"/><polygon class="cls-2" points="58.35 150 43.77 150 61.26 120 75.84 120 58.35 150"/><polygon class="cls-3" points="72.94 150 58.35 150 75.84 120 90.43 120 72.94 150"/><polygon class="cls-2" points="29.18 150 14.6 150 32.08 120 46.67 120 29.18 150"/><polygon class="cls-3" points="43.77 150 29.18 150 46.67 120 61.26 120 43.77 150"/><polygon class="cls-2" points="0.01 150 -14.58 150 2.91 120 17.5 120 0.01 150"/><polygon class="cls-3" points="14.6 150 0.01 150 17.5 120 32.08 120 14.6 150"/><polygon class="cls-3" points="-14.58 150 -29.16 150 -11.68 120 2.91 120 -14.58 150"/><polygon class="cls-2" points="134.2 120 119.62 120 137.1 90 151.69 90 134.2 120"/><polygon class="cls-3" points="148.79 120 134.2 120 151.69 90 166.28 90 148.79 120"/><polygon class="cls-2" points="105.03 120 90.44 120 107.93 90 122.52 90 105.03 120"/><polygon class="cls-3" points="119.62 120 105.03 120 122.52 90 137.1 90 119.62 120"/><polygon class="cls-2" points="75.86 120 61.27 120 78.76 90 93.34 90 75.86 120"/><polygon class="cls-3" points="90.44 120 75.86 120 93.34 90 107.93 90 90.44 120"/><polygon class="cls-2" points="46.69 120 32.1 120 49.59 90 64.17 90 46.69 120"/><polygon class="cls-3" points="61.27 120 46.69 120 64.17 90 78.76 90 61.27 120"/><polygon class="cls-2" points="17.51 120 2.93 120 20.41 90 35 90 17.51 120"/><polygon class="cls-3" points="32.1 120 17.51 120 35 90 49.59 90 32.1 120"/><polygon class="cls-2" points="-11.66 120 -26.25 120 -8.76 90 5.83 90 -11.66 120"/><polygon class="cls-3" points="2.93 120 -11.66 120 5.83 90 20.41 90 2.93 120"/><polygon class="cls-2" points="151.71 90 137.12 90 154.61 60 169.19 60 151.71 90"/><polygon class="cls-2" points="122.53 90 107.95 90 125.44 60 140.02 60 122.53 90"/><polygon class="cls-3" points="137.12 90 122.53 90 140.02 60 154.61 60 137.12 90"/><polygon class="cls-2" points="93.36 90 78.78 90 96.26 60 110.85 60 93.36 90"/><polygon class="cls-3" points="107.95 90 93.36 90 110.85 60 125.44 60 107.95 90"/><polygon class="cls-2" points="64.19 90 49.6 90 67.09 60 81.68 60 64.19 90"/><polygon class="cls-3" points="78.78 90 64.19 90 81.68 60 96.26 60 78.78 90"/><polygon class="cls-2" points="35.02 90 20.43 90 37.92 60 52.5 60 35.02 90"/><polygon class="cls-3" points="49.6 90 35.02 90 52.5 60 67.09 60 49.6 90"/><polygon class="cls-2" points="5.84 90 -8.74 90 8.74 60 23.33 60 5.84 90"/><polygon class="cls-3" points="20.43 90 5.84 90 23.33 60 37.92 60 20.43 90"/><polygon class="cls-3" points="-8.74 90 -23.33 90 -5.84 60 8.74 60 -8.74 90"/><polygon class="cls-2" points="140.04 60 125.45 60 142.94 30 157.53 30 140.04 60"/><polygon class="cls-3" points="154.63 60 140.04 60 157.53 30 172.11 30 154.63 60"/><polygon class="cls-2" points="110.87 60 96.28 60 113.77 30 128.35 30 110.87 60"/><polygon class="cls-3" points="125.45 60 110.87 60 128.35 30 142.94 30 125.45 60"/><polygon class="cls-2" points="81.69 60 67.11 60 84.59 30 99.18 30 81.69 60"/><polygon class="cls-3" points="96.28 60 81.69 60 99.18 30 113.77 30 96.28 60"/><polygon class="cls-2" points="52.52 60 37.93 60 55.42 30 70.01 30 52.52 60"/><polygon class="cls-3" points="67.11 60 52.52 60 70.01 30 84.59 30 67.11 60"/><polygon class="cls-2" points="23.35 60 8.76 60 26.25 30 40.83 30 23.35 60"/><polygon class="cls-3" points="37.93 60 23.35 60 40.83 30 55.42 30 37.93 60"/><polygon class="cls-2" points="-5.83 60 -20.41 60 -2.93 30 11.66 30 -5.83 60"/><polygon class="cls-3" points="8.76 60 -5.83 60 11.66 30 26.25 30 8.76 60"/><polygon class="cls-2" points="157.54 30 142.96 30 160.44 0 175.03 0 157.54 30"/><polygon class="cls-2" points="128.37 30 113.78 30 131.27 0 145.86 0 128.37 30"/><polygon class="cls-3" points="142.96 30 128.37 30 145.86 0 160.44 0 142.96 30"/><polygon class="cls-2" points="99.2 30 84.61 30 102.1 0 116.68 0 99.2 30"/><polygon class="cls-3" points="113.78 30 99.2 30 116.68 0 131.27 0 113.78 30"/><polygon class="cls-2" points="70.02 30 55.44 30 72.92 0 87.51 0 70.02 30"/><polygon class="cls-3" points="84.61 30 70.02 30 87.51 0 102.1 0 84.61 30"/><polygon class="cls-2" points="40.85 30 26.26 30 43.75 0 58.34 0 40.85 30"/><polygon class="cls-3" points="55.44 30 40.85 30 58.34 0 72.92 0 55.44 30"/><polygon class="cls-2" points="11.68 30 -2.91 30 14.58 0 29.16 0 11.68 30"/><polygon class="cls-3" points="26.26 30 11.68 30 29.16 0 43.75 0 26.26 30"/><polygon class="cls-3" points="-2.91 30 -17.5 30 -0.01 0 14.58 0 -2.91 30"/></pattern><pattern id="New_Pattern_2-3" data-name="New Pattern 2" width="145.86" height="150" patternTransform="translate(-14.64 131.01) scale(0.16)" patternUnits="userSpaceOnUse" viewBox="0 0 145.87 150"><rect class="cls-1" width="145.86" height="150"/><polygon class="cls-2" points="145.87 150 131.29 150 148.77 120 163.36 120 145.87 150"/><polygon class="cls-2" points="116.7 150 102.11 150 119.6 120 134.19 120 116.7 150"/><polygon class="cls-3" points="131.29 150 116.7 150 134.19 120 148.77 120 131.29 150"/><polygon class="cls-2" points="87.53 150 72.94 150 90.43 120 105.01 120 87.53 150"/><polygon class="cls-3" points="102.11 150 87.53 150 105.01 120 119.6 120 102.11 150"/><polygon class="cls-2" points="58.35 150 43.77 150 61.26 120 75.84 120 58.35 150"/><polygon class="cls-3" points="72.94 150 58.35 150 75.84 120 90.43 120 72.94 150"/><polygon class="cls-2" points="29.18 150 14.6 150 32.08 120 46.67 120 29.18 150"/><polygon class="cls-3" points="43.77 150 29.18 150 46.67 120 61.26 120 43.77 150"/><polygon class="cls-2" points="0.01 150 -14.58 150 2.91 120 17.5 120 0.01 150"/><polygon class="cls-3" points="14.6 150 0.01 150 17.5 120 32.08 120 14.6 150"/><polygon class="cls-3" points="-14.58 150 -29.16 150 -11.68 120 2.91 120 -14.58 150"/><polygon class="cls-2" points="134.2 120 119.62 120 137.1 90 151.69 90 134.2 120"/><polygon class="cls-3" points="148.79 120 134.2 120 151.69 90 166.28 90 148.79 120"/><polygon class="cls-2" points="105.03 120 90.44 120 107.93 90 122.52 90 105.03 120"/><polygon class="cls-3" points="119.62 120 105.03 120 122.52 90 137.1 90 119.62 120"/><polygon class="cls-2" points="75.86 120 61.27 120 78.76 90 93.34 90 75.86 120"/><polygon class="cls-3" points="90.44 120 75.86 120 93.34 90 107.93 90 90.44 120"/><polygon class="cls-2" points="46.69 120 32.1 120 49.59 90 64.17 90 46.69 120"/><polygon class="cls-3" points="61.27 120 46.69 120 64.17 90 78.76 90 61.27 120"/><polygon class="cls-2" points="17.51 120 2.93 120 20.41 90 35 90 17.51 120"/><polygon class="cls-3" points="32.1 120 17.51 120 35 90 49.59 90 32.1 120"/><polygon class="cls-2" points="-11.66 120 -26.25 120 -8.76 90 5.83 90 -11.66 120"/><polygon class="cls-3" points="2.93 120 -11.66 120 5.83 90 20.41 90 2.93 120"/><polygon class="cls-2" points="151.71 90 137.12 90 154.61 60 169.19 60 151.71 90"/><polygon class="cls-2" points="122.53 90 107.95 90 125.44 60 140.02 60 122.53 90"/><polygon class="cls-3" points="137.12 90 122.53 90 140.02 60 154.61 60 137.12 90"/><polygon class="cls-2" points="93.36 90 78.78 90 96.26 60 110.85 60 93.36 90"/><polygon class="cls-3" points="107.95 90 93.36 90 110.85 60 125.44 60 107.95 90"/><polygon class="cls-2" points="64.19 90 49.6 90 67.09 60 81.68 60 64.19 90"/><polygon class="cls-3" points="78.78 90 64.19 90 81.68 60 96.26 60 78.78 90"/><polygon class="cls-2" points="35.02 90 20.43 90 37.92 60 52.5 60 35.02 90"/><polygon class="cls-3" points="49.6 90 35.02 90 52.5 60 67.09 60 49.6 90"/><polygon class="cls-2" points="5.84 90 -8.74 90 8.74 60 23.33 60 5.84 90"/><polygon class="cls-3" points="20.43 90 5.84 90 23.33 60 37.92 60 20.43 90"/><polygon class="cls-3" points="-8.74 90 -23.33 90 -5.84 60 8.74 60 -8.74 90"/><polygon class="cls-2" points="140.04 60 125.45 60 142.94 30 157.53 30 140.04 60"/><polygon class="cls-3" points="154.63 60 140.04 60 157.53 30 172.11 30 154.63 60"/><polygon class="cls-2" points="110.87 60 96.28 60 113.77 30 128.35 30 110.87 60"/><polygon class="cls-3" points="125.45 60 110.87 60 128.35 30 142.94 30 125.45 60"/><polygon class="cls-2" points="81.69 60 67.11 60 84.59 30 99.18 30 81.69 60"/><polygon class="cls-3" points="96.28 60 81.69 60 99.18 30 113.77 30 96.28 60"/><polygon class="cls-2" points="52.52 60 37.93 60 55.42 30 70.01 30 52.52 60"/><polygon class="cls-3" points="67.11 60 52.52 60 70.01 30 84.59 30 67.11 60"/><polygon class="cls-2" points="23.35 60 8.76 60 26.25 30 40.83 30 23.35 60"/><polygon class="cls-3" points="37.93 60 23.35 60 40.83 30 55.42 30 37.93 60"/><polygon class="cls-2" points="-5.83 60 -20.41 60 -2.93 30 11.66 30 -5.83 60"/><polygon class="cls-3" points="8.76 60 -5.83 60 11.66 30 26.25 30 8.76 60"/><polygon class="cls-2" points="157.54 30 142.96 30 160.44 0 175.03 0 157.54 30"/><polygon class="cls-2" points="128.37 30 113.78 30 131.27 0 145.86 0 128.37 30"/><polygon class="cls-3" points="142.96 30 128.37 30 145.86 0 160.44 0 142.96 30"/><polygon class="cls-2" points="99.2 30 84.61 30 102.1 0 116.68 0 99.2 30"/><polygon class="cls-3" points="113.78 30 99.2 30 116.68 0 131.27 0 113.78 30"/><polygon class="cls-2" points="70.02 30 55.44 30 72.92 0 87.51 0 70.02 30"/><polygon class="cls-3" points="84.61 30 70.02 30 87.51 0 102.1 0 84.61 30"/><polygon class="cls-2" points="40.85 30 26.26 30 43.75 0 58.34 0 40.85 30"/><polygon class="cls-3" points="55.44 30 40.85 30 58.34 0 72.92 0 55.44 30"/><polygon class="cls-2" points="11.68 30 -2.91 30 14.58 0 29.16 0 11.68 30"/><polygon class="cls-3" points="26.26 30 11.68 30 29.16 0 43.75 0 26.26 30"/><polygon class="cls-3" points="-2.91 30 -17.5 30 -0.01 0 14.58 0 -2.91 30"/></pattern></defs><title>header-work</title><g id="desk"><polygon class="cls-4" points="67.38 31.07 74.75 31.07 67.4 21.27 74.75 21.27 67.38 31.07"/><polygon class="cls-4" points="67.38 21.27 74.75 21.27 67.4 11.46 74.75 11.46 67.38 21.27"/><polygon class="cls-4" points="67.38 11.46 74.75 11.46 67.4 1.66 74.75 1.66 67.38 11.46"/><polygon class="cls-4" points="67.38 40.87 74.75 40.87 67.4 31.07 74.75 31.07 67.38 40.87"/><polygon class="cls-4" points="67.23 50.68 74.6 50.68 67.25 40.87 74.6 40.87 67.23 50.68"/><polygon class="cls-4" points="67.23 60.48 74.6 60.48 67.25 50.68 74.6 50.68 67.23 60.48"/><polygon class="cls-4" points="67.23 70.28 74.6 70.28 67.25 60.48 74.6 60.48 67.23 70.28"/><polygon class="cls-4" points="67.38 80.09 74.75 80.09 67.4 70.28 74.75 70.28 67.38 80.09"/><polygon class="cls-4" points="67.38 89.89 74.75 89.89 67.4 80.09 74.75 80.09 67.38 89.89"/><polygon class="cls-4" points="67.38 99.69 74.75 99.69 67.4 89.89 74.75 89.89 67.38 99.69"/><polyline class="cls-5" points="67.09 99.93 67.09 0.99 75.04 1.06 75.04 100"/><polygon class="cls-6" points="125.59 14.44 125.59 20.56 142.15 14.45 142.15 20.56 125.59 14.44"/><polygon class="cls-6" points="142.15 14.31 142.15 20.44 158.7 14.33 158.7 20.44 142.15 14.31"/><polygon class="cls-6" points="109.04 14.44 109.04 20.56 125.59 14.45 125.59 20.56 109.04 14.44"/><polygon class="cls-6" points="92.49 14.31 92.49 20.44 109.04 14.33 109.04 20.44 92.49 14.31"/><polygon class="cls-6" points="36.43 14.44 36.43 20.56 52.98 14.45 52.98 20.56 36.43 14.44"/><polyline class="cls-7" points="75.52 20.81 92.49 14.19 158.8 14.19 172.36 20.81 36.2 20.81 36.2 14.44 52.98 14.44 67.09 20.81"/><line class="cls-8" x1="131.3" y1="28.47" x2="131.3" y2="23.11"/><line class="cls-8" x1="134.37" y1="28.47" x2="134.37" y2="23.11"/><rect class="cls-9" x="129.05" y="22.17" width="7.58" height="1.89"/><path class="cls-9" d="M130.52,27.34h4.62a0,0,0,0,1,0,0v0a1.89,1.89,0,0,1-1.89,1.89h-.84a1.89,1.89,0,0,1-1.89-1.89v0a0,0,0,0,1,0,0Z"/><polygon class="cls-9" points="85.49 35.16 78.72 35.16 78.72 21.99 89.36 21.99 89.36 28.57 85.49 35.16"/><polygon class="cls-10" points="85.31 34.34 84.02 34.34 84.02 24.36 88.7 24.36 88.7 28.57 85.31 34.34"/><path class="cls-11" d="M132.83,43.15A3.79,3.79,0,0,1,129,39.36V33.55h7.58v5.81A3.79,3.79,0,0,1,132.83,43.15Z"/><polyline class="cls-8" points="129.05 33.55 132.83 30.7 132.83 28.68"/><line class="cls-8" x1="136.62" y1="33.55" x2="132.83" y2="30.7"/><rect class="cls-9" x="35.79" y="22.93" width="17.19" height="6.54"/><polyline class="cls-12" points="36.2 14.44 67.09 0.99 75.04 1.06 133.87 14.31"/><polygon class="cls-13" points="320.77 80.24 320.77 81.47 319.61 82.3 319.95 83.16 322.3 83.97 321.61 86.25 318.77 88.47 312.25 88.47 315.94 77.39 320.77 80.24"/><polygon class="cls-14" points="319.29 83.16 318.94 82.3 320.11 81.47 320.11 80.24 315.92 77.77 315.94 77.39 320.77 80.24 320.77 81.47 319.61 82.3 319.95 83.16 322.3 83.97 321.61 86.25 320.94 86.25 321.63 83.97 319.29 83.16"/><polygon points="340.05 94.82 327.94 94.82 327.27 95.82 312.61 95.82 312.31 94.98 288.95 94.98 288.95 87.94 335.21 87.94 340.05 94.82"/><rect class="cls-15" x="314.45" y="91.33" width="9.82" height="5.54" transform="translate(638.72 188.19) rotate(-180)"/><rect class="cls-16" x="321.87" y="91.33" width="0.57" height="5.54" transform="translate(644.3 188.19) rotate(-180)"/><rect class="cls-16" x="316.28" y="91.33" width="0.57" height="5.54" transform="translate(633.14 188.19) rotate(-180)"/><rect class="cls-13" x="324.81" y="91.87" width="1.92" height="3.72" transform="translate(651.54 187.46) rotate(-180)"/><polygon class="cls-16" points="324.99 95.03 326.05 94.26 326.5 92.11 324.99 92.11 324.99 95.03"/><path class="cls-13" d="M337.58,95.42h3.9a.79.79,0,0,0,.76-.81V90.79H336v.41Z"/><rect class="cls-13" x="327.94" y="77.86" width="4.46" height="10.77" transform="translate(660.34 166.49) rotate(-180)"/><polygon class="cls-14" points="330.97 86.01 332.02 77.86 332.4 77.86 332.4 88.63 327.94 88.63 327.94 87.97 330.97 86.01"/><path class="cls-13" d="M327.94,77.39h12.61l-.76-1.45a.92.92,0,0,0-.85-.55h-11Z"/><path class="cls-16" d="M338.94,75.39a.92.92,0,0,1,.8.46.92.92,0,0,0-.46-.13h-11v1.67h-.33v-2Z"/><path class="cls-13" d="M340.16,77.86l1.5,6.37v6H336a5.75,5.75,0,0,0-3.15-1.63V77.86Z"/><path class="cls-14" d="M341.56,83.81l.1.42v6H336a5.75,5.75,0,0,0-3.15-1.63l2.33-3.21Z"/><rect class="cls-16" x="333.36" y="78.19" width="4.21" height="5.11" transform="translate(670.94 161.5) rotate(-180)"/><polygon class="cls-16" points="341.01 83.3 338.03 83.3 338.03 78.19 339.81 78.19 341.01 83.3"/><rect x="325.39" y="75.39" width="1.82" height="7.75" transform="translate(652.6 158.52) rotate(-180)"/><polygon class="cls-15" points="327.21 75.39 327.21 75.72 325.72 75.72 325.72 83.14 325.39 83.14 325.39 75.39 327.21 75.39"/><rect x="325.05" y="82.94" width="2.5" height="6.61" transform="translate(652.6 172.49) rotate(-180)"/><polygon class="cls-15" points="327.55 82.94 327.55 83.44 325.55 83.44 325.55 89.55 325.05 89.55 325.05 82.94 327.55 82.94"/><polygon points="325.64 75.41 326.96 75.41 326.46 73.17 325.64 73.17 325.64 75.41"/><rect x="281.62" y="85.97" width="8.4" height="3.47" transform="translate(571.65 175.41) rotate(-180)"/><circle class="cls-15" cx="324.82" cy="88.47" r="1.47"/><polygon class="cls-14" points="317.17 89.11 317.17 79.22 318 79.89 318 89.44 312.13 89.44 312.4 89.11 317.17 89.11"/><polygon class="cls-15" points="279.42 69.7 286.41 69.7 288.45 70.77 286.79 76.35 279.42 69.7"/><polygon class="cls-13" points="316.43 75.81 308.95 71.52 305.11 70.43 287.5 70.43 284.58 79.51 300.03 89.09 303.87 89.94 312.36 89.94 315.24 85.93 316.59 80.92 316.43 75.81"/><polygon class="cls-15" points="279.74 90.38 284.04 90.38 284.87 81.47 278.9 81.47 279.74 90.38"/><circle class="cls-13" cx="319.95" cy="77.55" r="3.36"/><polygon class="cls-13" points="298.13 89.94 285.41 79.51 282.42 78.85 281.92 79.89 290.02 89.94 298.13 89.94"/><polygon class="cls-14" points="290.29 88.13 297.05 89.11 298.13 89.94 290.02 89.94 281.92 79.89 282.04 79.62 290.29 88.13"/><path class="cls-14" d="M316.59,77.55A3.36,3.36,0,1,0,320,74.2,3.36,3.36,0,0,0,316.59,77.55Zm.58,0A2.78,2.78,0,1,1,320,80.33,2.78,2.78,0,0,1,317.17,77.55Z"/><polygon class="cls-14" points="299.37 87.43 303.2 88.27 311.69 88.27 314.57 84.26 315.93 79.25 315.8 75.45 316.43 75.81 316.59 80.92 315.24 85.93 312.36 89.94 303.87 89.94 300.03 89.09 284.58 79.51 284.92 78.47 299.37 87.43"/><rect class="cls-16" x="302.65" y="70.6" width="3.92" height="19.28" transform="translate(575.47 241.06) rotate(-164.06)"/><rect x="317.69" y="85.76" width="4.91" height="4.18" transform="translate(640.29 175.7) rotate(-180)"/><rect x="317.69" y="84.39" width="2.45" height="1.37" transform="translate(637.84 170.15) rotate(-180)"/><circle class="cls-15" cx="307.11" cy="95.82" r="4.16"/><path class="cls-17" d="M312.88,95.82a5.77,5.77,0,0,0-11.53,0"/><circle class="cls-3" cx="307.11" cy="95.82" r="2.55"/><circle class="cls-18" cx="307.11" cy="95.82" r="1.59"/><circle class="cls-15" cx="307.11" cy="95.82" r="0.97"/><circle class="cls-15" cx="295.58" cy="95.82" r="4.16"/><path class="cls-17" d="M301.35,95.82a5.77,5.77,0,1,0-11.53,0"/><circle class="cls-3" cx="295.58" cy="95.82" r="2.55"/><circle class="cls-18" cx="295.58" cy="95.82" r="1.59"/><circle class="cls-15" cx="295.58" cy="95.82" r="0.97"/><circle class="cls-15" cx="331.94" cy="95.84" r="4.16"/><path class="cls-17" d="M337.7,95.84a5.77,5.77,0,0,0-9.36-4.51"/><circle class="cls-3" cx="331.94" cy="95.84" r="2.55"/><circle class="cls-18" cx="331.94" cy="95.84" r="1.59"/><circle class="cls-15" cx="331.94" cy="95.84" r="0.97"/><path class="cls-2" d="M157.94,49.67V99.88h25.77V79.26h12.8V99.88h24.26V49.67ZM170.48,91h-7.94V81.85h7.94Zm11,0h-7.94V81.85h7.94Zm25.63,0h-7.94V81.85h7.94Zm10.72,0h-7.94V81.85h7.94ZM173.58,56h7.94v9.17h-7.94Zm-11,0h7.94v9.17h-7.94Z"/><rect class="cls-15" x="144.59" y="97.48" width="130.09" height="2.52"/><rect class="cls-15" x="144.59" y="72.08" width="89.08" height="2.52"/><rect class="cls-15" x="144.59" y="47.4" width="89.08" height="2.52"/><polygon class="cls-19" points="225.2 61.95 221.21 61.95 225.19 74.21 221.21 74.21 225.2 61.95"/><polygon class="cls-19" points="225.2 74.21 221.21 74.21 225.19 86.47 221.21 86.47 225.2 74.21"/><polygon class="cls-19" points="225.2 86.47 221.21 86.47 225.19 98.73 221.21 98.73 225.2 86.47"/><polygon class="cls-19" points="225.2 49.69 221.21 49.69 225.19 61.95 221.21 61.95 225.2 49.69"/><polygon class="cls-19" points="225.28 37.43 221.29 37.43 225.27 49.69 221.29 49.69 225.28 37.43"/><polygon class="cls-19" points="225.28 25.17 221.29 25.17 225.27 37.43 221.29 37.43 225.28 25.17"/><polyline class="cls-20" points="225.36 24.45 225.36 99.57 221.06 99.47 221.06 24.36"/><polygon class="cls-19" points="157.46 61.95 153.47 61.95 157.45 74.21 153.47 74.21 157.46 61.95"/><polygon class="cls-19" points="157.46 74.21 153.47 74.21 157.45 86.47 153.47 86.47 157.46 74.21"/><polygon class="cls-19" points="157.46 86.47 153.47 86.47 157.45 98.73 153.47 98.73 157.46 86.47"/><polygon class="cls-19" points="157.46 49.69 153.47 49.69 157.45 61.95 153.47 61.95 157.46 49.69"/><polyline class="cls-20" points="157.61 48.75 157.61 99.57 153.31 99.47 153.31 48.66"/><rect class="cls-14" x="215.23" y="92.79" width="4.82" height="1.8"/><rect class="cls-14" x="204.9" y="92.79" width="4.82" height="1.8"/><rect class="cls-14" x="215.23" y="95.05" width="4.82" height="1.8"/><rect class="cls-14" x="210.04" y="95.05" width="4.82" height="1.8"/><rect class="cls-14" x="203.7" y="69.64" width="4.82" height="1.8"/><rect class="cls-14" x="198.5" y="69.64" width="4.82" height="1.8"/><rect class="cls-14" x="198.5" y="67.45" width="4.82" height="1.8"/><rect class="cls-14" x="193.31" y="67.45" width="4.82" height="1.8"/><rect class="cls-14" x="164.01" y="50.32" width="4.82" height="1.8"/><rect class="cls-14" x="158.81" y="50.32" width="4.82" height="1.8"/><rect class="cls-14" x="169.21" y="66.73" width="4.82" height="1.8"/><rect class="cls-15" x="202.04" y="34.9" width="10.54" height="9.72"/><polygon class="cls-21" points="207.31 32.12 201.56 34.9 213.06 34.9 207.31 32.12"/><line class="cls-22" x1="202.69" y1="44.37" x2="211.93" y2="44.37"/><line class="cls-22" x1="202.41" y1="44.4" x2="205.72" y2="47.59"/><line class="cls-22" x1="202.39" y1="47.61" x2="205.75" y2="44.38"/><line class="cls-22" x1="205.65" y1="44.4" x2="208.97" y2="47.59"/><line class="cls-22" x1="205.63" y1="47.61" x2="208.99" y2="44.38"/><line class="cls-22" x1="208.9" y1="44.4" x2="212.21" y2="47.59"/><line class="cls-22" x1="208.87" y1="47.61" x2="212.23" y2="44.38"/><path class="cls-15" d="M356.76,88.89h0a.39.39,0,0,1,.39.39V100a0,0,0,0,1,0,0h-.77a0,0,0,0,1,0,0V89.27a.39.39,0,0,1,.39-.39Z"/><path class="cls-15" d="M372.86,88.89h0a.39.39,0,0,1,.39.39V100a0,0,0,0,1,0,0h-.77a0,0,0,0,1,0,0V89.27a.39.39,0,0,1,.39-.39Z"/><rect class="cls-23" x="353.92" y="90.13" width="22.02" height="4.86"/><rect class="cls-15" x="356.57" y="97.53" width="16.28" height="0.42"/><path class="cls-15" d="M247.41,88.4h13.9a0,0,0,0,1,0,0V92.9a1.65,1.65,0,0,1-1.65,1.65h-10.6a1.65,1.65,0,0,1-1.65-1.65V88.4A0,0,0,0,1,247.41,88.4Z"/><polygon class="cls-24" points="248.62 88.46 248.62 100 260.11 88.49 260.11 100 248.62 88.46"/><path class="cls-25" d="M251.43,92.25h5.87a0,0,0,0,1,0,0v2.17a1.18,1.18,0,0,1-1.18,1.18h-3.51a1.18,1.18,0,0,1-1.18-1.18V92.25A0,0,0,0,1,251.43,92.25Z"/><path class="cls-26" d="M247.79,66.86h13.15a1,1,0,0,1,1,1V86a7.59,7.59,0,0,1-7.59,7.59h0A7.59,7.59,0,0,1,246.77,86V67.88A1,1,0,0,1,247.79,66.86Z"/><path class="cls-16" d="M260.94,66.86H247.79a1,1,0,0,0-1,1v.21H259.7a1,1,0,0,1,1,1V87.22a7.55,7.55,0,0,1-1.65,4.71A7.57,7.57,0,0,0,262,86V67.88A1,1,0,0,0,260.94,66.86Z"/><path class="cls-15" d="M254.36,93.89a7.91,7.91,0,0,1-7.9-7.9V67.88a1.33,1.33,0,0,1,1.33-1.33h13.15a1.33,1.33,0,0,1,1.33,1.33V86A7.91,7.91,0,0,1,254.36,93.89Zm-6.57-26.72a.71.71,0,0,0-.71.71V86a7.28,7.28,0,0,0,14.57,0V67.88a.71.71,0,0,0-.71-.71Z"/><rect class="cls-15" x="246.77" y="81.56" width="15.19" height="2.96"/><rect class="cls-15" x="246.9" y="73.75" width="15.19" height="2.96"/><circle class="cls-15" cx="97.14" cy="89.22" r="4.22"/><path class="cls-16" d="M97.14,85a4.2,4.2,0,0,0-3.36,1.69,4.2,4.2,0,0,1,5.88,5.88A4.21,4.21,0,0,0,97.14,85Z"/><circle class="cls-15" cx="106.14" cy="88.06" r="6.56"/><path class="cls-16" d="M106.14,81.51a6.54,6.54,0,0,0-5,2.36,6.55,6.55,0,0,1,9.23,9.23,6.55,6.55,0,0,0-4.2-11.59Z"/><circle class="cls-15" cx="115.92" cy="88.72" r="5.9"/><path class="cls-16" d="M115.92,82.81A5.9,5.9,0,0,0,111,85.46a5.9,5.9,0,0,1,8.18,8.18,5.9,5.9,0,0,0-3.25-10.82Z"/><polygon class="cls-13" points="120.02 100 94.91 100 89.88 89.28 125.05 89.28 120.02 100"/><polygon class="cls-14" points="119.22 98.41 94.91 100 120.02 100 125.05 89.28 91.12 91.89 91.66 93.07 122.19 93.75 119.22 98.41"/><rect class="cls-13" x="89.88" y="89.28" width="35.16" height="3.06"/><polygon class="cls-16" points="89.88 89.28 89.88 90.08 123.25 90.5 124.25 92.34 125.05 92.34 125.05 89.28 89.88 89.28"/><path class="cls-15" d="M14,88.89h0a.39.39,0,0,1,.39.39V100a0,0,0,0,1,0,0h-.77a0,0,0,0,1,0,0V89.27A.39.39,0,0,1,14,88.89Z"/><path class="cls-15" d="M30.1,88.89h0a.39.39,0,0,1,.39.39V100a0,0,0,0,1,0,0h-.77a0,0,0,0,1,0,0V89.27a.39.39,0,0,1,.39-.39Z"/><rect class="cls-27" x="11.17" y="90.13" width="22.02" height="4.86"/><rect class="cls-15" x="13.82" y="97.53" width="16.28" height="0.42"/><line class="cls-28" x1="41.89" y1="75.41" x2="41.89" y2="100"/><circle class="cls-26" cx="35.88" cy="67.24" r="5.77"/><circle class="cls-29" cx="41.89" cy="62.81" r="5.77"/><circle class="cls-26" cx="45.5" cy="68.2" r="5.77"/><circle class="cls-26" cx="45.5" cy="74.45" r="5.77"/><circle class="cls-29" cx="36.82" cy="74.93" r="5.77"/><circle class="cls-29" cx="41.89" cy="79.3" r="5.77"/></g></svg>