<svg xmlns="http://www.w3.org/2000/svg" viewBox="0 0 380 90"><defs><style>.cls-1{fill:#333;}.cls-2{fill:#48a69c;}.cls-3{fill:#41958c;}.cls-4{fill:#e6e6e6;}.cls-5{fill:#2b393f;}.cls-6{fill:#f96673;}.cls-7{fill:#8f5fa3;}.cls-10,.cls-8,.cls-9{fill:#fff;}.cls-13,.cls-8{opacity:0.4;}.cls-9{opacity:0.3;}.cls-11{opacity:0.2;}.cls-12{opacity:0.1;}</style></defs><title>header-contact</title><g id="desk"><rect class="cls-1" x="344.18" y="67.32" width="3.96" height="22.68"/><circle class="cls-2" cx="338.5" cy="56.9" r="7.35"/><circle class="cls-3" cx="341.32" cy="64.26" r="7.35"/><circle class="cls-2" cx="350.76" cy="58.13" r="7.35"/><circle class="cls-2" cx="350.76" cy="66.1" r="7.35"/><circle class="cls-3" cx="343.4" cy="47.88" r="7.35"/><rect class="cls-1" x="201.07" y="65.66" width="3.88" height="24.34"/><circle class="cls-2" cx="195.52" cy="53.02" r="7.89"/><circle class="cls-3" cx="205.91" cy="48.42" r="7.89"/><circle class="cls-2" cx="209.41" cy="55.79" r="7.89"/><circle class="cls-2" cx="207.95" cy="64.34" r="7.89"/><circle class="cls-3" cx="198.74" cy="65" r="7.89"/><rect class="cls-1" x="229.24" y="71.81" width="3.19" height="18.19"/><circle class="cls-2" cx="224.69" cy="63.45" r="5.9"/><circle class="cls-3" cx="226.94" cy="70.17" r="5.9"/><circle class="cls-2" cx="235.15" cy="68.39" r="5.9"/><circle class="cls-3" cx="229.71" cy="56.87" r="5.9"/><circle class="cls-2" cx="234.09" cy="61.17" r="5.9"/><rect class="cls-1" x="105.81" y="64.69" width="4.79" height="25.31"/><circle class="cls-2" cx="99.65" cy="53.06" r="8.21"/><circle class="cls-3" cx="105.12" cy="45.54" r="8.21"/><circle class="cls-2" cx="113.33" cy="54.43" r="8.21"/><circle class="cls-3" cx="113.33" cy="63.32" r="8.21"/><circle class="cls-2" cx="102.39" cy="64.69" r="8.21"/><path class="cls-4" d="M295.34,13.25a11.65,11.65,0,0,0-23.29,0,71.29,71.29,0,0,1,23.29,0Z"/><path class="cls-5" d="M280.56,10.36A6.67,6.67,0,0,1,281.68,9c.2-.2.3-1,.15-1.12a4.5,4.5,0,0,1-1-.67.48.48,0,0,1,0-.45c.07-.15,0-.3.15-.45a20,20,0,0,1,1.8-.9c.15-.15.15-.3.37-.37a9.77,9.77,0,0,1,1.42-.52c.15,0,.6,0,.67.15a1.06,1.06,0,0,1,.15.45c0,.15,0,.3.15.3h.15s.22.07.15.37c0,.15.37.6.22.82a3.33,3.33,0,0,1-1,.9c-1,.37-1.74-.1-2.17.22-.15.11,0,.45-.07.75s-.23.59-.15.75.37.67.82.67a7.85,7.85,0,0,0,2.55-.75c.15-.22.37-1.65.52-2.1s.75-.75.9-.82.52-.37.67-.37a7.19,7.19,0,0,0,1-.37c.22-.07.3.15.22.22s-.52.17-1,.37a3.16,3.16,0,0,0-.75.45h.15a1.64,1.64,0,0,1,.52-.15c.22.07.07.52.07.52s.22.07.15.22c.22.07.22.15.22.22s-.37.07-.37.07l-.07.22h-.07c-.07,0-.07-.15-.07-.15a.56.56,0,0,0-.22.22c-.3-.07,0-.37,0-.37a2.72,2.72,0,0,0-.3.07.46.46,0,0,0-.45,0c-.52.52-.3,2.4-.45,2.47S284,11,284,11l.45,2.1h-4.64S280.42,10.64,280.56,10.36Z"/><path class="cls-6" d="M283.69,20.32c18.29,0,33.11,1,33.11,2.14,0-3-14.83-10.17-33.11-10.17s-33.11,7.19-33.11,10.17C250.58,21.28,265.4,20.32,283.69,20.32Z"/><ellipse class="cls-7" cx="283.69" cy="22.46" rx="33.11" ry="2.14"/><ellipse class="cls-8" cx="283.69" cy="22.42" rx="6.05" ry="0.39"/><polygon class="cls-9" points="295.15 90 272.23 90 277.64 22.42 289.74 22.42 295.15 90"/><polygon class="cls-9" points="287.53 90 264.61 90 277.64 22.42 289.74 22.42 287.53 90"/><polygon class="cls-10" points="149.22 89.22 150.82 89.22 150.82 79.78 148.41 79.78 149.22 89.22"/><polygon class="cls-11" points="149.22 89.22 150.82 89.22 150.82 79.78 148.41 79.78 149.22 89.22"/><rect class="cls-10" x="131.1" y="71.1" width="21.28" height="11.59" rx="5.79" ry="5.79"/><path class="cls-1" d="M135.65,77.48A4.07,4.07,0,0,0,139,71.1H136.9a5.79,5.79,0,0,0-5.2,3.25A4.07,4.07,0,0,0,135.65,77.48Z"/><path class="cls-11" d="M146.59,71.1H136.9a5.78,5.78,0,0,0-4.48,2.12,5.77,5.77,0,0,1,3.67-1.32h9.69a5.79,5.79,0,0,1,4.48,9.47,5.79,5.79,0,0,0-3.67-10.27Z"/><path class="cls-6" d="M141.74,82.69a2.95,2.95,0,1,0,5.89,0s0-.06,0-.1a5.81,5.81,0,0,1-1,.1Z"/><g class="cls-12"><path d="M143.72,82.65a2,2,0,1,0,3.91,0s0,0,0-.06a3.85,3.85,0,0,1-.69.06Z"/></g><path class="cls-1" d="M129.2,71.54a4.63,4.63,0,0,1-4.51-3.61,4.64,4.64,0,1,0,9,0A4.63,4.63,0,0,1,129.2,71.54Z"/><rect class="cls-10" x="125.55" y="70.52" width="7.29" height="12.7" rx="3.65" ry="3.65"/><path class="cls-11" d="M129.2,70.52a3.64,3.64,0,0,0-3.37,2.25,3.63,3.63,0,0,1,6.54,2.2v5.41a3.63,3.63,0,0,1-.28,1.39,3.61,3.61,0,0,0,.75-2.2V74.17A3.65,3.65,0,0,0,129.2,70.52Z"/><ellipse class="cls-10" cx="124.47" cy="71.99" rx="2.17" ry="1.23"/><ellipse class="cls-11" cx="124.72" cy="71.99" rx="1.45" ry="0.68"/><ellipse class="cls-10" cx="133.92" cy="71.99" rx="2.17" ry="1.23"/><ellipse class="cls-11" cx="133.68" cy="71.99" rx="1.45" ry="0.68"/><ellipse class="cls-1" cx="128.13" cy="75.78" rx="0.74" ry="0.92"/><ellipse class="cls-1" cx="130.27" cy="75.75" rx="0.74" ry="0.92"/><rect class="cls-6" x="125.1" y="79.23" width="8.19" height="4.6" rx="2.3" ry="2.3"/><path class="cls-12" d="M131,79.23H127.4a2.29,2.29,0,0,0-2,1.23,2.28,2.28,0,0,1,1.52-.59h3.59a2.3,2.3,0,0,1,2.3,2.3h0a2.27,2.27,0,0,1-.27,1.07,2.29,2.29,0,0,0-1.52-4Z"/><g class="cls-13"><ellipse class="cls-10" cx="127.42" cy="81.73" rx="0.66" ry="0.61"/><ellipse class="cls-10" cx="130.58" cy="81.73" rx="0.66" ry="0.61"/></g><polygon class="cls-10" points="146.58 90 148.19 90 149.35 80.94 146.58 79.92 146.58 90"/><polygon class="cls-10" points="134.44 90 136.04 90 136.04 81.96 133.83 81.12 134.44 90"/><rect class="cls-10" x="137.12" y="82.69" width="1.61" height="6.53"/><polygon class="cls-11" points="137.12 84.4 138.73 86.01 138.73 82.69 137.12 82.69 137.12 84.4"/><path class="cls-1" d="M142.4,71.1h3.82a0,0,0,0,1,0,0v3.54a1.51,1.51,0,0,1-1.51,1.51h-.8a1.51,1.51,0,0,1-1.51-1.51V71.1A0,0,0,0,1,142.4,71.1Z"/><path class="cls-1" d="M152.38,76.89a5.77,5.77,0,0,0-.48-2.31,3.94,3.94,0,0,0-1.11-.18,4,4,0,0,0-1.58,7.65A5.79,5.79,0,0,0,152.38,76.89Z"/><path class="cls-1" d="M136.84,80.55a1.9,1.9,0,0,0-.79,3.62V82.62a5.81,5.81,0,0,0,.85.07h1.82a1.84,1.84,0,0,0-1.87-2.14Z"/><polygon class="cls-10" points="59.89 89.33 58.5 89.33 58.5 81.18 60.58 81.18 59.89 89.33"/><polygon class="cls-11" points="60.09 87.02 58.5 86.22 58.5 81.18 60.58 81.18 60.09 87.02"/><polygon class="cls-10" points="72.64 90 71.26 90 71.26 83.07 73.16 82.33 72.64 90"/><rect class="cls-10" x="57.16" y="73.69" width="18.36" height="10" rx="5" ry="5" transform="translate(132.68 157.38) rotate(-180)"/><path class="cls-11" d="M70.52,73.69H62.16a5,5,0,0,0-2.81.86H68a5,5,0,0,1,2.81,9.14,5,5,0,0,0-.26-10Z"/><path class="cls-1" d="M71.6,79.19a3.51,3.51,0,0,1-2.9-5.5h1.82A5,5,0,0,1,75,76.49,3.51,3.51,0,0,1,71.6,79.19Z"/><path class="cls-6" d="M66.34,83.69a2.54,2.54,0,1,1-5.09,0s0-.06,0-.08a5,5,0,0,0,.89.08Z"/><rect class="cls-10" x="73.83" y="76.02" width="6.29" height="10.96" rx="3.15" ry="3.15"/><g class="cls-11"><path d="M77,76A3.14,3.14,0,0,0,74.08,78a3.14,3.14,0,0,1,5.64,1.9v4.67a3.13,3.13,0,0,1-.24,1.2,3.12,3.12,0,0,0,.65-1.9V79.16A3.15,3.15,0,0,0,77,76Z"/></g><ellipse class="cls-10" cx="72.9" cy="77.29" rx="1.87" ry="1.06"/><ellipse class="cls-11" cx="73.11" cy="77.29" rx="1.25" ry="0.59"/><ellipse class="cls-10" cx="81.06" cy="77.29" rx="1.87" ry="1.06"/><ellipse class="cls-11" cx="80.84" cy="77.29" rx="1.25" ry="0.59"/><ellipse class="cls-1" cx="76.05" cy="80.56" rx="0.64" ry="0.79"/><ellipse class="cls-1" cx="77.9" cy="80.53" rx="0.64" ry="0.79"/><rect class="cls-6" x="73.44" y="83.54" width="7.07" height="3.97" rx="1.98" ry="1.98"/><path class="cls-12" d="M78.53,83.54h-3.1a2,2,0,0,0-1.75,1.06,2,2,0,0,1,1.31-.5h3.1a2,2,0,0,1,2,2h0a2,2,0,0,1-.24.92,2,2,0,0,0-1.31-3.46Z"/><g class="cls-13"><ellipse class="cls-10" cx="75.44" cy="85.69" rx="0.57" ry="0.53"/><ellipse class="cls-10" cx="78.17" cy="85.69" rx="0.57" ry="0.53"/></g><polygon class="cls-10" points="62.16 90 60.77 90 59.77 82.18 62.16 81.3 62.16 90"/><rect class="cls-10" x="68.94" y="83.69" width="1.39" height="5.64" transform="translate(139.27 173.02) rotate(-180)"/><polygon class="cls-11" points="70.33 86.2 68.94 85.52 68.94 83.69 70.33 83.69 70.33 86.2"/><path class="cls-1" d="M65,79.38h.83a1.23,1.23,0,0,1,1.23,1.23v3.12a0,0,0,0,1,0,0H63.8a0,0,0,0,1,0,0V80.61A1.23,1.23,0,0,1,65,79.38Z"/><path class="cls-1" d="M70.57,81.85A1.64,1.64,0,0,1,71.26,85V83.63a5,5,0,0,1-.74.06H69a1.58,1.58,0,0,1,1.62-1.84Z"/><path class="cls-1" d="M59.25,79.44a1.74,1.74,0,0,0-1.74-1.74l-.26,0a5,5,0,0,0-.09,1,5,5,0,0,0,.65,2.46A1.73,1.73,0,0,0,59.25,79.44Z"/><circle class="cls-1" cx="62.15" cy="75.44" r="1.18"/><rect class="cls-1" x="21.99" y="71.94" width="3.16" height="18.06"/><circle class="cls-2" cx="17.47" cy="63.64" r="5.86"/><circle class="cls-3" cx="23.57" cy="59.15" r="5.86"/><circle class="cls-2" cx="27.23" cy="64.61" r="5.86"/><circle class="cls-2" cx="27.23" cy="70.96" r="5.86"/><circle class="cls-3" cx="20.4" cy="71.45" r="5.86"/><rect class="cls-1" x="53.96" y="68.82" width="4.81" height="21.18"/><circle class="cls-2" cx="49.85" cy="57.82" r="6.87"/><circle class="cls-3" cx="53.79" cy="51.1" r="6.87"/><circle class="cls-2" cx="63.28" cy="57.97" r="6.87"/><circle class="cls-2" cx="60.03" cy="64.69" r="6.87"/><circle class="cls-3" cx="52.65" cy="68.24" r="6.87"/><rect class="cls-1" x="370.07" y="77.86" width="2.01" height="12.14"/><circle class="cls-2" cx="367.34" cy="71.55" r="3.94"/><circle class="cls-3" cx="374.01" cy="71.55" r="3.94"/><circle class="cls-2" cx="369.6" cy="66.93" r="3.94"/><circle class="cls-2" cx="373.54" cy="77.2" r="3.94"/><circle class="cls-3" cx="368.15" cy="75.49" r="3.94"/><polygon class="cls-9" points="302.77 90 279.85 90 277.64 22.42 289.74 22.42 302.77 90"/><polygon class="cls-10" points="293.54 67.48 294.89 67.48 294.89 59.54 292.86 59.54 293.54 67.48"/><polygon class="cls-11" points="293.54 67.48 294.89 67.48 294.89 59.54 292.86 59.54 293.54 67.48"/><path class="cls-10" d="M291.33,52.24h-8.15a4.86,4.86,0,0,0-2.54,9l.47,6.88h1.35V61.91a4.84,4.84,0,0,0,.72.07h8.15v6.15h1.35l.86-6.7a4.86,4.86,0,0,0-2.2-9.19Z"/><path class="cls-11" d="M291.33,52.24h-8.15A4.86,4.86,0,0,0,279.41,54a4.85,4.85,0,0,1,3.09-1.11h8.15a4.87,4.87,0,0,1,3.77,8,4.87,4.87,0,0,0-3.09-8.64Z"/><path class="cls-6" d="M287.25,62a2.48,2.48,0,1,0,5,0s0-.05,0-.08a4.88,4.88,0,0,1-.87.08Z"/><path class="cls-1" d="M276.71,52.61a3.89,3.89,0,0,1-3.79-3,3.9,3.9,0,1,0,7.59,0A3.89,3.89,0,0,1,276.71,52.61Z"/><rect class="cls-10" x="273.64" y="51.75" width="6.13" height="10.68" rx="3.07" ry="3.07"/><g class="cls-11"><path d="M276.71,51.75a3.06,3.06,0,0,0-2.83,1.89,3.06,3.06,0,0,1,5.5,1.85V60a3.05,3.05,0,0,1-.23,1.17,3,3,0,0,0,.63-1.85V54.82A3.07,3.07,0,0,0,276.71,51.75Z"/></g><path class="cls-1" d="M278.44,54.45h1.33a0,0,0,0,1,0,0V58.1a0,0,0,0,1,0,0h-1.33a1.83,1.83,0,0,1-1.83-1.83v0A1.83,1.83,0,0,1,278.44,54.45Z"/><ellipse class="cls-10" cx="272.73" cy="52.99" rx="1.82" ry="1.04"/><ellipse class="cls-11" cx="272.94" cy="52.99" rx="1.22" ry="0.57"/><ellipse class="cls-10" cx="280.68" cy="52.99" rx="1.82" ry="1.04"/><ellipse class="cls-11" cx="280.47" cy="52.99" rx="1.22" ry="0.57"/><ellipse class="cls-1" cx="275.35" cy="56.18" rx="1.04" ry="1.12"/><ellipse class="cls-10" cx="275.35" cy="56.18" rx="0.72" ry="0.78"/><ellipse class="cls-1" cx="275.35" cy="56.18" rx="0.42" ry="0.46"/><ellipse class="cls-1" cx="277.87" cy="56.18" rx="1.04" ry="1.12"/><ellipse class="cls-10" cx="277.87" cy="56.18" rx="0.72" ry="0.77"/><ellipse class="cls-1" cx="277.87" cy="56.18" rx="0.4" ry="0.43"/><rect class="cls-6" x="273.26" y="59.08" width="6.89" height="3.86" rx="1.93" ry="1.93"/><path class="cls-12" d="M278.22,59.08h-3a1.92,1.92,0,0,0-1.7,1,1.92,1.92,0,0,1,1.28-.49h3a1.93,1.93,0,0,1,1.93,1.93h0a1.91,1.91,0,0,1-.23.9,1.92,1.92,0,0,0-1.28-3.37Z"/><g class="cls-13"><ellipse class="cls-10" cx="275.21" cy="61.18" rx="0.56" ry="0.52"/><ellipse class="cls-10" cx="277.87" cy="61.18" rx="0.56" ry="0.52"/></g><rect class="cls-10" x="283.37" y="61.98" width="1.35" height="5.49"/><polygon class="cls-11" points="283.37 63.42 284.72 64.77 284.72 61.98 283.37 61.98 283.37 63.42"/><path class="cls-1" d="M284.67,52.24h4.54a0,0,0,0,1,0,0v4.31a1.68,1.68,0,0,1-1.68,1.68h-1.17a1.68,1.68,0,0,1-1.68-1.68V52.24A0,0,0,0,1,284.67,52.24Z"/><path class="cls-1" d="M292.8,62a1.94,1.94,0,1,0-3.88,0h2.4v1.88A1.94,1.94,0,0,0,292.8,62Z"/><path class="cls-1" d="M284.2,59.22h.71a1,1,0,0,1,1,1V62a0,0,0,0,1,0,0h-2.76a0,0,0,0,1,0,0V60.25a1,1,0,0,1,1-1Z"/></g></svg>