<svg xmlns="http://www.w3.org/2000/svg" viewBox="0 0 380 100"><defs><style>.cls-1{fill:#cc543e;}.cls-2{fill:#a9543e;}</style></defs><title>header-terms</title><g id="desk"><path class="cls-1" d="M351.67,42.66h13.16a0,0,0,0,1,0,0V93.42a6.58,6.58,0,0,1-6.58,6.58h0a6.58,6.58,0,0,1-6.58-6.58V42.66a0,0,0,0,1,0,0Z" transform="translate(716.49 142.66) rotate(-180)"/><path class="cls-1" d="M342.66,48.46h5.74a0,0,0,0,1,0,0V59.78a2.87,2.87,0,0,1-2.87,2.87h0a2.87,2.87,0,0,1-2.87-2.87V48.46A0,0,0,0,1,342.66,48.46Z" transform="translate(691.07 111.1) rotate(-180)"/><path class="cls-1" d="M341.4,71.33h5.74a0,0,0,0,1,0,0v6.49a2.87,2.87,0,0,1-2.87,2.87h0a2.87,2.87,0,0,1-2.87-2.87V71.33A0,0,0,0,1,341.4,71.33Z" transform="translate(688.54 152.02) rotate(-180)"/><path class="cls-1" d="M369,56.19h6.42a0,0,0,0,1,0,0v11a3.21,3.21,0,0,1-3.21,3.21h0A3.21,3.21,0,0,1,369,67.17v-11A0,0,0,0,1,369,56.19Z" transform="translate(744.45 126.58) rotate(-180)"/><path class="cls-1" d="M341.4,80.69h14.12a2.73,2.73,0,0,1,2.73,2.73v2.45a0,0,0,0,1,0,0H341.4a0,0,0,0,1,0,0V80.69A0,0,0,0,1,341.4,80.69Z" transform="translate(699.65 166.56) rotate(-180)"/><path class="cls-1" d="M342.66,62.64H355a3.24,3.24,0,0,1,3.24,3.24v2.26a0,0,0,0,1,0,0H342.66a0,0,0,0,1,0,0V62.64A0,0,0,0,1,342.66,62.64Z" transform="translate(700.91 130.8) rotate(-180)"/><path class="cls-1" d="M360.94,70.38h14.5a0,0,0,0,1,0,0v5.51a0,0,0,0,1,0,0H358.25a0,0,0,0,1,0,0V73.08A2.69,2.69,0,0,1,360.94,70.38Z" transform="translate(733.69 146.27) rotate(-180)"/><path class="cls-2" d="M313.77,67.3h7.51a0,0,0,0,1,0,0V96.25a3.75,3.75,0,0,1-3.75,3.75h0a3.75,3.75,0,0,1-3.75-3.75V67.3A0,0,0,0,1,313.77,67.3Z" transform="translate(635.04 167.3) rotate(-180)"/><path class="cls-2" d="M308.63,70.6h3.27a0,0,0,0,1,0,0v6.45a1.64,1.64,0,0,1-1.64,1.64h0a1.64,1.64,0,0,1-1.64-1.64V70.6A0,0,0,0,1,308.63,70.6Z" transform="translate(620.54 149.3) rotate(-180)"/><path class="cls-2" d="M307.91,83.65h3.27a0,0,0,0,1,0,0v3.7A1.64,1.64,0,0,1,309.55,89h0a1.64,1.64,0,0,1-1.64-1.64v-3.7A0,0,0,0,1,307.91,83.65Z" transform="translate(619.09 172.63) rotate(-180)"/><path class="cls-2" d="M323.66,75h3.66a0,0,0,0,1,0,0v6.26a1.83,1.83,0,0,1-1.83,1.83h0a1.83,1.83,0,0,1-1.83-1.83V75a0,0,0,0,1,0,0Z" transform="translate(650.99 158.12) rotate(-180)"/><path class="cls-2" d="M307.91,89H316a1.56,1.56,0,0,1,1.56,1.56v1.4a0,0,0,0,1,0,0h-9.61a0,0,0,0,1,0,0V89A0,0,0,0,1,307.91,89Z" transform="translate(625.43 180.93) rotate(-180)"/><path class="cls-2" d="M308.63,78.69h7a1.85,1.85,0,0,1,1.85,1.85v1.29a0,0,0,0,1,0,0h-8.89a0,0,0,0,1,0,0V78.69A0,0,0,0,1,308.63,78.69Z" transform="translate(626.15 160.53) rotate(-180)"/><path class="cls-2" d="M319.06,83.11h8.27a0,0,0,0,1,0,0v3.14a0,0,0,0,1,0,0h-9.81a0,0,0,0,1,0,0v-1.6A1.54,1.54,0,0,1,319.06,83.11Z" transform="translate(644.85 169.35) rotate(-180)"/><path class="cls-1" d="M95.27,32.2h11.07a0,0,0,0,1,0,0V94.46a5.54,5.54,0,0,1-5.54,5.54h0a5.54,5.54,0,0,1-5.54-5.54V32.2a0,0,0,0,1,0,0Z" transform="translate(201.62 132.2) rotate(-180)"/><path class="cls-1" d="M85.57,34.27h6.79a0,0,0,0,1,0,0V47.65A3.39,3.39,0,0,1,89,51h0a3.39,3.39,0,0,1-3.39-3.39V34.27A0,0,0,0,1,85.57,34.27Z" transform="translate(177.93 85.32) rotate(-180)"/><path class="cls-1" d="M80.89,64.51h6.79a0,0,0,0,1,0,0v7.67a3.39,3.39,0,0,1-3.39,3.39h0a3.39,3.39,0,0,1-3.39-3.39V64.51A0,0,0,0,1,80.89,64.51Z" transform="translate(168.56 140.08) rotate(-180)"/><path class="cls-1" d="M110.35,67.33h7.6a0,0,0,0,1,0,0v13a3.8,3.8,0,0,1-3.8,3.8h0a3.8,3.8,0,0,1-3.8-3.8v-13a0,0,0,0,1,0,0Z" transform="translate(228.3 151.44) rotate(-180)"/><path class="cls-1" d="M80.89,75.57H97.58a3.23,3.23,0,0,1,3.23,3.23v2.9a0,0,0,0,1,0,0H80.89a0,0,0,0,1,0,0V75.57a0,0,0,0,1,0,0Z" transform="translate(181.69 157.27) rotate(-180)"/><path class="cls-1" d="M85.57,51h14.59A3.83,3.83,0,0,1,104,54.88v2.67a0,0,0,0,1,0,0H85.57a0,0,0,0,1,0,0V51A0,0,0,0,1,85.57,51Z" transform="translate(189.57 108.6) rotate(-180)"/><path class="cls-1" d="M100.81,84.11h17.14a0,0,0,0,1,0,0v6.51a0,0,0,0,1,0,0H97.62a0,0,0,0,1,0,0V87.29A3.19,3.19,0,0,1,100.81,84.11Z" transform="translate(215.57 174.72) rotate(-180)"/><path class="cls-1" d="M112.76,43.48h0a3.39,3.39,0,0,1,3.39,3.39v7.67a0,0,0,0,1,0,0h-6.79a0,0,0,0,1,0,0V46.87A3.39,3.39,0,0,1,112.76,43.48Z"/><path class="cls-1" d="M96.23,54.55h19.92a0,0,0,0,1,0,0v2.9a3.23,3.23,0,0,1-3.23,3.23H96.23a0,0,0,0,1,0,0V54.55A0,0,0,0,1,96.23,54.55Z"/><path class="cls-2" d="M54.2,73h6.2a0,0,0,0,1,0,0V96.9a3.1,3.1,0,0,1-3.1,3.1h0a3.1,3.1,0,0,1-3.1-3.1V73a0,0,0,0,1,0,0Z" transform="translate(114.61 172.97) rotate(-180)"/><path class="cls-2" d="M50,76.41h2.7a0,0,0,0,1,0,0v5.33a1.35,1.35,0,0,1-1.35,1.35h0A1.35,1.35,0,0,1,50,81.75V76.41A0,0,0,0,1,50,76.41Z" transform="translate(102.63 159.51) rotate(-180)"/><path class="cls-2" d="M50.07,88.61h2.7a0,0,0,0,1,0,0v3.06A1.35,1.35,0,0,1,51.42,93h0a1.35,1.35,0,0,1-1.35-1.35V88.61A0,0,0,0,1,50.07,88.61Z" transform="translate(102.85 181.63) rotate(-180)"/><path class="cls-2" d="M62.38,84.3h3a0,0,0,0,1,0,0v5.17A1.51,1.51,0,0,1,63.9,91h0a1.51,1.51,0,0,1-1.51-1.51V84.3A0,0,0,0,1,62.38,84.3Z" transform="translate(127.79 175.29) rotate(-180)"/><path class="cls-2" d="M50.07,93h6.65A1.29,1.29,0,0,1,58,94.31v1.16a0,0,0,0,1,0,0H50.07a0,0,0,0,1,0,0V93A0,0,0,0,1,50.07,93Z" transform="translate(108.08 188.48) rotate(-180)"/><path class="cls-2" d="M50,82.39h5.82a1.53,1.53,0,0,1,1.53,1.53V85a0,0,0,0,1,0,0H50a0,0,0,0,1,0,0V82.39A0,0,0,0,1,50,82.39Z" transform="translate(107.27 167.38) rotate(-180)"/><path class="cls-2" d="M58.58,91h6.83a0,0,0,0,1,0,0v2.59a0,0,0,0,1,0,0h-8.1a0,0,0,0,1,0,0V92.26A1.27,1.27,0,0,1,58.58,91Z" transform="translate(122.72 184.57) rotate(-180)"/><path class="cls-2" d="M203.74,80.06h4.58a0,0,0,0,1,0,0V97.71A2.29,2.29,0,0,1,206,100h0a2.29,2.29,0,0,1-2.29-2.29V80.06a0,0,0,0,1,0,0Z" transform="translate(412.05 180.06) rotate(-180)"/><path class="cls-2" d="M200.61,82.6h2a0,0,0,0,1,0,0v3.94a1,1,0,0,1-1,1h0a1,1,0,0,1-1-1V82.6A0,0,0,0,1,200.61,82.6Z" transform="translate(403.21 170.13) rotate(-180)"/><path class="cls-2" d="M200.69,91.6h2a0,0,0,0,1,0,0v2.26a1,1,0,0,1-1,1h0a1,1,0,0,1-1-1V91.6a0,0,0,0,1,0,0Z" transform="translate(403.37 186.44) rotate(-180)"/><path class="cls-2" d="M209.77,88.42H212a0,0,0,0,1,0,0v3.82a1.12,1.12,0,0,1-1.12,1.12h0a1.12,1.12,0,0,1-1.12-1.12V88.42a0,0,0,0,1,0,0Z" transform="translate(421.77 181.77) rotate(-180)"/><path class="cls-2" d="M200.69,94.85h4.91a1,1,0,0,1,1,1v.85a0,0,0,0,1,0,0h-5.86a0,0,0,0,1,0,0v-1.8A0,0,0,0,1,200.69,94.85Z" transform="translate(407.23 191.5) rotate(-180)"/><path class="cls-2" d="M200.61,87h4.29A1.13,1.13,0,0,1,206,88.14v.79a0,0,0,0,1,0,0h-5.42a0,0,0,0,1,0,0V87A0,0,0,0,1,200.61,87Z" transform="translate(406.63 175.94) rotate(-180)"/><path class="cls-2" d="M207,93.35h5a0,0,0,0,1,0,0v1.91a0,0,0,0,1,0,0h-6a0,0,0,0,1,0,0v-1A.94.94,0,0,1,207,93.35Z" transform="translate(418.03 188.62) rotate(-180)"/><path class="cls-1" d="M19.73,49.4h0a5.81,5.81,0,0,1,5.81,5.81V100a0,0,0,0,1,0,0H13.92a0,0,0,0,1,0,0V55.2A5.81,5.81,0,0,1,19.73,49.4Z"/><path class="cls-1" d="M31,54.51h0A2.53,2.53,0,0,1,33.48,57V67a0,0,0,0,1,0,0H28.42a0,0,0,0,1,0,0V57A2.53,2.53,0,0,1,31,54.51Z"/><path class="cls-1" d="M32.07,74.7h0a2.53,2.53,0,0,1,2.53,2.53V83a0,0,0,0,1,0,0H29.54a0,0,0,0,1,0,0V77.23A2.53,2.53,0,0,1,32.07,74.7Z"/><path class="cls-1" d="M7.4,61.34h0a2.84,2.84,0,0,1,2.84,2.84v9.68a0,0,0,0,1,0,0H4.56a0,0,0,0,1,0,0V64.18A2.84,2.84,0,0,1,7.4,61.34Z"/><path class="cls-1" d="M19.73,83H34.6a0,0,0,0,1,0,0v2.17a2.41,2.41,0,0,1-2.41,2.41H19.73a0,0,0,0,1,0,0V83a0,0,0,0,1,0,0Z"/><path class="cls-1" d="M19.73,67H33.48a0,0,0,0,1,0,0v2a2.86,2.86,0,0,1-2.86,2.86H19.73a0,0,0,0,1,0,0V67A0,0,0,0,1,19.73,67Z"/><path class="cls-1" d="M4.56,73.86H19.73a0,0,0,0,1,0,0v4.86a0,0,0,0,1,0,0H6.94a2.38,2.38,0,0,1-2.38-2.38V73.86a0,0,0,0,1,0,0Z"/></g></svg>