<svg xmlns="http://www.w3.org/2000/svg" viewBox="0 0 600 170"><defs><style>.cls-1{opacity:0.12;}</style></defs><title>skyline-ny</title><g id="Layer_1" data-name="Layer 1"><path class="cls-1" d="M542,157l-12-5H519v-7H504v7h-9.27a4,4,0,0,1-.31-1.09c-.21-1.86-.38-3.72-.59-5.58,0-.46-.21-.93.38-1.24h-1.53c.13-.88-.64-.38-.93-.7,0-.36,0-.75.09-1.14a9.84,9.84,0,0,1,.68-2.1,10.94,10.94,0,0,0,.25-2.92,6.71,6.71,0,0,0,1.14-1.05c.2-.28.14-.74.19-1.12-.46-.21-.89-.38-1.3-.59a.88.88,0,0,1-.35-.34c-.24-.42-.41-.88-.67-1.29s-.59-.84,0-1.3a1.66,1.66,0,0,0,.45-.54,2.29,2.29,0,0,0,.11-.63l.21,0-.53-.21.49-.45h-.76l.15-.48c-.61.33-.61.33-.83-.14l-.31.42-.14-.09,1-3.55c.18-.25.38-.53.32-.75a7.38,7.38,0,0,0-.54-1.24h-.61c-.14.29-.28.54-.38.8a.62.62,0,0,0,0,.45,1.34,1.34,0,0,1,0,1.13c-.27,1-.48,2-.73,3a.74.74,0,0,1-.29.33,3.37,3.37,0,0,0-.82,2,5.21,5.21,0,0,1-.1,3,1.73,1.73,0,0,1,.26.93c-.1.68-.3,1.35-.46,2,0,.08,0,.18,0,.26a3.84,3.84,0,0,1-.24,1.06c-.58,1.08-1.2,2.14-1.83,3.19a1.26,1.26,0,0,0-.05,1.35s0,.07,0,.11l-.57.06-.12.5-1.2.07v.11l.55.25-.84,6.55H457V133.52l-1.4-.08v-4.18l-1.16-.1v-2.73H442.93V122.6h-7.42v-3.94h-6.06V134h-1.87V117.25h-1.45c0-1.7,0-3.3,0-4.91a6.22,6.22,0,0,0-.17-1.3c-1-4.46-2.64-8.78-3.24-13.4l-.92-.07c-.12-1.18-.26-2.33-.36-3.48,0-.48,0-1,0-1.45a3.54,3.54,0,0,0-1-2.55c-.29-.26-.41-.57,0-.83a.35.35,0,0,0,.16-.25c0-.89,0-1.79,0-2.69l-.94-.07c-.23-.71.14-1.5-.24-2.16l-.19,0v2.23l-.95.08v2.82l.73.11c-.09.28-.1.6-.26.71-1.23.86-1.37,2.11-1.34,3.45s0,2.88,0,4.33l-.79.14a15,15,0,0,1,0,2.26c-.26,1.67-.62,3.33-.94,5-.82,4.27-1.89,8.51-1.53,12.92a1.44,1.44,0,0,1-.07.35H412v8.06h-5.54v9.3H399.8v-2.75h-6.37c0,1.06,0,2.06,0,3.07,0,.45-.55,1.25-1,1.27-.89,0-1.78,0-2.75,0v-3.83h-3v-3.13h-6.68V117.17c-2.19,0-4.27,0-6.36,0a.67.67,0,0,1-.77-.52c-.22-.67-.5-1.31-.73-2a.6.6,0,0,0-.66-.48q-8.52,0-17,0c-.37,0-.54.11-.62.49-.28,1.38-.64,2.74-.9,4.12-.14.74-.36,1.24-1.23,1.09,0,0-.07,0-.17.13v2.9h-1.77l-.11-.75H326v18.9h-2.12v-.84q0-9.77,0-19.54a2.32,2.32,0,0,0-.11-.69c-.08-.25-.31-.49-.31-.74,0-2.57,0-5.15,0-7.72,0-.23,0-.46,0-.69l-.84-.09v-8.26l-.22.09c-.15-.25-.42-.48-.43-.74a32.72,32.72,0,0,0-3.37-12.32,2.32,2.32,0,0,1-.22-.87q-.35-6.33-.67-12.65c0-.17,0-.35-.07-.52a.63.63,0,0,0-.15.4c-.22,4.22-.43,8.44-.68,12.65a3.79,3.79,0,0,1-.37,1.37,32.1,32.1,0,0,0-3.19,12c0,.49-.21.7-.71.73v8.28l-.89.1v8.95l-.19.07a5.1,5.1,0,0,1-.83-1.21c-.46-1.44-.84-2.9-1.2-4.36-.09-.37-.17-.56-.57-.52s-.53,0-.79,0h-4.36v-2.4H280v17h-1.88v-6.12H276.5v-2.54c-1.68,0-3.29.06-4.89,0a9.55,9.55,0,0,1-3.5-.39c-1.12-.46-2.58-.1-4-.1v1.91h-2v3.11h-4V99.2l-.92-.11v-1a3.48,3.48,0,0,0,.86,0c.18,0,.31-.27.46-.41l-.14-.16H220.59V131H218V74.3l-1.18-.08V61.29h-2.44V52.36h-2.67V49.28h-2.4c-.07-.68-.1-1.32-.22-1.94-.83-4.41-1.69-8.81-2.51-13.21A2.94,2.94,0,0,1,206.7,33a3,3,0,0,0-.14-2.55,2.89,2.89,0,0,1-.48-1.72q-.36-8.28-.71-16.55c-.08-1.76-.17-3.51-.26-5.27a.74.74,0,0,0-.1.39q-.46,11.08-.93,22.16a2.13,2.13,0,0,1-.36,1,3.15,3.15,0,0,0-.56,2.86,1.94,1.94,0,0,1,.09.94c-.49,2.5-1,5-1.5,7.5-.48,2.67-1.37,5.29-1.25,8.05,0,.05-.06.11-.12.22h-2.55V52.3h-2.27v3.43l-.74.18v6.61H192.7V74.9l-.93.07v28H181.54v4.24h-3.39v13.07H164.39v4.42a1.13,1.13,0,0,1-.21.06H159a1.6,1.6,0,0,0-1.65,1.68c0,.83,0,1.66,0,2.53l-1.15.11v1.47l-1.12.07v12h-5.55v-9h-2.25v-3.9l-1.28-.08V111.84l-1-.11v-4.44l-1.12-.07v-3.77l-1.24-.06-.06-1.06-1.23-.08v-1.6H138V102l-1.15.1v1.67h-1.42v4.63l-1.11.08c0,.68,0,1.33,0,2a1.42,1.42,0,0,1-.58,1.37,1.48,1.48,0,0,0-.59,1.37c0,1.43,0,2.86,0,4.29v1h-3.11a1.37,1.37,0,0,0-.07.24c-.05.8.23,1.68-.59,2.31-.1.08-.05.37-.06.57,0,.78,0,1.56,0,2.41h-2.27v2.35h-4.35c0-.15,0-.25,0-.36a4,4,0,0,0-1.4-3.21c-.12-.09-.15-.35-.16-.53,0-.67,0-1.35,0-2h-3.26c0,.6,0,1.15,0,1.69a1.13,1.13,0,0,1-.6,1.17,2.17,2.17,0,0,0-.69,3.34,3,3,0,0,1,.16.35l-1,.08v7h-2.67v-3.74h-7.67v4.3h-2v-7.34h-2.54V123.9l-1.15-.1V110.7H73.11v7.77H60V124H40v8H26l-8,5v10H8l-8,9v14l66-.17H488V170H600l-32-11Z"/></g></svg>