<svg xmlns="http://www.w3.org/2000/svg" viewBox="0 0 400 150">
    <title>skyline</title>
    <g style="fill:rgba(0,0,0,.3)" id="Layer_1" data-name="Layer 1">
        <polygon
          points="400 65.46 396.98 65.46 394.69 49.63 389.69 51.19 357.19 54.12 357.19 49.63 344.48 49.63 341.98 54.12 341.98 59.98 335.1 59.98 324.48 59.98 320.1 61.74 320.1 73.08 315.1 73.08 315.1 57.25 307.6 57.25 307.6 54.71 284.69 55.3 284.69 57.84 278.23 57.84 278.23 73.86 274.69 75.81 274.69 58.23 270.94 57.25 257.81 56.66 253.23 54.32 237.19 55.49 237.19 75.81 227.6 75.81 223.85 58.42 207.19 58.42 207.19 53.73 203.23 54.32 203.23 57.05 188.23 56.08 188.23 53.54 182.81 53.54 181.56 56.08 165.94 55.88 165.94 52.95 161.98 52.95 161.98 56.47 141.98 57.25 141.98 53.54 137.81 53.73 137.81 56.47 129.69 56.66 129.69 10.16 120.73 10.16 119.06 53.15 114.69 53.15 114.69 56.66 96.35 56.66 96.35 53.54 91.98 53.73 91.98 56.47 69.69 56.47 69.69 51.97 63.02 51.97 63.02 54.91 58.85 54.91 53.85 56.47 53.75 62.23 13.75 63.8 13.75 58.13 5.42 58.13 5.42 61.65 0 61.65 0 150 400 150 400 65.46"/>
    </g>
</svg>
