<svg xmlns="http://www.w3.org/2000/svg" viewBox="0 0 600 200"><defs><style>.cls-1{opacity:0.12;}</style></defs><title>skyline-santihans</title><g id="desk"><polygon class="cls-1" points="229.69 67.43 229.69 59.16 220.73 59.16 220.12 74.97 229.69 67.43"/><path class="cls-1" d="M594,144l-16-5H566l-14-21-20-5-8,8-9.18,1.1L500,114.46h-3l-2.29-15.83-5,1.56-32.5,2.93V98.63H444.48l-2.5,4.49V109h-17.5l-4.37,1.76v11.33h-5V106.25h-7.5v-2.54l-22.92.59v2.54h-6.46v16l-3.54,2V107.23l-3.75-1-13.12-.59-4.58-2.34-16,1.17v20.32H327.6l-3.75-17.39H307.19v-4.69l-4,.59v2.74l-15-1v-2.54h-5.42l-1.25,2.54-15.62-.2V102h-4v3.52l-20,.78v-3.71l-4.17.2v2.74l-8.12.2V70.43L220,78.06l-.93,24.08h-4.37v3.52H196.35v-3.13l-4.37.2v2.74H169.69V101H163v2.93h-4.17l-5,1.56-.1,5.76-40,1.56v-5.67h-8.33v3.52H100l-12.49,6.91L89,86.66,76.23,79.79,63.46,86.66,65,119H60l-15,8-4-14H32v14L14,139,0,156v44H600ZM74,93.08h4.54v4.54H74Zm-2.55,4.54H66.91V93.08h4.54ZM79.35,119H73.11v-1.49a3.12,3.12,0,1,1,6.23,0Zm6.27-21.38H81.08V93.08h4.54Z"/></g></svg>