<svg xmlns="http://www.w3.org/2000/svg" viewBox="0 0 75 75"><defs><style>.cls-1{fill:#fff;}.cls-2{fill:#f2f2f2;}.cls-3{fill:#333;}</style></defs><title>watch</title><g id="desk"><g id="watch"><g id="watchface"><circle class="cls-1" cx="37.5" cy="37.5" r="35.15"/><path class="cls-2" d="M37.5,74.22A36.72,36.72,0,1,1,74.22,37.5,36.76,36.76,0,0,1,37.5,74.22Zm0-70.3A33.58,33.58,0,1,0,71.08,37.5,33.62,33.62,0,0,0,37.5,3.92Z"/><rect class="cls-3" x="21.73" y="8.56" width="2.57" height="7.72" transform="translate(-3.13 13.17) rotate(-30)"/><rect class="cls-3" x="50.69" y="58.72" width="2.57" height="7.72" transform="translate(-24.33 34.37) rotate(-30)"/><rect class="cls-3" x="11.13" y="19.16" width="2.57" height="7.72" transform="translate(-13.73 22.27) rotate(-60)"/><rect class="cls-3" x="61.29" y="48.12" width="2.57" height="7.72" transform="matrix(0.5, -0.87, 0.87, 0.5, -13.73, 80.18)"/><rect class="cls-3" x="65.17" y="33.64" width="2.57" height="7.72" transform="translate(103.96 -28.96) rotate(90)"/><rect class="cls-3" x="7.25" y="33.64" width="2.57" height="7.72" transform="translate(46.04 28.96) rotate(90)"/><rect class="cls-3" x="61.29" y="19.16" width="2.57" height="7.72" transform="translate(51.23 -42.68) rotate(60)"/><rect class="cls-3" x="11.13" y="48.12" width="2.57" height="7.72" transform="translate(51.23 15.23) rotate(60)"/><rect class="cls-3" x="50.69" y="8.56" width="2.57" height="7.72" transform="translate(13.17 -24.33) rotate(30)"/><rect class="cls-3" x="21.73" y="58.72" width="2.57" height="7.72" transform="translate(34.37 -3.13) rotate(30)"/><rect class="cls-3" x="36.21" y="4.68" width="2.57" height="7.72"/><rect class="cls-3" x="36.21" y="62.6" width="2.57" height="7.72"/><rect class="cls-3" x="33.63" y="4.85" width="1.29" height="3.86" transform="translate(-0.52 3.62) rotate(-6)"/><rect class="cls-3" x="40.09" y="66.29" width="1.29" height="3.86" transform="translate(-6.91 4.63) rotate(-6)"/><rect class="cls-3" x="30.43" y="5.36" width="1.29" height="3.86" transform="translate(-0.84 6.62) rotate(-12)"/><rect class="cls-3" x="43.28" y="65.78" width="1.29" height="3.86" transform="translate(-13.12 10.61) rotate(-12)"/><rect class="cls-3" x="27.31" y="6.19" width="1.29" height="3.86" transform="translate(-1.14 9.04) rotate(-18)"/><rect class="cls-3" x="46.4" y="64.95" width="1.29" height="3.86" transform="translate(-18.36 17.81) rotate(-18)"/><rect class="cls-3" x="24.29" y="7.35" width="1.29" height="3.86" transform="translate(-1.62 10.94) rotate(-24)"/><rect class="cls-3" x="49.42" y="63.79" width="1.29" height="3.86" transform="translate(-22.4 26.04) rotate(-24)"/><rect class="cls-3" x="18.7" y="10.58" width="1.29" height="3.86" transform="translate(-3.66 13.76) rotate(-36)"/><rect class="cls-3" x="55.01" y="60.56" width="1.29" height="3.86" transform="translate(-26.1 44.65) rotate(-36)"/><rect class="cls-3" x="16.19" y="12.61" width="1.29" height="3.86" transform="translate(-5.41 15) rotate(-42)"/><rect class="cls-3" x="57.53" y="58.52" width="1.29" height="3.86" transform="translate(-25.51 54.45) rotate(-42)"/><rect class="cls-3" x="13.9" y="14.9" width="1.29" height="3.86" transform="translate(-7.7 16.38) rotate(-48)"/><rect class="cls-3" x="59.81" y="56.24" width="1.29" height="3.86" transform="translate(-23.23 64.17) rotate(-48)"/><rect class="cls-3" x="11.87" y="17.41" width="1.29" height="3.86" transform="translate(-10.49 18.09) rotate(-54)"/><rect class="cls-3" x="61.85" y="53.73" width="1.29" height="3.86" transform="translate(-19.27 73.5) rotate(-54)"/><rect class="cls-3" x="8.64" y="23.01" width="1.29" height="3.86" transform="translate(-17.27 23.27) rotate(-66)"/><rect class="cls-3" x="65.08" y="48.13" width="1.29" height="3.86" transform="translate(-6.75 89.74) rotate(-66)"/><rect class="cls-3" x="7.48" y="26.02" width="1.29" height="3.86" transform="translate(-20.97 27.04) rotate(-72)"/><rect class="cls-3" x="66.23" y="45.11" width="1.29" height="3.86" transform="translate(1.47 96.11) rotate(-72)"/><rect class="cls-3" x="6.64" y="29.15" width="1.29" height="3.86" transform="translate(-24.63 31.74) rotate(-78)"/><rect class="cls-3" x="67.07" y="41.99" width="1.29" height="3.86" transform="translate(10.67 101.02) rotate(-78)"/><rect class="cls-3" x="6.14" y="32.34" width="1.29" height="3.86" transform="translate(-28.01 37.43) rotate(-84)"/><rect class="cls-3" x="67.58" y="38.8" width="1.29" height="3.86" transform="translate(20.58 104.32) rotate(-84)"/><rect class="cls-3" x="6.14" y="38.8" width="1.29" height="3.86" transform="matrix(-0.1, -0.99, 0.99, -0.1, -33.02, 51.73)"/><rect class="cls-3" x="67.58" y="32.34" width="1.29" height="3.86" transform="translate(41.27 105.7) rotate(-96)"/><rect class="cls-3" x="6.64" y="41.99" width="1.29" height="3.86" transform="translate(-34.16 60.18) rotate(-102)"/><rect class="cls-3" x="67.07" y="29.15" width="1.29" height="3.86" transform="translate(51.39 103.77) rotate(-102)"/><rect class="cls-3" x="7.48" y="45.11" width="1.29" height="3.86" transform="translate(-34.11 69.31) rotate(-108)"/><rect class="cls-3" x="66.23" y="26.02" width="1.29" height="3.86" transform="translate(60.96 100.2) rotate(-108)"/><rect class="cls-3" x="8.64" y="48.13" width="1.29" height="3.86" transform="translate(-32.68 78.91) rotate(-114)"/><rect class="cls-3" x="65.08" y="23.01" width="1.29" height="3.86" transform="translate(69.67 95.12) rotate(-114)"/><rect class="cls-3" x="11.87" y="53.73" width="1.29" height="3.86" transform="translate(-25.16 98.49) rotate(-126)"/><rect class="cls-3" x="61.85" y="17.41" width="1.29" height="3.86" transform="translate(83.57 81.27) rotate(-126)"/><rect class="cls-3" x="13.9" y="56.24" width="1.29" height="3.86" transform="translate(-18.95 107.9) rotate(-132)"/><rect class="cls-3" x="59.81" y="14.9" width="1.29" height="3.86" transform="translate(88.4 73.02) rotate(-132)"/><rect class="cls-3" x="16.19" y="58.52" width="1.29" height="3.86" transform="translate(-11.11 116.64) rotate(-138)"/><rect class="cls-3" x="57.53" y="12.61" width="1.29" height="3.86" transform="matrix(-0.74, -0.67, 0.67, -0.74, 91.66, 64.28)"/><rect class="cls-3" x="18.7" y="60.56" width="1.29" height="3.86" transform="translate(-1.74 124.42) rotate(-144)"/><rect class="cls-3" x="55.01" y="10.58" width="1.29" height="3.86" transform="translate(93.33 55.35) rotate(-144)"/><rect class="cls-3" x="24.29" y="63.79" width="1.29" height="3.86" transform="translate(20.99 135.9) rotate(-156)"/><rect class="cls-3" x="49.42" y="7.35" width="1.29" height="3.86" transform="translate(92.02 38.12) rotate(-156)"/><rect class="cls-3" x="27.31" y="64.95" width="1.29" height="3.86" transform="translate(33.88 139.12) rotate(-162)"/><rect class="cls-3" x="46.4" y="6.19" width="1.29" height="3.86" transform="matrix(-0.95, -0.31, 0.31, -0.95, 89.28, 30.39)"/><rect class="cls-3" x="30.43" y="65.78" width="1.29" height="3.86" transform="translate(47.4 140.41) rotate(-168)"/><rect class="cls-3" x="43.28" y="5.36" width="1.29" height="3.86" transform="translate(85.37 23.54) rotate(-168)"/><rect class="cls-3" x="33.63" y="66.29" width="1.29" height="3.86" transform="translate(61.22 139.65) rotate(-174)"/><rect class="cls-3" x="40.09" y="4.85" width="1.29" height="3.86" transform="translate(80.53 17.78) rotate(-174)"/></g></g></g></svg>