<svg xmlns="http://www.w3.org/2000/svg" viewBox="0 0 340 230"><defs><style>.cls-1{fill:#48a69c;}.cls-2,.cls-9{fill:#e6e6e6;}.cls-2{opacity:0.9;}.cls-3{fill:#d2cbc3;}.cls-4{opacity:0.2;}.cls-5{fill:#ccc;}.cls-6{fill:#12c645;}.cls-7{fill:#feb21e;}.cls-8{fill:#f44545;}.cls-10{fill:#1a1a1a;}.cls-11,.cls-12,.cls-13,.cls-14,.cls-15,.cls-21,.cls-24,.cls-25{fill:none;stroke-miterlimit:10;}.cls-11,.cls-12,.cls-13,.cls-14,.cls-15{stroke:#666;}.cls-11,.cls-12{stroke-width:0.75px;}.cls-12{stroke-dasharray:1.43 1.43;}.cls-14{stroke-dasharray:1.78 1.78;}.cls-15,.cls-24{stroke-dasharray:2 2;}.cls-16{fill:#b3b3b3;}.cls-17{fill:#2b393f;}.cls-18{fill:#8f5fa3;}.cls-19{fill:#cfccc6;}.cls-20{fill:#fff;}.cls-21{stroke:#48a69c;stroke-width:3px;}.cls-22{fill:#f96673;}.cls-23{fill:#333;}.cls-24{stroke:#ccc;}.cls-25{stroke:#e6e6e6;stroke-dasharray:2;}.cls-26{fill:#fafafa;}.cls-27{fill:#4d4d4d;}</style></defs><title>webdesign</title><g id="Layer_1" data-name="Layer 1"><g id="desktop"><path class="cls-1" d="M234.31,6H105.69a7.32,7.32,0,0,0-7.32,7.32v83a7.32,7.32,0,0,0,7.32,7.32h46.85v18.53H141.85v5h56.3v-5H187.46V103.68h46.85a7.32,7.32,0,0,0,7.32-7.32v-83A7.32,7.32,0,0,0,234.31,6Z"/><rect class="cls-2" x="102.65" y="16.01" width="134.7" height="69.13"/><circle class="cls-3" cx="170" cy="94.06" r="3.92"/><rect class="cls-4" x="152.54" y="103.68" width="34.92" height="7.13"/><rect class="cls-5" x="106.01" y="18.75" width="128" height="63"/><circle class="cls-6" cx="114.95" cy="26.69" r="2.94"/><circle class="cls-7" cx="122.51" cy="26.69" r="2.94"/><circle class="cls-8" cx="130.07" cy="26.69" r="2.94"/><rect class="cls-9" x="140.01" y="33.75" width="59" height="28"/><rect class="cls-9" x="165.01" y="63.75" width="34" height="5"/><rect class="cls-5" x="118.01" y="33.75" width="20" height="11"/><rect class="cls-9" x="165.01" y="70.75" width="34" height="5"/><polygon class="cls-10" points="147.08 57.05 150.3 65.22 155.25 60.27 147.08 57.05"/><rect class="cls-10" x="153.68" y="61.65" width="1" height="5" transform="translate(-0.2 127.81) rotate(-45)"/><polyline class="cls-11" points="226.51 74.5 226.51 75.25 225.76 75.25"/><line class="cls-12" x1="224.33" y1="75.25" x2="204.98" y2="75.25"/><polyline class="cls-11" points="204.26 75.25 203.51 75.25 203.51 74.5"/><line class="cls-12" x1="203.51" y1="73.07" x2="203.51" y2="53.72"/><polyline class="cls-11" points="203.51 53 203.51 52.25 204.26 52.25"/><line class="cls-12" x1="205.69" y1="52.25" x2="225.05" y2="52.25"/><polyline class="cls-11" points="225.76 52.25 226.51 52.25 226.51 53"/><line class="cls-12" x1="226.51" y1="54.43" x2="226.51" y2="73.78"/><rect class="cls-9" x="119.51" y="47.25" width="18" height="28"/><polyline class="cls-13" points="137.51 74.25 137.51 75.25 136.51 75.25"/><line class="cls-14" x1="134.73" y1="75.25" x2="121.4" y2="75.25"/><polyline class="cls-13" points="120.51 75.25 119.51 75.25 119.51 74.25"/><line class="cls-15" x1="119.51" y1="72.25" x2="119.51" y2="49.25"/><polyline class="cls-13" points="119.51 48.25 119.51 47.25 120.51 47.25"/><line class="cls-14" x1="122.29" y1="47.25" x2="135.62" y2="47.25"/><polyline class="cls-13" points="136.51 47.25 137.51 47.25 137.51 48.25"/><line class="cls-15" x1="137.51" y1="50.25" x2="137.51" y2="73.25"/><rect class="cls-9" x="112.01" y="33.75" width="5" height="42"/><circle class="cls-16" cx="190.51" cy="42.25" r="5.5"/><rect class="cls-5" x="143.01" y="37.75" width="23" height="3.83"/><rect class="cls-5" x="143.01" y="42.75" width="14" height="2"/><rect class="cls-5" x="143.01" y="45.75" width="14" height="2"/><path class="cls-9" d="M215,23.8a10,10,0,1,0,10,10A10,10,0,0,0,215,23.8Zm6.93,6H219a15.65,15.65,0,0,0-1.38-3.56A8,8,0,0,1,221.93,29.75Zm-6.92-4a14.09,14.09,0,0,1,1.91,4H213.1A14.09,14.09,0,0,1,215,25.79Zm-7.74,10a7.82,7.82,0,0,1,0-4h3.38a14.36,14.36,0,0,0,0,4Zm.82,2h3a15.65,15.65,0,0,0,1.38,3.56A8,8,0,0,1,208.09,37.75Zm3-8h-3a8,8,0,0,1,4.33-3.56A15.65,15.65,0,0,0,211,29.75Zm4,12a14.09,14.09,0,0,1-1.91-4h3.82A14.09,14.09,0,0,1,215,41.71Zm2.34-6h-4.68a12.58,12.58,0,0,1,0-4h4.68a12.58,12.58,0,0,1,0,4Zm.25,5.56A15.65,15.65,0,0,0,219,37.75h2.95A8,8,0,0,1,217.6,41.31Zm1.77-5.56a14.36,14.36,0,0,0,0-4h3.38a7.82,7.82,0,0,1,0,4Z"/></g><g id="tablet-l"><rect class="cls-7" x="214.53" y="58.08" width="59.15" height="81.96" rx="8.01" ry="8.01"/><rect class="cls-9" x="219.88" y="65.2" width="48.46" height="62.72"/><circle class="cls-3" cx="244.11" cy="133.62" r="3.56"/><rect class="cls-5" x="223" y="81.75" width="42" height="23"/><rect class="cls-16" x="223" y="106.75" width="23" height="5"/><rect class="cls-16" x="223" y="113.75" width="23" height="5"/><rect class="cls-16" x="223" y="120.75" width="23" height="5"/><rect class="cls-16" x="226" y="84.75" width="18" height="3"/><rect class="cls-16" x="223" y="68.75" width="42" height="5"/><circle class="cls-16" cx="260.5" cy="86.25" r="2.5"/></g><g id="tablet-s"><rect class="cls-17" x="90.52" y="78.03" width="44.19" height="61.22" rx="8.01" ry="8.01"/><rect class="cls-9" x="94.51" y="83.36" width="36.2" height="46.85"/><circle class="cls-3" cx="112.62" cy="134.46" r="2.66"/><rect class="cls-5" x="97" y="91.75" width="31" height="12"/><rect class="cls-5" x="97" y="105.75" width="31" height="12"/><rect class="cls-5" x="97" y="119.75" width="31" height="8"/><rect class="cls-16" x="97" y="85.75" width="31" height="4"/></g><g id="phone"><rect class="cls-18" x="67" y="91.15" width="28.51" height="50.6" rx="4.66" ry="4.66"/><rect class="cls-9" x="69.49" y="97.56" width="23.52" height="37.06"/><rect class="cls-19" x="76.98" y="94" width="8.55" height="1.43"/><circle class="cls-19" cx="81.25" cy="138.19" r="2.14"/><rect class="cls-5" x="71" y="105.75" width="20" height="12"/><rect class="cls-5" x="71" y="119.75" width="20" height="12"/><rect class="cls-16" x="71" y="99.75" width="20" height="4"/><circle class="cls-16" cx="85.5" cy="110.25" r="2.5"/></g><g id="keyboard"><rect class="cls-1" x="111" y="164" width="69" height="33" rx="3" ry="3"/><rect class="cls-20" x="129" y="188.5" width="26" height="5"/><rect class="cls-20" x="171" y="188.5" width="5" height="5"/><rect class="cls-20" x="164" y="188.5" width="5" height="5"/><rect class="cls-20" x="157" y="188.5" width="5" height="5"/><rect class="cls-20" x="122" y="188.5" width="5" height="5"/><rect class="cls-20" x="115" y="188.5" width="5" height="5"/><rect class="cls-20" x="122" y="174.5" width="5" height="5"/><rect class="cls-20" x="115" y="174.5" width="5" height="5"/><rect class="cls-20" x="136" y="174.5" width="5" height="5"/><rect class="cls-20" x="129" y="174.5" width="5" height="5"/><rect class="cls-20" x="150" y="174.5" width="5" height="5"/><rect class="cls-20" x="143" y="174.5" width="5" height="5"/><rect class="cls-20" x="164" y="174.5" width="5" height="5"/><rect class="cls-20" x="157" y="174.5" width="5" height="5"/><rect class="cls-20" x="122" y="167.5" width="5" height="5"/><rect class="cls-20" x="115" y="167.5" width="5" height="5"/><rect class="cls-20" x="136" y="167.5" width="5" height="5"/><rect class="cls-20" x="129" y="167.5" width="5" height="5"/><rect class="cls-20" x="150" y="167.5" width="5" height="5"/><rect class="cls-20" x="143" y="167.5" width="5" height="5"/><rect class="cls-20" x="164" y="167.5" width="5" height="5"/><rect class="cls-20" x="157" y="167.5" width="5" height="5"/><rect class="cls-20" x="171" y="167.5" width="5" height="5"/><rect class="cls-20" x="122" y="181.5" width="5" height="5"/><rect class="cls-20" x="115" y="181.5" width="5" height="5"/><rect class="cls-20" x="136" y="181.5" width="5" height="5"/><rect class="cls-20" x="129" y="181.5" width="5" height="5"/><rect class="cls-20" x="150" y="181.5" width="5" height="5"/><rect class="cls-20" x="143" y="181.5" width="5" height="5"/><rect class="cls-20" x="164" y="181.5" width="5" height="5"/><rect class="cls-20" x="157" y="181.5" width="5" height="5"/><rect class="cls-20" x="171" y="174.5" width="5" height="12"/></g><polyline id="cable" class="cls-21" points="175 126.75 175 151.75 145 151.75 145 165.75"/><g id="ruler"><rect class="cls-22" x="254" y="165.75" width="68" height="12" transform="translate(459.75 -116.25) rotate(90)"/><rect class="cls-23" x="284.96" y="140.9" width="1.24" height="7.16" transform="translate(430.06 -141.1) rotate(90)"/><rect class="cls-23" x="283.37" y="145.67" width="1.24" height="3.98" transform="translate(431.65 -136.33) rotate(90)"/><rect class="cls-23" x="283.37" y="148.86" width="1.24" height="3.98" transform="translate(434.84 -133.14) rotate(90)"/><rect class="cls-23" x="283.37" y="152.04" width="1.24" height="3.98" transform="translate(438.02 -129.96) rotate(90)"/><rect class="cls-23" x="283.37" y="155.23" width="1.24" height="3.98" transform="translate(441.21 -126.77) rotate(90)"/><rect class="cls-23" x="284.96" y="156.82" width="1.24" height="7.16" transform="translate(445.98 -125.18) rotate(90)"/><rect class="cls-23" x="283.37" y="161.59" width="1.24" height="3.98" transform="translate(447.57 -120.41) rotate(90)"/><rect class="cls-23" x="283.37" y="164.78" width="1.24" height="3.98" transform="translate(450.76 -117.22) rotate(90)"/><rect class="cls-23" x="283.37" y="167.96" width="1.24" height="3.98" transform="translate(453.94 -114.04) rotate(90)"/><rect class="cls-23" x="283.37" y="171.15" width="1.24" height="3.98" transform="translate(457.13 -110.85) rotate(90)"/><rect class="cls-23" x="284.96" y="172.74" width="1.24" height="7.16" transform="translate(461.9 -109.26) rotate(90)"/><rect class="cls-23" x="283.37" y="177.51" width="1.24" height="3.98" transform="translate(463.49 -104.49) rotate(90)"/><rect class="cls-23" x="283.37" y="180.7" width="1.24" height="3.98" transform="translate(466.68 -101.3) rotate(90)"/><rect class="cls-23" x="283.37" y="183.88" width="1.24" height="3.98" transform="translate(469.86 -98.12) rotate(90)"/><rect class="cls-23" x="283.37" y="187.07" width="1.24" height="3.98" transform="translate(473.05 -94.93) rotate(90)"/><rect class="cls-23" x="284.96" y="188.66" width="1.24" height="7.16" transform="translate(477.82 -93.34) rotate(90)"/><circle class="cls-20" cx="288" cy="200.75" r="2"/></g><g id="triangle"><path class="cls-7" d="M94,199.41V161.59H41.5Zm-8.57-30.16v12.5l-17.35-12.5Z"/><rect class="cls-23" x="91.51" y="163.82" width="0.73" height="4.24" transform="translate(257.82 74.06) rotate(90)"/><rect class="cls-23" x="92.45" y="166.64" width="0.73" height="2.36" transform="translate(260.64 75) rotate(90)"/><rect class="cls-23" x="92.45" y="168.53" width="0.73" height="2.36" transform="translate(262.53 76.88) rotate(90)"/><rect class="cls-23" x="92.45" y="170.41" width="0.73" height="2.36" transform="translate(264.41 78.77) rotate(90)"/><rect class="cls-23" x="92.45" y="172.3" width="0.73" height="2.36" transform="translate(266.3 80.65) rotate(90)"/><rect class="cls-23" x="91.51" y="173.24" width="0.73" height="4.24" transform="translate(267.24 83.48) rotate(90)"/><rect class="cls-23" x="92.45" y="176.07" width="0.73" height="2.36" transform="translate(270.07 84.42) rotate(90)"/><rect class="cls-23" x="92.45" y="177.95" width="0.73" height="2.36" transform="translate(271.95 86.31) rotate(90)"/><rect class="cls-23" x="92.45" y="179.83" width="0.73" height="2.36" transform="translate(273.83 88.19) rotate(90)"/><rect class="cls-23" x="92.45" y="181.72" width="0.73" height="2.36" transform="translate(275.72 90.07) rotate(90)"/><rect class="cls-23" x="91.51" y="182.66" width="0.73" height="4.24" transform="translate(276.66 92.9) rotate(90)"/><rect class="cls-23" x="92.45" y="185.49" width="0.73" height="2.36" transform="translate(279.49 93.84) rotate(90)"/><rect class="cls-23" x="92.45" y="187.37" width="0.73" height="2.36" transform="translate(281.37 95.73) rotate(90)"/><rect class="cls-23" x="92.45" y="189.26" width="0.73" height="2.36" transform="translate(283.26 97.61) rotate(90)"/><rect class="cls-23" x="92.45" y="191.14" width="0.73" height="2.36" transform="translate(285.14 99.5) rotate(90)"/><rect class="cls-23" x="91.51" y="192.08" width="0.73" height="4.24" transform="translate(286.08 102.32) rotate(90)"/><rect class="cls-23" x="56.38" y="161.59" width="0.73" height="4.24"/><rect class="cls-23" x="58.26" y="161.59" width="0.73" height="2.36"/><rect class="cls-23" x="60.15" y="161.59" width="0.73" height="2.36"/><rect class="cls-23" x="62.03" y="161.59" width="0.73" height="2.36"/><rect class="cls-23" x="63.92" y="161.59" width="0.73" height="2.36"/><rect class="cls-23" x="65.8" y="161.59" width="0.73" height="4.24"/><rect class="cls-23" x="67.69" y="161.59" width="0.73" height="2.36"/><rect class="cls-23" x="69.57" y="161.59" width="0.73" height="2.36"/><rect class="cls-23" x="71.45" y="161.59" width="0.73" height="2.36"/><rect class="cls-23" x="73.34" y="161.59" width="0.73" height="2.36"/><rect class="cls-23" x="75.22" y="161.59" width="0.73" height="4.24"/><rect class="cls-23" x="77.11" y="161.59" width="0.73" height="2.36"/><rect class="cls-23" x="78.99" y="161.59" width="0.73" height="2.36"/><rect class="cls-23" x="80.88" y="161.59" width="0.73" height="2.36"/><rect class="cls-23" x="82.76" y="161.59" width="0.73" height="2.36"/><rect class="cls-23" x="84.65" y="161.59" width="0.73" height="4.24"/></g><g id="notes"><rect class="cls-5" x="224" y="163.75" width="42" height="58"/><rect class="cls-9" x="223" y="162.75" width="42" height="58"/><polygon class="cls-16" points="265 173.75 254 173.75 254 162.75 265 173.75"/><rect class="cls-5" x="226" y="181.75" width="28" height="1"/><rect class="cls-5" x="226" y="183.75" width="28" height="1"/><rect class="cls-5" x="226" y="185.75" width="28" height="1"/><rect class="cls-5" x="226" y="187.75" width="14" height="1"/><rect class="cls-5" x="226" y="167.75" width="14" height="1"/><rect class="cls-5" x="227" y="193.75" width="33" height="15"/><line class="cls-24" x1="230.59" y1="212.75" x2="256.41" y2="212.75"/><polygon class="cls-5" points="231.32 215.24 227 212.75 231.32 210.26 231.32 215.24"/><polygon class="cls-5" points="255.68 215.24 260 212.75 255.68 210.26 255.68 215.24"/><circle class="cls-25" cx="252.5" cy="201.25" r="5"/></g><g id="mouse"><path class="cls-18" d="M203.87,200.79h-4.74a4.13,4.13,0,0,1-4.13-4.13V186.58a6.5,6.5,0,0,1,6.5-6.5h0a6.5,6.5,0,0,1,6.5,6.5v10.07A4.13,4.13,0,0,1,203.87,200.79Z"/><path class="cls-26" d="M201.12,181.69a5,5,0,0,0-4.59,5v2.49h4.59Z"/><path class="cls-26" d="M201.88,181.69v7.44h4.59v-2.49A5,5,0,0,0,201.88,181.69Z"/></g><g id="cup"><rect class="cls-7" x="16.38" y="91.25" width="4.95" height="31.37" transform="translate(-22.26 6.44) rotate(-12.25)"/><polygon class="cls-9" points="14.48 86.77 13.14 92.13 17.98 91.08 14.48 86.77"/><path class="cls-27" d="M16.1,88.76l-1.62-2-.62,2.46a3.46,3.46,0,0,0,2.23-.47Z"/><rect class="cls-1" x="22.46" y="84.7" width="4.95" height="31.37"/><polygon class="cls-9" points="24.94 79.75 22.49 84.7 27.44 84.7 24.94 79.75"/><path class="cls-27" d="M26.1,82l-1.16-2.29L23.81,82a3.46,3.46,0,0,0,2.28,0Z"/><rect class="cls-18" x="29.89" y="88.83" width="4.95" height="31.37"/><polygon class="cls-9" points="32.37 83.88 29.92 88.83 34.87 88.83 32.37 83.88"/><path class="cls-27" d="M33.52,86.16l-1.16-2.29-1.13,2.28a3.46,3.46,0,0,0,2.28,0Z"/><rect class="cls-17" x="12" y="102.75" width="28" height="35"/><path class="cls-17" d="M44.79,129.75H34v-19H44.79A5.21,5.21,0,0,1,50,116v8.58A5.21,5.21,0,0,1,44.79,129.75Zm-6.79-4h5.65A2.35,2.35,0,0,0,46,123.4V117.1a2.35,2.35,0,0,0-2.35-2.35H38Z"/><rect class="cls-20" x="26.49" y="121.81" width="5.51" height="5.51"/><polygon class="cls-20" points="23.21 127.33 25.37 127.33 25.37 116.3 23.21 118.53 23.21 127.33"/><polygon class="cls-20" points="23.21 112.94 23.21 117.42 25.37 115.18 25.37 112.94 23.21 112.94"/><path class="cls-20" d="M20.41,120.68l-1.67,1.14v5.5h1.12v-1.6a.55.55,0,0,1,.55-.55h0a.55.55,0,0,1,.55.55v1.6h1.12v-5.5Z"/></g><g id="pencil-green"><rect class="cls-1" x="306.64" y="171.73" width="6" height="38" transform="translate(22.73 -32.74) rotate(6.28)"/><polygon class="cls-9" points="312.37 165.88 308.77 171.52 314.73 172.18 312.37 165.88"/><path class="cls-27" d="M313.46,168.79l-1.09-2.91-1.66,2.59a4.19,4.19,0,0,0,2.75.31Z"/></g><path id="bird" class="cls-17" d="M324.34,121.68a80.89,80.89,0,0,1-8.69-8.33,85.43,85.43,0,0,1-8.15-10.69,31.25,31.25,0,0,1-1.81-3.26c-1.18-2.61-2.22-5.77-3.08-8.33-1.27-3.8-2.51-4.51-4.71-4.51-2,0-2.72,1.43-4,1.43s-4,.54-4.53,1.27c.54.72,3.8,1.27,5.43,1.63,1.81,3.26-.4,7.15-.91,9.42-.72,3.26-1.58,8.09.54,13s8.76,7.67,11.08,8.29l-4.74,10.18.54.36,5.09-10.36.52.09-5.06,11.35.54.54,5.51-11.73c4.32.73,13.28,2.15,16.23,3.21,4.53,1.63,11,7.06,11.77,6.52C336.86,131.13,328.24,124.86,324.34,121.68Z"/></g></svg>