<svg xmlns="http://www.w3.org/2000/svg" viewBox="0 0 202 52"><defs><style>.cls-1{fill:#f96673;}.cls-2{fill:#fff;}.cls-3{fill:none;stroke:#2b393f;stroke-linecap:round;stroke-miterlimit:10;}.cls-4{fill:#2b393f;}</style></defs><title>zeppelin</title><g id="desk"><path class="cls-1" d="M86.64,31.38C59.76,20,32.88,42.78,6,31.38V13C32.88,24.4,59.76,1.6,86.64,13Z"/><path class="cls-2" d="M25.31,29.24l.83-2.11q1.6-.08,3.2-.25l.78,2,1.23-.14q-1.5-3.62-3-7.29l-1.18.09q-1.55,3.91-3.1,7.75Zm2.47-6.34,1.11,2.81q-1.14.11-2.27.18Z"/><path class="cls-2" d="M54.87,24.26,55.7,22q1.59-.28,3.17-.52l.78,2,1.22-.17q-1.48-3.61-3-7.18l-1.17.19q-1.54,4.07-3.07,8.17Zm2.44-6.62,1.1,2.73-2.25.37Z"/><path class="cls-2" d="M33.25,28.48V22.81q2,2.55,3.92,5l1.13-.21V20l-1.17.21v5.63q-1.94-2.47-3.88-5L32.08,21q0,3.81,0,7.61Z"/><path class="cls-2" d="M62.73,23.09V17.43q1.93,2.63,3.86,5.35l1.11,0q0-3.81,0-7.61l-1.15,0q0,2.81,0,5.63-1.91-2.71-3.82-5.32l-1.15.13v7.61Z"/><path class="cls-2" d="M41,20.58v6.53l1.15-.23V20.34L44,20V18.88c-1.6.34-3.2.66-4.8,1v1.08Z"/><path class="cls-2" d="M48.57,25.52V22l3.38-.7v3.55l1.15-.23V17L52,17.21v3l-3.38.7v-3l-1.15.24v7.61Z"/><path class="cls-2" d="M73.32,16.34l-.94.5a1.74,1.74,0,0,0-.5-.62,1.17,1.17,0,0,0-.64-.18,1.14,1.14,0,0,0-.8.26.84.84,0,0,0-.32.67c0,.38.28.68.84.92l.77.34a3.42,3.42,0,0,1,1.37,1,2.4,2.4,0,0,1-.27,3.08,2.42,2.42,0,0,1-1.77.62,2.48,2.48,0,0,1-1.66-.61,2.71,2.71,0,0,1-.8-1.66l1.18-.27a2,2,0,0,0,.28.94,1.25,1.25,0,0,0,1,.52,1.18,1.18,0,0,0,1.26-1.24,1.34,1.34,0,0,0-.06-.42,1.11,1.11,0,0,0-.19-.35,1.59,1.59,0,0,0-.34-.31,3.28,3.28,0,0,0-.5-.28l-.74-.33c-1.05-.46-1.58-1.1-1.58-2a1.86,1.86,0,0,1,.66-1.46,2.29,2.29,0,0,1,1.65-.56A2.4,2.4,0,0,1,73.32,16.34Z"/><path class="cls-2" d="M45.07,26.26,46.2,26V20.31l-1.14,1.23Q45.07,23.9,45.07,26.26Z"/><path class="cls-2" d="M45.07,18.65q0,1,0,2.05l1.14-1.23V18.41Z"/><path class="cls-2" d="M23.85,22.77l-.94.56a1.64,1.64,0,0,0-.5-.6,1.22,1.22,0,0,0-.64-.17,1.17,1.17,0,0,0-.8.25.81.81,0,0,0-.32.67c0,.38.28.69.84.94l.77.33a3.39,3.39,0,0,1,1.37.93A2.06,2.06,0,0,1,24.05,27a2.38,2.38,0,0,1-.71,1.76,2.33,2.33,0,0,1-1.77.68,2.39,2.39,0,0,1-1.66-.67,2.93,2.93,0,0,1-.8-1.73l1.18-.18a2.09,2.09,0,0,0,.28,1,1.25,1.25,0,0,0,1,.54,1.18,1.18,0,0,0,.9-.35,1.25,1.25,0,0,0,.36-.92,1.32,1.32,0,0,0-.06-.41,1,1,0,0,0-.19-.35,1.58,1.58,0,0,0-.34-.3,3.64,3.64,0,0,0-.5-.27L21,25.44a2.28,2.28,0,0,1-1.58-2A1.74,1.74,0,0,1,20.12,22a2.39,2.39,0,0,1,1.65-.52A2.37,2.37,0,0,1,23.85,22.77Z"/><circle class="cls-2" cx="84" cy="15" r="1"/><circle class="cls-2" cx="84" cy="28" r="1"/><path class="cls-3" d="M84,15s17.5-.5,22,7c-9.5.5-22,6-22,6"/><path class="cls-4" d="M110.71,13.72s0-5.59-1.26-9.19c2.21-2.35,9-1.62,11.54,5A37.73,37.73,0,0,0,110.71,13.72Z"/><path class="cls-4" d="M110.71,29s.54,6.67,0,10.13c3.6,1.23,9.59-1.08,10.63-5.57A33.87,33.87,0,0,1,110.71,29Z"/><path class="cls-4" d="M167.14,44H150.63a5.18,5.18,0,0,1,0-5.59,90.19,90.19,0,0,0,21.24-.36C173.26,41.84,167.14,44,167.14,44Z"/><path class="cls-4" d="M153.62,29.59c17.87-.38,31.82-3.79,38.3-9.25-1.29-11.76-20.08-15.43-43-14.19-21.6,1.17-40.23,7.32-42.77,14C112.92,26.1,132.39,30,153.62,29.59Z"/><path class="cls-4" d="M153.64,30.67q-1.51,0-3,0c-17.45,0-37-3.12-44.73-9.39,0,.11,0,.23,0,.34,0,6.85,19.29,13.52,43.08,15.5s43.07-2,43.08-15.5C185.06,27,171.18,30.3,153.64,30.67Z"/></g></svg>