<?xml version="1.0" standalone="no"?><!-- Generator: Gravit.io --><svg xmlns="http://www.w3.org/2000/svg" xmlns:xlink="http://www.w3.org/1999/xlink" style="isolation:isolate" viewBox="0 0 269 248" width="269" height="248"><defs><clipPath id="_clipPath_OZzPJTfdEKx84uD6WOg8gW1SbWITX1mF"><rect width="269" height="248"/></clipPath></defs><g clip-path="url(#_clipPath_OZzPJTfdEKx84uD6WOg8gW1SbWITX1mF)"><clipPath id="_clipPath_6mzDWykBMR6lgX5epefdb9qCHuhuk9jk"><rect x="0" y="0" width="269" height="196.981" transform="matrix(1,0,0,1,0,0)" fill="rgb(255,255,255)"/></clipPath><g clip-path="url(#_clipPath_6mzDWykBMR6lgX5epefdb9qCHuhuk9jk)"><g id="Group"><g id="Symbol 3"><path d=" M 94.493 143.592 L 80.392 168.504 L 238.359 168.504 L 145.764 7.763 L 119.761 7.763 L 196.395 143.592 L 94.493 143.592 Z " fill="rgb(183,183,183)"/></g><g id="Symbol 1"><path d=" M 168.73 143.782 L 197.57 143.782 L 120.129 7.592 L 26.232 168.489 L 39.247 191 L 118.479 54.057 L 168.73 143.782 Z " fill="rgb(0,201,107)"/></g><g id="Symbol 2"><path d=" M 132.412 78.624 L 118.526 53.523 L 39.298 190.755 L 224.801 190.824 L 237.789 168.297 L 80.607 168.349 L 132.412 78.624 Z " fill="rgb(107,0,201)"/></g></g></g><path d=" M 75.573 232.016 L 73.346 224.188 L 62.705 224.188 L 60.502 232.016 L 57.362 232.016 L 67.205 198.406 L 68.799 198.406 L 78.69 232.016 L 75.573 232.016 Z  M 67.932 205.813 L 63.526 221.305 L 72.549 221.305 L 68.119 205.813 L 68.026 204.57 L 67.932 205.813 Z  M 93.408 232.016 L 90.783 232.016 L 90.783 232.016 Q 89.471 232.016 88.311 231.523 L 88.311 231.523 L 88.311 231.523 Q 87.151 231.031 86.295 230.164 L 86.295 230.164 L 86.295 230.164 Q 85.44 229.297 84.936 228.148 L 84.936 228.148 L 84.936 228.148 Q 84.432 227 84.432 225.688 L 84.432 225.688 L 84.432 210.758 L 80.119 210.758 L 80.119 208.016 L 84.432 208.016 L 84.432 202.25 L 87.315 201.781 L 87.315 208.016 L 93.408 208.016 L 93.408 210.758 L 87.315 210.758 L 87.315 225.828 L 87.315 225.828 Q 87.315 226.555 87.584 227.176 L 87.584 227.176 L 87.584 227.176 Q 87.854 227.797 88.323 228.266 L 88.323 228.266 L 88.323 228.266 Q 88.791 228.734 89.424 229.004 L 89.424 229.004 L 89.424 229.004 Q 90.057 229.273 90.783 229.273 L 90.783 229.273 L 93.408 229.273 L 93.408 232.016 Z  M 110.073 232.016 L 107.448 232.016 L 107.448 232.016 Q 106.135 232.016 104.975 231.523 L 104.975 231.523 L 104.975 231.523 Q 103.815 231.031 102.959 230.164 L 102.959 230.164 L 102.959 230.164 Q 102.104 229.297 101.6 228.148 L 101.6 228.148 L 101.6 228.148 Q 101.096 227 101.096 225.688 L 101.096 225.688 L 101.096 210.758 L 96.783 210.758 L 96.783 208.016 L 101.096 208.016 L 101.096 202.25 L 103.979 201.781 L 103.979 208.016 L 110.073 208.016 L 110.073 210.758 L 103.979 210.758 L 103.979 225.828 L 103.979 225.828 Q 103.979 226.555 104.248 227.176 L 104.248 227.176 L 104.248 227.176 Q 104.518 227.797 104.987 228.266 L 104.987 228.266 L 104.987 228.266 Q 105.455 228.734 106.088 229.004 L 106.088 229.004 L 106.088 229.004 Q 106.721 229.273 107.448 229.273 L 107.448 229.273 L 110.073 229.273 L 110.073 232.016 Z  M 119.448 202.25 L 116.096 202.25 L 116.096 198.406 L 119.448 198.406 L 119.448 202.25 Z  M 119.213 232.016 L 116.33 232.016 L 116.33 208.016 L 119.213 208.016 L 119.213 232.016 Z  M 141.971 225.43 L 141.971 225.43 L 141.971 225.43 Q 141.971 226.883 141.42 228.172 L 141.42 228.172 L 141.42 228.172 Q 140.869 229.461 139.908 230.422 L 139.908 230.422 L 139.908 230.422 Q 138.948 231.383 137.658 231.934 L 137.658 231.934 L 137.658 231.934 Q 136.369 232.484 134.916 232.484 L 134.916 232.484 L 132.994 232.484 L 132.994 232.484 Q 131.541 232.484 130.252 231.934 L 130.252 231.934 L 130.252 231.934 Q 128.963 231.383 128.002 230.422 L 128.002 230.422 L 128.002 230.422 Q 127.041 229.461 126.491 228.172 L 126.491 228.172 L 126.491 228.172 Q 125.94 226.883 125.94 225.43 L 125.94 225.43 L 125.94 214.602 L 125.94 214.602 Q 125.94 213.148 126.491 211.859 L 126.491 211.859 L 126.491 211.859 Q 127.041 210.57 128.002 209.609 L 128.002 209.609 L 128.002 209.609 Q 128.963 208.648 130.252 208.098 L 130.252 208.098 L 130.252 208.098 Q 131.541 207.547 132.994 207.547 L 132.994 207.547 L 134.916 207.547 L 134.916 207.547 Q 136.369 207.547 137.658 208.098 L 137.658 208.098 L 137.658 208.098 Q 138.948 208.648 139.908 209.609 L 139.908 209.609 L 139.908 209.609 Q 140.869 210.57 141.42 211.859 L 141.42 211.859 L 141.42 211.859 Q 141.971 213.148 141.971 214.602 L 141.971 214.602 L 141.971 215.563 L 139.088 216.031 L 139.088 214.438 L 139.088 214.438 Q 139.088 213.57 138.76 212.809 L 138.76 212.809 L 138.76 212.809 Q 138.432 212.047 137.869 211.484 L 137.869 211.484 L 137.869 211.484 Q 137.307 210.922 136.545 210.594 L 136.545 210.594 L 136.545 210.594 Q 135.783 210.266 134.916 210.266 L 134.916 210.266 L 132.994 210.266 L 132.994 210.266 Q 132.127 210.266 131.366 210.594 L 131.366 210.594 L 131.366 210.594 Q 130.604 210.922 130.041 211.484 L 130.041 211.484 L 130.041 211.484 Q 129.479 212.047 129.151 212.809 L 129.151 212.809 L 129.151 212.809 Q 128.823 213.57 128.823 214.438 L 128.823 214.438 L 128.823 225.594 L 128.823 225.594 Q 128.823 226.461 129.151 227.223 L 129.151 227.223 L 129.151 227.223 Q 129.479 227.984 130.041 228.547 L 130.041 228.547 L 130.041 228.547 Q 130.604 229.109 131.366 229.438 L 131.366 229.438 L 131.366 229.438 Q 132.127 229.766 132.994 229.766 L 132.994 229.766 L 134.916 229.766 L 134.916 229.766 Q 135.783 229.766 136.545 229.438 L 136.545 229.438 L 136.545 229.438 Q 137.307 229.109 137.869 228.547 L 137.869 228.547 L 137.869 228.547 Q 138.432 227.984 138.76 227.223 L 138.76 227.223 L 138.76 227.223 Q 139.088 226.461 139.088 225.594 L 139.088 225.594 L 139.088 224 L 141.971 224.469 L 141.971 225.43 Z  M 163.768 225.43 L 163.768 225.43 L 163.768 225.43 Q 163.768 226.883 163.217 228.172 L 163.217 228.172 L 163.217 228.172 Q 162.666 229.461 161.705 230.422 L 161.705 230.422 L 161.705 230.422 Q 160.744 231.383 159.455 231.934 L 159.455 231.934 L 159.455 231.934 Q 158.166 232.484 156.713 232.484 L 156.713 232.484 L 154.791 232.484 L 154.791 232.484 Q 153.338 232.484 152.049 231.934 L 152.049 231.934 L 152.049 231.934 Q 150.76 231.383 149.799 230.422 L 149.799 230.422 L 149.799 230.422 Q 148.838 229.461 148.287 228.172 L 148.287 228.172 L 148.287 228.172 Q 147.737 226.883 147.737 225.43 L 147.737 225.43 L 147.737 214.602 L 147.737 214.602 Q 147.737 213.148 148.287 211.859 L 148.287 211.859 L 148.287 211.859 Q 148.838 210.57 149.799 209.609 L 149.799 209.609 L 149.799 209.609 Q 150.76 208.648 152.049 208.098 L 152.049 208.098 L 152.049 208.098 Q 153.338 207.547 154.791 207.547 L 154.791 207.547 L 156.713 207.547 L 156.713 207.547 Q 158.166 207.547 159.455 208.098 L 159.455 208.098 L 159.455 208.098 Q 160.744 208.648 161.705 209.609 L 161.705 209.609 L 161.705 209.609 Q 162.666 210.57 163.217 211.859 L 163.217 211.859 L 163.217 211.859 Q 163.768 213.148 163.768 214.602 L 163.768 214.602 L 163.768 225.43 Z  M 160.885 225.594 L 160.885 214.438 L 160.885 214.438 Q 160.885 213.57 160.557 212.809 L 160.557 212.809 L 160.557 212.809 Q 160.229 212.047 159.666 211.484 L 159.666 211.484 L 159.666 211.484 Q 159.104 210.922 158.342 210.594 L 158.342 210.594 L 158.342 210.594 Q 157.58 210.266 156.713 210.266 L 156.713 210.266 L 154.791 210.266 L 154.791 210.266 Q 153.924 210.266 153.162 210.594 L 153.162 210.594 L 153.162 210.594 Q 152.401 210.922 151.838 211.484 L 151.838 211.484 L 151.838 211.484 Q 151.276 212.047 150.948 212.809 L 150.948 212.809 L 150.948 212.809 Q 150.619 213.57 150.619 214.438 L 150.619 214.438 L 150.619 225.594 L 150.619 225.594 Q 150.619 226.461 150.948 227.223 L 150.948 227.223 L 150.948 227.223 Q 151.276 227.984 151.838 228.547 L 151.838 228.547 L 151.838 228.547 Q 152.401 229.109 153.162 229.438 L 153.162 229.438 L 153.162 229.438 Q 153.924 229.766 154.791 229.766 L 154.791 229.766 L 156.713 229.766 L 156.713 229.766 Q 157.58 229.766 158.342 229.438 L 158.342 229.438 L 158.342 229.438 Q 159.104 229.109 159.666 228.547 L 159.666 228.547 L 159.666 228.547 Q 160.229 227.984 160.557 227.223 L 160.557 227.223 L 160.557 227.223 Q 160.885 226.461 160.885 225.594 L 160.885 225.594 Z  M 185.565 232.016 L 184.604 232.016 L 183.01 229.578 L 183.01 229.578 Q 182.026 230.914 180.549 231.699 L 180.549 231.699 L 180.549 231.699 Q 179.073 232.484 177.315 232.484 L 177.315 232.484 L 176.588 232.484 L 176.588 232.484 Q 175.135 232.484 173.846 231.934 L 173.846 231.934 L 173.846 231.934 Q 172.557 231.383 171.596 230.422 L 171.596 230.422 L 171.596 230.422 Q 170.635 229.461 170.084 228.172 L 170.084 228.172 L 170.084 228.172 Q 169.533 226.883 169.533 225.43 L 169.533 225.43 L 169.533 214.602 L 169.533 214.602 Q 169.533 213.148 170.084 211.859 L 170.084 211.859 L 170.084 211.859 Q 170.635 210.57 171.596 209.609 L 171.596 209.609 L 171.596 209.609 Q 172.557 208.648 173.846 208.098 L 173.846 208.098 L 173.846 208.098 Q 175.135 207.547 176.588 207.547 L 176.588 207.547 L 177.315 207.547 L 177.315 207.547 Q 178.932 207.547 180.315 208.203 L 180.315 208.203 L 180.315 208.203 Q 181.698 208.859 182.682 210.031 L 182.682 210.031 L 182.682 198.406 L 185.565 198.406 L 185.565 232.016 Z  M 182.682 225.594 L 182.682 214.438 L 182.682 214.438 Q 182.682 213.57 182.354 212.809 L 182.354 212.809 L 182.354 212.809 Q 182.026 212.047 181.463 211.484 L 181.463 211.484 L 181.463 211.484 Q 180.901 210.922 180.139 210.594 L 180.139 210.594 L 180.139 210.594 Q 179.377 210.266 178.51 210.266 L 178.51 210.266 L 176.588 210.266 L 176.588 210.266 Q 175.721 210.266 174.959 210.594 L 174.959 210.594 L 174.959 210.594 Q 174.198 210.922 173.635 211.484 L 173.635 211.484 L 173.635 211.484 Q 173.073 212.047 172.744 212.809 L 172.744 212.809 L 172.744 212.809 Q 172.416 213.57 172.416 214.438 L 172.416 214.438 L 172.416 225.594 L 172.416 225.594 Q 172.416 226.461 172.744 227.223 L 172.744 227.223 L 172.744 227.223 Q 173.073 227.984 173.635 228.547 L 173.635 228.547 L 173.635 228.547 Q 174.198 229.109 174.959 229.438 L 174.959 229.438 L 174.959 229.438 Q 175.721 229.766 176.588 229.766 L 176.588 229.766 L 178.51 229.766 L 178.51 229.766 Q 179.377 229.766 180.139 229.438 L 180.139 229.438 L 180.139 229.438 Q 180.901 229.109 181.463 228.547 L 181.463 228.547 L 181.463 228.547 Q 182.026 227.984 182.354 227.223 L 182.354 227.223 L 182.354 227.223 Q 182.682 226.461 182.682 225.594 L 182.682 225.594 Z  M 207.362 225.43 L 207.362 225.43 L 207.362 225.43 Q 207.362 226.883 206.811 228.172 L 206.811 228.172 L 206.811 228.172 Q 206.26 229.461 205.299 230.422 L 205.299 230.422 L 205.299 230.422 Q 204.338 231.383 203.049 231.934 L 203.049 231.934 L 203.049 231.934 Q 201.76 232.484 200.307 232.484 L 200.307 232.484 L 198.385 232.484 L 198.385 232.484 Q 196.932 232.484 195.643 231.934 L 195.643 231.934 L 195.643 231.934 Q 194.354 231.383 193.393 230.422 L 193.393 230.422 L 193.393 230.422 Q 192.432 229.461 191.881 228.172 L 191.881 228.172 L 191.881 228.172 Q 191.33 226.883 191.33 225.43 L 191.33 225.43 L 191.33 214.602 L 191.33 214.602 Q 191.33 213.148 191.881 211.859 L 191.881 211.859 L 191.881 211.859 Q 192.432 210.57 193.393 209.609 L 193.393 209.609 L 193.393 209.609 Q 194.354 208.648 195.643 208.098 L 195.643 208.098 L 195.643 208.098 Q 196.932 207.547 198.385 207.547 L 198.385 207.547 L 200.307 207.547 L 200.307 207.547 Q 201.76 207.547 203.049 208.098 L 203.049 208.098 L 203.049 208.098 Q 204.338 208.648 205.299 209.609 L 205.299 209.609 L 205.299 209.609 Q 206.26 210.57 206.811 211.859 L 206.811 211.859 L 206.811 211.859 Q 207.362 213.148 207.362 214.602 L 207.362 214.602 L 207.362 220.25 L 194.213 220.25 L 194.213 225.594 L 194.213 225.594 Q 194.213 226.461 194.541 227.223 L 194.541 227.223 L 194.541 227.223 Q 194.869 227.984 195.432 228.547 L 195.432 228.547 L 195.432 228.547 Q 195.994 229.109 196.756 229.438 L 196.756 229.438 L 196.756 229.438 Q 197.518 229.766 198.385 229.766 L 198.385 229.766 L 200.307 229.766 L 200.307 229.766 Q 201.174 229.766 201.936 229.438 L 201.936 229.438 L 201.936 229.438 Q 202.698 229.109 203.26 228.547 L 203.26 228.547 L 203.26 228.547 Q 203.823 227.984 204.151 227.223 L 204.151 227.223 L 204.151 227.223 Q 204.479 226.461 204.479 225.594 L 204.479 225.594 L 204.479 224 L 207.362 224.469 L 207.362 225.43 Z  M 204.479 218 L 204.479 214.438 L 204.479 214.438 Q 204.479 213.57 204.151 212.809 L 204.151 212.809 L 204.151 212.809 Q 203.823 212.047 203.26 211.484 L 203.26 211.484 L 203.26 211.484 Q 202.698 210.922 201.936 210.594 L 201.936 210.594 L 201.936 210.594 Q 201.174 210.266 200.307 210.266 L 200.307 210.266 L 198.385 210.266 L 198.385 210.266 Q 197.518 210.266 196.756 210.594 L 196.756 210.594 L 196.756 210.594 Q 195.994 210.922 195.432 211.484 L 195.432 211.484 L 195.432 211.484 Q 194.869 212.047 194.541 212.809 L 194.541 212.809 L 194.541 212.809 Q 194.213 213.57 194.213 214.438 L 194.213 214.438 L 194.213 218 L 204.479 218 Z " fill-rule="evenodd" fill="rgb(46,46,46)"/></g></svg>