<svg xmlns="http://www.w3.org/2000/svg" viewBox="0 0 941.1 257.97"><defs><style>.a{isolation:isolate;}.b{fill:#231f20;}.c{fill:#ffd554;}.d{fill:#e6318a;}.e{fill:#37ad66;}.f{fill:#6fc6d4;}</style></defs><title>log</title><g class="a"><g class="a"><path class="b" d="M419.92,127.24c-7.82,9.69-19.74,17.41-30.08,17.41-22.16,0-35.11-18-35.11-37,0-13.88,5.87-25.61,17.6-34.74,8.85-6.8,19.37-9.87,26.17-9.87h.19c7.54,0,13.41,2.61,16,4.84,2.42,1.86,3,3.07,3,5,0,3.63-4,7.45-5.68,7.45a4.12,4.12,0,0,1-3.35-1.58,24.83,24.83,0,0,0-17.6-7.08c-12.66,0-23.19,10.9-23.19,28.87-.19,24.4,16.3,32.5,27,32.5,7.45,0,13.32-2.23,21.79-10.43Z" transform="translate(-2.76 -3.07)"/></g><g class="a"><path class="b" d="M471.67,63.08c21.33,0,38.09,17.32,38.09,39.39,0,29.05-21.14,42.19-38.09,42.19-23.84,0-38.37-19.37-38.37-39,0-29.61,22.63-42.56,38.18-42.56Zm-23.28,37c0,22.16,10,38.37,25.42,38.37,11.55,0,20.86-8.75,20.86-32.31,0-19.65-8.75-36.78-24.86-36.78C458.53,69.32,448.38,80,448.38,100.05Z" transform="translate(-2.76 -3.07)"/></g><g class="a"><path class="b" d="M621.29,142.61v-5C632,136.74,634,135.72,634,123.43V94.19c0-12.11-3.91-21-15.92-21-7.08,0-14.16,4.38-21,10.06a38.4,38.4,0,0,1,.56,7.45v33.52c0,11.27,1.68,12.48,11.92,13.32v5H571.84v-5c11.36-.84,13.32-2,13.32-13.69V94.19c0-13.32-4.66-21-15.92-21-7.82,0-15.37,5.77-20.77,10.06v40.6c0,11.64,1.58,12.85,10.43,13.69v5h-36.5v-5c11.92-.84,13.69-2,13.69-13.69V87.95c0-11.55-.56-12.11-11.27-13.6V69.79c7.73-1.4,16.58-3.63,23.65-7.26V77.24A118.1,118.1,0,0,1,562,67.55a24.17,24.17,0,0,1,14.16-4.47c8.29,0,15.74,5.31,19.56,14.9,5.4-4.38,10.52-7.64,14.9-10.62a26.14,26.14,0,0,1,13.6-4.28c13.32,0,22.54,9.68,22.54,27v33.8c0,12,1.4,12.85,11.73,13.69v5Z" transform="translate(-2.76 -3.07)"/><path class="b" d="M734.66,128.45c-11.36,13.32-23.19,16.2-28.68,16.2-21.14,0-33.9-17.6-33.9-37.62,0-12.11,4.19-23.19,11.45-31.2,7.08-7.92,16.58-12.76,25.33-12.76H709c14.71,0,26.45,12.94,26.45,27.1,0,4-.65,5.21-3.73,6.05-2.79.37-25.42,2.14-47,2.79.09,24,14.34,34.08,26.45,34.08,7.36,0,13.78-3.17,20.39-9ZM705,70c-8.29,0-16.3,7.45-19.56,21.42,10.34.19,20.58,0,31.48-.28,3.45-.19,4.47-1.21,4.47-3.82,0-9.31-6.43-17.32-16.2-17.32Z" transform="translate(-2.76 -3.07)"/></g><g class="a"><path class="b" d="M785.68,142.24a18.18,18.18,0,0,1-8.1,2.42c-10.71,0-16.67-7.08-16.67-20.77V72.39H748.34l-.74-2,4.84-5.21h8.47V52.65l9.68-11.55,2.61.37V65.13h20.58c1.77,1.77,1.21,5.68-1,7.26H773.2v45.35c0,14.16,5.87,16.95,10.43,16.95A25.47,25.47,0,0,0,795,131.53l1.77,4.66Z" transform="translate(-2.76 -3.07)"/></g><g class="a"><path class="b" d="M864.43,144.66a13.26,13.26,0,0,1-7.64-3.07,16.25,16.25,0,0,1-4.38-8.1c-7.36,4.84-15.55,11.17-21.7,11.17-12,0-20.77-10.15-20.77-21.79,0-8.29,4.66-14.53,14.71-17.6,10.71-3.63,23.65-8.66,27.47-11.45V91.3c0-13-6.61-20.3-15.55-20.3a10.82,10.82,0,0,0-8.47,3.63c-2.23,2.61-3.63,6.05-5.4,11.45-.46,2.61-2.42,3.82-5,3.82s-7.26-3.35-7.26-7.45c0-2.61,2.61-4.66,5.87-7.08,4.38-3.35,15.64-10.24,26-12.29,5,0,10.52,1.58,14.16,4.84,5.87,5,7.82,12.11,7.82,21V122.4c0,7.92,2.89,10.71,6.24,10.71,2,0,4.66-1.21,6.33-2l2,4.94Zm-12.29-44.61c-4,2-13.5,6.05-17.51,7.82-7.26,3.07-11.17,6.52-11.17,13.13a13.11,13.11,0,0,0,13.13,13.32c4.84,0,12.11-4,15.55-7.08Z" transform="translate(-2.76 -3.07)"/><path class="b" d="M935.76,86.46c-3.26-10.9-9.13-17.69-17.6-17.69-7.08,0-11.73,5.4-11.73,12.67,0,8.29,7.36,12.29,15,15.18,13.13,5.4,22.44,11.73,22.44,23.84,0,15.93-15,24.21-29,24.21-9.22,0-17.51-3.45-20.3-6.05-1.4-2.61-3.07-14.53-3.07-20.77L897,117c3,11.92,10.43,21.61,21.14,21.61a13.06,13.06,0,0,0,13.13-12.94c0-7.82-5.87-11.92-14.06-15.92-11.73-5.31-22.44-10.71-22.44-24.21,0-12.11,10.43-22.44,26.45-22.44a38.17,38.17,0,0,1,15.55,3.07c1.77,4,3.45,14.06,4.19,18.9Z" transform="translate(-2.76 -3.07)"/></g></g><path class="c" d="M121.6,160.2c-.9,2.4-2.5,10.9-3.9,15.6a161.45,161.45,0,0,1-20,41.4,104,104,0,0,1-40.2,35.6c-11.2,5.5-17.3,6.4-18.7,8-1,1.1,10.8-1.9,14.9-2.8s9.4-3.6,15.8-7.1,27.2-21.4,36.5-36.5,21.7-46.7,21.7-46.7S122.6,159.2,121.6,160.2Z" transform="translate(-2.76 -3.07)"/><path class="d" d="M78.5,53.6S66.4,60.8,61.3,65.1c-7,5.8-10.1,14.8-11.6,19.9-6.6,24.2-6.2,29.3-9.2,39.1s-7,20.4-11.4,26.9S-5.6,192.7,5,185.2c1.4-1,19.8-19.5,19.8-19.5s10.8-13,16.9-26.9S52.3,87.7,57.3,78.9C60.2,74,62.4,68.8,68.6,65c3-1.9,12.4-4.7,14.7-5C84.7,59.8,78.5,53.6,78.5,53.6Z" transform="translate(-2.76 -3.07)"/><path class="e" d="M250.4,145.9c-1.8-19.7-11.2-39.5-13-43.5-.2-.4-12-3-7.6-1s16,36.6,14.3,50.7c-.7,5.8-2.8,15.2-10,27.1s-25.8,34.2-25.8,34.2-5.8,7-8.3,10.2-3.9,9.1-3.9,9.8,1.1.9,1.9.3c.5-.4,19.6-27.3,32.2-41.4S252.2,165.5,250.4,145.9Z" transform="translate(-2.76 -3.07)"/><path class="c" d="M76.1,67.5C75.5,72,120.6,174.1,124,174.7s30.7-84.2,30.7-84.2S76.6,63,76.1,67.5Z" transform="translate(-2.76 -3.07)"/><path class="f" d="M229.8,114.7c-2.8-2.8-66.4-25-66.4-25s-33.1,80.7-29.7,83.5S232.6,117.5,229.8,114.7Z" transform="translate(-2.76 -3.07)"/><path class="e" d="M186.1,3.1C183.8,1.4,160.6,82,160.6,82s77.2,29,78.8,26.2S188.3,4.8,186.1,3.1Z" transform="translate(-2.76 -3.07)"/><path class="d" d="M178.6,6.7C177.4,4.5,67.2,55.9,71.2,59.2s81.9,23.6,81.9,23.6S179.7,9,178.6,6.7Z" transform="translate(-2.76 -3.07)"/></svg>