<svg id="Layer_1" data-name="Layer 1" xmlns="http://www.w3.org/2000/svg" viewBox="0 0 820 240"><defs><style>.cls-1{isolation:isolate;}.cls-2{fill:#333;}.cls-3{fill:#ffd25d;}.cls-4{fill:#e73f96;}.cls-5{fill:#33b674;}.cls-6{fill:#62c7d2;}</style></defs><title>logo</title><g class="cls-1"><path class="cls-2" d="M277.41,143.55c-7.82,9.68-19.74,17.41-30.08,17.41-22.16,0-35.11-18-35.11-37,0-13.87,5.87-25.61,17.6-34.74,8.85-6.8,19.37-9.87,26.17-9.87h.19c7.54,0,13.41,2.61,16,4.84,2.42,1.86,3,3.07,3,5,0,3.63-4,7.45-5.68,7.45a4.11,4.11,0,0,1-3.35-1.58,24.83,24.83,0,0,0-17.6-7.08c-12.67,0-23.19,10.9-23.19,28.87-.19,24.4,16.3,32.5,27,32.5,7.45,0,13.32-2.23,21.79-10.43Z"/><path class="cls-2" d="M322.1,79.39c21.33,0,38.09,17.32,38.09,39.39C360.19,147.84,339,161,322.1,161c-23.84,0-38.37-19.37-38.37-39,0-29.61,22.63-42.56,38.18-42.56Zm-23.28,37c0,22.16,10,38.37,25.42,38.37,11.55,0,20.86-8.75,20.86-32.31,0-19.65-8.75-36.78-24.86-36.78C309,85.63,298.82,96.34,298.82,116.36Z"/><path class="cls-2" d="M463.37,158.92v-5c10.71-.84,12.76-1.86,12.76-14.16V110.5c0-12.11-3.91-21-15.92-21-7.08,0-14.16,4.38-21,10.06a38.49,38.49,0,0,1,.56,7.45v33.52c0,11.27,1.68,12.48,11.92,13.32v5H413.92v-5c11.36-.84,13.32-2,13.32-13.69V110.5c0-13.32-4.66-21-15.92-21-7.82,0-15.37,5.77-20.77,10.06v40.6c0,11.64,1.58,12.85,10.43,13.69v5h-36.5v-5c11.92-.84,13.69-2,13.69-13.69V104.26c0-11.55-.56-12.11-11.27-13.6V86.1c7.73-1.4,16.58-3.63,23.65-7.26V93.55A118.17,118.17,0,0,1,404,83.86a24.17,24.17,0,0,1,14.16-4.47c8.29,0,15.74,5.31,19.56,14.9,5.4-4.38,10.52-7.64,14.9-10.62a26.13,26.13,0,0,1,13.6-4.28c13.32,0,22.54,9.68,22.54,27v33.8c0,12,1.4,12.85,11.73,13.69v5Z"/><path class="cls-2" d="M567.58,144.76C556.22,158.08,544.39,161,538.9,161c-21.14,0-33.9-17.6-33.9-37.62,0-12.11,4.19-23.19,11.45-31.2,7.08-7.92,16.58-12.76,25.33-12.76H542c14.71,0,26.45,12.94,26.45,27.1,0,4-.65,5.21-3.72,6.05-2.79.37-25.42,2.14-47,2.79.09,24,14.34,34.08,26.45,34.08,7.36,0,13.78-3.17,20.39-9ZM537.87,86.28c-8.29,0-16.3,7.45-19.56,21.42,10.34.19,20.58,0,31.48-.28,3.45-.19,4.47-1.21,4.47-3.82,0-9.31-6.43-17.32-16.2-17.32Z"/><path class="cls-2" d="M613.65,158.55a18.17,18.17,0,0,1-8.1,2.42c-10.71,0-16.67-7.08-16.67-20.77V88.7H576.3l-.75-2,4.84-5.21h8.47V69l9.69-11.55,2.61.37V81.44h20.58c1.77,1.77,1.21,5.68-1,7.26H601.17v45.35c0,14.16,5.87,16.95,10.43,16.95A25.46,25.46,0,0,0,623,147.84l1.77,4.66Z"/><path class="cls-2" d="M686.9,161a13.26,13.26,0,0,1-7.64-3.07,16.25,16.25,0,0,1-4.38-8.1c-7.36,4.84-15.55,11.17-21.7,11.17-12,0-20.77-10.15-20.77-21.79,0-8.29,4.66-14.53,14.71-17.6,10.71-3.63,23.65-8.66,27.47-11.45v-2.51c0-13-6.61-20.3-15.55-20.3a10.82,10.82,0,0,0-8.47,3.63c-2.24,2.61-3.63,6.05-5.4,11.45-.47,2.61-2.42,3.82-5,3.82s-7.26-3.35-7.26-7.45c0-2.61,2.61-4.66,5.87-7.08,4.38-3.35,15.64-10.24,26-12.29,5,0,10.52,1.58,14.16,4.84,5.87,5,7.82,12.11,7.82,21v33.43c0,7.92,2.89,10.71,6.24,10.71,2,0,4.66-1.21,6.33-2l2,4.94Zm-12.29-44.61c-4,2-13.5,6.05-17.51,7.82-7.26,3.07-11.17,6.52-11.17,13.13a13.11,13.11,0,0,0,13.13,13.32c4.84,0,12.11-4,15.55-7.08Z"/><path class="cls-2" d="M752.5,102.77c-3.26-10.9-9.13-17.69-17.6-17.69-7.08,0-11.73,5.4-11.73,12.67,0,8.29,7.36,12.29,15,15.18,13.13,5.4,22.44,11.73,22.44,23.84,0,15.92-15,24.21-29,24.21-9.22,0-17.51-3.45-20.3-6.05-1.4-2.61-3.07-14.53-3.07-20.77l5.49-.84c3,11.92,10.43,21.61,21.14,21.61A13.06,13.06,0,0,0,748,142c0-7.82-5.87-11.92-14.06-15.92-11.73-5.31-22.44-10.71-22.44-24.21,0-12.11,10.43-22.44,26.45-22.44a38.17,38.17,0,0,1,15.55,3.07c1.77,4,3.45,14.06,4.19,18.9Z"/></g><polygon class="cls-3" points="51.52 193.11 79.66 70.19 124.01 117.58 51.52 193.11"/><polygon class="cls-4" points="81.95 67.91 173.68 70.95 129.33 112.25 81.95 67.91"/><polygon class="cls-5" points="175.96 73.23 179 164.96 134.66 117.58 175.96 73.23"/><polygon class="cls-6" points="176.72 167.24 53.8 195.39 129.33 122.9 176.72 167.24"/></svg>