<svg xmlns="http://www.w3.org/2000/svg" viewBox="0 0 100 100"><defs><style>.cls-1{fill:#f96673;}.cls-2{fill:#2b393f;}</style></defs><title>team-placeholder</title><g id="Layer_1" data-name="Layer 1"><rect class="cls-1" y="0.23" width="100" height="100"/><path class="cls-2" d="M20.54,79.89C21.93,77,26,72.82,28.7,70.1c1.45-1.45,2.17-7.61,1.09-8.15s-6.52-3.81-7.07-4.89a3.47,3.47,0,0,1,0-3.26c.54-1.09,0-2.17,1.09-3.26,2.17-2.17,12-5.44,13-6.52s1.09-2.17,2.72-2.72S46.64,38,49.9,37.49c1.07-.18,4.35,0,4.89,1.09a7.73,7.73,0,0,1,1.09,3.26c0,1.09,0,2.17,1.09,2.17h1.09s1.63.54,1.09,2.72c-.26,1.05,2.72,4.35,1.63,6s-5,5.72-7.07,6.52c-7.07,2.72-12.6-.75-15.76,1.63-1.07.81-.13,3.27-.54,5.44s-1.65,4.32-1.09,5.44c1.09,2.17,2.72,4.89,6,4.89s17.4-3.81,18.48-5.44,2.72-12,3.81-15.22c.73-2.19,5.44-5.44,6.52-6S74.9,47.27,76,47.27s6.55-2.55,7.07-2.72c1.63-.54,2.17,1.09,1.63,1.63-.26.26-3.75,1.22-7.07,2.72a23,23,0,0,0-5.44,3.26h1.09s3.08-1.33,3.81-1.09c1.63.54.54,3.81.54,3.81s1.63.54,1.09,1.63c1.63.54,1.63,1.06,1.63,1.63,0,1.09-2.72.54-2.72.54l-.54,1.63h-.54c-.54,0-.54-1.09-.54-1.09a4.06,4.06,0,0,0-1.63,1.63c-2.17-.54,0-2.72,0-2.72a19.77,19.77,0,0,0-2.17.54c-1.09-.54-2.69-.58-3.26,0-3.81,3.81-2.17,17.4-3.26,17.94s-20.11,8.15-20.11,8.15L48.81,100H15.11S19.57,81.9,20.54,79.89Z"/></g></svg>