<svg id="Layer_1" data-name="Layer 1" xmlns="http://www.w3.org/2000/svg" viewBox="0 0 1400 347"><defs><style>.cls-1{fill:#600800;}</style></defs><title>rotkopf</title><path class="cls-1" d="M120,0c4.51,1,9.06,1.9,13.53,3.05,10.64,2.75,20.29,7.4,28.15,15.29,1.29,1.29,3,2.59,3.48,4.18,1.61,6,6.49,7.58,11.4,9.75,17.08,7.56,31.41,18.47,38.71,36.29,5.5,13.44,6.51,27.74,5.52,42.16-.13,1.8-.34,3.87-1.3,5.29-4,5.89-2,12.36-2.57,18.65-1.31,14.74,4.15,28.5,5,42.8a56.72,56.72,0,0,1-3.42,21.82c-3.41,9.5-11.6,14.25-21.5,15.64-2.79.39-3.93,1.32-4.11,4.31-.88,14.62-2,29.23-3.06,43.84-.72,10.15-5.37,18.69-12.26,25.59-8,8-16.77,15.15-25.47,22.36-8.45,7-17.26,13.59-25.86,20.43-8,6.39-15.69,13.37-26.21,15.55H87c-6-2.69-12-5.21-19-3.54-3.09.74-6.63,0-9.9-.53-13.84-2.16-22.3-14.66-19.41-28.61,1.14.18,2.27.42,3.42.55,13.7,1.57,20.63-5.57,19.39-19.25-.51-5.59,0-11.27,5-15.43,2.65-2.2,4.84-5,7.7-8a51.71,51.71,0,0,0-25.08-1.74c-3.1.56-6.1,2.85-8.64,5-3.21,2.67-10.43,3.56-12.9,1s-2.23-15.15.46-17.83c8.34-8.35,17.85-13.65,30.19-12.55,4.88.43,9.3-1.27,13.84-4.88-2.82-.27-4.76-.4-6.69-.64-10.29-1.27-14.86-5.86-14.38-16.31.28-6.17,2.46-12.26,3.86-18.36.36-1.6,1.21-3.1,1.5-4.71,1.5-8.14,2.44-16.41,4.44-24.42,3.1-12.45,1-17.76-10.82-23.28,1-12.28-4.94-21.77-13.8-30.49l11.41-4c.44-3,.47-5.59,1.19-7.92,3.45-11.1.67-21-5.55-30.25C41.71,78.45,40,77.72,37,78.24c-4.21.73-8.6.33-12.86.85-2,.25-4.54,1-5.7,2.42A53.34,53.34,0,0,0,6.81,110.72c-.19,2-.48,4-.73,6l-1.59.15Q2.26,110.43,0,104V87c1.71-7.24,3.38-14.49,5.13-21.73,6.28-25.89,20.7-45,46-55a111.22,111.22,0,0,1,15.6-5.14C75.41,3.1,84.23,1.67,93,0ZM64,147.69l1.85.45c1.76-10.23,8.28-16.75,16.07-22.44.95-.69,1.12-3.49.56-4.88-.37-.91-2.76-1.63-4.11-1.43-9.65,1.39-12.72,8.73-14.25,16.9C63.44,140,64,143.88,64,147.69ZM155.21,162l.34-1.38c-2.69-2.79-5.83-4.93-10-4.9-9.13.07-18.28.13-27.4.5a81.73,81.73,0,0,0-10,1.48Zm-42.42,17.45c-.83-2.6-1.64-5.73-2.86-8.69-.52-1.24-1.94-2.12-3-3.16-.76,1.09-2.07,2.11-2.21,3.28C104.24,175.38,108.18,179,112.79,179.48Zm12.34-6.15,3.81-4.43c-1.35-.91-2.68-2.46-4.07-2.52-1.14,0-2.36,1.68-3.55,2.62Z"/><path class="cls-1" d="M1400,151c-1.5,5.43-2.55,11-4.58,16.26-9.42,24.2-26.22,41.75-49.23,53.53q-2.22,1.14-4.47,2.23c-8.1,4-8.1,4-6.62,12.85.27,1.65.6,3.28.77,4.94.78,7.57,2,8.32,9.63,6.71,12.54-2.63,25.09-5.21,37.67-7.59a19.78,19.78,0,0,1,7.89.16,5.83,5.83,0,0,1,3.57,3.4c.26.78-1.58,3.08-2.8,3.37-5.26,1.27-10.69,3.08-16,2.8-11-.57-21.52,1.15-32,4.13-3.57,1-4.56,3.28-3.89,6.38,2.66,12.35,5.35,24.71,8.42,37,.46,1.86,2.9,3.27,4.54,4.77s3.89,2.31,4.71,4a14.77,14.77,0,0,1-13.8,21.25c-5.44-.16-7.89-2.21-9.59-8.91q-6.69-26.36-13.08-52.79c-1.64-6.7-2.25-7.1-8.81-5q-10.42,3.42-20.9,6.66a17.4,17.4,0,0,1-3.78.3l-.62-1.54c4.91-2.34,9.7-5,14.76-6.93,5.25-2,10.75-3.43,16.8-5.32-1-5.86-1.64-11.79-3.19-17.48-.32-1.18-4.1-2.33-6-2-8,1.38-15.9,3.59-23.92,5-30,5.4-60.24,6.76-90.6,5.47-10.8-.46-20-5.39-28.17-13,8.74-6.06,17.49-7.84,27.12-3.53,3.63,1.63,7.46,2.81,11.15,4.34,3.42,1.41,5.2-.13,5.73-3.27a33.09,33.09,0,0,0,.4-8c-1.43-18.78-20.61-29.75-37.19-21.34-24.84,12.6-37,33.76-39.88,60.61-1.9,17.87-2.66,35.86-3.87,53.81-.66,9.7-1.92,11.3-11.3,13.49-1.76.41-3.55.7-6.2,1.22.66-18,.93-35.61,2-53.16s3.08-35.08,4.74-53.27c-3.13.44-6.53.77-9.86,1.41-11.93,2.28-23.83,4.73-35.76,7-4,.76-6.38,2.58-7.35,6.86-3.1,13.72-11.75,22.93-24.56,28.19-12.27,5-24.86,8.94-38.35,6-15.12-3.34-20-14.1-12.76-27.68,1.15-2.16,2.26-4.35,3.66-7.05a43.49,43.49,0,0,0-22,2.23c-20.26,7.47-40.86,14.11-58.61,27.22-8.54,6.3-18,11.42-27.25,16.67-8.63,4.89-14.6,3.29-19.84-5.21a84.79,84.79,0,0,1-7.61-15.1c-2.67-7.27-.57-13.19,6.17-17.82s14.07-8.89,21.21-13.15c6.36-3.79,7.35-7,3.36-13.39-5.05-8.07-12.58-10.89-21.84-10-8.44.82-14.15,5.35-16.29,13.29a148.75,148.75,0,0,0-4.71,24.9c-1,11.09-1.16,22.29-1.23,33.45,0,5.39-1.88,8.8-7,10.62-2.92,1-5.66,2.6-9.15,4.25-.21-3.41-.53-6.17-.53-8.93q.07-30,.24-60c0-2.16-.14-4.33-.08-6.49.12-4.47-1.76-5.36-5.92-4.1q-34.12,10.38-68.36,20.4c-4.74,1.39-6.39,4.49-6.9,9.15-.76,6.91-1.49,13.94-3.37,20.6-2.82,10-16.88,19.44-27,19a9,9,0,0,1-4.21-1.33,32.07,32.07,0,0,1-15.66-24.3c-.71-5.66,4.51-11,10.13-10.09,1.8.31,3.87,2.89,4.6,4.87,2.44,6.7,5.59,12.82,11.24,17.38,4.87,3.92,6.77,3.26,7.47-3,.77-6.94,1.12-13.94,1.58-20.92.28-4.19-1.75-5.27-5.62-4.21s-8.08,1.92-12.12,2.87l-.6-1.79c2.24-1.11,4.41-2.39,6.72-3.31C731.76,236.93,732,237,731,225.59c-2-24.56-4.22-49.1-6.37-73.65-.14-1.65-.42-3.28-.64-4.92l-1.39-1.23a41.1,41.1,0,0,1-3.6,5.08C692,179,662.25,203.75,627,221.18a147,147,0,0,1-48.55,14.46c-6,.7-9.52,3.66-12,9-6.13,13.37-14.73,24.61-28.77,30.51a46.43,46.43,0,0,1-11.46,3.26c-11.34,1.57-19.88-7.09-17.47-18.26,1.41-6.57,4.48-12.8,6.9-19.14a45.55,45.55,0,0,1,2.56-4.85c-28.47-5.5-51.68,2.2-70.39,23.79a125.7,125.7,0,0,1-15.05,14.49c-6.19,5.12-10.37,4.72-16.27-.85-10.9-10.3-21.62-20.8-32.52-31.1q-8-7.53-16.41-14.6c-3-2.49-2.75-4.32-.1-6.85,6.7-6.37,15.26-6.83,23.67-7.93,18-2.34,35.32-6.59,51.15-15.79,8.63-5,15.73-11.36,17.74-21.71,2.38-12.16-3.61-24.11-15.38-31A72.66,72.66,0,0,0,407,134.31c-16.76.23-33.5,2.26-50.24,3.53-4.25.32-5,3.16-4.79,6.71.83,12.81,2,25.6,2.38,38.41.52,17.12,1.61,34.36.19,51.36-.87,10.31-5.49,20.47-9.41,30.31-3,7.48-9.84,11.06-17.65,12.34-5.78,1-9.53-1.05-9.8-4.88-.41-5.76,4.38-11.28,9.78-11,2.42.15,4.8,1,8.15,1.75,1.26-5.77,3.29-11.49,3.66-17.31a542.4,542.4,0,0,0-1.67-83.38c-.4-4.31-.6-8.65-1.14-12.94-.65-5.18-1.51-5.66-6.41-3.4-11.79,5.41-23.71,10.61-35.21,16.59-7.48,3.89-14.28,9.08-21.45,13.58-4.15,2.6-8.43,5-13.34,7.86-.39-6.95,3.17-10.25,7.21-13.33,16.95-12.9,35.58-22.72,55.38-30.46,14.49-5.66,12.75-4.39,11.74-18.62-.18-2.65-.26-5.33-.2-8,.24-9.38,5.73-14.33,16.73-14,0,7.58.13,15.21-.05,22.84-.11,4.84,1.83,6.39,6.63,5.83,17-2,34.07-4,51.15-5.39a90.66,90.66,0,0,1,47.5,9.19c20.88,10.21,26.11,30.35,12.85,49.54a65.24,65.24,0,0,1-28.31,23.14c-14.18,6.06-28.91,10.85-43.4,16.18-1.67.62-3.37,1.16-5.82,2,1.67,1.91,2.74,3.31,4,4.52q17.07,16.51,34.2,33c4.33,4.16,5.52,4,9.7-.53,16.05-17.44,35-30.24,58.51-35.09a94.52,94.52,0,0,1,17.89-1.42c7.15-.07,14.31.34,21.45.81,2.43.16,4.8,1.14,7.2,1.74l.83,1.54c-3.33,2.6-6.43,5.6-10,7.72-8.2,4.82-12.54,13.77-10.3,22.35,1.43,5.43,5.13,8.39,10.42,9.57s8.4-1.74,11-5.84c5-8,9-16.22,9.92-25.83a8.53,8.53,0,0,1,3.91-5.89c4.05-2.05,8.69-4.54,13-4.32,36.36,1.89,66.75-11.86,94.61-33.89,19.74-15.6,37.85-32.45,52.23-53.32,4.71-6.82,11.64-12.14,17.7-18,.92-.89,2.66-.93,4-1.37.43,1.51,1.43,3.1,1.2,4.51-4.83,30.78,1.74,61.11,3.57,91.62.23,3.82.85,7.61,1.12,11.43.31,4.51,2.35,5.57,6.65,4.32,17.41-5,34.88-9.88,52.34-14.8,5.44-1.53,10.84-3.24,16.34-4.54,4.15-1,5.32-3.19,5.46-7.43.42-13.27.4-26.68,2.44-39.75,3.7-23.7,20.57-35.25,42.17-40.58a64.3,64.3,0,0,1,23.62-1.16c15.83,2.19,23.61,15.11,19.93,30.85-1.76,7.54-5.9,13.65-11.14,19.19-15.41,16.28-35,25.63-55.36,33.85-1.68.68-3,2.31-4.43,3.49l1.25,1.78c2.15-1,4.24-2.16,6.46-3,9-3.28,17.88-7.34,27.17-9.43,12.14-2.72,23.32,4.34,27.91,15.93,2.1,5.32.84,9.68-4.24,12.92-5.89,3.75-12,7.18-18,10.76-12.29,7.32-13.32,11-6.66,23.82,1.38,2.65,2.79,5.31,4.4,7.83,4.19,6.59,7.19,7.25,13.35,2.53,14.09-10.78,28.91-20.53,45.53-26.67s33.52-10.71,50.36-15.83c8.9-2.7,17.91-5.06,26.86-7.61,4.74-1.34,8.14,0,10.23,5.4-4.35,1.69-8.81,3-12.86,5.11-3.6,1.87-7.41,4.06-10,7.1a14,14,0,0,0,3.49,20.57c8.6,5.14,18,6.45,27.16,1.62,8.86-4.66,12-12.93,12.37-22.48.16-4.05-1.68-7-5.14-9.05-1.65-1-3.18-2.17-5.11-3.5,4.82-5.24,10.48-7.27,16.6-5.91,20.66,4.58,40.68,1.72,60.62-4,5.42-1.56,11.26-1.74,16.55-3.58a93.9,93.9,0,0,0,17.91-8.36c12.47-7.64,25.4-13.8,40-16,18.22-2.77,32.68,5.56,36.7,21.35,2.11,8.32.2,16.16-3.63,24.45,5,.62,9.55,1.33,14.11,1.71,24.18,2,47.82-1.47,71.24-7.23,4.41-1.09,5.87-3.53,5.75-7.86q-.62-23.24-.87-46.48c-.2-18.22,4.85-35.17,12.88-51.33,6.47-13,18.31-17.77,31.63-19.88,20.54-3.24,34.32,6.2,39.34,26.65a12.25,12.25,0,0,0,1,2.14ZM1332,221c3-1.4,5.3-2.32,7.45-3.5,20.5-11.17,33.1-28.73,40.71-50.35,3.25-9.25,4.92-18.66,3-28.41-2.28-11.34-6.15-21.88-16.6-28.38-8.35-5.19-14.92-4.66-20.58,3.13a66.85,66.85,0,0,0-9.79,19.85C1327.65,161.78,1330.68,190.94,1332,221ZM845.2,203.61c17.19-7,34.14-13.35,46.45-27.25A41.43,41.43,0,0,0,900.43,161c4.72-16.44-4.26-30.18-20-32-13.09-1.5-24,4.52-29.68,16.4C841.91,163.85,842.65,183.16,845.2,203.61Z"/><path class="cls-1" d="M0,157c6.6-3.61,12.92-8,19.9-10.6,5.31-2,10.7.32,14.91,4.65a79.91,79.91,0,0,0,7.3,6L42,158.55c-5.33,0-10.68.21-16-.05A35.43,35.43,0,0,0,6.38,163c-2.5,1.42-4.59,1.64-6.38-1Z"/><path class="cls-1" d="M27.66,186l5.79-8c-2.59-3-4.34-5.44-6.53-7.39a7.64,7.64,0,0,0-5-2.12c-3,.21-6,1.31-9.07,2,10.4-11.22,26.43-9.83,37.21,1.45.74.78.79,2.82.38,4C47.13,186,37.61,190.08,27.66,186Z"/><path class="cls-1" d="M28.59,239.07c.54-9.91,3.22-17.28,10.2-21.88,0,3.4.11,7.2-.07,11a5.47,5.47,0,0,1-1.5,3.32C34.78,233.89,32.11,236,28.59,239.07Z"/></svg>