
<svg xmlns="http://www.w3.org/2000/svg" width="245.3" height="214" viewBox="0 0 245.332 213.998"><path fill="#373739" d="M82.6 28.6z"/><g fill="#373739"><path d="M13 167.2h3.3l.5-5.3 4.7-.4-.5 5.6h6.5L27 171h-6.3l-.6 7.4c0 1.4-.4 4-.4 5.8 0 1.5.4 2.5 2.2 2.5 1.4 0 3.2-.5 4.4-1.2l-.4 4c-1.3.6-3 1.2-5 1.2-5 0-6-2.7-6-6l.5-5.8.7-8h-3.3l.3-3.8zM56 190.4h-7.4c.2-2.5.6-5.5 1.5-10.2-1.4 4.8-3.8 10.5-9.3 10.5-4.8 0-6-4-6-8.7 0-4.6 2-15.2 12.6-15.2 2.2 0 4 .5 5.8 1h2l-.8 5.6-1 13.3h3l-.3 3.7zm-14.3-4c4.2 0 8.2-12 8.2-15.5-.8-.3-1.8-.5-3-.5-6 0-7.7 7.8-7.7 11.7 0 2.5.7 4.3 2.4 4.3zM65.2 156.2h8.4l-1 11.3-1 7c1-3 3.8-7.7 9.4-7.7 3.3 0 5 2.3 5 4.8 0 5-5 7.5-9 9l1.4 1.4 4 4.7h3.2l-.4 3.7h-6l-7.6-9.3c-.6 3.2-1 7-1.3 9.4H66l1-9.2 1.7-21.4H65l.2-3.6zm14 14.8c-2.6 0-6.3 3.3-7.4 9 1.7-.5 9.3-3 9.3-7 0-1.2-.7-2-2-2zM95 167.2h3.3l.5-5.3 4.7-.4-.5 5.6h6.4l-.3 3.7h-6.3l-.7 7.4c0 1.4-.4 4-.4 5.8 0 1.5.4 2.5 2 2.5s3.3-.4 4.6-1.2l-.4 4c-1.4.6-3.2 1.2-5.2 1.2-4.8 0-5.7-2.7-5.7-6 0-.5 0-3 .3-5.8l.7-8h-3.4l.3-3.8zM117.6 167.2h8.3l-.5 4.2c-.3 3-.8 8.7-.8 10.2 0 2.6.4 5 2.3 5 3.2 0 6.2-5.6 7-17.4v-2h4.8l-.7 7-.2 6c0 5 .8 6.5 2.6 6.5 3.4 0 6-7.6 6.3-15.8h-3l.2-3.8h7.5c-.3 12-3.7 23.6-12 23.6-4.8 0-5.4-5-5.4-8.3-.3 2.3-2.4 8.3-8 8.3-5 0-6-4-6-9 0-3.6.3-7.3.6-11h-3.3l.3-3.6zM176 189.2c-1 .7-4 1.6-7.4 1.6-6 0-9-3.6-9-9.5 0-6.5 3.3-14.5 12-14.5 3.4 0 6.7 1.6 6.7 5.4 0 7.3-10.2 9-13.8 9.2 0 3.2 1.4 5.5 5.7 5.5 2 0 4.5-1 6.5-2l-.6 4.2zm-5-18.8c-4.5 0-6 4.6-6.5 8 4.4-.8 9-2 9-5.6 0-1.2-.7-2.4-2.6-2.4zM187 167.2h7.5l-1 9c1.3-4.8 3.3-9.4 8-9.4 1 0 1.8 0 2.2.2l-.6 4.5c-.3 0-.8-.3-1.3-.3-6 0-8 11-8.6 17.7v1.4h-4.7l.8-8 1-11.5h-3.4l.3-3.8zM210.7 156.2h8.3l-1 11.3c0 2-.7 5-1 7 1-3 3.8-7.7 9.5-7.7 3.2 0 5 2.3 5 4.8 0 5-5 7.5-9 9l1.3 1.4 4 4.7h3.2l-.3 3.7h-6L217 181c-.5 3.2-1 7-1.2 9.4h-4.5c.5-3 .8-6 1-9.2l1.8-21.4h-3.7l.3-3.6zm14 14.8c-2.7 0-6.4 3.3-7.4 9 1.6-.5 9.2-3 9.2-7 0-1.2-.7-2-2-2z"/></g><path fill="#D4D700" d="M117.6 47l1-.8 23 13.3-.3 1.2 34 19.6c.6-3 .4-6-.7-8.7l-20-44.8c-2.3-5-8.7-8.8-14.3-8.3L116 21l-24.5 2.7c-2.8.3-5.6 1.7-8 3.8l34 19.6z"/><path fill="#D9DADB" d="M110 89l-.3-.8L99 64l.7-.8-16-35.8c-2.2 2-3.8 4.6-4.4 7.3L69 82.7c-.6 3.4.3 7.3 2.2 10.4l39-4z"/><path fill="#373739" d="M99 64L118.5 46l-34-19.6-1.7 1.6L99 64z"/><path fill="#AAAD00" d="M174.6 82.3l1-3.3-34-19.5-5.6 26-.2 1 38.8-4.2z"/><path fill="#A7A8AA" d="M138.6 117L171 87.8c2-1.6 3.3-4 4-6.4l-39 4-7.3 1-58 6c1.2 2.3 3 4.2 5 5.5l12 7 30.6 17.5c4.8 2.8 12.2 2 16.4-1.8l4-3.4z"/></svg>
