<svg xmlns="http://www.w3.org/2000/svg" viewBox="0 0 1000 600"><defs><style>.cls-1{fill:#6fbfff;}.cls-2{fill:#1a1a1a;}</style></defs><title>schiffmode-logo</title><g id="bg"><rect class="cls-1" width="1000" height="600"/></g><g id="Layer_1" data-name="Layer 1"><polygon class="cls-2" points="285.65 130.99 370.14 177.18 401.46 157.01 277.94 126.78 279.01 127.36 285.65 130.99"/><polygon class="cls-2" points="452.75 222.35 487.74 241.47 505.3 92.14 374.61 179.63 452.75 222.35"/><polygon class="cls-2" points="724.07 179.24 597.55 179.9 624.17 206.66 724.07 179.24"/><polygon class="cls-2" points="619.05 207.78 509.23 92.51 491.58 242.5 619.05 207.78"/><path class="cls-2" d="M779.71,253.88c-47.33,0-71.38,5.67-94.64,11.15-3.29.78-6.56,1.55-9.87,2.3l59-87.43L455.38,256.42q-4.39-.51-9.15-.94l38.51-10.57L267.49,125.55,319.2,263.34,312,265c-23.64,5.57-46,10.84-91.91,10.84a6,6,0,0,0,0,11.93c47.33,0,71.38-5.67,94.64-11.15,2.91-.69,5.8-1.37,8.72-2,20.77-4.75,42.9-8.8,83.18-8.8h2q6.26,0,12,.17c36.79,1,56.87,5.68,78,10.66,23.26,5.48,47.31,11.15,94.64,11.15,32.85,0,54.48-2.73,72.43-6.24,7.91-1.54,15.1-3.24,22.22-4.92,23.64-5.57,46-10.84,91.9-10.84a6,6,0,1,0,0-11.93Z"/><path class="cls-2" d="M304.92,377.54l20.85-1.3a15.91,15.91,0,0,0,2.76,7.74q3.39,4.31,9.67,4.3,4.69,0,7.23-2.2A6.6,6.6,0,0,0,348,381a6.51,6.51,0,0,0-2.42-4.93q-2.42-2.18-11.22-4.11-14.42-3.24-20.56-8.61a17.31,17.31,0,0,1-6.19-13.69,18.6,18.6,0,0,1,3.17-10.33,21,21,0,0,1,9.53-7.64q6.36-2.78,17.44-2.78,13.59,0,20.73,5.06T366.94,350l-20.66,1.21q-.82-4.79-3.46-7a11.11,11.11,0,0,0-7.28-2.18q-3.82,0-5.76,1.62a5,5,0,0,0-1.93,3.94,4,4,0,0,0,1.6,3q1.55,1.4,7.35,2.61,14.37,3.1,20.58,6.26a21.65,21.65,0,0,1,9,7.86,19.94,19.94,0,0,1,2.83,10.5,22.49,22.49,0,0,1-3.78,12.58,23.61,23.61,0,0,1-10.54,8.73q-6.78,3-17.08,3-18.09,0-25.06-7A27.48,27.48,0,0,1,304.92,377.54Z"/><path class="cls-2" d="M427.51,372l19.2,5.8a35.44,35.44,0,0,1-6.09,13.5,26.47,26.47,0,0,1-10.33,8.18q-6.17,2.76-15.7,2.76-11.56,0-18.89-3.36T383,387q-5.32-8.46-5.32-21.66,0-17.6,9.36-27t26.48-9.45q13.4,0,21.07,5.42T446,350.94l-19.35,4.31a16.71,16.71,0,0,0-2.13-4.74,12.63,12.63,0,0,0-4.5-3.87,13.83,13.83,0,0,0-17.37,4.64q-3,4.45-3,14,0,11.79,3.58,16.16t10.06,4.37q6.28,0,9.5-3.53T427.51,372Z"/><path class="cls-2" d="M457.45,330.09h21.91V354.9h23.94V330.09h22V401h-22V372.32H479.37V401H457.45Z"/><path class="cls-2" d="M540.75,330.09h22V401h-22Z"/><path class="cls-2" d="M578.53,330.09h54.18v15.24H600.54v12.38H628V372H600.54v29h-22Z"/><path class="cls-2" d="M644.61,330.09h54.18v15.24H666.62v12.38H694.1V372H666.62v29h-22Z"/><path class="cls-2" d="M304.16,416.78h36.4l14,54.49,13.94-54.49H404.9v89.56H382.23V438l-17.46,68.3H344.26L326.82,438v68.3H304.16Z"/><path class="cls-2" d="M419.08,461.62q0-21.93,12.22-34.15t34-12.22q22.36,0,34.46,12t12.1,33.63q0,15.7-5.29,25.75a37.64,37.64,0,0,1-15.27,15.64q-10,5.59-24.89,5.59-15.15,0-25.08-4.82a37.77,37.77,0,0,1-16.1-15.27Q419.08,477.32,419.08,461.62Zm27.67.12q0,13.56,5,19.49t13.72,5.93q8.91,0,13.8-5.81t4.89-20.83q0-12.65-5.1-18.48t-13.84-5.83a16.8,16.8,0,0,0-13.44,5.92Q446.75,448.05,446.75,461.74Z"/><path class="cls-2" d="M527.15,416.78h41.12q12.15,0,19.64,3.3a32,32,0,0,1,12.37,9.47,39.26,39.26,0,0,1,7.09,14.36,66.62,66.62,0,0,1,2.2,17.35q0,14.36-3.27,22.27a36.84,36.84,0,0,1-9.07,13.26,29.58,29.58,0,0,1-12.46,7.12,64.2,64.2,0,0,1-16.49,2.44H527.15Zm27.68,20.28V486h6.78q8.68,0,12.34-1.92a13,13,0,0,0,5.74-6.72q2.08-4.79,2.08-15.55,0-14.23-4.64-19.49t-15.4-5.25Z"/><path class="cls-2" d="M624,416.78h74.16V435.9H651.78v14.24h43.07V468.4H651.78v17.66h47.78v20.28H624Z"/></g></svg>