<svg xmlns="http://www.w3.org/2000/svg" viewBox="0 0 1136 560"><defs><style>.cls-1{fill:#300033;}</style></defs><title>frontale-rooster</title><g id="Layer_2" data-name="Layer 2"><g id="_Group_" data-name="&lt;Group&gt;"><g id="_Group_2" data-name="&lt;Group&gt;"><g id="_Group_3" data-name="&lt;Group&gt;"><path id="_Compound_Path_" data-name="&lt;Compound Path&gt;" class="cls-1" d="M448.26,304.58c-78.61-8.65-88.74,43.67-55.94,79.6-5-22,2.46-65.69,62.2-57.05-72,1.61-66,64.21-28,79.2-2.21-20.67-8.84-39.8,31.38-53-44.77,20.51-26.91,63.34,18.69,70.31-15.49-17.23-12-33.25,18-42.26-8.79,23.9-1.5,47.06,33,47.93a55.46,55.46,0,0,1,2.22,5.24,127.88,127.88,0,0,1,4.61,17.17c.21.94-10,.06-10,.06s10.78,5.75,10.88,7.1c.42,5.85-1.39,16.46-1.39,16.46l6.31-4.32,9.18,8.57-2.08-8.48,14,1.83-19-15.26s4.21-15.48,8.86-23.46a39.34,39.34,0,0,1,4-4.91l6.76-1s2.25,12,3.67,16.25c.31.91-10.07,2.82-10.07,2.82s11.49,2.87,11.74,4.2c1.06,5.77.42,16.52.42,16.52l5.8-5,10.06,7.51-3-8.2,14.08.29L574.1,449.7s3.64-14.38,7.24-23c2.17-1.76,5.06-1.83,12.16-4.2,9.72-3.25,39.61-7.72,69.22-30.67,23.75-18.41,28.1-51.28,12.08-79.48s-51.06-55.57-51.06-55.57,22,6,24.14-.67c1.32-4.16-4.75-9.6-4.75-9.6s16,3.75,17.07-3.53c1.89-12.34-20.48-18.17-20.48-18.17s1.15-15.72,13.12-21.12c-15.13-7.67-22.2,13.76-27.3,13-6.95-1.05-15-37.42-15-37.42s-14,10-7.38,33.24c-7.15-8.52-12.1-7.67-22.55-6.94-16.23-37.63-45.53-12.44-40,8.34,6.25-8.24,15.64-11.34,26.07-5.09-22.59-5.47-27.5,10.89-22.43,19.32,4.36-5.4,11.33-9.73,20.59-7.39-25.5,2.56-17.82,19.82-10.93,25-1.05-10.17,7.76-15.54,14.85-14.76-16.12,7.26-12.24,22-1.54,23.35,1.11-9.57,6.41-11.3,14.76-8.65,3.4,1,39,95.56-49.28,87.84-46.18-4-53.64-54.24-80-64.2-46.68-17.67-104.38,23.65-83.28,77.55C367.34,298.32,409.56,292.44,448.26,304.58Zm155-75.12a4.76,4.76,0,1,1,4.76,4.76A4.76,4.76,0,0,1,603.21,229.46Z"/></g></g><g id="_Group_4" data-name="&lt;Group&gt;"><path id="_Path_" data-name="&lt;Path&gt;" class="cls-1" d="M703.43,132.42c-4.37-9.34-8.57-18.34-12.79-27.33-.68-1.46-1.45-2.88-2.38-4.72l-20.66,8.17c1,2.47,1.89,4.59,2.78,6.7,4,9.49,8.11,18.91,11.91,28.47,1.74,4.39,1.21,7.29-1.93,10.2s-8.15,3.81-11.6,2a6.24,6.24,0,0,1-2.22-9.25c2.58-3.91,7.46-6.14,13.48-4.15-.47-1.07-.79-1.85-1.15-2.61-4.48-9.73-9-19.44-13.43-29.19-1.49-3.28-1.06-3.8,2.23-5.14,7.37-3,14.67-6.17,22-9.24a3.19,3.19,0,0,1,2-.27,3.22,3.22,0,0,1,1.79,1.5c.15.33-.69,1.16-1.18,1.67a5.31,5.31,0,0,1-1.33.7c1.5,3.43,3,6.83,4.47,10.21q5.21,11.81,10.42,23.61a8.58,8.58,0,0,1-2.4,10.49c-3.42,2.91-8.55,3.52-11.84,1.42a6.59,6.59,0,0,1-1.85-8.66C692.25,132.71,697.27,130.93,703.43,132.42Z"/><path id="_Path_2" data-name="&lt;Path&gt;" class="cls-1" d="M751.33,136.32,746,104c-1-6.17-2.16-12.32-3-18.51-.75-5.32,2-7.45,6.85-5.24A45.88,45.88,0,0,1,768,94.75c4,5.38,3.59,11.29.92,17.14-1.7,3.72-3.68,7.31-5.29,11.06-2,4.62-1.47,6,2.39,9.25.53.44.6,1.43.88,2.17-.9.15-1.92.66-2.68.4-4-1.39-7.14-6.84-6.49-11.37a20.88,20.88,0,0,1,2-7.17c4.42-7.9-1.71-25.85-11.29-30.09-.48-.21-1-.34-1.57-.52,1.35,10.35,2.61,20.45,4,30.55,1.11,8,2.47,16,3.56,24,1.14,8.35-6,15.52-14.88,15.13-7.37-.33-12.33-4.14-12.76-9.81-.4-5.19,4.26-10.18,10.93-11.71C741.48,132.91,744.26,133.42,751.33,136.32Z"/><path id="_Path_3" data-name="&lt;Path&gt;" class="cls-1" d="M649.21,148.43c-.15,1.18-.88,1.2-1.82,1a6.15,6.15,0,0,1-4.77-5.58,12.52,12.52,0,0,1,.15-3.81c1-4.62-4.44-12.69-9.73-13.7-.34-.06-.69-.08-1.3-.14,1.57,3.7,3.05,7.2,4.55,10.69,2.32,5.42,4.7,10.83,7,16.27,1.34,3.22.74,6.27-1.54,8.36-2.56,2.35-6.53,3.14-9.33,1.77s-3.77-4.69-1.95-7.59c2.07-3.3,6-4.61,10.8-3.39-.84-1.89-1.59-3.58-2.35-5.27-3-6.72-6.07-13.41-9-20.15-1.21-2.75.08-4.42,3-3.81a26,26,0,0,1,11,4.72,8.8,8.8,0,0,1,3.34,8.92c-.26,1.62-.65,3.22-1,4.83C645.27,146,645.47,146.43,649.21,148.43Z"/></g></g></g></svg>