<svg xmlns="http://www.w3.org/2000/svg" viewBox="0 0 1112 560"><defs><style>.cls-1{fill:#ffbd37;}.cls-2{fill:#300033;}.cls-3{fill:none;}.cls-4{fill:#002395;}.cls-5{fill:#ed2939;}.cls-6{fill:#fff;}</style></defs><title>frontale-logo</title><g id="Layer_1" data-name="Layer 1"><rect class="cls-1" width="1112" height="560"/></g><g id="Layer_2" data-name="Layer 2"><g id="_Group_" data-name="&lt;Group&gt;"><g id="_Group_2" data-name="&lt;Group&gt;"><path id="_Compound_Path_" data-name="&lt;Compound Path&gt;" class="cls-2" d="M225.1,373.64a34.14,34.14,0,0,1-4.51.38q-.61,0-.61-.47a3.21,3.21,0,0,1,1.48-2.28,13.35,13.35,0,0,1,4.82-2.09,77.94,77.94,0,0,1,3.43-9.82,11.61,11.61,0,0,0-7.71,3.1q-.75.75-1.22,1.17a1.33,1.33,0,0,1-.82.42q-.35,0-.68-.56a3,3,0,0,1-.33-1.5q0-3.62,4.89-5.87a27.75,27.75,0,0,1,11.94-2.21l14.1.24q1.27,0,1.27,1a2.79,2.79,0,0,1-.38,1,11,11,0,0,0-.66,1.57,2.51,2.51,0,0,1-2.63,1.69H246l-6.25,0H236.1a64.19,64.19,0,0,1-2.26,8.74l8.6.14q.75,0,.75.89a3.77,3.77,0,0,1-.23,1q-.24.7-.42,1.46-.38,1.55-1.6,1.55l-7.14-.33h-.61a5.5,5.5,0,0,0-.66,0q-2.44,9-2.44,14.19,0,2.77-5.41,2.77a1.28,1.28,0,0,1-1.39-1.2,19,19,0,0,1-.21-3.17A49.19,49.19,0,0,1,225.1,373.64Z"/><path id="_Compound_Path_2" data-name="&lt;Compound Path&gt;" class="cls-2" d="M255.51,384a10.88,10.88,0,0,0,7.1-2.91,19.71,19.71,0,0,0,2.07-2q.8-.92,1.22-.92.66,0,.66,1.32a7.47,7.47,0,0,1-.7,2.94,9.85,9.85,0,0,1-2.35,3.17q-4,3.81-11.09,3.81-5.59,0-7.61-4a9.26,9.26,0,0,1-.71-4,16,16,0,0,1,1-5.48,16.36,16.36,0,0,1,2.75-4.91,12.56,12.56,0,0,1,4-3.22,10.46,10.46,0,0,1,4.82-1.15,5.64,5.64,0,0,1,3.95,1.27A4.26,4.26,0,0,1,262,371.1a5.22,5.22,0,0,1-1,3.31,8.28,8.28,0,0,1-2.61,2.16,23.85,23.85,0,0,1-3.55,1.55q-2,.68-3.83,1.53v1.17a2.57,2.57,0,0,0,1.41,2.4A7.07,7.07,0,0,0,255.51,384Zm-.8-13.25q-2.44,0-3.38,5.69,1-.66,1.86-1.18t1.53-1a3.07,3.07,0,0,0,1.46-2.35Q256.17,370.73,254.71,370.73Z"/><path id="_Compound_Path_3" data-name="&lt;Compound Path&gt;" class="cls-2" d="M274.92,366.33a7.54,7.54,0,0,1,4.7,1.17,4.08,4.08,0,0,1,1.55,3.43,5.68,5.68,0,0,1-1.34,3.81,7.32,7.32,0,0,1-3.27,2.23,31.67,31.67,0,0,1,2.47,2.87,5,5,0,0,1,1.1,3.05,5.56,5.56,0,0,1-2.49,4.86,12.09,12.09,0,0,1-6.93,1.72q-4.44,0-6.65-1.76a5.07,5.07,0,0,1-2.21-4,7.73,7.73,0,0,1,1.1-4.07q1.1-1.83,2.37-1.83a1.17,1.17,0,0,1,1.08.54,23.28,23.28,0,0,1,1.22,3.13,5.35,5.35,0,0,0,1.08,1.79q1.74,1.93,5.5,1.93a7.72,7.72,0,0,0-1.81-3.08q-1.25-1.29-2.47-2.51a17.76,17.76,0,0,1-2.16-2.61,5.68,5.68,0,0,1-.94-3.27,6.82,6.82,0,0,1,2.54-5.5A8.85,8.85,0,0,1,274.92,366.33Zm-.19,8.72q1.88-2,1.88-3.24a1.45,1.45,0,0,0-1.55-1.46,5.38,5.38,0,0,0-1.43.19l-1.1.28Q272.53,372.61,274.73,375.05Z"/><path id="_Compound_Path_4" data-name="&lt;Compound Path&gt;" class="cls-2" d="M285.14,386.54a11.24,11.24,0,0,1-.78-2.91,35.52,35.52,0,0,1-.23-4.68,40.11,40.11,0,0,1,1.13-8.13h-2.12q-.56,0-.56-.47a6.82,6.82,0,0,1,.21-1.86,4.82,4.82,0,0,1,1-1.67h1.13q.66,0,1.41,0,2.26-7.24,4.61-7.24,1.88,0,2.63,2.4.19.66.42,1.41l-1.93,3.38q3.29.09,4.16.09t.94.16a1.32,1.32,0,0,1,.07.49,7.35,7.35,0,0,1-.4,2.12q-.4,1.27-.92,1.22l-4.7-.23a58,58,0,0,0-1,9.49q0,3.76,1.08,3.76a8,8,0,0,0,3.24-1.48,12.81,12.81,0,0,0,3.38-2.84q1-1.36,1.69-1.36t.66,1.6a5.83,5.83,0,0,1-1.13,3.27,14.06,14.06,0,0,1-2.84,3.05,16,16,0,0,1-3.81,2.28,9.52,9.52,0,0,1-3.64.89,3.47,3.47,0,0,1-2.37-.73A5.51,5.51,0,0,1,285.14,386.54Z"/><path id="_Compound_Path_5" data-name="&lt;Compound Path&gt;" class="cls-2" d="M303.59,389.25q-4.7,0-4.7-8.79a30.07,30.07,0,0,1,1.17-8.69q1.83-6,4.14-6,1.36,0,2.16,1.83a6,6,0,0,1,.61,2.77,34.1,34.1,0,0,1-1.13,6.63,30.29,30.29,0,0,0-1.08,5.12,1.62,1.62,0,0,0,.49,1.36,1.88,1.88,0,0,0,1.18.38,3,3,0,0,0,1.72-.89q1-.89,2.07-2l1.9-2q.87-.89,1.2-.89.66,0,.66,1.6,0,3.29-3.31,6.42A10,10,0,0,1,303.59,389.25Zm1.93-27.31a7.09,7.09,0,0,1-1.27-4,8.36,8.36,0,0,1,.68-3.6,9.1,9.1,0,0,1,1.29-2.11,1.85,1.85,0,0,1,1.41-.68q1.32,0,2.4,2a7.13,7.13,0,0,1,1.08,3.27,4.65,4.65,0,0,1-1.72,3.83A6,6,0,0,1,305.52,361.94Z"/><path id="_Compound_Path_6" data-name="&lt;Compound Path&gt;" class="cls-2" d="M319.05,368.42a26.62,26.62,0,0,1-1.13,7.14q.09,1.51.09,2.91a13.77,13.77,0,0,0,.19,2.44,3.63,3.63,0,0,0,1.79,2.3q.94,0,2.07-1.62a35.83,35.83,0,0,0,2.3-3.88,16.22,16.22,0,0,1-.56-4.09,9.11,9.11,0,0,1,1-4.94,4.27,4.27,0,0,1,3.85-2,3.35,3.35,0,0,1,3.43,2,4.19,4.19,0,0,1,.33,1.69,7.94,7.94,0,0,1-.85,3.45,43,43,0,0,1-2.73,4.63q.85,2.49,2.54,2.49a5.23,5.23,0,0,0,3.57-1.46l1-1a1.15,1.15,0,0,1,.82-.42q.66,0,.66,1.55a5.13,5.13,0,0,1-1.67,4.25,6.51,6.51,0,0,1-4.21,1.34,6.11,6.11,0,0,1-5.31-2.91q-5.5,7.14-9.21,7.14-1.46,0-2.87-4.14A53.42,53.42,0,0,1,312,374.16q-.56-4.46.66-6.39,1-1.5,4-1.5a2.22,2.22,0,0,1,1.74.68A2.18,2.18,0,0,1,319.05,368.42Z"/><path id="_Compound_Path_7" data-name="&lt;Compound Path&gt;" class="cls-2" d="M364.17,378q.85,0,.85,2.16a5.87,5.87,0,0,1-1,2.84,12.65,12.65,0,0,1-2.56,3.05,14.46,14.46,0,0,1-3.5,2.28,8.9,8.9,0,0,1-3.76.89q-2.49,0-3.34-4.37a10.25,10.25,0,0,1-3.2,3.31,9.53,9.53,0,0,1-5.29,1.29,7.12,7.12,0,0,1-5.33-2.07,6.76,6.76,0,0,1-2-5q0-8,5.31-12.6a12.47,12.47,0,0,1,4.21-2.54,13.69,13.69,0,0,1,4.11-.61,7.27,7.27,0,0,1,3.52.75q.66-1.36,1.5-1.36a4.46,4.46,0,0,1,3.13,1.43,4,4,0,0,1,1.48,2.7,33.33,33.33,0,0,1-1.93,3.71,37.42,37.42,0,0,0-.38,6.06q0,3.9,1,3.9,1.22,0,5.92-4.89Q363.8,378,364.17,378ZM342,380.83q0,3.62,2.68,3.62a5.63,5.63,0,0,0,4.75-3.06,9.5,9.5,0,0,0,1.08-2.54,37.64,37.64,0,0,1,.94-9,12.4,12.4,0,0,0-6.63,3.67A10.12,10.12,0,0,0,342,380.83Z"/><path id="_Compound_Path_8" data-name="&lt;Compound Path&gt;" class="cls-2" d="M373.15,389.25q-6.72,0-9.17-5a10.47,10.47,0,0,1-.85-4.49,37.94,37.94,0,0,1,.47-5.76,36.35,36.35,0,0,1,3.62-11.28,21.43,21.43,0,0,1,3.05-4.51q3.71-4.14,8.27-4.09a4.4,4.4,0,0,1,3.17,1.1,4.19,4.19,0,0,1,1.15,3.17,8.19,8.19,0,0,1-1.22,4.16,30.27,30.27,0,0,1-3.13,4.32q-1.9,2.23-4.21,4.68t-4.51,5.31v1.88a5.55,5.55,0,0,0,1.13,3.85,3.48,3.48,0,0,0,2.63,1.22q4,0,7.14-4,1.27-1.64,1.93-1.65t.66,1.6a7,7,0,0,1-.87,3.27,12.31,12.31,0,0,1-5.52,5.33A8.49,8.49,0,0,1,373.15,389.25ZM375.69,364a17.16,17.16,0,0,0,1.55-2.21,4.07,4.07,0,0,0,.56-2q0-1.06-.75-1.06-1.65,0-3.64,3.38a26.9,26.9,0,0,0-3,8.88,49.23,49.23,0,0,1,2.94-4.09Z"/><path id="_Compound_Path_9" data-name="&lt;Compound Path&gt;" class="cls-2" d="M400.22,365.18q0-.85.61-.85a5.13,5.13,0,0,1,1.93.4,12.32,12.32,0,0,0,2.12.63q3.76-8,8.65-10.48a7.51,7.51,0,0,1,3.38-.85q3.15,0,4.25,1.5a6.06,6.06,0,0,1,1.1,3.76,8,8,0,0,1-3.76,6.89,17.49,17.49,0,0,1-9.07,2.8,44.79,44.79,0,0,0-2.12,7.71,13.27,13.27,0,0,1,4.7-.7,9.31,9.31,0,0,0,1.32,4.23,2.63,2.63,0,0,0,2.09,1.27,3.19,3.19,0,0,0,1.93-.56,7.54,7.54,0,0,0,1.36-1.27q.59-.71,1-1.27t.78-.56q.8,0,.8,1.41a7.51,7.51,0,0,1-1.41,4.68,5.08,5.08,0,0,1-4.32,1.86q-4.56,0-6.49-2.4,1,10.34,1,12.31,0,3.53-2.21,5a8,8,0,0,1-4.68,1.27q-2.84,0-3.95-1.29a4.59,4.59,0,0,1-1.1-3.08,83.45,83.45,0,0,1,3.24-22.79,62.6,62.6,0,0,1,2.35-6.86Q400.22,366.4,400.22,365.18ZM406,397.49a3.86,3.86,0,0,0,.47-1.86,83.82,83.82,0,0,0-.89-10,65,65,0,0,0-1.6,9.64q-.1,1-.09,1.27,0,1.79,1.08,1.79Q405.48,398.36,406,397.49Zm10.57-38.8q-.94,0-2.56,1.79a22,22,0,0,0-3.31,5.45,27.51,27.51,0,0,0,4.51-2.3,4.48,4.48,0,0,0,2.21-3.71Q417.38,358.7,416.53,358.7Z"/><path id="_Compound_Path_10" data-name="&lt;Compound Path&gt;" class="cls-2" d="M434,369.27q0-3.15,4.89-3.15,1.22,0,1.53.8a7.29,7.29,0,0,1,.31,2.44,38.26,38.26,0,0,1-1,7.14,34.27,34.27,0,0,0-1,6.53q0,.8.52.8a3,3,0,0,0,1.74-.89q1-.89,2.07-2l1.9-2q.87-.89,1.2-.89.66,0,.66,1.6,0,3.29-3.24,6.35-5.45,3.2-6.91,3.2a.53.53,0,0,1-.24,0,2.72,2.72,0,0,1-2.51-1.18,6.92,6.92,0,0,1-.92-3,9.22,9.22,0,0,1-2.58,3,6.06,6.06,0,0,1-3.76,1.25,9.82,9.82,0,0,1-5.71-1.41,4.79,4.79,0,0,1-2-4.18,7,7,0,0,1,.35-2.26,18,18,0,0,1,1.15-2.54l1.36-11.56a6.71,6.71,0,0,1,4.18-1.13q2.16,0,2.44,2.82a12.08,12.08,0,0,1-.21,4.11q-.45,1.81-1.2,4.56a18.72,18.72,0,0,0-.75,4.86q0,1.69,2.12,1.69,2.3,0,4-4a25.69,25.69,0,0,0,1.79-6.91q0-.38-.07-1l0-1.15q0-.56,0-1.13Zm-4.56-9.52a5.88,5.88,0,0,1-3.38,1.06q-1.83,0-1.86-2a5.43,5.43,0,0,1,1.29-3.62,3.77,3.77,0,0,1,2.91-1.6q1.83,0,3.34,3.34A6.34,6.34,0,0,1,429.45,359.75Zm11.42-4.21q-2,5.26-4.89,5.26a2.23,2.23,0,0,1-1.72-.68,2.18,2.18,0,0,1-.63-1.53,5.26,5.26,0,0,1,1-3.36A2.92,2.92,0,0,1,437,354,4.75,4.75,0,0,1,440.88,355.55Z"/><path id="_Compound_Path_11" data-name="&lt;Compound Path&gt;" class="cls-2" d="M451.31,381.21l.28,5.73a2.54,2.54,0,0,1-1.18,2,5.17,5.17,0,0,1-3.2.89,1.63,1.63,0,0,1-1.62-1.22,10.92,10.92,0,0,1-.45-3.57,46.93,46.93,0,0,1,.49-7.73,20.3,20.3,0,0,1,2-5.66q-2.16-2.07-2.16-3.57,0-3.15,3.38-3.15a3.75,3.75,0,0,1,3.06,1.83,8.3,8.3,0,0,1,1.36,3,4.94,4.94,0,0,0,1.65.23,7.23,7.23,0,0,0,3.15-.89l1.22-.61a2.27,2.27,0,0,1,1-.28q1.36,0,2.73,4-.42,1.83-.92,3.52t-1.15,4.09a17.16,17.16,0,0,0-.68,3.22q0,.82.49.82a3,3,0,0,0,1.74-.89q1-.89,2.07-2l1.9-2q.87-.89,1.2-.89.66,0,.66,1.6a9.56,9.56,0,0,1-2.84,6.39,8.42,8.42,0,0,1-6.51,3.1,3.57,3.57,0,0,1-3.24-1.74,8.15,8.15,0,0,1-1.13-4.23,20.63,20.63,0,0,1,2.21-9.35,6.1,6.1,0,0,1-2.33.42,12.67,12.67,0,0,1-1.86-.09l-.85,3.6A14.84,14.84,0,0,0,451.31,381.21Z"/><path id="_Compound_Path_12" data-name="&lt;Compound Path&gt;" class="cls-2" d="M485.62,365.18q0-.85.61-.85a5.13,5.13,0,0,1,1.93.4,12.32,12.32,0,0,0,2.12.63q3.76-8,8.65-10.48a7.51,7.51,0,0,1,3.38-.85q3.15,0,4.25,1.5a6.06,6.06,0,0,1,1.1,3.76,8,8,0,0,1-3.76,6.89,17.49,17.49,0,0,1-9.07,2.8,44.79,44.79,0,0,0-2.12,7.71,13.27,13.27,0,0,1,4.7-.7,9.31,9.31,0,0,0,1.32,4.23,2.63,2.63,0,0,0,2.09,1.27,3.19,3.19,0,0,0,1.93-.56,7.54,7.54,0,0,0,1.36-1.27q.59-.71,1-1.27t.78-.56q.8,0,.8,1.41a7.51,7.51,0,0,1-1.41,4.68,5.08,5.08,0,0,1-4.32,1.86q-4.56,0-6.49-2.4,1,10.34,1,12.31,0,3.53-2.21,5A8,8,0,0,1,488.6,402q-2.84,0-3.95-1.29a4.59,4.59,0,0,1-1.1-3.08,83.45,83.45,0,0,1,3.24-22.79,62.6,62.6,0,0,1,2.35-6.86Q485.62,366.4,485.62,365.18Zm5.73,32.31a3.86,3.86,0,0,0,.47-1.86,83.82,83.82,0,0,0-.89-10,65,65,0,0,0-1.6,9.64q-.1,1-.09,1.27,0,1.79,1.08,1.79Q490.88,398.36,491.35,397.49Zm10.57-38.8q-.94,0-2.56,1.79a22,22,0,0,0-3.31,5.45,27.51,27.51,0,0,0,4.51-2.3,4.48,4.48,0,0,0,2.21-3.71Q502.77,358.7,501.93,358.7Z"/><path id="_Compound_Path_13" data-name="&lt;Compound Path&gt;" class="cls-2" d="M511.19,381.21l.28,5.73a2.54,2.54,0,0,1-1.18,2,5.17,5.17,0,0,1-3.2.89,1.63,1.63,0,0,1-1.62-1.22,10.92,10.92,0,0,1-.45-3.57,46.93,46.93,0,0,1,.49-7.73,20.3,20.3,0,0,1,2-5.66q-2.16-2.07-2.16-3.57,0-3.15,3.38-3.15a3.75,3.75,0,0,1,3.06,1.83,8.3,8.3,0,0,1,1.36,3,4.94,4.94,0,0,0,1.65.23,7.23,7.23,0,0,0,3.15-.89l1.22-.61a2.27,2.27,0,0,1,1-.28q1.36,0,2.73,4-.42,1.83-.92,3.52t-1.15,4.09a17.16,17.16,0,0,0-.68,3.22q0,.82.49.82a3,3,0,0,0,1.74-.89q1-.89,2.07-2l1.9-2q.87-.89,1.2-.89.66,0,.66,1.6a9.56,9.56,0,0,1-2.84,6.39,8.42,8.42,0,0,1-6.51,3.1,3.57,3.57,0,0,1-3.24-1.74,8.15,8.15,0,0,1-1.13-4.23,20.63,20.63,0,0,1,2.21-9.35,6.1,6.1,0,0,1-2.33.42,12.67,12.67,0,0,1-1.86-.09l-.85,3.6A14.84,14.84,0,0,0,511.19,381.21Z"/><path id="_Compound_Path_14" data-name="&lt;Compound Path&gt;" class="cls-2" d="M554.66,378q.85,0,.85,2.16a5.87,5.87,0,0,1-1,2.84,12.65,12.65,0,0,1-2.56,3.05,14.46,14.46,0,0,1-3.5,2.28,8.9,8.9,0,0,1-3.76.89q-2.49,0-3.34-4.37a10.25,10.25,0,0,1-3.2,3.31,9.53,9.53,0,0,1-5.29,1.29,7.12,7.12,0,0,1-5.33-2.07,6.76,6.76,0,0,1-2-5q0-8,5.31-12.6a12.47,12.47,0,0,1,4.21-2.54,13.69,13.69,0,0,1,4.11-.61,7.27,7.27,0,0,1,3.52.75q.66-1.36,1.5-1.36a4.46,4.46,0,0,1,3.13,1.43,4,4,0,0,1,1.48,2.7,33.33,33.33,0,0,1-1.93,3.71,37.42,37.42,0,0,0-.38,6.06q0,3.9,1,3.9,1.22,0,5.92-4.89Q554.28,378,554.66,378Zm-22.18,2.82q0,3.62,2.68,3.62a5.63,5.63,0,0,0,4.75-3.06,9.5,9.5,0,0,0,1.08-2.54,37.64,37.64,0,0,1,.94-9,12.4,12.4,0,0,0-6.63,3.67A10.12,10.12,0,0,0,532.48,380.83Z"/><path id="_Compound_Path_15" data-name="&lt;Compound Path&gt;" class="cls-2" d="M559.41,365.65q1.69,0,3.2,3.24A8.27,8.27,0,0,1,573,368a5.08,5.08,0,0,1,1.65,4,21.42,21.42,0,0,1-.68,5.29q-.68,2.68-1,3.83a7.69,7.69,0,0,0-.31,1.9q0,.75.52.75a3,3,0,0,0,1.74-.89q1-.89,2.07-2l1.9-2q.87-.89,1.2-.89.66,0,.66,1.6,0,3.29-3.24,6.35-5.45,3.2-7,3.2a.28.28,0,0,1-.19,0q-3.76,0-3.76-6a21.34,21.34,0,0,1,.49-4.75q.49-2.16.73-3.15a8.72,8.72,0,0,0,.23-2q0-1.69-2-1.69t-3.71,2.89a18.21,18.21,0,0,0-2.37,6v.33a11.72,11.72,0,0,0,.49,3.29,10.11,10.11,0,0,1,.49,2.35q0,1.6-4,3.15a3.08,3.08,0,0,1-1.08.23,1.63,1.63,0,0,1-1.62-1.22,11.9,11.9,0,0,1-.45-3.81,62.76,62.76,0,0,1,.52-9.64,20.88,20.88,0,0,1,3.2-8.23A2.32,2.32,0,0,1,559.41,365.65Z"/><path id="_Compound_Path_16" data-name="&lt;Compound Path&gt;" class="cls-2" d="M592.12,378.81q1.27,5,4.28,5a4.24,4.24,0,0,0,2.63-.89,14.84,14.84,0,0,0,2.12-2q.94-1.06,1.65-2t1.32-.89q.61,0,.61,1.6,0,3.34-3.1,6.44a9.51,9.51,0,0,1-6.93,3.08q-3.83,0-6.84-6.74-.85-1.88-1.6-3.81l-.33,6.44a16.43,16.43,0,0,1-.09,1.76,2.06,2.06,0,0,1-.8,1.43,6,6,0,0,1-3.71,1.46q-2.21,0-2.21-4.56a65.32,65.32,0,0,1,1.55-13.77,69.75,69.75,0,0,1,3-10.83,31.27,31.27,0,0,1,2.3-4.86,5.42,5.42,0,0,1,1.29-1.5,2,2,0,0,1,1.06-.28,1.93,1.93,0,0,1,1.25.59,8.44,8.44,0,0,1,1.41,1.79,4.61,4.61,0,0,1,.78,2.35,6.22,6.22,0,0,1-.38,2.26,11.48,11.48,0,0,1-1.06,2.16q-.66,1.06-1.46,2.16t-1.6,2.37l-.47,3.95a8.58,8.58,0,0,1,4.84-4.61,7.47,7.47,0,0,1,2.63-.42,6.68,6.68,0,0,1,4.61,1.43,5.36,5.36,0,0,1,1.6,4.21,5.62,5.62,0,0,1-2.77,4.7A9.44,9.44,0,0,1,592.12,378.81Zm1.79-5.5q0-1.69-1.93-1.69t-4.18,3.71a16.16,16.16,0,0,0-1.13,2.21q4.89-.28,6.67-2.63A2.62,2.62,0,0,0,593.9,373.31Z"/><path id="_Compound_Path_17" data-name="&lt;Compound Path&gt;" class="cls-2" d="M621.35,385.11a11.32,11.32,0,0,1-8.91,4.37q-5.19,0-7.78-2.66a8.93,8.93,0,0,1-2.54-6.6,13.88,13.88,0,0,1,3.53-9.64,11.89,11.89,0,0,1,9.35-4,11.3,11.3,0,0,1,4.23.66q2.77,1.13,2.77,2.11,0,.75-3.88.78a8.81,8.81,0,0,0-6.49,2.68,9.17,9.17,0,0,0-2.61,6.7,5.22,5.22,0,0,0,1.25,3.55,4.42,4.42,0,0,0,3.52,1.43,7,7,0,0,0,3.78-.94,7.4,7.4,0,0,1-3.34-6.53,5.82,5.82,0,0,1,1.62-4.11,5.56,5.56,0,0,1,4.28-1.88,4.39,4.39,0,0,1,3.74,1.43,5.93,5.93,0,0,1,1.13,3.74,12.31,12.31,0,0,1-1.08,4.82h.28a5.23,5.23,0,0,0,3.57-1.46l1-1a1.15,1.15,0,0,1,.82-.42q.66,0,.66,1.55a5.32,5.32,0,0,1-1.69,4.3,5.65,5.65,0,0,1-3.74,1.43A18,18,0,0,1,621.35,385.11Zm-.42-5.45a7.69,7.69,0,0,0,.8-3.29q0-1.6-1-1.6-.42,0-.71.61a2.8,2.8,0,0,0-.28,1.18A4.2,4.2,0,0,0,620.93,379.66Z"/><path id="_Compound_Path_18" data-name="&lt;Compound Path&gt;" class="cls-2" d="M636.77,369.41a8,8,0,0,1,6.25-2.77q5.45,0,6.91,4.42a9.5,9.5,0,0,1,.42,2.91,12.56,12.56,0,0,1-2.33,7,11.68,11.68,0,0,1-5.62,4.7H643a11.91,11.91,0,0,0,7-2.54,15.88,15.88,0,0,0,3.55-3.31q1.29-1.72,2-1.72t.66,1.5a8.3,8.3,0,0,1-2.26,5.31,13.31,13.31,0,0,1-8.65,4.51,21.71,21.71,0,0,1-5.41.14,9.27,9.27,0,0,1-2.44-.71,3,3,0,0,1-1.83-2.82,4.15,4.15,0,0,1,.42-1.88,6.4,6.4,0,0,0,5.64-2.82,12.21,12.21,0,0,0,1.93-7,2.68,2.68,0,0,0-.75-1.86,2.58,2.58,0,0,0-2-.82,4.65,4.65,0,0,0-2.7,1.08,8.07,8.07,0,0,0-2.33,2.7q-.87,1.62-1.57,3.2a17.1,17.1,0,0,0-1.13,4q-.75,4.32-1.72,10.93a71.2,71.2,0,0,1-1.2,7.1,3,3,0,0,1-.71.92,1.46,1.46,0,0,1-1,.42,2.2,2.2,0,0,1-1.55-.56,7,7,0,0,1-2-2.23,5.94,5.94,0,0,1-.28-2,75.65,75.65,0,0,1,1.55-12.92A83.81,83.81,0,0,1,631.5,367a2,2,0,0,1,2-1.32q1.43,0,2.75,2.54A4.9,4.9,0,0,1,636.77,369.41Z"/><path id="_Compound_Path_19" data-name="&lt;Compound Path&gt;" class="cls-2" d="M669.39,373.31q0-1.69-2-1.69t-3.92,3.08a16.22,16.22,0,0,0-2.4,6.27l.19,2.16q.09,1.08.09,2.12a3.5,3.5,0,0,1-1.65,3.38l-1.43.8a3.21,3.21,0,0,1-1.57.38q-.89,0-1.57-1.2a7.84,7.84,0,0,1-.68-3.74,64.1,64.1,0,0,1,1-12.31,66.16,66.16,0,0,1,6.35-17.3,2,2,0,0,1,1.93-1.25q1.27,0,2.07,1.76a7,7,0,0,1,.78,2.91,8,8,0,0,1-.38,2.28,14.38,14.38,0,0,1-.89,2.16q-.54,1.06-1.22,2.16t-1.34,2.37l-.71,3.38A9,9,0,0,1,667,367a7.86,7.86,0,0,1,2.49-.38,7.18,7.18,0,0,1,4.84,1.43,5.08,5.08,0,0,1,1.65,4,21.4,21.4,0,0,1-.68,5.29q-.68,2.68-1,3.83a7.71,7.71,0,0,0-.31,1.9q0,.75.52.75a3,3,0,0,0,1.74-.89q1-.89,2.07-2l1.9-2q.87-.89,1.2-.89.66,0,.66,1.6,0,3.29-3.24,6.35-5.45,3.2-7,3.2a.28.28,0,0,1-.19,0q-3.76,0-3.76-6a21.34,21.34,0,0,1,.49-4.75q.49-2.16.73-3.15A8.72,8.72,0,0,0,669.39,373.31Z"/><path id="_Compound_Path_20" data-name="&lt;Compound Path&gt;" class="cls-2" d="M698.71,385.11a11.32,11.32,0,0,1-8.91,4.37q-5.19,0-7.78-2.66a8.93,8.93,0,0,1-2.54-6.6,13.88,13.88,0,0,1,3.53-9.64,11.89,11.89,0,0,1,9.35-4,11.3,11.3,0,0,1,4.23.66q2.77,1.13,2.77,2.11,0,.75-3.88.78a8.81,8.81,0,0,0-6.49,2.68,9.17,9.17,0,0,0-2.61,6.7,5.22,5.22,0,0,0,1.25,3.55,4.42,4.42,0,0,0,3.52,1.43,7,7,0,0,0,3.78-.94,7.4,7.4,0,0,1-3.34-6.53,5.82,5.82,0,0,1,1.62-4.11,5.56,5.56,0,0,1,4.28-1.88,4.39,4.39,0,0,1,3.74,1.43,5.93,5.93,0,0,1,1.13,3.74A12.31,12.31,0,0,1,701.3,381h.28a5.23,5.23,0,0,0,3.57-1.46l1-1a1.15,1.15,0,0,1,.82-.42q.66,0,.66,1.55a5.32,5.32,0,0,1-1.69,4.3,5.65,5.65,0,0,1-3.74,1.43A18,18,0,0,1,698.71,385.11Zm-.42-5.45a7.69,7.69,0,0,0,.8-3.29q0-1.6-1-1.6-.42,0-.71.61a2.8,2.8,0,0,0-.28,1.18A4.2,4.2,0,0,0,698.29,379.66Z"/><path id="_Compound_Path_21" data-name="&lt;Compound Path&gt;" class="cls-2" d="M711.5,365.65q1.69,0,3.2,3.24a8.27,8.27,0,0,1,10.39-.87,5.08,5.08,0,0,1,1.65,4,21.42,21.42,0,0,1-.68,5.29q-.68,2.68-1,3.83a7.69,7.69,0,0,0-.31,1.9q0,.75.52.75a3,3,0,0,0,1.74-.89q1-.89,2.07-2l1.9-2q.87-.89,1.2-.89.66,0,.66,1.6,0,3.29-3.24,6.35-5.45,3.2-7,3.2a.28.28,0,0,1-.19,0q-3.76,0-3.76-6a21.34,21.34,0,0,1,.49-4.75q.49-2.16.73-3.15a8.72,8.72,0,0,0,.23-2q0-1.69-2-1.69t-3.71,2.89a18.21,18.21,0,0,0-2.37,6v.33a11.72,11.72,0,0,0,.49,3.29,10.11,10.11,0,0,1,.49,2.35q0,1.6-4,3.15a3.08,3.08,0,0,1-1.08.23,1.63,1.63,0,0,1-1.62-1.22,11.9,11.9,0,0,1-.45-3.81,62.76,62.76,0,0,1,.52-9.64,20.88,20.88,0,0,1,3.2-8.23A2.32,2.32,0,0,1,711.5,365.65Z"/><path id="_Compound_Path_22" data-name="&lt;Compound Path&gt;" class="cls-2" d="M741.44,384a10.88,10.88,0,0,0,7.1-2.91,19.71,19.71,0,0,0,2.07-2q.8-.92,1.22-.92.66,0,.66,1.32a7.47,7.47,0,0,1-.7,2.94,9.85,9.85,0,0,1-2.35,3.17q-4,3.81-11.09,3.81-5.59,0-7.61-4a9.26,9.26,0,0,1-.71-4,16,16,0,0,1,1-5.48,16.36,16.36,0,0,1,2.75-4.91,12.56,12.56,0,0,1,4-3.22,10.46,10.46,0,0,1,4.82-1.15,5.64,5.64,0,0,1,3.95,1.27,4.26,4.26,0,0,1,1.39,3.29,5.22,5.22,0,0,1-1,3.31,8.28,8.28,0,0,1-2.61,2.16,23.85,23.85,0,0,1-3.55,1.55q-2,.68-3.83,1.53v1.17a2.57,2.57,0,0,0,1.41,2.4A7.07,7.07,0,0,0,741.44,384Zm-.8-13.25q-2.44,0-3.38,5.69,1-.66,1.86-1.18t1.53-1a3.07,3.07,0,0,0,1.46-2.35Q742.09,370.73,740.64,370.73Z"/><path id="_Compound_Path_23" data-name="&lt;Compound Path&gt;" class="cls-2" d="M815.18,378q.8,0,.8,2.16a5.88,5.88,0,0,1-1,2.84,12.66,12.66,0,0,1-2.56,3.05,14.47,14.47,0,0,1-3.5,2.28,9.55,9.55,0,0,1-4.07.89,4.17,4.17,0,0,1-3.34-1.39,4.62,4.62,0,0,1-1.2-3.1,15.54,15.54,0,0,1,.56-3.88q.56-2.16,1.22-4.51a40.71,40.71,0,0,0,1.83-8.79,4,4,0,0,0-.28-1.67,1.08,1.08,0,0,0-1.08-.59,4.4,4.4,0,0,0-3,1.69,20.06,20.06,0,0,0-3,4.32,26.55,26.55,0,0,0-3.43,11.75l.19,1.32a10.1,10.1,0,0,1,.09,1.41,3.58,3.58,0,0,1-1.48,2.75,5,5,0,0,1-3.31,1.25,1.69,1.69,0,0,1-1.6-1.06,5.9,5.9,0,0,1-.52-2.61,17.74,17.74,0,0,1,.71-4.23q.71-2.68,1.55-5.69,2.26-7.94,2.3-11.84a7.93,7.93,0,0,0-.49-3.1,1.88,1.88,0,0,0-1.9-1.13q-2.54,0-5,3.62T779.18,375q-.52,2-.8,3.43l0,.89a36.83,36.83,0,0,1,.89,5.64q0,2.73-1.93,3.67l-1.72.8a4.19,4.19,0,0,1-1.76.38q-2.35,0-2.35-4.49T774,367.77q.89-4.7.89-5.26,0-3.81-1.93-3.81a2.05,2.05,0,0,0-1.2.38q-.54.38-1.08.8t-1.1.8a2.27,2.27,0,0,1-1.29.38q-.73,0-.73-1.27a5,5,0,0,1,2.4-4.23,9.18,9.18,0,0,1,5.59-1.69q4.23,0,5,3.95.19,1.17.28,2.49,3.48-6.53,8.79-6.53,5.78,0,6.63,5.55a17.21,17.21,0,0,1,.23,3.43v.38q3.05-4.23,7.24-4.23,5.92,0,5.92,7.14a32.81,32.81,0,0,1-1,7.26q-1,4.16-1.41,6a12.6,12.6,0,0,0-.45,2.8q0,1.79,1.25,1.79T814,379Q814.8,378,815.18,378Z"/><path id="_Compound_Path_24" data-name="&lt;Compound Path&gt;" class="cls-2" d="M828.24,369.27q0-3.15,4.89-3.15,1.22,0,1.53.8a7.29,7.29,0,0,1,.31,2.44,38.26,38.26,0,0,1-1,7.14,34.27,34.27,0,0,0-1,6.53q0,.8.52.8a3,3,0,0,0,1.74-.89q1-.89,2.07-2l1.9-2q.87-.89,1.2-.89.66,0,.66,1.6,0,3.29-3.24,6.35-5.45,3.2-6.91,3.2a.53.53,0,0,1-.24,0,2.72,2.72,0,0,1-2.51-1.18,6.92,6.92,0,0,1-.92-3,9.22,9.22,0,0,1-2.58,3,6.06,6.06,0,0,1-3.76,1.25,9.82,9.82,0,0,1-5.71-1.41,4.79,4.79,0,0,1-2-4.18,7,7,0,0,1,.35-2.26,18,18,0,0,1,1.15-2.54L816,367.39a6.71,6.71,0,0,1,4.18-1.13q2.16,0,2.44,2.82a12.08,12.08,0,0,1-.21,4.11q-.45,1.81-1.2,4.56a18.72,18.72,0,0,0-.75,4.86q0,1.69,2.12,1.69,2.3,0,4-4a25.69,25.69,0,0,0,1.79-6.91q0-.38-.07-1l0-1.15q0-.56,0-1.13Z"/><path id="_Compound_Path_25" data-name="&lt;Compound Path&gt;" class="cls-2" d="M849.39,366.33a7.54,7.54,0,0,1,4.7,1.17,4.08,4.08,0,0,1,1.55,3.43,5.68,5.68,0,0,1-1.34,3.81A7.32,7.32,0,0,1,851,377a31.67,31.67,0,0,1,2.47,2.87,5,5,0,0,1,1.1,3.05,5.56,5.56,0,0,1-2.49,4.86,12.09,12.09,0,0,1-6.93,1.72q-4.44,0-6.65-1.76a5.07,5.07,0,0,1-2.21-4,7.73,7.73,0,0,1,1.1-4.07q1.1-1.83,2.37-1.83a1.17,1.17,0,0,1,1.08.54,23.28,23.28,0,0,1,1.22,3.13,5.35,5.35,0,0,0,1.08,1.79q1.74,1.93,5.5,1.93a7.72,7.72,0,0,0-1.81-3.08q-1.25-1.29-2.47-2.51a17.76,17.76,0,0,1-2.16-2.61,5.68,5.68,0,0,1-.94-3.27,6.82,6.82,0,0,1,2.54-5.5A8.85,8.85,0,0,1,849.39,366.33Zm-.19,8.72q1.88-2,1.88-3.24a1.45,1.45,0,0,0-1.55-1.46,5.38,5.38,0,0,0-1.43.19l-1.1.28Q847,372.61,849.2,375.05Z"/><path id="_Compound_Path_26" data-name="&lt;Compound Path&gt;" class="cls-2" d="M863.16,389.25q-4.7,0-4.7-8.79a30.07,30.07,0,0,1,1.17-8.69q1.83-6,4.14-6,1.36,0,2.16,1.83a6,6,0,0,1,.61,2.77,34.1,34.1,0,0,1-1.13,6.63,30.29,30.29,0,0,0-1.08,5.12,1.62,1.62,0,0,0,.49,1.36,1.88,1.88,0,0,0,1.18.38,3,3,0,0,0,1.72-.89q1-.89,2.07-2l1.9-2q.87-.89,1.2-.89.66,0,.66,1.6,0,3.29-3.31,6.42A10,10,0,0,1,863.16,389.25Zm1.93-27.31a7.09,7.09,0,0,1-1.27-4,8.36,8.36,0,0,1,.68-3.6,9.1,9.1,0,0,1,1.29-2.11,1.85,1.85,0,0,1,1.41-.68q1.32,0,2.4,2a7.13,7.13,0,0,1,1.08,3.27,4.65,4.65,0,0,1-1.72,3.83A6,6,0,0,1,865.09,361.94Z"/><path id="_Compound_Path_27" data-name="&lt;Compound Path&gt;" class="cls-2" d="M884.92,378.81q1.27,5,4.28,5a4.24,4.24,0,0,0,2.63-.89,14.84,14.84,0,0,0,2.12-2q.94-1.06,1.65-2t1.32-.89q.61,0,.61,1.6,0,3.34-3.1,6.44a9.51,9.51,0,0,1-6.93,3.08q-3.83,0-6.84-6.74-.85-1.88-1.6-3.81l-.33,6.44a16.43,16.43,0,0,1-.09,1.76,2.06,2.06,0,0,1-.8,1.43,6,6,0,0,1-3.71,1.46q-2.21,0-2.21-4.56a65.32,65.32,0,0,1,1.55-13.77,69.75,69.75,0,0,1,3-10.83,31.27,31.27,0,0,1,2.3-4.86,5.42,5.42,0,0,1,1.29-1.5,2,2,0,0,1,1.06-.28,1.93,1.93,0,0,1,1.25.59,8.44,8.44,0,0,1,1.41,1.79,4.61,4.61,0,0,1,.78,2.35,6.22,6.22,0,0,1-.38,2.26,11.48,11.48,0,0,1-1.06,2.16q-.66,1.06-1.46,2.16t-1.6,2.37l-.47,3.95a8.58,8.58,0,0,1,4.84-4.61,7.47,7.47,0,0,1,2.63-.42,6.68,6.68,0,0,1,4.61,1.43,5.36,5.36,0,0,1,1.6,4.21,5.62,5.62,0,0,1-2.77,4.7A9.44,9.44,0,0,1,884.92,378.81Zm1.79-5.5q0-1.69-1.93-1.69t-4.18,3.71a16.16,16.16,0,0,0-1.13,2.21q4.89-.28,6.67-2.63A2.62,2.62,0,0,0,886.71,373.31Z"/></g><g id="_Group_3" data-name="&lt;Group&gt;"><g id="_Group_4" data-name="&lt;Group&gt;"><path id="_Path_" data-name="&lt;Path&gt;" class="cls-3" d="M433.07,229.71a25.87,25.87,0,0,0-18.22-7.48,24.7,24.7,0,0,0-9.9,2,25.71,25.71,0,0,0-13.59,13.58,25.49,25.49,0,0,0,0,19.8A25.71,25.71,0,0,0,405,271.21a24.65,24.65,0,0,0,9.9,2,25.86,25.86,0,0,0,18.22-7.48,25.85,25.85,0,0,0,5.48-8.11,25.49,25.49,0,0,0,0-19.8A25.88,25.88,0,0,0,433.07,229.71Z"/><path id="_Compound_Path_28" data-name="&lt;Compound Path&gt;" class="cls-4" d="M444.67,218.11a42.27,42.27,0,0,0-29.82-12.28,41.1,41.1,0,0,0-16.41,3.35,42.11,42.11,0,0,0-22.14,22.14,41.89,41.89,0,0,0,0,32.82,42.1,42.1,0,0,0,22.15,22.14,41,41,0,0,0,16.39,3.34,42,42,0,0,0,38.76-25.49,41.88,41.88,0,0,0,0-32.81A42.32,42.32,0,0,0,444.67,218.11Zm-6.13,39.51a25.85,25.85,0,0,1-5.48,8.11,25.86,25.86,0,0,1-18.22,7.48,24.65,24.65,0,0,1-9.9-2,25.71,25.71,0,0,1-13.59-13.58,25.49,25.49,0,0,1,0-19.8A25.71,25.71,0,0,1,405,224.24a24.7,24.7,0,0,1,9.9-2,25.87,25.87,0,0,1,18.22,7.48,25.88,25.88,0,0,1,5.48,8.11,25.49,25.49,0,0,1,0,19.8Z"/><path id="_Compound_Path_29" data-name="&lt;Compound Path&gt;" class="cls-5" d="M486.25,217.81a79.05,79.05,0,0,0-16.53-24.33,77.15,77.15,0,0,0-24.43-16.43,77.51,77.51,0,0,0-59.82,0,76.58,76.58,0,0,0-40.86,40.86,77,77,0,0,0,0,59.61A77.14,77.14,0,0,0,361,302a78.61,78.61,0,0,0,24.43,16.53,73.76,73.76,0,0,0,29.8,6.11,75.61,75.61,0,0,0,29.91-6,76.86,76.86,0,0,0,24.54-16.43,78.65,78.65,0,0,0,16.53-24.43,76.54,76.54,0,0,0,0-59.92Zm-15,53.36a61.82,61.82,0,0,1-13.1,19.39,60.92,60.92,0,0,1-19.36,12.93,58.85,58.85,0,0,1-23.48,4.69A57,57,0,0,1,392,303.45a62.6,62.6,0,0,1-19.39-13.1,60.34,60.34,0,0,1-13-19.29,60.59,60.59,0,0,1,0-46.68,61.19,61.19,0,0,1,13-19.3,60.33,60.33,0,0,1,19.29-12.95,61.11,61.11,0,0,1,46.89,0,61.2,61.2,0,0,1,19.29,12.95,62.19,62.19,0,0,1,13.12,19.33,56.78,56.78,0,0,1,4.72,23.3A57.52,57.52,0,0,1,471.21,271.18Z"/><path id="_Compound_Path_30" data-name="&lt;Compound Path&gt;" class="cls-6" d="M458.11,205.09a61.2,61.2,0,0,0-19.29-12.95,61.11,61.11,0,0,0-46.89,0,60.33,60.33,0,0,0-19.29,12.95,61.19,61.19,0,0,0-13,19.3,60.59,60.59,0,0,0,0,46.68,60.34,60.34,0,0,0,13,19.29A62.6,62.6,0,0,0,392,303.45a57,57,0,0,0,23.24,4.74,58.85,58.85,0,0,0,23.48-4.69,60.92,60.92,0,0,0,19.36-12.93,61.82,61.82,0,0,0,13.1-19.39A57.52,57.52,0,0,0,476,247.72a56.78,56.78,0,0,0-4.72-23.3A62.19,62.19,0,0,0,458.11,205.09Zm-4.51,59a42.12,42.12,0,0,1-38.76,25.49,41,41,0,0,1-16.39-3.34,42.1,42.1,0,0,1-22.15-22.14,41.89,41.89,0,0,1,0-32.82,42.11,42.11,0,0,1,22.14-22.14,41.1,41.1,0,0,1,16.41-3.35,42,42,0,0,1,38.76,25.49,41.88,41.88,0,0,1,0,32.81Z"/></g><path id="_Compound_Path_31" data-name="&lt;Compound Path&gt;" class="cls-2" d="M159.5,299.91V195.74h72.43v27.87H195v11.77h32.64v24.89H195v39.64Z"/><path id="_Compound_Path_32" data-name="&lt;Compound Path&gt;" class="cls-2" d="M247,299.91V195.74h46.2q17.88,0,28,8.49t10.13,23.4a27.87,27.87,0,0,1-4,14.61,25.71,25.71,0,0,1-12.22,10.28l21.46,47.39H297.21L281.26,257v42.92Zm34.28-63.34a54.92,54.92,0,0,0,5.51.37,21.68,21.68,0,0,0,5.81-.6,9.9,9.9,0,0,0,4.55-2.46,7.11,7.11,0,0,0,1.86-5.37,7,7,0,0,0-1.71-5.14,8.71,8.71,0,0,0-4.25-2.31,22.94,22.94,0,0,0-5.74-.52q-3.21.08-6,.22Z"/><path id="_Compound_Path_33" data-name="&lt;Compound Path&gt;" class="cls-2" d="M504.07,299.91V195.74h33.38l24.44,48v-48h35V299.91H562.79L538.5,252.22v47.69Z"/><path id="_Compound_Path_34" data-name="&lt;Compound Path&gt;" class="cls-2" d="M631.64,299.91v-76.3H611.37V195.74H688v27.87H667.7v76.3Z"/><path id="_Compound_Path_35" data-name="&lt;Compound Path&gt;" class="cls-2" d="M688.27,299.91l29.81-104.17h41.13l29.66,104.17H753.25L748.92,281H726l-4.77,18.93Zm41.43-44H745l-7.45-32.49Z"/><path id="_Compound_Path_36" data-name="&lt;Compound Path&gt;" class="cls-2" d="M799.74,299.91V195.74h35.17v76.75h28.76v27.42Z"/><path id="_Compound_Path_37" data-name="&lt;Compound Path&gt;" class="cls-2" d="M878.58,299.91V195.74H952.5v27.87h-38.3v12.07h34v25h-34v11.77h38.3v27.42Z"/><path id="_Compound_Path_38" data-name="&lt;Compound Path&gt;" class="cls-2" d="M729.7,185.76H712l17.29-22.35h16.84l17.14,22.35H745.65l-7.9-11.33Z"/></g></g></g></svg>