<svg id="Capa_1" data-name="Capa 1" xmlns="http://www.w3.org/2000/svg" viewBox="0 0 64 64"><defs><style>.cls-1{fill:none;stroke:#ffffff;stroke-linecap:round;stroke-linejoin:round;stroke-width:2px;}</style></defs><title>line-27 copy</title><path id="path50" class="cls-1" d="M32,59.63h0l11-34H21l11,34Z"/><path id="path66" class="cls-1" d="M5.47,25.63h0L2.11,36a2.3,2.3,0,0,0,.83,2.56L32,59.63l-26.52-34Z"/><path id="path74" class="cls-1" d="M5.47,25.63H21L14.31,5.15a1.15,1.15,0,0,0-2.18,0L5.47,25.63Z"/><path id="path82" class="cls-1" d="M58.53,25.63h0L61.89,36a2.3,2.3,0,0,1-.83,2.56L32,59.63l26.52-34Z"/><path id="path86" class="cls-1" d="M58.53,25.63H43L49.69,5.15a1.15,1.15,0,0,1,2.18,0l6.66,20.48Z"/></svg>
